<svg id="alpha" xmlns="http://www.w3.org/2000/svg" width="77.65" height="77.65" viewBox="0 0 77.65 77.65">
  <path id="Path_2656" data-name="Path 2656" d="M56.021,2.129h13.6L61.373,39.176C59.787,46.221,58.7,50.53,58.1,52.142q3.194,14.7,9.307,14.691,7.2,0,7.456-9.99H77.65c-.164,6.2-1.283,11.222-3.387,15.07q-3.156,5.734-8.271,5.731a6.885,6.885,0,0,1-6.306-3.437c-1.365-2.294-2.869-6.988-4.448-14.059q-8.312,17.487-27.164,17.5c-8.6,0-15.4-3.355-20.479-10.047Q.013,57.557,0,38.847,0,20.46,8.3,10.236,16.618,0,28.282,0A17.387,17.387,0,0,1,41.8,5.845q5.279,5.82,9.339,19.026L56.021,2.129ZM48.976,33.5c-2.483-8.543-5.3-15.234-8.379-20.068q-4.625-7.2-11.083-7.21-14.615,0-14.609,34.209,0,32.472,13.977,32.459,12.122,0,17.939-28.668L48.976,33.5Z" fill="#23b0bb"/>
</svg>
