<svg xmlns="http://www.w3.org/2000/svg" width="36.206" height="78" viewBox="0 0 36.206 78">
  <path id="Shape_3" data-name="Shape 3" d="M32.284,20.77a12.09,12.09,0,0,1-1.648,2.478,17.488,17.488,0,0,1-1.612,1.714c-.752.663-1.588,1.242-2.388,1.857-.042.03-.084.066-.125.1A1.448,1.448,0,0,0,26.63,27c.794.406,1.618.77,2.376,1.236a21.227,21.227,0,0,1,2.442,1.731,18.13,18.13,0,0,1,2.006,2,18.539,18.539,0,0,1,1.5,2.03,11.09,11.09,0,0,1,1.337,2.818c.269.878.519,1.761.71,2.663a12.785,12.785,0,0,1,.185,1.863c.042.746.084,1.5.054,2.245-.03.782-.149,1.564-.227,2.346a15.885,15.885,0,0,1-.848,3.648,14.2,14.2,0,0,1-1.415,3.057c-.621.967-1.2,1.97-1.893,2.884a20.484,20.484,0,0,1-2.125,2.311,12.87,12.87,0,0,1-3.206,2.2,14.167,14.167,0,0,1-3.761,1.29c-.74.137-1.493.239-2.239.364a16.578,16.578,0,0,1-3.648.1,11.115,11.115,0,0,1-3.958-.949,10.852,10.852,0,0,1-2.908-1.839c-.412-.37-.806-.752-1.2-1.14a3.082,3.082,0,0,1-.263-.4.618.618,0,0,0-.125-.066c-.018.036-.054.078-.048.113.012.173.054.346.054.513,0,3.009.006,6.012,0,9.015-.006.6-.03,1.2-.06,1.8-.03.633-.06,1.26-.125,1.893-.084.872-.191,1.749-.293,2.621-.078.657-.137,1.313-.245,1.958-.119.752-.269,1.5-.424,2.245-.078.388-.191.776-.287,1.164a.384.384,0,0,1-.424.358c-2.06-.012-4.12-.006-6.179-.006-.239,0-.412.006-.328-.34.161-.663.281-1.337.412-2.006.1-.5.173-1,.251-1.511.1-.645.209-1.29.3-1.934.072-.573.119-1.146.179-1.714.084-.788.161-1.57.239-2.352a.449.449,0,0,0,0-.09c.018-.8.06-1.594.06-2.394q0-23.759.006-47.525c0-.639.024-1.284.06-1.922.024-.573.048-1.146.119-1.714.161-1.2.358-2.4.531-3.6a10.484,10.484,0,0,1,.848-2.812,9.4,9.4,0,0,1,1.427-2.3c.46-.525.89-1.081,1.4-1.558A16.308,16.308,0,0,1,9.841,3.05a15.477,15.477,0,0,1,4.173-1.6c.543-.131,1.111-.161,1.66-.245A20.987,20.987,0,0,1,19.447,1.1,14.9,14.9,0,0,1,21.8,1.39c.83.161,1.66.358,2.472.6A13.642,13.642,0,0,1,29,4.459a17.139,17.139,0,0,1,1.887,1.714A9.975,9.975,0,0,1,33.018,9.88a10.994,10.994,0,0,1,.591,2.8,26.049,26.049,0,0,1,.1,2.728,12.528,12.528,0,0,1-.908,4.185c-.161.388-.334.776-.519,1.176M18.653,29.027c-.651-.06-1.308-.1-1.952-.185a2.659,2.659,0,0,1-1.749-.9,1.716,1.716,0,0,1,.4-2.561,3.807,3.807,0,0,1,2.012-.531c.842.006,1.684.036,2.52.125a21.323,21.323,0,0,1,2.1.394c.49.107.967.257,1.463.358a.479.479,0,0,0,.358-.137,1.327,1.327,0,0,0,.2-.364,22.427,22.427,0,0,0,1.8-4.358,21.1,21.1,0,0,0,.806-4.585,29.357,29.357,0,0,0-.054-3.075,17.112,17.112,0,0,0-.239-1.9A10.58,10.58,0,0,0,25.5,8.668a8.716,8.716,0,0,0-1.827-2.609A8.739,8.739,0,0,0,22.283,5.02,6.645,6.645,0,0,0,18.9,3.963a10.2,10.2,0,0,0-2.215.125,8.406,8.406,0,0,0-1.94.561,8.05,8.05,0,0,0-3,2.323,8.3,8.3,0,0,0-1.6,2.926,17.286,17.286,0,0,0-.591,3.57c-.066.722-.119,1.439-.119,2.161q-.009,18.9,0,37.787a.846.846,0,0,0,.119.454,14.333,14.333,0,0,0,1.893,2.352,9.877,9.877,0,0,0,3.176,2.12,9.609,9.609,0,0,0,3.29.7,19.312,19.312,0,0,0,1.946-.054,5.948,5.948,0,0,0,1.17-.125,8.832,8.832,0,0,0,2.675-.949,12.947,12.947,0,0,0,1.6-1.111,8.033,8.033,0,0,0,1.755-2.1,15.256,15.256,0,0,0,1.3-2.687,16.212,16.212,0,0,0,.955-3.929c.084-.836.209-1.666.227-2.5.018-.949-.042-1.9-.113-2.842a20.786,20.786,0,0,0-.3-2.2c-.185-.955-.4-1.9-.657-2.836a27.682,27.682,0,0,0-1.731-4.561c-.263-.549-.585-1.075-.89-1.606A13.188,13.188,0,0,0,23.525,28.6a.519.519,0,0,0-.4-.149c-.74.131-1.475.346-2.221.448-.722.1-1.463.09-2.251.131" transform="translate(-1.043 -1.066)" fill="#6f9a19"/>
</svg>
