<svg xmlns="http://www.w3.org/2000/svg" width="85" height="65.848" viewBox="0 0 85 65.848">
  <g id="Group_1278" data-name="Group 1278" transform="translate(123.958 9.107)">
    <g id="Group_1280" data-name="Group 1280" transform="translate(-105.767 -9.107)">
      <g id="Group_1279" data-name="Group 1279" transform="translate(0)">
        <path id="Path_2637" data-name="Path 2637" d="M69,45.069V30.8l1.48-3.079,7.4-5.861a1.5,1.5,0,0,1,2.466,1.159V51.029a1.52,1.52,0,0,1-2.5,1.159Z" transform="translate(-32.579 -17.619)" fill="#00ac47"/>
        <path id="Path_2638" data-name="Path 2638" d="M19.941,15,8,26.941H19.941Z" transform="translate(-8 -15)" fill="#ea4335"/>
        <path id="Path_2639" data-name="Path 2639" d="M19.941,35H8V50.524H19.941Z" transform="translate(-8 -23.059)" fill="#2684fc"/>
        <path id="Path_2640" data-name="Path 2640" d="M8,61v7.961a3.992,3.992,0,0,0,3.98,3.98h7.961V61Z" transform="translate(-8 -33.535)" fill="#0066da"/>
        <path id="Path_2641" data-name="Path 2641" d="M53.972,18.935A3.927,3.927,0,0,0,50.076,15H28V26.941H42.628V34.7l11.344-.357Z" transform="translate(-16.059 -15)" fill="#ffba00"/>
        <path id="Path_2642" data-name="Path 2642" d="M42.628,55.762H28V67.7H50.076a3.924,3.924,0,0,0,3.9-3.929V48H42.628Z" transform="translate(-16.059 -28.297)" fill="#00ac47"/>
      </g>
      <path id="Path_2643" data-name="Path 2643" d="M63.844,32V50.509L52.5,41.553Z" transform="translate(-25.931 -21.85)" fill="#00832d"/>
    </g>
    <g id="Group_1277" data-name="Group 1277" transform="translate(-123.958 41.437)">
      <path id="Path_2644" data-name="Path 2644" d="M347.575,37H346.21V26.38h1.365l3.694,6.468h.059l3.694-6.468h1.365V37h-1.365V30.7l.059-1.78h-.059l-3.323,5.83h-.8l-3.323-5.83h-.059l.059,1.78Z" transform="translate(-293.768 -25.46)" fill="#5f6368"/>
      <path id="Path_2645" data-name="Path 2645" d="M400.2,47.564a3.477,3.477,0,0,1-2.641-1.1,3.876,3.876,0,0,1-1.038-2.774,3.922,3.922,0,0,1,1.009-2.759,3.328,3.328,0,0,1,2.581-1.113,3.283,3.283,0,0,1,2.566,1.053,4.134,4.134,0,0,1,.964,2.923l-.015.148h-5.711a2.368,2.368,0,0,0,.712,1.721,2.3,2.3,0,0,0,3.679-.653l1.216.593a3.61,3.61,0,0,1-1.365,1.439A3.716,3.716,0,0,1,400.2,47.564Zm-2.181-4.747h4.169a1.773,1.773,0,0,0-.623-1.246,2.108,2.108,0,0,0-1.484-.5,2.007,2.007,0,0,0-1.335.475A2.286,2.286,0,0,0,398.017,42.817Z" transform="translate(-332.166 -35.784)" fill="#5f6368"/>
      <path id="Path_2646" data-name="Path 2646" d="M434.823,47.564a3.477,3.477,0,0,1-2.641-1.1,3.876,3.876,0,0,1-1.038-2.774,3.922,3.922,0,0,1,1.009-2.759,3.328,3.328,0,0,1,2.581-1.113,3.283,3.283,0,0,1,2.566,1.053,4.134,4.134,0,0,1,.964,2.923l-.015.148h-5.712a2.368,2.368,0,0,0,.712,1.721,2.3,2.3,0,0,0,3.679-.653l1.216.593a3.61,3.61,0,0,1-1.365,1.439A3.716,3.716,0,0,1,434.823,47.564Zm-2.181-4.747h4.169a1.773,1.773,0,0,0-.623-1.246,2.108,2.108,0,0,0-1.484-.5,2.007,2.007,0,0,0-1.335.475A2.286,2.286,0,0,0,432.642,42.817Z" transform="translate(-358.42 -35.784)" fill="#5f6368"/>
      <path id="Path_2647" data-name="Path 2647" d="M467.616,40.857a2.1,2.1,0,0,1-1.484-.549,2.051,2.051,0,0,1-.593-1.528V34.715h-1.276V33.469h1.276V31.244H466.9v2.225h1.78v1.246H466.9v3.62a1.356,1.356,0,0,0,.282.994.931.931,0,0,0,.638.252,1.588,1.588,0,0,0,.312-.03,2.076,2.076,0,0,0,.3-.1l.43,1.216A3.665,3.665,0,0,1,467.616,40.857Z" transform="translate(-383.862 -29.196)" fill="#5f6368"/>
      <path id="Path_2648" data-name="Path 2648" d="M132.029,29.451V27.83h5.428a5.793,5.793,0,0,1-1.316,4.787A5.425,5.425,0,0,1,132,34.282a5.937,5.937,0,1,1,0-11.872,5.655,5.655,0,0,1,4.067,1.636l-1.144,1.144A4.133,4.133,0,0,0,132,24.032a4.315,4.315,0,0,0,0,8.629,3.97,3.97,0,0,0,3-1.187,3.372,3.372,0,0,0,.881-2.022Z" transform="translate(-125.98 -22.41)" fill="#5f6368"/>
      <path id="Path_2649" data-name="Path 2649" d="M186.13,44.472a3.836,3.836,0,1,1-3.836-3.822A3.776,3.776,0,0,1,186.13,44.472Zm-1.679,0a2.162,2.162,0,1,0-2.157,2.316A2.2,2.2,0,0,0,184.451,44.472Z" transform="translate(-166.294 -36.422)" fill="#5f6368"/>
      <path id="Path_2650" data-name="Path 2650" d="M222.229,44.472a3.836,3.836,0,1,1-3.836-3.822A3.776,3.776,0,0,1,222.229,44.472Zm-1.679,0a2.162,2.162,0,1,0-2.157,2.316A2.2,2.2,0,0,0,220.55,44.472Z" transform="translate(-193.483 -36.422)" fill="#5f6368"/>
      <path id="Path_2651" data-name="Path 2651" d="M257.981,40.88v6.863c0,2.823-1.665,3.982-3.633,3.982a3.642,3.642,0,0,1-3.387-2.259l1.462-.608a2.114,2.114,0,0,0,1.925,1.361c1.259,0,2.041-.782,2.041-2.244v-.55h-.058a2.605,2.605,0,0,1-2.012.869,3.826,3.826,0,0,1,0-7.644,2.648,2.648,0,0,1,2.012.854h.058V40.88ZM256.5,44.485a2.154,2.154,0,0,0-2.041-2.331,2.325,2.325,0,0,0,0,4.633,2.136,2.136,0,0,0,2.041-2.3Z" transform="translate(-220.998 -36.421)" fill="#5f6368"/>
      <path id="Path_2652" data-name="Path 2652" d="M288.959,24.322v11.2H287.28v-11.2Z" transform="translate(-248.977 -23.879)" fill="#5f6368"/>
      <path id="Path_2653" data-name="Path 2653" d="M303.69,45.729l1.3.869a3.8,3.8,0,0,1-3.184,1.694,3.74,3.74,0,0,1-3.792-3.822,3.632,3.632,0,0,1,3.6-3.822,3.552,3.552,0,0,1,3.272,2.432l.174.434-5.11,2.114a1.944,1.944,0,0,0,1.853,1.158A2.18,2.18,0,0,0,303.69,45.729Zm-4.01-1.375,3.416-1.419a1.48,1.48,0,0,0-1.419-.811A2.1,2.1,0,0,0,299.681,44.354Z" transform="translate(-257.095 -36.42)" fill="#5f6368"/>
    </g>
  </g>
</svg>
