<svg xmlns="http://www.w3.org/2000/svg" width="76" height="76" viewBox="0 0 76 76">
  <g id="youtube-live-seeklogo.com" transform="translate(-5.481 5.358)">
    <g id="YouTube-Live" transform="translate(5.394 -5.358)">
      <g id="Group_1281" data-name="Group 1281" transform="translate(0 0)">
        <rect id="Rectangle_2052" data-name="Rectangle 2052" width="76" height="76" transform="translate(0.087 0)" fill="#fb0000"/>
      </g>
      <g id="Group_1282" data-name="Group 1282" transform="translate(16.577 19.446)">
        <path id="Path_2654" data-name="Path 2654" d="M345.127,439.672l-19.186-19.186h0l3.391-3.387a21.555,21.555,0,0,1,0-30.481l2.765,2.762,0,0,.6.6,0,0-.055.055h0a16.807,16.807,0,0,0,.055,23.712l3.406-3.4a11.994,11.994,0,0,1,0-16.961l3.521,3.521-.025.025a7.022,7.022,0,1,0,9.947-.04h0l6.9,6.9a11.975,11.975,0,0,1-3.359,6.559l3.406,3.4a16.807,16.807,0,0,0,.011-23.756h0l9.537,9.537a21.748,21.748,0,0,1,.125,2.335,21.5,21.5,0,0,1-6.312,15.241l3.391,3.387a26.346,26.346,0,0,0,.143-37.112h0l19.064,19.064v37.235Z" transform="translate(-323.02 -383.374)" fill="rgba(0,0,0,0.1)"/>
      </g>
      <g id="Group_1283" data-name="Group 1283" transform="translate(11.783 19.303)">
        <path id="Path_2655" data-name="Path 2655" d="M235.648,417.786a26.346,26.346,0,0,1,0-37.256l3.391,3.387a21.555,21.555,0,0,0,0,30.481Zm33.906-3.387a21.555,21.555,0,0,0,0-30.481l3.391-3.387a26.346,26.346,0,0,1,0,37.256ZM242.4,411.042a16.807,16.807,0,0,1,0-23.766l3.406,3.4a11.994,11.994,0,0,0,0,16.961Zm20.387-3.4a11.994,11.994,0,0,0,0-16.961l3.406-3.4a16.807,16.807,0,0,1,0,23.766Zm-8.49-15.5a7.021,7.021,0,1,1-7.021,7.021A7.025,7.025,0,0,1,254.3,392.137Z" transform="translate(-227.933 -380.53)" fill="#fff"/>
      </g>
    </g>
  </g>
</svg>
