<svg xmlns="http://www.w3.org/2000/svg" width="34" height="34" viewBox="0 0 34 34"><defs><style>.a{fill:none;}.b{fill:#7fc4fd;}</style></defs><path class="a" d="M0,0H34V34H0Z"/><g transform="translate(5.164 2.959)"><path class="b" d="M17.567,2H6.959A2.9,2.9,0,0,0,4,4.808V27.274a2.9,2.9,0,0,0,2.959,2.808H24.714a2.9,2.9,0,0,0,2.959-2.808V11.59A2.692,2.692,0,0,0,26.8,9.61L19.654,2.828A2.989,2.989,0,0,0,17.567,2Zm4.187,18.253a5.8,5.8,0,0,1-6.5,5.588,5.889,5.889,0,0,1-5.341-5.827V12.727a3.709,3.709,0,0,1,3.314-3.693,3.631,3.631,0,0,1,4.084,3.5v6.318a1.448,1.448,0,0,1-1.48,1.4h0a1.448,1.448,0,0,1-1.48-1.4V12.531a.741.741,0,0,0-1.48,0V20.1a2.948,2.948,0,0,0,2.456,2.921A2.914,2.914,0,0,0,18.8,20.253V16.041a1.448,1.448,0,0,1,1.48-1.4h0a1.448,1.448,0,0,1,1.48,1.4ZM18.8,9.02V4.808l5.918,5.616H20.275A1.448,1.448,0,0,1,18.8,9.02Z" transform="translate(-4 -2)"/></g></svg>