<svg xmlns="http://www.w3.org/2000/svg" xmlns:xlink="http://www.w3.org/1999/xlink" width="147" height="147" viewBox="0 0 147 147">
  <defs>
    <style>
      .cls-1 {
        fill: none;
      }

      .cls-2 {
        fill: #fff;
      }

      .cls-3 {
        clip-path: url(#clip-path);
      }

      .cls-4 {
        fill: #53331a;
      }

      .cls-5 {
        fill: #f4ebea;
      }

      .cls-6 {
        fill: #ee6e6e;
      }

      .cls-7 {
        fill: #ee6f6f;
      }

      .cls-8 {
        fill: #faddcc;
      }

      .cls-9 {
        fill: #bd2c2d;
      }

      .cls-10 {
        fill: #cbae98;
      }

      .cls-11 {
        fill: #8d2d24;
      }

      .cls-12 {
        fill: #b99a84;
      }

      .cls-13 {
        fill: #8e7057;
      }

      .cls-14 {
        fill: #f67170;
      }

      .cls-15 {
        fill: #ad4648;
      }

      .cls-16 {
        fill: #755841;
      }

      .cls-17 {
        fill: #332f2c;
      }

      .cls-18 {
        fill: #302f2e;
      }

      .cls-19 {
        fill: #67462e;
      }

      .cls-20 {
        fill: #f2baa7;
      }

      .cls-21 {
        fill: #f5bda8;
      }

      .cls-22 {
        fill: #f6bea9;
      }
    </style>
    <clipPath id="clip-path">
      <rect class="cls-1" width="87.318" height="116.604"/>
    </clipPath>
  </defs>
  <g id="Group_720" data-name="Group 720" transform="translate(-107 -109)">
    <rect id="Rectangle_1690" data-name="Rectangle 1690" class="cls-2" width="147" height="147" transform="translate(107 109)"/>
    <g id="Component_29_1" data-name="Component 29 – 1" class="cls-3" transform="translate(136 139)">
      <path id="Path_343" data-name="Path 343" class="cls-4" d="M687.006,320.008c-12.013-4.736-14.984-8.928-14.776-22.041.2-12.663-1.055-25.4,1.055-37.978,2.7-16.09,11.433-27.723,26.642-34.029,19.855-8.232,40.671.324,50.769,15.277a49.369,49.369,0,0,1,8.374,26.821c.266,11.435.482,22.9.006,34.316-.359,8.585-4,16.784-17.255,17.739-1.546.842-2.248-.308-2.793-1.344a12.578,12.578,0,0,0-4.142-4.286c-2.02-2.014-1.5-4.111.212-5.814a53.04,53.04,0,0,0,9.315-13.476c1.1-2.12,2.622-3.745,5.371-3.9a4.147,4.147,0,0,0,4.054-3.942c.192-2.275.162-4.767-2.564-5.943-2.6-1.122-3.446-3.283-3.628-5.946-.519-7.611-.552-7.609-7.355-9.587-2.241-3.539-4.131.51-6.221.308a3.52,3.52,0,0,1-2.265-.675,3.175,3.175,0,0,1-1.016-2.652c-.551,2.443-2.144,3.385-4.457,3.234-4.35-.283-8.736.634-13.072-.692-1.972-.6-3.913.875-6.032.764-3.924-.207-7.878.134-11.754-.759a3.968,3.968,0,0,1-1.107.27c-2.639.065-3.155-1.919-3.643-4.02-.924,1.228-.26,2.866-1.447,3.811-5.556.883-6.681,4.474-6.088,9.449a6.5,6.5,0,0,1-3.507,6.917c-2.174,1.211-2.7,3.352-2.1,5.758a4.448,4.448,0,0,0,4.343,3.742c1.782.1,3.506.6,4.293,2.082,3.028,5.721,7.311,10.643,10.269,16.4C694.639,314.429,691.767,318.1,687.006,320.008Z" transform="translate(-672.04 -222.759)"/>
      <path id="Path_344" data-name="Path 344" class="cls-5" d="M736.208,338.861q-21.342,1.007-42.685.018c-2.974-1.386-2.676-4.337-2.944-6.793a95.381,95.381,0,0,1-.129-11.994c.069-4.078,3.089-6.276,5.553-8.83,1.777-1.207,3.1-.006,4.462.869,5.314,3.412,10.9,5.455,17.438,4.845a24.884,24.884,0,0,0,9.817-2.7c3.481-1.907,6.452-1.867,9.316.928,2.081,2.62,2.665,5.63,2.648,8.915-.02,3.743-.933,7.377-1.075,11.1A4.392,4.392,0,0,1,736.208,338.861Z" transform="translate(-672.04 -222.759)"/>
      <path id="Path_345" data-name="Path 345" class="cls-6" d="M696.445,311.267c-6.863,6.187-4.035,14.129-3.836,21.564a47.633,47.633,0,0,0,.916,6.048c-3.392.855-6.842.147-10.255.4-2.887.213-3.2-1.177-2.474-3.583,1.636-5.4,4.056-10.487,6.208-15.683,2.838-3.268,5.4-6.8,9.02-9.3C696.426,310.7,696.554,310.893,696.445,311.267Z" transform="translate(-672.04 -222.759)"/>
      <path id="Path_346" data-name="Path 346" class="cls-7" d="M736.208,338.861c.532-4.78,1.187-9.551,1.553-14.344.239-3.136.359-6.355-1.523-9.186-.632-.436-.571-.882-.019-1.335,2.972,1.029,3.5,4.292,5.6,6.119a92.3,92.3,0,0,1,7.07,16.075c.8,2.221.163,3.068-2.063,3.052C743.285,339.217,739.725,339.635,736.208,338.861Z" transform="translate(-672.04 -222.759)"/>
      <path id="Path_347" data-name="Path 347" class="cls-8" d="M736.219,314l.019,1.335c-1.85-1.481-3.722-1.347-5.751-.284-12.183,6.383-23.555,5.224-34.042-3.78a.72.72,0,0,0-.423-.564,46.6,46.6,0,0,1-10.27-14.841c-.877-2.082-1.909-3.1-4.193-3.074a5.143,5.143,0,0,1-5.272-4.389c-.653-2.867-.737-6.14,2.239-7.762,2.571-1.4,3.147-3.155,2.755-5.7a12.089,12.089,0,0,1-.052-1.651c-.106-7.89-.106-7.89,7.565-8.517.862-.557.475-1.443.56-2.195s.345-1.345,1.149-1.379a1.2,1.2,0,0,1,1.3,1.23c.161,1.784.564,3.26,2.9,2.414l.049.044c4.015-.114,8,.739,12.021.406,1.61-.134,3.321.349,4.715-.936a1.231,1.231,0,0,1,1.492-.343c3.949,2.527,8.32.768,12.467,1.253,2.317.271,4.484.062,4.781-2.849,2.025.007.811,1.984,1.929,2.366l2.3.127c1.962.65,3.871-2.348,5.857-.085,9.15.556,9.222.556,9.269,10.121.012,2.424.439,4,2.893,5.176,3.26,1.556,3.356,4.82,2.829,7.912a5.228,5.228,0,0,1-5.428,4.66c-1.974.056-2.808,1.105-3.6,2.759-2.671,5.586-5.682,10.98-10.53,15.051C733.991,311.979,734.7,313.014,736.219,314Z" transform="translate(-672.04 -222.759)"/>
      <path id="Path_348" data-name="Path 348" class="cls-9" d="M689.811,241.77c17.847-12.979,44.786-9.3,54.747,3.722-3.121.936-5.149-1.371-7.571-2.181-10.282-4-21.051-3.786-31.653-2.654a53.594,53.594,0,0,0-15.593,4.268l-1.611.93c-1.365.606-2.211.238-1.479-1.242A6.48,6.48,0,0,1,689.811,241.77Z" transform="translate(-672.04 -222.759)"/>
      <path id="Path_349" data-name="Path 349" class="cls-10" d="M732.165,264.781l-1.488-1.222c-3.122,4.147-7.6,2.111-11.327,1.984-5.1-.175-10.16.176-15.236.2a37.6,37.6,0,0,1-9.354-.861c.393-1.112-.085-2.505,1.051-3.4,2.236,2.6,10.57,4.493,13.962,3.25a2.428,2.428,0,0,0,1.51-1.788c.269-.862,1.068-1.843,1.6-.836,1.984,3.766,5.359,2.328,8.316,2.66,5.214.587,9.638.174,9.533-7.263C732.3,260.2,731.8,262.565,732.165,264.781Z" transform="translate(-672.04 -222.759)"/>
      <path id="Path_350" data-name="Path 350" class="cls-11" d="M689.741,244.925c9.356-4.205,19.047-6.221,29.379-5.156,6.092.628,12.37.016,17.867,3.542-8.543-2.362-17.257-2.7-26.07-2.593-6.153.072-11.814,2.01-17.588,3.593A9.853,9.853,0,0,1,689.741,244.925Z" transform="translate(-672.04 -222.759)"/>
      <path id="Path_351" data-name="Path 351" class="cls-12" d="M694.711,264.84c-3.212,2.187-2.716-1.693-3.969-2.579-1.256.5-.636,2.225-1.948,2.509.308-2.007.578-4.019.941-6.015.14-.775.4-1.723,1.476-1.508.792.159.672,1.039.876,1.667C692.76,260.975,690.939,264.156,694.711,264.84Z" transform="translate(-672.04 -222.759)"/>
      <path id="Path_352" data-name="Path 352" class="cls-13" d="M740.318,264.823c-1.961-.574-3.89,1.1-5.857.085.8-.674,2.006-.779,2.453-1.983.371-1-.288-2.922,1.585-2.71,1.528.173,1,1.984,1.444,3.036A9.353,9.353,0,0,1,740.318,264.823Z" transform="translate(-672.04 -222.759)"/>
      <path id="Path_353" data-name="Path 353" class="cls-11" d="M689.811,241.77c-.011,1.587-3.791,1.624-1.681,4.085-1.487.7-2.852,3.628-4.2,2.128-1.934-2.161,1.6-2.725,2.522-4.124A4.062,4.062,0,0,1,689.811,241.77Z" transform="translate(-672.04 -222.759)"/>
      <path id="Path_354" data-name="Path 354" class="cls-14" d="M726.042,298.17c-3.918,8.451-9.88,10.7-17.05,6.427-1.182-.7-2.4-1.421-2.486-3.036a21.17,21.17,0,0,0,1.955-2.092C713.966,292.208,719.517,291.806,726.042,298.17Z" transform="translate(-672.04 -222.759)"/>
      <path id="Path_355" data-name="Path 355" class="cls-15" d="M726.042,298.17c-.792.086-1.258,1.228-2.433.079-5.445-5.327-9.925-4.58-13.467,2.337-1.093,2.135-2,2.223-3.638.972a17.094,17.094,0,0,1-3.269-9.129c7.677.905,15.216,1.5,22.719-.122,1.689-.365,1.6.532,1.364,1.534C726.975,295.3,726.475,296.729,726.042,298.17Z" transform="translate(-672.04 -222.759)"/>
      <path id="Path_356" data-name="Path 356" class="cls-16" d="M705.12,271.766c-.141,1.249-1.038,1.151-1.808.865a9.721,9.721,0,0,0-6.8-.087c-.668.232-1.383.359-1.692-.484a1.329,1.329,0,0,1,.191-1.1,5.681,5.681,0,0,1,4.7-2,6.48,6.48,0,0,1,5.132,2.056A2.105,2.105,0,0,1,705.12,271.766Z" transform="translate(-672.04 -222.759)"/>
      <path id="Path_357" data-name="Path 357" class="cls-17" d="M700.538,282.037c-2.114.02-3.119-.966-3.222-2.725-.111-1.877.625-3.257,2.754-3.3a2.689,2.689,0,0,1,2.989,2.717C703.217,280.665,702.276,281.846,700.538,282.037Z" transform="translate(-672.04 -222.759)"/>
      <path id="Path_358" data-name="Path 358" class="cls-18" d="M731.358,275.963a2.915,2.915,0,0,1,2.549,3.4,2.731,2.731,0,0,1-3.075,2.675c-1.991-.142-2.915-1.492-2.772-3.4C728.194,276.867,729.331,275.984,731.358,275.963Z" transform="translate(-672.04 -222.759)"/>
      <path id="Path_359" data-name="Path 359" class="cls-19" d="M735.963,272.167c-3.238.216-6.366-.92-9.336.348-.188.08-.751-.3-.874-.575-.257-.584.2-.952.612-1.349C728.973,268.1,733.3,268.673,735.963,272.167Z" transform="translate(-672.04 -222.759)"/>
      <path id="Path_360" data-name="Path 360" class="cls-20" d="M683.035,287.414c-.028.831-.02,2.11-1.577,1.963-1.778-.168-2.489-1.428-2.407-3.138.059-1.228.128-2.536,1.68-2.829C681.831,283.2,682.988,285.146,683.035,287.414Z" transform="translate(-672.04 -222.759)"/>
      <path id="Path_361" data-name="Path 361" class="cls-21" d="M750.5,283.39c1.682.321,1.7,1.744,1.9,2.877a2.3,2.3,0,0,1-2.091,2.956c-1.211.135-1.647-.959-1.571-1.97C748.852,285.786,748.947,284.218,750.5,283.39Z" transform="translate(-672.04 -222.759)"/>
      <path id="Path_362" data-name="Path 362" class="cls-22" d="M716.042,286.441c-1.131-.162-2.9.32-3-1.289-.077-1.364,1.587-1.211,2.633-1.194,1.156.019,2.925-.4,3.021,1.224C718.779,286.536,717.116,286.3,716.042,286.441Z" transform="translate(-672.04 -222.759)"/>
    </g>
  </g>
</svg>
