<svg xmlns="http://www.w3.org/2000/svg" xmlns:xlink="http://www.w3.org/1999/xlink" width="147" height="147" viewBox="0 0 147 147">
  <defs>
    <style>
      .cls-1 {
        fill: none;
      }

      .cls-2 {
        fill: #fff;
      }

      .cls-3 {
        clip-path: url(#clip-path);
      }

      .cls-4 {
        fill: #f9ddcb;
      }

      .cls-5 {
        fill: #53331a;
      }

      .cls-6 {
        fill: #f76967;
      }

      .cls-7 {
        fill: #54331a;
      }

      .cls-8 {
        fill: #53341b;
      }

      .cls-9 {
        fill: #f76768;
      }

      .cls-10 {
        fill: #f56868;
      }

      .cls-11 {
        fill: #c33131;
      }

      .cls-12 {
        fill: #bb3736;
      }

      .cls-13 {
        fill: #cdaf9a;
      }

      .cls-14 {
        fill: #bb3433;
      }

      .cls-15 {
        fill: #b82c2d;
      }

      .cls-16 {
        fill: #f6706f;
      }

      .cls-17 {
        fill: #ae4f4f;
      }

      .cls-18 {
        fill: #4f4946;
      }

      .cls-19 {
        fill: #6b4f3a;
      }

      .cls-20 {
        fill: #34302f;
      }

      .cls-21 {
        fill: #705340;
      }

      .cls-22 {
        fill: #f8b8a5;
      }

      .cls-23 {
        fill: #f5b7a4;
      }

      .cls-24 {
        fill: #c4b1a7;
      }

      .cls-25 {
        fill: #f6bea9;
      }
    </style>
    <clipPath id="clip-path">
      <rect class="cls-1" width="111.635" height="105.609"/>
    </clipPath>
  </defs>
  <g id="Group_721" data-name="Group 721" transform="translate(-107 -109)">
    <rect id="Rectangle_1690" data-name="Rectangle 1690" class="cls-2" width="147" height="147" transform="translate(107 109)"/>
    <g id="Component_28_1" data-name="Component 28 – 1" class="cls-3" transform="translate(124 150)">
      <path id="Path_320" data-name="Path 320" class="cls-4" d="M639.871,292.7c-1.587,2.624-3.227,5.12-6.846,5.069-1.3-.018-1.747,1.15-2.211,2.163A51.457,51.457,0,0,1,619.4,315.4a2.386,2.386,0,0,1-.759,1.829c-9.667,8.629-20.457,8.962-31.879,4.229a10.851,10.851,0,0,1-6.109-6.326c-5.071-4.175-8.607-9.528-11.543-15.3a3.385,3.385,0,0,0-3.125-2.161,5.389,5.389,0,0,1-4.764-2.712c-2.625-3.594-1.907-6.784.858-10.027,2.225-2.611,2.571-6.049,2.954-9.318.266-2.271,1.694-2.753,3.383-3.89,4.057-2.731,7.281-2.476,11.953-1.015,5.315,1.662,11.444.362,17.177-.465,3.163.08,6.324.312,9.495.259,2.519-.042,4.788-.036,6.29-2.835,1.168-2.176,3.266-1.9,4.705.041,1.066,1.441,1.978,2.292,3.6.819.3-.273.948-.611,1.091-.467,3.234,3.254,8.734.979,11.709,4.814-.883,6.129,2.834,10.225,6.376,14.4C641.262,289.221,642.1,291.229,639.871,292.7Z" transform="translate(-544.014 -233.762)"/>
      <path id="Path_321" data-name="Path 321" class="cls-5" d="M633.641,273.869c-1.317-2.689-3.81-1.645-5.85-1.709-2.212-.069-4.216-.078-4.528-3.293-.423,2.512-1.534,3.306-3.867,3.359-3.965.089-1.771-3.757-3.509-4.955-.3.062-.755.1-.76.169-.306,4.3-2.9,5.217-6.664,4.7-3.494-.478-7.112.748-10.551-.706a129.546,129.546,0,0,1-18.483.178c-3.607-.24-3.639.233-5.5-4.486-.089,4.88-2.55,5.666-6.037,5.286-1.641-.178-2.465,1.036-2.269,2.7a4.04,4.04,0,0,1-.65,3.112c-2.507.688-3.794-.8-4.838-2.714-2.6-20.174,8.754-34.981,24.9-39.611a50.958,50.958,0,0,1,32.878,1.249c8.64,3.307,15.267,8.787,18.637,17.523,2.1,5.433,2.536,11.256,2.479,17.066-.016,1.7-.219,3.336,1.514,4.374-.958,2.485-3.238,2.946-5.267,2.557C632.59,278.147,634.5,275.4,633.641,273.869Z" transform="translate(-544.014 -233.762)"/>
      <path id="Path_322" data-name="Path 322" class="cls-6" d="M580.656,315.131c10.032,8.19,20.918,9.786,32.683,4.141a52.753,52.753,0,0,0,4.876-3,2.86,2.86,0,0,1,.829,2.977,142.376,142.376,0,0,0-2.117,16.614A3.3,3.3,0,0,1,615.2,338.9a268.833,268.833,0,0,1-30.863.043,2.962,2.962,0,0,1-2.262-3.038c-.037-6.287-1.237-12.433-2.142-18.617a2.791,2.791,0,0,1,.35-1.569A.618.618,0,0,1,580.656,315.131Z" transform="translate(-544.014 -233.762)"/>
      <path id="Path_323" data-name="Path 323" class="cls-7" d="M559.532,293.113c-2.778,3.976-4.635,8.284-3.949,14.334-3.259-3.278-4.529-6.009-4.83-9.246-.121-1.293.688-3.157-.9-3.69-1.5-.5-2.14,1.354-3.057,2.3-.459.472-.673,1.24-1.529,1.2-3.666-8.76,1.079-17.519,9.893-19.175a16.577,16.577,0,0,0,2.676-.99c1.808,2.8,4.876,5.16,3.251,9.181C560.01,288.91,560.611,291.225,559.532,293.113Z" transform="translate(-544.014 -233.762)"/>
      <path id="Path_324" data-name="Path 324" class="cls-8" d="M639.871,292.7l-.865-5.843c-1.142-3.823,1.02-6.293,3.533-8.618,9.936,2.489,14.266,8.005,12.847,16.418-.176,1.048-.044,2.443-1.214,2.887-1.515.575-1.579-1.12-2.247-1.858-.649-.718-1.286-1.647-2.36-1.373-1.242.315-1,1.535-.947,2.435a15.5,15.5,0,0,1-1.431,6.808c-.393.971-.615,2.4-2.028,2.176-1.213-.2-.893-1.54-1.02-2.431A22.085,22.085,0,0,0,639.871,292.7Z" transform="translate(-544.014 -233.762)"/>
      <path id="Path_325" data-name="Path 325" class="cls-9" d="M626.46,325.233c1.966,3.426,4.45,6.551,5.733,10.374.841,2.506.144,3.721-2.527,3.644-3.284-.1-6.567-.233-9.85-.352-1.936-.677-2.131-2.314-2.223-4.015a38.277,38.277,0,0,1,.765-9.845c.413-2,.958-3.932,3.156-4.367,2.547-.505,3.582,1.508,4.533,3.394A8.044,8.044,0,0,1,626.46,325.233Z" transform="translate(-544.014 -233.762)"/>
      <path id="Path_326" data-name="Path 326" class="cls-10" d="M579.678,338.937c-3.376.712-6.79.14-10.181.3-2.724.131-3.494-.936-2.357-3.435,1.684-3.7,3.21-7.484,5.859-10.652a15.024,15.024,0,0,1,2.123-3.012c1.613-1.47,3.258-1.3,4.6.389C582.027,325.423,581.955,335.819,579.678,338.937Z" transform="translate(-544.014 -233.762)"/>
      <path id="Path_327" data-name="Path 327" class="cls-11" d="M626.46,325.233c-1.644-1.143-3.037-3.788-4.957-3.086-2.031.743-1.313,3.674-1.661,5.643a33.648,33.648,0,0,0-.023,11.109,6.576,6.576,0,0,1-4.621,0c.047-7.672.473-15.293,3.019-22.629l1.186-.871C623.606,317.349,626.826,320.005,626.46,325.233Z" transform="translate(-544.014 -233.762)"/>
      <path id="Path_328" data-name="Path 328" class="cls-12" d="M579.678,338.937c-.237-4.387.348-8.821-.749-13.158-.289-1.143.289-2.741-1.138-3.3-1.594-.621-2.383.958-3.433,1.76-.434.332-.906.613-1.36.915.538-4.608,2.542-8.082,7.285-9.44,3.237,4.519,2.549,9.954,3.446,15.008.479,2.7-.218,5.52.608,8.217A6.507,6.507,0,0,1,579.678,338.937Z" transform="translate(-544.014 -233.762)"/>
      <path id="Path_329" data-name="Path 329" class="cls-13" d="M559.532,293.113c.143-2.3-.04-4.658,1.126-6.79,1.563-2.61,1.51-6.039,4.121-8.116-.015-.91.576-1.668.167-2.75-.878-2.325.713-3.658,2.669-3.48,4.19.381,5.791-1.444,5.712-5.369-.007-.353.314-.722.514-1.066.061-.1.229-.145.359-.222,1.32.481,1.05,1.775,1.394,2.755.424,1.208-.342,3.06,1.458,3.51,2.341.584,1.222-2.357,2.9-3.035.612,3.208,2.969,3.392,5.563,3.291,2.34-.091,4.686-.006,7.029-.014,1.256,0,2.518.043,2.918-1.61.2-.815.732-1.783,1.66-1.367.95.426.86,1.609.792,2.585-6.85,2.386-13.958.484-20.916,1.216-1.848.2-2.084-1.864-3.046-3.959.086,3.862-1.874,4.565-4.512,4.4-2.3-.146-3.088,1.06-3.239,3.255-.273,3.949.144,7.947-4.071,10.808-2.348,1.594-1.277,5.095-.9,7.815Q560.376,294.035,559.532,293.113Z" transform="translate(-544.014 -233.762)"/>
      <path id="Path_330" data-name="Path 330" class="cls-14" d="M642.539,278.236c.6,3.6-2.77,5.581-3.531,8.623-5.712-2.721-5.986-7.681-5.368-13,.478,2.762,1.137,5.033,4.53,2.369.511-.4,1.575-.1,2.38-.12Z" transform="translate(-544.014 -233.762)"/>
      <path id="Path_331" data-name="Path 331" class="cls-15" d="M564.779,278.207c1.035,3.929-.9,6.351-4.122,8.117a5.6,5.6,0,0,0-1.982-3.943c-1.495-1.33-1.193-2.92-.841-4.548l2.3-2.325A5.987,5.987,0,0,1,564.779,278.207Z" transform="translate(-544.014 -233.762)"/>
      <path id="Path_332" data-name="Path 332" class="cls-16" d="M610.234,304.058c-2.922,8.282-11.508,10.587-17.983,4.827.154-9.643,7.322-11.083,14.157-9.294C608.512,300.142,609.686,301.942,610.234,304.058Z" transform="translate(-544.014 -233.762)"/>
      <path id="Path_333" data-name="Path 333" class="cls-17" d="M610.234,304.058c-2.106.28-2.523-1.832-3.81-2.718-4.239-2.917-9.588-1.116-12.2,4.18-.576,1.169-.319,2.83-1.975,3.364-3.549-2.953-4.23-7.151-5.1-11.417,7.854.892,15.531,1.376,23.176-.12,1.7-.332,1.476.782,1.451,1.649A8.858,8.858,0,0,1,610.234,304.058Z" transform="translate(-544.014 -233.762)"/>
      <path id="Path_334" data-name="Path 334" class="cls-18" d="M618.551,283.585c-.294,2.03-1.063,3.42-3.08,3.369a2.943,2.943,0,0,1-3.044-3.157,2.975,2.975,0,0,1,3.243-3.349C617.611,280.512,618.293,282.067,618.551,283.585Z" transform="translate(-544.014 -233.762)"/>
      <path id="Path_335" data-name="Path 335" class="cls-19" d="M621.045,277.8c-3.542-.2-6.858-1.327-10.071.043a1.093,1.093,0,0,1-.959-.457c-.337-.767.263-1.2.785-1.658C613.822,273.064,618.278,273.8,621.045,277.8Z" transform="translate(-544.014 -233.762)"/>
      <path id="Path_336" data-name="Path 336" class="cls-20" d="M581.373,284.588c.956-4.5,2.216-5.011,5.79-2.352.859,1.834.707,3.579-1.278,4.352A3.148,3.148,0,0,1,581.373,284.588Z" transform="translate(-544.014 -233.762)"/>
      <path id="Path_337" data-name="Path 337" class="cls-21" d="M587.827,274.9c.538.878,2.283,1.105,1.826,2.394-.571,1.61-1.875.292-2.8.2a14.8,14.8,0,0,0-4.838-.163c-1.04.234-2.611,1.483-3.14-.222-.411-1.324,1.479-1.657,2.339-2.438A8.437,8.437,0,0,1,587.827,274.9Z" transform="translate(-544.014 -233.762)"/>
      <path id="Path_338" data-name="Path 338" class="cls-22" d="M634.95,287.609c1.774.48,1.771,1.918,1.729,3.281-.038,1.27-.334,2.742-1.943,2.569-1.7-.182-1.32-1.827-1.3-2.979S633.2,287.9,634.95,287.609Z" transform="translate(-544.014 -233.762)"/>
      <path id="Path_339" data-name="Path 339" class="cls-23" d="M566.407,291.142c-.19,1.216.35,2.825-1.121,2.881-1.6.06-2.176-1.438-2.213-2.9-.034-1.283.237-2.709,1.834-2.647C566.724,288.541,566.049,290.287,566.407,291.142Z" transform="translate(-544.014 -233.762)"/>
      <path id="Path_340" data-name="Path 340" class="cls-24" d="M581.373,284.588c1.138,1.05,2.025,2.7,4.021,1.772,1.8-.839,1.785-2.489,1.769-4.124,2.623,2.189.815,3.87-1.007,4.7C584.107,287.878,581.675,287.977,581.373,284.588Z" transform="translate(-544.014 -233.762)"/>
      <path id="Path_341" data-name="Path 341" class="cls-13" d="M587.827,274.9l-6.613-.226C583.5,272.468,585.682,273.089,587.827,274.9Z" transform="translate(-544.014 -233.762)"/>
      <path id="Path_342" data-name="Path 342" class="cls-25" d="M600.073,290.859c-1.131-.162-2.906.32-3-1.289-.078-1.364,1.586-1.211,2.632-1.194,1.156.019,2.925-.4,3.021,1.224C602.809,290.954,601.146,290.719,600.073,290.859Z" transform="translate(-544.014 -233.762)"/>
    </g>
  </g>
</svg>
