<svg xmlns="http://www.w3.org/2000/svg" xmlns:xlink="http://www.w3.org/1999/xlink" width="147" height="147" viewBox="0 0 147 147">
  <defs>
    <style>
      .cls-1 {
        fill: none;
      }

      .cls-2 {
        fill: #fff;
      }

      .cls-3 {
        clip-path: url(#clip-path);
      }

      .cls-4 {
        fill: #faddcd;
      }

      .cls-5 {
        fill: #53331a;
      }

      .cls-6 {
        fill: #3e3b3d;
      }

      .cls-7 {
        fill: #53331b;
      }

      .cls-8 {
        fill: #e8e5dc;
      }

      .cls-9 {
        fill: #e4e3db;
      }

      .cls-10 {
        fill: #e6e2d9;
      }

      .cls-11 {
        fill: #f86f6d;
      }

      .cls-12 {
        fill: #ad5050;
      }

      .cls-13 {
        fill: #f2e5db;
      }

      .cls-14 {
        fill: #f9f7f2;
      }

      .cls-15 {
        fill: #faf7f3;
      }

      .cls-16 {
        fill: #3f3835;
      }

      .cls-17 {
        fill: #2c2b28;
      }

      .cls-18 {
        fill: #735742;
      }

      .cls-19 {
        fill: #775b44;
      }

      .cls-20 {
        fill: #f6bea8;
      }

      .cls-21 {
        fill: #f6b9a4;
      }

      .cls-22 {
        fill: #f6bea9;
      }
    </style>
    <clipPath id="clip-path">
      <rect class="cls-1" width="110.933" height="142.16"/>
    </clipPath>
  </defs>
  <g id="Group_718" data-name="Group 718" transform="translate(-107 -109)">
    <rect id="Rectangle_1690" data-name="Rectangle 1690" class="cls-2" width="147" height="147" transform="translate(107 109)"/>
    <g id="Component_31_1" data-name="Component 31 – 1" class="cls-3" transform="translate(125 113)">
      <path id="Path_383" data-name="Path 383" class="cls-4" d="M889.346,270.22a5.271,5.271,0,0,0,.01-3.246c0-1.4-.051-3.1,1.008-3.891,3.179-2.375,3.363-5.477,3.26-9.049-.094-3.295,2.013-5.3,5.344-5.754,12.556-1.724,23.968-5.928,33.2-15.025,2.24-2.206,5.094-2.8,7.4-.482,9.208,9.253,20.334,14.319,33.168,15.93a2.047,2.047,0,0,1,.72.393c1.89,1.781,2.142,3.973,1.817,6.433-.322,2.431-.03,4.686,2.687,5.853,1.824.784,2.5,2.454,2.793,4.308a49.553,49.553,0,0,1,.236,8.239,4.95,4.95,0,0,1-4.5,4.734c-3.233.494-4.755,2.543-5.943,5.077a53.669,53.669,0,0,1-11.673,15.865c-3.033,1.679-4.878,4.9-8.127,6.313-.773.241-1.532.54-2.331.706-3.838,1.153-7.571,2.789-11.711,2.557q-1.179,0-2.358,0c-3.619.253-7-1.233-10.563-1.423a3.528,3.528,0,0,1-1.159-.068c-4.234-1.94-7.029-5.894-11.177-7.967-5.125-4.9-8.817-10.825-12.063-17.041-.943-1.806-1.938-3.114-4.08-3.632C889.924,277.751,889,276.24,889.346,270.22Z" transform="translate(-879.667 -197.499)"/>
      <path id="Path_384" data-name="Path 384" class="cls-5" d="M972.749,250.059c-13.343-.478-24.457-6.019-33.7-15.342-2.277-2.3-3.4-2.14-5.528-.034-9.29,9.178-20.878,13.668-33.572,15.288-3.7.473-4.8,1.79-4.385,5.181.186,1.5.088,3.031.133,4.547.041,1.364-.279,2.454-1.838,2.775-2.477.51-3.34,2.66-4.5,4.5-1.365-8.083-.857-16.185.03-24.246,1.777-16.136,8.421-29.455,22.432-38.608,15.807-10.326,39.223-8.424,52.819,4.664,2.923,2.813,6.488,5.188,7.674,9.446a41.79,41.79,0,0,1,6.557,18.272,14.367,14.367,0,0,0,1.3,5.118c1.239,2.408,1.247,4.795-1.606,6.312-.359.191-.841.438-.9.8C977.032,252.984,974.9,251.532,972.749,250.059Z" transform="translate(-879.667 -197.499)"/>
      <path id="Path_385" data-name="Path 385" class="cls-6" d="M950.033,304.678l7.277-5.568c2.049,2.421,5.114,4.221,4.913,8.028a50.167,50.167,0,0,1,1,14.2c-.131,2.223-.325,4.449-2.949,5.3-.784,2.865-.7,5.815-1.953,8.729-1.42,3.3-3.193,4.138-6.476,4.09-10.846-.157-21.7-.271-32.543.049-4.671.138-6.887-1.527-7.44-6.039a50.253,50.253,0,0,0-1.456-5.986c-2.492-.718-2.781-2.743-2.891-4.874a54.786,54.786,0,0,1,1-15.407c-.254-3.662,3.26-5.462,4.234-8.524,3.44,2.9,7.929,4.511,10.455,8.53,3.444,2.184,4.489,6.048,6.349,9.3,1.893,3.307,3.283,6.9,5.317,10.36,1.894-.652,2.517-2.377,3.1-3.7,2.271-5.191,6.107-9.437,8.5-14.538C947.243,306.963,948.822,305.975,950.033,304.678Z" transform="translate(-879.667 -197.499)"/>
      <path id="Path_386" data-name="Path 386" class="cls-5" d="M961.39,306.211a6.543,6.543,0,0,0-2.827-2.928c-1.931-1.026-1.883-2.472-1.253-4.174a67.559,67.559,0,0,0,13.056-19.353c.785-1.826,2.022-2.358,3.874-2.33,3.332.052,5.5-1.641,6.149-4.9,1.058-5.285-.192-8.865-3.963-10.07-2.361-.755-2.431-2.111-2.522-3.987-.137-2.829.665-5.808-1.154-8.411l3.6.783c-2.143-2.945-3.536-5.267,1.724-4.8,2.057.185,2.855-1.642,1.565-3.461-2.295-3.237-2.4-6.852-2.512-10.609-.1-3.431-1.628-6.57-3.17-9.6-.686-1.346-1.613-2.556-1.65-4.148,4.108,4.035,5.37,9.516,6.986,14.674a43.421,43.421,0,0,1,2.151,16.191c-3.094,2.436-1.17,6.887-3.819,9.547-.414.416.412.366.626.4,1.543.229,1.923,1.928,3.2,2.472a207.339,207.339,0,0,0,1.578,27.083c.794,6.194,1.039,12.671,6.557,17.142,1.643,1.33,1.048,2.9-.116,4.34a31.685,31.685,0,0,1-17.711,11.163c-.55.01-1.255.1-1.556-.332C966.91,316.227,962.846,312,961.39,306.211Z" transform="translate(-879.667 -197.499)"/>
      <path id="Path_387" data-name="Path 387" class="cls-7" d="M912.751,298.675c1.512,2.161,1.434,3.9-1.127,5.278a11.223,11.223,0,0,0-2.27,2.243c-.279,4.472-3.908,7.219-5.69,10.927-.882,1.837-1.6,4.21-4.33,4.379a31.42,31.42,0,0,1-18.35-11.623c-1.139-1.429-2.158-2.845-.261-4.18,4.688-3.3,5.419-8.439,6.153-13.4,1.084-7.321,1.671-14.716,2.47-22.079.621,4.611,2.444,7.911,7.9,7.361,1.438-.145,2.225.671,2.768,1.974C903.013,286.752,907.545,292.941,912.751,298.675Z" transform="translate(-879.667 -197.499)"/>
      <path id="Path_388" data-name="Path 388" class="cls-8" d="M961.39,306.211a65.1,65.1,0,0,1,10.371,15.03c1.6,4.474,2.411,9.218,5.66,13.063,2.338,2.769,1.21,4.881-2.335,5.145-10.432.779-11.52-.093-14.515-11.632-.1-.4-.2-.794-.3-1.186a38.475,38.475,0,0,0,.1-18.147C960.094,307.373,959.557,306.3,961.39,306.211Z" transform="translate(-879.667 -197.499)"/>
      <path id="Path_389" data-name="Path 389" class="cls-9" d="M899.334,321.5c2.681-5.532,5.709-10.837,10.019-15.305,2.138.4,1.061,1.753.787,2.8a35.214,35.214,0,0,0,.264,18.478c-.453,3.676-3.278,6.65-2.969,10.611.1,1.331-1.5,1.348-2.6,1.357-3.028.023-6.059.088-9.084-.016-3.1-.107-4.443-2.183-2.492-4.567C896.522,330.869,897.369,325.972,899.334,321.5Z" transform="translate(-879.667 -197.499)"/>
      <path id="Path_390" data-name="Path 390" class="cls-5" d="M981.454,261.513c-1.771.592-6.514-2.51-5.768-3.114,3.086-2.5-.172-8.806,5.762-9.3A76.94,76.94,0,0,1,981.454,261.513Z" transform="translate(-879.667 -197.499)"/>
      <path id="Path_391" data-name="Path 391" class="cls-10" d="M950.033,304.678q-6.666,12.264-13.328,24.528c-1.158,2.135-2.028,1.837-2.99-.182-3.47-7.288-7-14.548-10.509-21.818q.2-.171.412-.327a3.191,3.191,0,0,1,2.859,1.228c2.653,2.879,5.177,2.268,7.691-.158l2.4,0c4.671,3.46,4.653,3.44,8.75-.233.911-.818,1.936-1.52,2.91-2.275Z" transform="translate(-879.667 -197.499)"/>
      <path id="Path_392" data-name="Path 392" class="cls-11" d="M946.491,284.957c-4.211,9.477-12.422,11.789-20.2,5.688.2-10.481,7.825-12.808,15.824-10.852C944.531,280.384,945.616,282.731,946.491,284.957Z" transform="translate(-879.667 -197.499)"/>
      <path id="Path_393" data-name="Path 393" class="cls-12" d="M946.491,284.957a1.842,1.842,0,0,1-1.815-.533c-6.261-6.249-11.891-5.378-16.28,2.343-.728,1.281-.6,3.036-2.107,3.878-3.323-2.9-4.581-6.907-5.763-10.93-.813-2.767.18-3.527,2.755-2.247,1.831-1.194,3.9-1.134,5.929-.982,5.514.414,11.136-1.085,16.555.939,1.778-.674,3.481-1.429,2.757,1.85A20.28,20.28,0,0,1,946.491,284.957Z" transform="translate(-879.667 -197.499)"/>
      <path id="Path_394" data-name="Path 394" class="cls-13" d="M943.96,274.818c1.893-.005,2.485.85,1.8,2.607a66.432,66.432,0,0,1-22.484.043c.116-1.573.79-2.623,2.525-2.627,6.051-.011,12.1-.007,18.154-.023" transform="translate(-879.667 -197.499)"/>
      <path id="Path_395" data-name="Path 395" class="cls-14" d="M948.229,305.445c-1.031,1.922-1.943,3.921-3.126,5.744a3.88,3.88,0,0,1-4.812,1.293c-1.957-.71-4.383-1.477-3.721-4.529Z" transform="translate(-879.667 -197.499)"/>
      <path id="Path_396" data-name="Path 396" class="cls-15" d="M934.168,307.949c.734,2.535-1.173,3.531-2.864,4.122-2.058.718-3.953-.4-5.4-1.876a22.413,22.413,0,0,1-2.288-3.315c-.024-.633-.091-1.8.771-1.31C927.456,307.319,931.042,306.653,934.168,307.949Z" transform="translate(-879.667 -197.499)"/>
      <path id="Path_397" data-name="Path 397" class="cls-16" d="M955.967,260.95c-.136,2.624-.981,4.27-3.348,4.329a3.284,3.284,0,0,1-3.652-3.505c-.069-2.316,1.308-3.494,3.534-3.608S955.515,259.564,955.967,260.95Z" transform="translate(-879.667 -197.499)"/>
      <path id="Path_398" data-name="Path 398" class="cls-17" d="M916.484,258.18c3.17.056,4.043,1.638,4.005,3.767a3.032,3.032,0,0,1-3.364,3.269,3.217,3.217,0,0,1-3.386-3.349C913.69,259.832,914.767,258.231,916.484,258.18Z" transform="translate(-879.667 -197.499)"/>
      <path id="Path_399" data-name="Path 399" class="cls-18" d="M909.84,254.831c3.7-5.259,9.388-5.971,12.452-2.5.444.5,1.047,1,.6,1.736a1.17,1.17,0,0,1-1.04.425C918.2,252.753,914.474,253.686,909.84,254.831Z" transform="translate(-879.667 -197.499)"/>
      <path id="Path_400" data-name="Path 400" class="cls-19" d="M951.857,250.086c1.714.1,3.118.128,4.3.983,1.055.766,2.983,1.354,2.211,2.938-.664,1.36-2.222.209-3.325-.147a9.154,9.154,0,0,0-6.062.254c-.86.3-2.272,1.347-2.844-.212-.453-1.236.881-1.873,1.795-2.425C949.227,250.692,950.575,249.955,951.857,250.086Z" transform="translate(-879.667 -197.499)"/>
      <path id="Path_401" data-name="Path 401" class="cls-20" d="M977.213,270.618c-.275,1.479.088,3.636-2.279,3.591a2.293,2.293,0,0,1-2.323-3.135c.557-1.588-.416-4.458,2.607-4.364C977.7,266.787,977,269,977.213,270.618Z" transform="translate(-879.667 -197.499)"/>
      <path id="Path_402" data-name="Path 402" class="cls-21" d="M897.685,270.319c-.157,1.564-.059,3.225-1.694,3.114-1.881-.129-2.692-2.053-2.731-3.544-.039-1.473.782-3.846,2.418-3.643C897.7,266.5,897.2,269.055,897.685,270.319Z" transform="translate(-879.667 -197.499)"/>
      <path id="Path_403" data-name="Path 403" class="cls-22" d="M934.728,269.874c-1.131-.162-2.905.32-3-1.289-.077-1.364,1.587-1.211,2.633-1.194,1.156.019,2.925-.4,3.021,1.224C937.465,269.969,935.8,269.734,934.728,269.874Z" transform="translate(-879.667 -197.499)"/>
    </g>
  </g>
</svg>
