<svg xmlns="http://www.w3.org/2000/svg" xmlns:xlink="http://www.w3.org/1999/xlink" width="147" height="147" viewBox="0 0 147 147">
  <defs>
    <style>
      .cls-1 {
        fill: none;
      }

      .cls-2 {
        fill: #fff;
      }

      .cls-3 {
        clip-path: url(#clip-path);
      }

      .cls-4 {
        fill: #53331a;
      }

      .cls-5 {
        fill: #faddcc;
      }

      .cls-6 {
        fill: #eed8c8;
      }

      .cls-7 {
        fill: #4c412f;
      }

      .cls-8 {
        fill: #b32d2a;
      }

      .cls-9 {
        fill: #e47070;
      }

      .cls-10 {
        fill: #59361d;
      }

      .cls-11 {
        fill: #f4e9e6;
      }

      .cls-12 {
        fill: #ab4b4c;
      }

      .cls-13 {
        fill: #f86f70;
      }

      .cls-14 {
        fill: #59524d;
      }

      .cls-15 {
        fill: #33322d;
      }

      .cls-16 {
        fill: #f4bba9;
      }

      .cls-17 {
        fill: #edbda8;
      }

      .cls-18 {
        fill: #ed6d71;
      }

      .cls-19 {
        fill: #f6bea9;
      }
    </style>
    <clipPath id="clip-path">
      <rect class="cls-1" width="81.525" height="115.178"/>
    </clipPath>
  </defs>
  <g id="Group_722" data-name="Group 722" transform="translate(-107 -109)">
    <rect id="Rectangle_1690" data-name="Rectangle 1690" class="cls-2" width="147" height="147" transform="translate(107 109)"/>
    <g id="Component_27_1" data-name="Component 27 – 1" class="cls-3" transform="translate(139 140)">
      <path id="Path_299" data-name="Path 299" class="cls-4" d="M473.728,316.256c-10.509.243-14.873-2.948-16.952-14.717-2.526-14.307-3.112-28.76,3.226-42.47,2.8-6.05,7.6-10.321,13.532-13.312,3.373-2.582,7.561-2.893,11.428-4.1l.239.106a7.43,7.43,0,0,0,6.782-.288,7.9,7.9,0,0,1,6.828-.155c2.8,1.193,4.375.607,5.178-2.31a1.451,1.451,0,0,1,1.28-.9c.422,2.552,1.771,3.711,4.467,4.356,9.925,2.375,18.679,6.7,23.076,16.73A36.06,36.06,0,0,1,535.7,277.3c.352,4.576-.4,9.168.349,13.753.364,2.227-.769,3.074-2.93,2a19.905,19.905,0,0,1-3.916-2.193c-1.97-1.578-1.82-3.866-2.051-6.05-.486-4.6-1.436-5.6-5.9-5.618q-25.658-.125-51.316,0c-4.5.021-5.1.687-5.264,5.42-.118,3.394-.269,6.554-3.934,8.418-1.467.747-1.981,2.709-1.488,4.429.588,2.055,1.71,4.009,4.078,4.148,3.115.183,4.626,1.989,5.793,4.529a29.523,29.523,0,0,0,3.364,5.2C473.569,312.8,474.587,314.293,473.728,316.256Z" transform="translate(-454.989 -224.259)"/>
      <path id="Path_300" data-name="Path 300" class="cls-5" d="M473.728,316.256c-2.6-3.709-5.565-7.174-7.312-11.431-.615-1.5-1.946-1.66-3.4-1.827a5.02,5.02,0,0,1-4.712-3.978c-.617-2.631-1-5.633,1.476-7.215,2.744-1.755,3.059-3.9,2.8-6.648-.115-1.228.12-2.488.012-3.717-.288-3.284,1.168-4.205,4.379-4.175q28.732.27,57.467.142c3.037-.013,4.076.938,4.34,3.92.249,2.8-.466,5.766,1.05,8.413a6.781,6.781,0,0,1,5.014,6.572c.152,3.482-.62,6.436-4.35,7.87a5.661,5.661,0,0,0-3.293,2.248,19.65,19.65,0,0,1-4.634,7.047,7.223,7.223,0,0,1-3.519,2.144l-1.544.6a30.255,30.255,0,0,1-3.473,5.042c-.937.788-1.291,2.115-2.475,2.671-8.4,5.124-17.166,5.579-26.234,2.007-3.211-1.266-3.8-.87-4.117,2.546-.233,2.523.65,5.245-1.243,7.495-2.859.93-2.871-1.306-3.1-2.98a22.559,22.559,0,0,1,.374-6.653c-.83,2.784.255,6.938-4.088,8.634-1.554,3.755-4.5,4.557-8.26,4.259-2.614-.207-3.532-.856-2.347-3.5a54.619,54.619,0,0,1,10.6-16.063C474.005,318.79,476.157,317.823,473.728,316.256Z" transform="translate(-454.989 -224.259)"/>
      <path id="Path_301" data-name="Path 301" class="cls-6" d="M513.278,320.346c-.246-3.071,2.555-3.023,4.229-4.13-.58,1.988.4,3.353,1.723,4.686,4.3,4.342,7.124,9.66,9.835,15.051.99,1.968.72,3.237-1.737,3.193-2.43-.042-4.95.588-7.246-.768a22.692,22.692,0,0,1-3.072-2.889c-2.006-3.311-1.824-7.122-2.386-10.754-.208-1.35,0-2.766-1.145-3.815Z" transform="translate(-454.989 -224.259)"/>
      <path id="Path_302" data-name="Path 302" class="cls-7" d="M488.023,236.926c1.506-2.555-1.3-2.4-2.205-3.385-.582-.639-2.135-.647-1.687-1.908.4-1.132,1.648-.677,2.557-.559,5.077.659,5.088.669,3.914-4.471-.185-.813-.591-1.65.379-2.166.879-.467,1.535.064,2.163.682.75.737,6.647,1.413,7.389.882.742,1.244.2,2.4-.25,3.537-.458,1.164-1.215,2.493-.372,3.522,1.131,1.382,2.5-.03,3.768-.222a8.7,8.7,0,0,1,1.234-.009c.521,1.805-2.4,1.986-1.7,3.787-1.532,3.583-4.625,4.391-8.024,4.166C492.321,240.592,489.156,240.532,488.023,236.926Z" transform="translate(-454.989 -224.259)"/>
      <path id="Path_303" data-name="Path 303" class="cls-8" d="M488.023,236.926c5.127,2.891,10.191,2.675,15.2-.31a1.934,1.934,0,0,1,2.049,1.481c-.341,7.164-.351,7.19-7.007,4.783a7.919,7.919,0,0,0-7.424,1.06c-2.868,1.87-4.984,1.722-5.636-2.178C485.412,239.725,483.889,236.675,488.023,236.926Z" transform="translate(-454.989 -224.259)"/>
      <path id="Path_304" data-name="Path 304" class="cls-4" d="M521.507,312.658l3.887-6.508c1.364-1.64,2.7-2.982,5.217-2.985,2.409,0,3.208.933,3.266,3.057-.12,5.44-4.535,6.8-8.321,8.753a7.9,7.9,0,0,0-1.987.192c-.956.285-2.076,1.294-2.86.053C520.169,314.366,521.364,313.571,521.507,312.658Z" transform="translate(-454.989 -224.259)"/>
      <path id="Path_305" data-name="Path 305" class="cls-9" d="M473.156,334.978c1.585-4.115,2.993-8.268,3.1-12.747.018-.759-.207-1.94.883-1.992,1.248-.06,1.315,1.155,1.414,2.1.468,4.486-.777,9.056.653,13.5a1.979,1.979,0,0,1,.359,2.788c-1.976.941-3.937,1.27-5.852-.152Z" transform="translate(-454.989 -224.259)"/>
      <path id="Path_306" data-name="Path 306" class="cls-10" d="M533.877,306.222c-2.791-4.383-5.641-1.719-8.483-.072.478-1.453.92-2.912,2.852-3.021,3.1-.176,5.2-1.659,5.689-4.834.494-3.2-.076-6.021-3.317-7.665-.328-.166-.527-.587-.785-.89,2.256-.341,3.349,1.517,5.42,3.1.05-5.513-1.27-10.628.446-15.54,1.562,7.736.567,15.45-.4,23.128C535.056,302.347,535.694,304.637,533.877,306.222Z" transform="translate(-454.989 -224.259)"/>
      <path id="Path_309" data-name="Path 309" class="cls-10" d="M521.507,312.658c.128,1.067-.817,3.191,1.813,1.747.786-.431,1.546.152,2.237.571-2.061,1.294-4.179,2.01-6.505.644Z" transform="translate(-454.989 -224.259)"/>
      <path id="Path_310" data-name="Path 310" class="cls-11" d="M511.7,338.237c-4.169,1.361-8.491.749-12.718.735-6.59-.022-13.233.817-19.781-.665q0-1.233.009-2.466.082-4.754.166-9.5c.072-4.457.925-5.173,5.2-2.82,6.681,3.678,13.482,3.134,20.44,1.611,2.271-.5,4.106-2.314,6.572-2.319A20.215,20.215,0,0,1,511.7,338.237Z" transform="translate(-454.989 -224.259)"/>
      <path id="Path_311" data-name="Path 311" class="cls-12" d="M487.7,312.336a7.262,7.262,0,0,1-2.376-3.753c-.656-2.182-2.315-4.821-.464-6.537,1.912-1.773,5.132-1.376,7.389-.284a6.942,6.942,0,0,0,6.92.01c1.994-1.028,4.3-.5,6.473-.463,1.54.026,2.181,1.109,1.918,2.531-.272,1.47-.774,2.9-1.175,4.345-1.14,2.029-2.661,1.3-4.21.61-4.957-2.206-6.213-1.894-9.746,2.314C491.157,312.63,490.041,314.859,487.7,312.336Z" transform="translate(-454.989 -224.259)"/>
      <path id="Path_312" data-name="Path 312" class="cls-13" d="M487.7,312.336c1.4.622,1.985.123,2.783-1.243,3.824-6.547,6.925-7.249,13.257-3.218a2.451,2.451,0,0,0,2.646.306c-3.406,8.253-10.773,10.985-17.189,6.4C488.4,314,487.631,313.467,487.7,312.336Z" transform="translate(-454.989 -224.259)"/>
      <path id="Path_313" data-name="Path 313" class="cls-14" d="M481.169,292.922a2.976,2.976,0,0,1-2.884-3.379,2.769,2.769,0,0,1,2.877-2.9,2.917,2.917,0,0,1,3.131,3.118C484.3,291.641,483.058,292.716,481.169,292.922Z" transform="translate(-454.989 -224.259)"/>
      <path id="Path_314" data-name="Path 314" class="cls-15" d="M513.6,289.525c-.17,1.975-1.047,3.157-2.841,3.149a2.919,2.919,0,0,1-.018-5.834C512.578,286.826,513.339,288.082,513.6,289.525Z" transform="translate(-454.989 -224.259)"/>
      <path id="Path_315" data-name="Path 315" class="cls-6" d="M511.7,338.237q-.055-7.711-.113-15.423a3.3,3.3,0,0,1,1.69-2.468l.21.188c1.381,5.951,3.777,11.949-.822,17.621Z" transform="translate(-454.989 -224.259)"/>
      <path id="Path_316" data-name="Path 316" class="cls-16" d="M462.157,294.124c1.954.59,1.86,2.266,2.124,3.636.163.848.325,2.289-1.054,2.085a3.156,3.156,0,0,1-2.646-3.168A2.593,2.593,0,0,1,462.157,294.124Z" transform="translate(-454.989 -224.259)"/>
      <path id="Path_317" data-name="Path 317" class="cls-17" d="M530.757,296.772c-.205.961.215,2.507-1.454,2.355-1.248-.114-1.068-1.447-1.03-2.354.042-1.005-.237-2.532,1.413-2.386C530.936,294.5,530.62,295.84,530.757,296.772Z" transform="translate(-454.989 -224.259)"/>
      <path id="Path_318" data-name="Path 318" class="cls-18" d="M512.666,338.155c1.022-5.839.182-11.765.822-17.622,1.947-.3,2.1.976,2.365,2.434.738,4.12,1.622,8.214,2.449,12.319C517.5,338.354,515.857,339.776,512.666,338.155Z" transform="translate(-454.989 -224.259)"/>
      <path id="Path_319" data-name="Path 319" class="cls-19" d="M496.252,296.382c-1.131-.163-2.905.319-3-1.29-.077-1.364,1.587-1.21,2.633-1.193,1.156.019,2.925-.4,3.021,1.223C498.988,296.477,497.326,296.242,496.252,296.382Z" transform="translate(-454.989 -224.259)"/>
    </g>
  </g>
</svg>
