<svg xmlns="http://www.w3.org/2000/svg" xmlns:xlink="http://www.w3.org/1999/xlink" width="147" height="147" viewBox="0 0 147 147">
  <defs>
    <style>
      .cls-1 {
        fill: none;
      }

      .cls-2 {
        fill: #fff;
      }

      .cls-3 {
        clip-path: url(#clip-path);
      }

      .cls-4 {
        fill: #53331a;
      }

      .cls-5 {
        fill: #faddcd;
      }

      .cls-6 {
        fill: #3d3b3e;
      }

      .cls-7 {
        fill: #c5c8cc;
      }

      .cls-8 {
        fill: #b8cdca;
      }

      .cls-9 {
        fill: #f7706f;
      }

      .cls-10 {
        fill: #ad4e4e;
      }

      .cls-11 {
        fill: #e8e6e3;
      }

      .cls-12 {
        fill: #f3f0ed;
      }

      .cls-13 {
        fill: #423e3b;
      }

      .cls-14 {
        fill: #2b2d28;
      }

      .cls-15 {
        fill: #fcf3ec;
      }

      .cls-16 {
        fill: #694933;
      }

      .cls-17 {
        fill: #654933;
      }

      .cls-18 {
        fill: #f7b9a3;
      }

      .cls-19 {
        fill: #f6b7a4;
      }

      .cls-20 {
        fill: #f6bea9;
      }
    </style>
    <clipPath id="clip-path">
      <rect class="cls-1" width="109.719" height="146.884"/>
    </clipPath>
  </defs>
  <g id="Group_717" data-name="Group 717" transform="translate(-100 -109)">
    <rect id="Rectangle_1690" data-name="Rectangle 1690" class="cls-2" width="147" height="147" transform="translate(100 109)"/>
    <g id="Component_32_1" data-name="Component 32 – 1" class="cls-3" transform="translate(125 109)">
      <path id="Path_404" data-name="Path 404" class="cls-4" d="M1006.439,265.183c-4.032-13.544-3.314-26.7,3.384-39.3,6.869-12.921,17.266-21.34,31.907-23.562a25.947,25.947,0,0,0,11.774-4.346c14.482-10.386,32.739-4.418,41.269,10.546,6.388,11.206,8.346,23.522,9.011,36.131.371,7.022.316,14.075,2.214,20.923.89,3.211,1.919,6.271,5.477,7.727,2.935,1.2,1.4,2.752-.114,3.931a55.342,55.342,0,0,1-22.092,10.776c-2.783.62-5.451,2.14-8.468,1.495-1.513-4.321,1.865-10.415,6.572-11.275,2.628-.48,4.527-1.462,4.884-4.14.368-2.756.443-5.6-2.651-7.176s-4.113-4.29-4.021-7.549c.081-2.88-1.209-4.053-4.13-4.43-11.113-1.433-20.857-5.835-28.619-14.13-1.84-1.966-3.529-2.915-5.826-.473-8.337,8.862-19.283,12.5-30.8,14.432-3.994.671-5.1,2.235-4.975,5.836.084,2.373-.138,4.847-3.351,5.232A1.731,1.731,0,0,1,1006.439,265.183Z" transform="translate(-1003.421 -192.766)"/>
      <path id="Path_405" data-name="Path 405" class="cls-5" d="M1006.439,265.183c2.4,0,3.623-1.021,3.2-3.577a13.667,13.667,0,0,1-.035-2.066c-.07-6.017-.048-5.841,6.084-6.618,12.274-1.555,23.15-6.223,31.558-15.559,2.122-2.355,3.147-2.037,4.994.125,8.085,9.461,18.37,14.834,30.837,15.516,3.592.2,5,1.507,4.674,4.978-.327,3.487-.242,6.287,3.972,8.15,3.7,1.637,2.717,6.037,2.222,9.362a5.125,5.125,0,0,1-5.617,4.467c-2.7-.084-3.931,1.209-4.756,3.572a63.24,63.24,0,0,1-2.77,5.975c-3.706,4.992-7.443,9.958-12.159,14.078a3.779,3.779,0,0,1-1.555,2.809c-2.38,1.394-3.539,3.732-4.839,5.979-3.17,1.952-4.439,5.272-5.375,8.5a54.429,54.429,0,0,1-5.092,11.626,4.727,4.727,0,0,1-4.329,2.635,2.636,2.636,0,0,1-2.115-1.977c-.175-.939.5-1.9-.042-2.829-2.868-4.888-4.115-10.474-6.677-15.5a5.2,5.2,0,0,0-2.986-2.585c-1.254-3.042-4.011-5.056-5.467-7.962-6.732-6.48-12.95-13.329-16.192-22.345a2.712,2.712,0,0,0-3.024-1.655c-3.048.177-5.662-.833-6.632-3.742-1.128-3.38-1.6-6.983,1.1-10.083C1005.778,266.043,1006.1,265.606,1006.439,265.183Z" transform="translate(-1003.421 -192.766)"/>
      <path id="Path_406" data-name="Path 406" class="cls-6" d="M1046,332.848l1.518,1.728c1.928.13,2.765-1.175,3.786-2.545,2.72-3.648,5.551-6.993,6.894-11.684a67.947,67.947,0,0,1,3.533-8.35c-1.054-5.562,3.854-6.225,6.912-8.41a19.412,19.412,0,0,0,5.521,4.2,16.177,16.177,0,0,1,6.2,5.855,71.327,71.327,0,0,1,8.863,18.958c.426,1.464,1.061,2.945-.754,3.974-1.713,2.948-4.712,1.713-7.179,2.207-2.856.637-3.4-1.582-4.242-3.433-.392-.862-.641-1.986-1.846-1.9-1.133.077-1.586,1.117-1.744,2.05-.553,3.281-2.6,4.005-5.637,3.975-11.955-.118-23.912-.075-35.868-.046-2.626.006-5-.092-5.418-3.523a2.006,2.006,0,0,0-1.88-1.89c-1.153.007-1.562,1.121-1.845,1.98-.76,2.311-2.014,3.545-4.572,2.649-2.5-.395-5.394.683-7.282-1.967-.769-6.3,3-11.21,5.137-16.6,2.752-6.931,8.339-11.452,14.068-15.793,3.552,1.342,6.989,2.779,6.148,7.652,2.185,1.813,1.8,4.846,2.418,7.042C1040.218,324.261,1045.095,327.493,1046,332.848Z" transform="translate(-1003.421 -192.766)"/>
      <path id="Path_407" data-name="Path 407" class="cls-7" d="M1081.3,338.776c2.186-1.4,4.86-1.221,7.177-2.207,1.618,1.464,1.575,2.611-.764,2.9A10.943,10.943,0,0,1,1081.3,338.776Z" transform="translate(-1003.421 -192.766)"/>
      <path id="Path_408" data-name="Path 408" class="cls-8" d="M1010.962,336.666a18.274,18.274,0,0,1,7.282,1.967c-1.655,1.111-3.536,1.067-5.4.973C1010.935,339.509,1010.242,338.512,1010.962,336.666Z" transform="translate(-1003.421 -192.766)"/>
      <path id="Path_409" data-name="Path 409" class="cls-9" d="M1059.918,288.166c-4.377,9.326-13.077,11.13-20.491,4.248a15.515,15.515,0,0,1,.886-3.581c2.349-6.17,9.8-9.311,15.6-6.48A6.836,6.836,0,0,1,1059.918,288.166Z" transform="translate(-1003.421 -192.766)"/>
      <path id="Path_410" data-name="Path 410" class="cls-10" d="M1059.918,288.166c-2.519-1.128-3.3-4.356-6.281-5.013-5.056-1.114-9.368,1.087-11.469,6.22-.579,1.416-.8,2.949-2.743,3.04a18.25,18.25,0,0,1-4.955-11.222c-.175-1.892.513-2.621,2.292-1.352l.021.021c5.619,2,11.427.413,17.132.875,2.683.216,5.495.488,7.991-1.882A12.426,12.426,0,0,1,1059.918,288.166Z" transform="translate(-1003.421 -192.766)"/>
      <path id="Path_411" data-name="Path 411" class="cls-11" d="M1046,332.848c-2.316-2.5-5.36-4.667-6.732-7.611-1.253-2.686-2.066-5.543-3.7-8.171-.7-1.125.442-3.389.747-5.136.762-.718.11-2.566,1.63-2.5,1.4.059,1.182,1.6,1.565,2.57q3.523,8.934,7.087,17.852C1047.045,330.977,1047.873,332.184,1046,332.848Z" transform="translate(-1003.421 -192.766)"/>
      <path id="Path_412" data-name="Path 412" class="cls-12" d="M1061.728,312c-.067,2.855,2.981,6.576-2.234,8.028a1.11,1.11,0,0,0-.429.969c2.253,3.816-1.412,5.306-2.977,7.581-1.472,2.139-3.839,3.447-5.288,5.684-.645.995-2.009,2.17-3.285.317,5.121-2.936,5.581-8.607,7.3-13.323,1.131-3.1,2.917-5.885,3.772-9.1C1059.185,309.915,1060.621,311.15,1061.728,312Z" transform="translate(-1003.421 -192.766)"/>
      <path id="Path_413" data-name="Path 413" class="cls-13" d="M1069.926,264.928c-.857,1.761-1.89,3.35-4.235,2.959-2.366-.394-3.133-2.167-2.883-4.231a3.164,3.164,0,0,1,3.809-2.872C1069,261.024,1069.521,262.923,1069.926,264.928Z" transform="translate(-1003.421 -192.766)"/>
      <path id="Path_414" data-name="Path 414" class="cls-14" d="M1034.629,264.27c-.466,1.806-1.123,3.5-3.35,3.54-2.318.039-3.666-1.295-3.573-3.567.08-1.949,1.128-3.459,3.365-3.364C1033.144,260.967,1034.22,262.288,1034.629,264.27Z" transform="translate(-1003.421 -192.766)"/>
      <path id="Path_415" data-name="Path 415" class="cls-15" d="M1036.762,279.839c.2-.9.139-2.048,1.508-2.051a163.246,163.246,0,0,1,20.011.8c-7.114,1.706-14.345.8-21.5,1.273Z" transform="translate(-1003.421 -192.766)"/>
      <path id="Path_416" data-name="Path 416" class="cls-16" d="M1036.957,256.411c-.715,1.026-1.749.748-2.566.39a8.236,8.236,0,0,0-7.106-.079c-.851.392-2.06.741-2.587-.227-.6-1.1.673-1.61,1.373-2.118C1029.661,251.767,1034.007,252.6,1036.957,256.411Z" transform="translate(-1003.421 -192.766)"/>
      <path id="Path_417" data-name="Path 417" class="cls-17" d="M1072.253,256.673c-3.883-.54-7.707-1.173-11.448.339-.2.082-.8-.307-.912-.593-.31-.814.457-1.2.922-1.612C1064.138,251.829,1068.8,252.367,1072.253,256.673Z" transform="translate(-1003.421 -192.766)"/>
      <path id="Path_418" data-name="Path 418" class="cls-18" d="M1011.21,273.135c-.2,1.221.326,3.172-1.774,2.913-1.894-.234-2.433-1.965-2.389-3.746.035-1.429.287-3.045,2.048-2.954C1011.4,269.467,1011.04,271.533,1011.21,273.135Z" transform="translate(-1003.421 -192.766)"/>
      <path id="Path_419" data-name="Path 419" class="cls-19" d="M1090.69,272.422c-.107,1.6-.4,3.473-2.472,3.473-1.884,0-1.621-1.867-1.623-3.177,0-1.5-.032-3.329,2.032-3.381C1090.4,269.293,1090.616,270.874,1090.69,272.422Z" transform="translate(-1003.421 -192.766)"/>
      <path id="Path_420" data-name="Path 420" class="cls-20" d="M1048.489,270.979c-1.131-.163-2.905.319-3-1.29-.077-1.364,1.587-1.21,2.633-1.193,1.156.019,2.925-.4,3.021,1.223C1051.225,271.074,1049.563,270.839,1048.489,270.979Z" transform="translate(-1003.421 -192.766)"/>
    </g>
  </g>
</svg>
