<svg xmlns="http://www.w3.org/2000/svg" xmlns:xlink="http://www.w3.org/1999/xlink" width="147" height="147" viewBox="0 0 147 147">
  <defs>
    <style>
      .cls-1 {
        fill: none;
      }

      .cls-2 {
        fill: #fff;
      }

      .cls-3 {
        clip-path: url(#clip-path);
      }

      .cls-4 {
        fill: #53331a;
      }

      .cls-5 {
        fill: #f86969;
      }

      .cls-6 {
        fill: #dae1df;
      }

      .cls-7 {
        fill: #dee1e0;
      }

      .cls-8 {
        fill: #6f4b3c;
      }

      .cls-9 {
        fill: #984536;
      }

      .cls-10 {
        fill: #faddcd;
      }

      .cls-11 {
        fill: #caaf97;
      }

      .cls-12 {
        fill: #ddbda6;
      }

      .cls-13 {
        fill: #c95255;
      }

      .cls-14 {
        fill: #f86e6e;
      }

      .cls-15 {
        fill: #ae4d4e;
      }

      .cls-16 {
        fill: #f7eeeb;
      }

      .cls-17 {
        fill: #423f3a;
      }

      .cls-18 {
        fill: #765b46;
      }

      .cls-19 {
        fill: #7b6049;
      }

      .cls-20 {
        fill: #322e2b;
      }

      .cls-21 {
        fill: #f7b9a7;
      }

      .cls-22 {
        fill: #f7baa5;
      }

      .cls-23 {
        fill: #f6bea9;
      }
    </style>
    <clipPath id="clip-path">
      <rect class="cls-1" width="96.772" height="136.441"/>
    </clipPath>
  </defs>
  <g id="Group_719" data-name="Group 719" transform="translate(-107 -109)">
    <rect id="Rectangle_1690" data-name="Rectangle 1690" class="cls-2" width="147" height="147" transform="translate(107 109)"/>
    <g id="Component_30_1" data-name="Component 30 – 1" class="cls-3" transform="translate(132 119)">
      <path id="Path_363" data-name="Path 363" class="cls-4" d="M781.053,323.5c-5.3-5.976-6.555-13.32-6.48-20.86.182-18.322-1.1-36.758,2.111-54.908,3.212-18.178,12.192-32.922,29.511-40.773,14.059-6.373,27.955-4.647,40.844,4.054,9.881,6.67,15.749,16.117,19.653,27.211,3.546,10.073,4.541,20.381,4.514,30.91-.031,11.868-.222,23.74.029,35.6a31.289,31.289,0,0,1-6.211,19.276c-2.358.612-3.031-1.226-3.854-2.728-3.723-6.788-7.993-13.1-14.673-17.392a3.988,3.988,0,0,1-2.036-3.791,6.007,6.007,0,0,1,1.975-3.539,43.9,43.9,0,0,0,8.49-12.632c1.306-2.79,3.028-4.827,6.415-5.054a4.025,4.025,0,0,0,3.9-3.669c.237-2.1,1.075-4.967-1.246-6.094-5.225-2.537-4.653-7.4-5.25-11.718-.71-5.139-.527-5.038-5.828-5.74-2.953-.391-5.763-1.837-8.819-.147-.866.479-2.142-.2-3.045-.919-1.7-1.676-.882-3.794-.975-5.751a9.787,9.787,0,0,1-1.628,5.679,43.14,43.14,0,0,1-17.822-.167,3.919,3.919,0,0,0-2.329-.037c-5.088,1.626-10.261.994-15.414.383-.642-.077-1.246-.672-1.951-.392-3.828,1.521-4.874-.861-5.557-3.968-.363,3.186-2,4.925-5.229,5.274-2.263.245-3.31,1.757-3.079,4.067a46.826,46.826,0,0,0-.258,5.773c.01,2.918-.684,5.344-3.535,6.9-2.568,1.406-2.578,4.054-2.327,6.57a4.678,4.678,0,0,0,4,4.2c4.128.829,6.169,3.6,7.968,7.067A44.029,44.029,0,0,0,800,296.8a5.261,5.261,0,0,1,1.64,3.253,4.761,4.761,0,0,1-2.808,4.223c-6.369,3.585-9.995,9.513-13.561,15.534C784.292,321.457,783.842,323.861,781.053,323.5Z" transform="translate(-774.47 -203.124)"/>
      <path id="Path_364" data-name="Path 364" class="cls-5" d="M845.336,300.923c9.6,5.105,14.6,14.14,19.689,23.089q.793,2.429,1.588,4.861a10.5,10.5,0,0,1-11.229,4.369l-2.739-4.111c-3.06-2.151-3.707-1.712-4.43,3.008-1.142,7.258-1.142,7.253-8.461,7.242-11.593-.016-23.193-.248-34.777.074-4.55.126-7.081-.884-7.055-5.8a34.041,34.041,0,0,0-.561-4.508c-1.079-1.986-2.414-2.2-4.012-.578l-2.82,4.375a10.194,10.194,0,0,1-11.187-4.164q.855-2.639,1.711-5.277c2.863-4.662,5.353-9.55,8.672-13.931,2.971-3.922,7.215-6.2,11.177-8.843,4.033-.961,5.643,2.571,7.99,4.518,1.642,1.364,2.757,3.381,4.1,5.108,1.719,2.2,3.9,2.98,6.507,1.527a6.41,6.41,0,0,1,5.9-.3c4.01,1.634,5.924,1.177,8.544-2.181,2.282-2.925,4.54-5.849,7.676-7.916C842.734,300.75,843.841,299.345,845.336,300.923Z" transform="translate(-774.47 -203.124)"/>
      <path id="Path_365" data-name="Path 365" class="cls-6" d="M779.342,328.777l11.187,4.163c1.33,5.634.6,6.588-5.1,6.569a29.749,29.749,0,0,1-5.736-.165,5.429,5.429,0,0,1-4.64-5.049C774.87,331.45,776.136,329.234,779.342,328.777Z" transform="translate(-774.47 -203.124)"/>
      <path id="Path_366" data-name="Path 366" class="cls-7" d="M855.384,333.243q5.613-2.187,11.228-4.371c2.74,1.14,4.5,3.208,3.664,6.116-.825,2.888-2.793,5.01-6.4,4.478a27.392,27.392,0,0,0-3.718.063C855,339.495,854.221,338.454,855.384,333.243Z" transform="translate(-774.47 -203.124)"/>
      <path id="Path_367" data-name="Path 367" class="cls-8" d="M848.215,332.139a14.979,14.979,0,0,1,1.39-7.843,7.346,7.346,0,0,1,3.043,4.838C850.054,328.493,848.862,329.914,848.215,332.139Z" transform="translate(-774.47 -203.124)"/>
      <path id="Path_368" data-name="Path 368" class="cls-9" d="M793.349,328.566c.557-1.8.929-4.551,3.082-4.143,1.876.356,1.028,3.008.93,4.724Q795.354,328.853,793.349,328.566Z" transform="translate(-774.47 -203.124)"/>
      <path id="Path_369" data-name="Path 369" class="cls-10" d="M845.336,300.923a41.665,41.665,0,0,0-9.946,9.633c-3.578,4.764-6.194,5.156-11.162,2.271a2.586,2.586,0,0,0-2.994-.05c-5.067,2.894-7.2,2.55-10.553-2.3a38.554,38.554,0,0,0-9.78-9.751c-4.732-5.365-9.1-10.976-11.7-17.747-.611-1.6-1.815-1.808-3.274-1.885-3.284-.173-6.073-1.334-6.545-4.979-.477-3.684-.948-7.734,3.486-9.541,2.055-.837,2.151-2.1,2.1-3.837-.065-2.329.005-4.66.016-6.991a1.8,1.8,0,0,0,.435-1.531c-.516-3.083.686-4.076,3.834-3.919,4.827.241,4.831.025,5.3-4.964.069-.739-.324-1.706,1.059-2.076,1.148,1.329.287,3.119.835,4.6.433,1.169.648,2.924,2.179,2.408,3.552-1.2,7.014.01,10.388.3,4.659.4,9.007-1.628,13.847-.431,4.422,1.094,9.318.234,14,.235,1.572.494,2.75-3.141,4.539-.438,3,.236,6.247.994,7.12-3.7.064,3.581,2.031,4.121,4.742,3.816,1.36-.153,2.757.068,4.13-.009,1.84-.1,2.856.515,2.9,2.52.042,1.924.33,3.842.42,5.766.173,3.719-.458,7.334,4.334,9.452,3.3,1.461,2.311,5.63,1.823,8.678a5.221,5.221,0,0,1-5.355,4.353c-2.638.075-3.826,1.28-4.8,3.586C854.074,290.658,849.893,295.935,845.336,300.923Z" transform="translate(-774.47 -203.124)"/>
      <path id="Path_370" data-name="Path 370" class="cls-11" d="M837.964,250.654c-6.151-.148-12.329-.28-18.445-.431-5.766-.143-11.66.545-17.546.1-5.713-.432-5.725-.274-6.783-5.758.626,5.189-1.856,6.844-6.555,6.274-3.882-.471-2.117,3.493-3.645,4.906-.508-5.745-.452-6.005,4.7-5.878,2.856.07,3.93-1.121,4.353-3.659.288-1.728.084-3.584,1.252-5.545,1.727,1.952,1.188,4.24,1.683,6.205.255,1.014-.119,2.451,1.25,2.766,1.793.413,1.8-1.235,2.221-2.333a1.237,1.237,0,0,1,1.494-.972c.276,3.5,2.723,3.839,5.707,3.474a23.439,23.439,0,0,1,4.541.017c3.329.247,6.482.283,7.245-4.585,1.341,6.008,5.7,4.531,9.383,4.558,3.029.022,6.059-.039,9.089-.063.281.191.382.391.3.6S838.052,250.654,837.964,250.654Z" transform="translate(-774.47 -203.124)"/>
      <path id="Path_371" data-name="Path 371" class="cls-12" d="M837.964,250.654c-.017-.308-.035-.616-.052-.925.566-2.632,1.131-5.264,1.9-8.861,1.634,3.539.975,6.416,1.593,9.062C840.09,249.36,839.052,250.123,837.964,250.654Z" transform="translate(-774.47 -203.124)"/>
      <path id="Path_372" data-name="Path 372" class="cls-13" d="M835.408,321.222c5.68-.019,6.833.861,6.8,4.991-.042,4.67-2.509,8.2-5.754,8.243-3.149.036-6.564-4.928-6.651-9.635C829.714,320.279,833.126,321.47,835.408,321.222Z" transform="translate(-774.47 -203.124)"/>
      <path id="Path_373" data-name="Path 373" class="cls-14" d="M833.787,288.981c-4.907,8.962-13.012,10.679-19.58,4.149a14.585,14.585,0,0,1,1.97-6.167c2.952-4.4,10.442-6,14.9-3.192C833.081,285.037,833.5,286.924,833.787,288.981Z" transform="translate(-774.47 -203.124)"/>
      <path id="Path_374" data-name="Path 374" class="cls-15" d="M833.787,288.981c-1.9-1.913-3.412-4.3-6.323-4.951-5.145-1.146-9.2,1.1-10.87,6.3-.447,1.4-.641,2.664-2.388,2.8-3.668-3.472-5.108-7.768-5.045-13.271,2.3,1.339,4.252,2.193,6.455,1.545a2.4,2.4,0,0,1,2.053-1.148c5.423.129,10.869-.591,16.269.418.843-.064,2.408-2.064,2.206.718C835.948,284.078,835.5,286.739,833.787,288.981Z" transform="translate(-774.47 -203.124)"/>
      <path id="Path_375" data-name="Path 375" class="cls-16" d="M833.938,280.672c-6.046,1.762-12.21.587-18.322.73-.79-1.015-2.454-.439-3.422-2.247,7.02,0,13.743-.028,20.464.065C833.092,279.226,833.512,280.166,833.938,280.672Z" transform="translate(-774.47 -203.124)"/>
      <path id="Path_376" data-name="Path 376" class="cls-17" d="M840.1,269.28c-2.319-.268-3.58-1.6-3.526-3.777a3.414,3.414,0,0,1,6.821-.1C843.567,267.633,842.136,268.833,840.1,269.28Z" transform="translate(-774.47 -203.124)"/>
      <path id="Path_377" data-name="Path 377" class="cls-18" d="M811.635,258.337a27.494,27.494,0,0,0-12.6.374C802.368,253.116,807.308,253.014,811.635,258.337Z" transform="translate(-774.47 -203.124)"/>
      <path id="Path_378" data-name="Path 378" class="cls-19" d="M846.365,258.785c-4.106-.844-7.826-1.677-11.463-.156a.883.883,0,0,1-1.233-.711,2.305,2.305,0,0,1,.714-1.323C837.652,253,843.207,253.752,846.365,258.785Z" transform="translate(-774.47 -203.124)"/>
      <path id="Path_379" data-name="Path 379" class="cls-20" d="M809.143,265.357c-.251,2.048-1.134,3.691-3.191,3.759a3.192,3.192,0,0,1-3.469-3.287,3.053,3.053,0,0,1,3.075-3.573C807.595,262.137,808.767,263.444,809.143,265.357Z" transform="translate(-774.47 -203.124)"/>
      <path id="Path_380" data-name="Path 380" class="cls-21" d="M863.714,273.387c-.109,1.585-.549,3.308-2.3,3.326-2.179.023-1.741-2.026-1.75-3.423-.009-1.5.088-3.294,2.24-3.077C863.657,270.39,863.642,272.011,863.714,273.387Z" transform="translate(-774.47 -203.124)"/>
      <path id="Path_381" data-name="Path 381" class="cls-22" d="M786.665,273.959c-.117,1.334-.064,2.93-1.753,2.8-1.8-.136-2.372-1.713-2.282-3.337.072-1.324.14-3.169,1.988-2.944C786.4,270.7,786.553,272.521,786.665,273.959Z" transform="translate(-774.47 -203.124)"/>
      <path id="Path_382" data-name="Path 382" class="cls-23" d="M823.176,273.188c-1.131-.163-2.905.319-3-1.29-.077-1.364,1.587-1.21,2.633-1.193,1.156.019,2.925-.4,3.021,1.223C825.913,273.283,824.25,273.048,823.176,273.188Z" transform="translate(-774.47 -203.124)"/>
    </g>
  </g>
</svg>
