<svg xmlns="http://www.w3.org/2000/svg" xmlns:xlink="http://www.w3.org/1999/xlink" width="147" height="147" viewBox="0 0 147 147">
  <defs>
    <style>
      .cls-1 {
        fill: none;
      }

      .cls-2 {
        fill: #fff;
      }

      .cls-3 {
        clip-path: url(#clip-path);
      }

      .cls-4 {
        fill: #faddcd;
      }

      .cls-5 {
        fill: #53331a;
      }

      .cls-6 {
        fill: #f2eaeb;
      }

      .cls-7 {
        fill: #e66a6b;
      }

      .cls-8 {
        fill: #e56d72;
      }

      .cls-9 {
        fill: #a84547;
      }

      .cls-10 {
        fill: #f76f6f;
      }

      .cls-11 {
        fill: #2b2c2c;
      }

      .cls-12 {
        fill: #39302b;
      }

      .cls-13 {
        fill: #f7bda6;
      }

      .cls-14 {
        fill: #f5b6a5;
      }

      .cls-15 {
        fill: #f6bea9;
      }
    </style>
    <clipPath id="clip-path">
      <rect class="cls-1" width="76.403" height="99.87"/>
    </clipPath>
  </defs>
  <g id="Group_723" data-name="Group 723" transform="translate(-107 -109)">
    <rect id="Rectangle_1690" data-name="Rectangle 1690" class="cls-2" width="147" height="147" transform="translate(107 109)"/>
    <g id="Component_26_1" data-name="Component 26 – 1" class="cls-3" transform="translate(142 156)">
      <path id="Path_287" data-name="Path 287" class="cls-4" d="M425.224,338.326l-1.282.321c-1.655-1-1.135-2.645-1.176-4.1-.065-2.277-.982-3.248-3.4-2.731a55.669,55.669,0,0,1-25.327-.211c-2.137-.53-3.117-.023-3.179,2.268-.046,1.733.227,3.689-1.818,4.688l-1.148-.087a3.867,3.867,0,0,1-1.39-3.612,22.487,22.487,0,0,0-1.853-9.832c-4.35-3.87-6.615-8.925-8.084-14.4-.33-1.231-.575-2.265-1.951-2.831-6.713-2.761-7.6-6.331-3.191-12.425,1.877-2.345,1.651-5.157,1.749-7.894.268-7.478,3.768-10.948,11.321-11.15,3.3-.088,6.609-.006,9.913-.008a6.872,6.872,0,0,1,6.806,4.372c1.652,3.517,5.79,3.707,7.443.063,1.7-3.755,4.382-4.518,7.931-4.47,4.13.057,8.263-.081,12.391.062,6.753.235,10.05,3.373,10.767,10.013.338,3.129.54,6.336,2.8,8.877,3.038,4.991,3.451,9.63.081,10.868-5.141,1.889-5.51,6.2-7.025,10.042-1.353,3.43-4.079,5.776-6.176,8.616a20.653,20.653,0,0,0-2.236,10.216A3.418,3.418,0,0,1,425.224,338.326Z" transform="translate(-368.586 -239.455)"/>
      <path id="Path_288" data-name="Path 288" class="cls-5" d="M442.542,295.236c-2.757.176-4.093-1.132-4.154-3.879-.034-1.516-.156-3.032-.3-4.543-.569-5.982-3.392-8.631-9.349-8.7-4.967-.055-9.935,0-14.9-.045-2.1-.021-3.321.556-3.43,3-.213,4.8-.328,4.789-4.384,2.71-.6,1.463,1.1,2.49.619,4.162-3.783-.4-6.382-2.457-7.008-6.158-.558-3.292-2.271-3.884-5.13-3.745-3.717.181-7.451-.005-11.174.1-5.184.146-7.808,2.725-8.12,7.888a33.394,33.394,0,0,0-.044,5.375c.3,2.893-.987,4.062-3.74,3.966-2.761-6.485-3.165-13.325-2.646-20.2,1.191-15.757,14.7-28.519,31.144-30.268,1.735-.184,4.15.462,3.45-2.854-.167-.793.775-1.091,1.492-.761a2.2,2.2,0,0,0,3.161-.919,1.507,1.507,0,0,1,2.45-.465c1.023.889.362,1.637-.331,2.432-1.673,1.919-.163,2.113,1.334,2.522,3.446.942,7.013,1.14,10.462,2.283C434.39,251.27,441.788,259.5,443.35,272.6A67.24,67.24,0,0,1,442.542,295.236Z" transform="translate(-368.586 -239.455)"/>
      <path id="Path_289" data-name="Path 289" class="cls-6" d="M389.041,338.559v-10.8c9.785,4.353,19.408,4.38,29.01,2.325,6.107-1.307,7.434-.483,6.484,5.751-.144.946-.394,1.876-.594,2.814A273.871,273.871,0,0,1,389.041,338.559Z" transform="translate(-368.586 -239.455)"/>
      <path id="Path_290" data-name="Path 290" class="cls-7" d="M384.65,325.028c2.5.684,3.45,2.49,3.436,4.9-.016,2.849-.122,5.7-.191,8.544-4.281,1.513-8.69.587-13,.427-2.588-.1-1.37-2.155-.545-3.326A49.3,49.3,0,0,1,384.65,325.028Z" transform="translate(-368.586 -239.455)"/>
      <path id="Path_291" data-name="Path 291" class="cls-8" d="M425.224,338.326c.1-2.574.335-5.151.277-7.722-.067-2.955.94-5.018,3.921-5.843,3.4,3.728,7.546,6.737,10.272,11.119,1.344,2.16,1.451,3.261-1.529,3.081C433.854,338.7,429.459,340.145,425.224,338.326Z" transform="translate(-368.586 -239.455)"/>
      <path id="Path_292" data-name="Path 292" class="cls-9" d="M399.146,318.02a15.743,15.743,0,0,1-3.917-8.492c-.41-2.505.337-3.552,3-3.481,5.24.14,10.486.055,15.729.061,4.4.006,4.986.779,3.882,5.171a19.311,19.311,0,0,1-.707,1.943c-1.364,1.8-2.7,1.058-4.244.137-4.275-2.558-6.869-1.865-9.4,2.476C402.472,317.576,401.631,319.342,399.146,318.02Z" transform="translate(-368.586 -239.455)"/>
      <path id="Path_293" data-name="Path 293" class="cls-10" d="M399.146,318.02c1.437-.16,1.87-1.108,2.4-2.377,2.637-6.342,7.6-7.489,12.969-3.011a3.059,3.059,0,0,0,2.621.587C413.757,322.037,405.549,324.227,399.146,318.02Z" transform="translate(-368.586 -239.455)"/>
      <path id="Path_294" data-name="Path 294" class="cls-11" d="M424.443,294.895c-.257,1.569-1.114,2.793-2.937,2.607a2.684,2.684,0,0,1-2.607-3.093c.118-1.777,1.147-2.92,2.9-2.762C423.457,291.8,424.457,292.957,424.443,294.895Z" transform="translate(-368.586 -239.455)"/>
      <path id="Path_295" data-name="Path 295" class="cls-12" d="M392.058,291.495c1.577.39,2.942,1.126,2.9,2.916-.032,1.545-.606,3.113-2.532,3.106-1.837-.007-3.222-.976-3.112-2.989A2.951,2.951,0,0,1,392.058,291.495Z" transform="translate(-368.586 -239.455)"/>
      <path id="Path_296" data-name="Path 296" class="cls-13" d="M442.057,301.162c-.05,1.447-.159,3.14-1.95,3.079-1.72-.06-1.725-1.923-1.949-3.21-.227-1.309.135-2.662,1.732-2.736C441.785,298.208,441.893,299.79,442.057,301.162Z" transform="translate(-368.586 -239.455)"/>
      <path id="Path_297" data-name="Path 297" class="cls-14" d="M375.24,302.374c.192,1.2.064,2.156-1.29,2.077-1.736-.1-2.221-1.369-2.2-2.855.021-1.464.639-3.126,2.152-2.884C375.9,299.031,374.654,301.26,375.24,302.374Z" transform="translate(-368.586 -239.455)"/>
      <path id="Path_298" data-name="Path 298" class="cls-15" d="M407.894,300.8c-1.131-.163-2.9.319-3-1.29-.077-1.364,1.587-1.211,2.633-1.193,1.156.018,2.925-.4,3.021,1.223C410.631,300.894,408.968,300.66,407.894,300.8Z" transform="translate(-368.586 -239.455)"/>
    </g>
  </g>
</svg>
