<svg xmlns="http://www.w3.org/2000/svg" width="85.429" height="78" viewBox="0 0 85.429 78"><defs><style>.a{opacity:0.25;}</style></defs><path class="a" d="M78,19.571H66.114l-6.686-7.429H37.143v7.429H56.086L63.143,27H78V71.571H18.571V38.143H11.143V71.571A7.45,7.45,0,0,0,18.571,79H78a7.45,7.45,0,0,0,7.429-7.429V27A7.45,7.45,0,0,0,78,19.571M29.714,49.286c0,16.529,20.02,24.849,31.72,13.149s3.38-31.72-13.149-31.72A18.578,18.578,0,0,0,29.714,49.286M48.286,38.143A11.477,11.477,0,0,1,59.429,49.286,11.477,11.477,0,0,1,48.286,60.429,11.477,11.477,0,0,1,37.143,49.286,11.477,11.477,0,0,1,48.286,38.143M18.571,19.571H29.714V12.143H18.571V1H11.143V12.143H0v7.429H11.143V30.714h7.429" transform="translate(0 -1)"/></svg>