<svg xmlns="http://www.w3.org/2000/svg" width="54" height="54" viewBox="0 0 54 54"><defs><style>.a{fill:#bce0fd;}</style></defs><path class="a" d="M72.912,47.138H62.328c-.137,0-.228-.337-.228-.848V39.548c0-.511.091-.848.228-.848H72.912c.137,0,.228.337.228.848V46.3C73.137,46.8,73.023,47.138,72.912,47.138ZM62.553,45.453H72.684V40.4H62.553Z" transform="translate(-25.295 -34.492)"/><path class="a" d="M7.6,47.138H2.534A2.489,2.489,0,0,1,0,44.6V41.234A2.489,2.489,0,0,1,2.534,38.7H7.59a.8.8,0,0,1,.848.848V46.3A.793.793,0,0,1,7.6,47.138ZM2.534,40.472a.8.8,0,0,0-.848.848v3.371a.8.8,0,0,0,.848.848H6.753V40.472Z" transform="translate(0 -34.492)"/><path class="a" d="M16.241,198.6a2.428,2.428,0,0,0-1.348.174,2.374,2.374,0,0,0-1.772-1.435,2.428,2.428,0,0,0-1.348.174A2.374,2.374,0,0,0,10,196.078a2.464,2.464,0,0,0-2.61,1.435,2.437,2.437,0,0,0-1.348-.174,2.539,2.539,0,0,0-2.033,2.523v3.632a2.746,2.746,0,0,0-1.185-.087A2.533,2.533,0,0,0,.8,205.94v5.48a6.846,6.846,0,0,0,3.034,5.741c.033.011.054.033.087.044v10.667a.8.8,0,0,0,.848.848H14.806a.848.848,0,0,0,.848-.848V216.662a10.725,10.725,0,0,1,.935-1.87,9.186,9.186,0,0,0,1.685-5.48v-8.177A2.485,2.485,0,0,0,16.241,198.6Zm-2.273,28.424H5.617v-9.449h8.351Zm2.784-17.8a7.22,7.22,0,0,1-1.348,4.469,12.55,12.55,0,0,0-1.1,2.2H5.019a2.5,2.5,0,0,1-.359-.228A5.137,5.137,0,0,1,2.4,211.334v-5.48a.994.994,0,0,1,.924-.848.782.782,0,0,1,.848.761h0v5.056a.8.8,0,0,0,.848.848.8.8,0,0,0,.848-.848V199.764a.842.842,0,0,1,.587-.848.777.777,0,0,1,.848.761v6.992a.8.8,0,0,0,.848.848A.848.848,0,0,0,9,206.669v-8.253a.759.759,0,0,1,.924-.761.842.842,0,0,1,.587.848v8.188a.8.8,0,0,0,.848.848.912.912,0,0,0,.848-.848v-7a.7.7,0,0,1,.848-.761.842.842,0,0,1,.587.848v1.185h0v5.73a.8.8,0,0,0,.848.848.912.912,0,0,0,.848-.848v-5.73h0a.7.7,0,0,1,.848-.761.842.842,0,0,1,.587.848v8.177Z" transform="translate(-0.713 -174.733)"/><path class="a" d="M425.248,46.782a.62.62,0,0,1-.424-.087.905.905,0,0,1-.424-.761V39.192a.905.905,0,0,1,.424-.761.754.754,0,0,1,.848,0l6.155,3.371a.9.9,0,0,1,0,1.522l-6.155,3.371A.766.766,0,0,1,425.248,46.782Zm.837-6.155v3.882l3.545-1.936Z" transform="translate(-378.251 -34.135)"/><path class="a" d="M199.444,219.841h-12.4a.8.8,0,0,1-.848-.848V186.948a.8.8,0,0,1,.848-.848h12.32a.8.8,0,0,1,.848.848V219A.783.783,0,0,1,199.444,219.841ZM187.9,218.156H198.52V187.8H187.9v30.36Z" transform="translate(-165.953 -165.864)"/><g transform="translate(16.376)"><path class="a" d="M167.716,21.932h-12.4c-.174,0-.25,0-.337-.087a3.512,3.512,0,0,1-.587-.337,8.075,8.075,0,0,1-3.8-7V11.972a.854.854,0,0,1,.837-.837h3.121V4.469A2.791,2.791,0,0,1,157.092,1.6a2.623,2.623,0,0,1,1.6.337A2.528,2.528,0,0,1,161.224,0a2.728,2.728,0,0,1,2.61,1.859,3.465,3.465,0,0,1,1.6-.337,2.846,2.846,0,0,1,2.36,1.859,3.464,3.464,0,0,1,1.6-.337,2.916,2.916,0,0,1,2.534,2.871v6.416a10.426,10.426,0,0,1-2.11,6.078,10.656,10.656,0,0,0-1.348,2.871A.793.793,0,0,1,167.716,21.932Zm-12.233-1.7h11.559a10.093,10.093,0,0,1,1.348-2.7,8.373,8.373,0,0,0,1.772-5.056v-6.5a1.2,1.2,0,0,0-1.011-1.261A1.217,1.217,0,0,0,167.966,5.9a.848.848,0,1,1-1.7,0V4.469a1.2,1.2,0,0,0-1.011-1.261A1.108,1.108,0,0,0,164,4.306a.848.848,0,0,1-1.7,0V2.86a1.144,1.144,0,0,0-1.1-1.185,1.124,1.124,0,0,0-1.1,1.1V4.3a.848.848,0,0,1-1.7,0,1.108,1.108,0,0,0-1.261-1.1,1.209,1.209,0,0,0-1.011,1.261v7.5a.772.772,0,0,1-.25.587.894.894,0,0,1-.587.25h-3.1v1.685a6.3,6.3,0,0,0,2.958,5.48A1.921,1.921,0,0,1,155.482,20.236Z" transform="translate(-150.6 0)"/><path class="a" d="M295.648,51.98a.8.8,0,0,1-.848-.848V47.348a.848.848,0,1,1,1.7,0V51.23A.834.834,0,0,1,295.648,51.98Z" transform="translate(-279.12 -41.444)"/><path class="a" d="M259.148,39.5a.8.8,0,0,1-.848-.848V33.348a.848.848,0,0,1,1.7,0v5.393A.78.78,0,0,1,259.148,39.5Z" transform="translate(-246.589 -28.966)"/><path class="a" d="M223.548,39.5a.8.8,0,0,1-.848-.848V33.348a.848.848,0,1,1,1.7,0v5.393A.85.85,0,0,1,223.548,39.5Z" transform="translate(-214.86 -28.966)"/><path class="a" d="M187.048,104.593a.8.8,0,0,1-.848-.848v-2.2a.848.848,0,1,1,1.7,0v2.2A.848.848,0,0,1,187.048,104.593Z" transform="translate(-182.329 -89.75)"/></g><path class="a" d="M349.93,198.6a2.428,2.428,0,0,0-1.348.174,2.374,2.374,0,0,0-1.772-1.435,2.428,2.428,0,0,0-1.348.174,2.374,2.374,0,0,0-1.772-1.435,2.464,2.464,0,0,0-2.61,1.435,2.437,2.437,0,0,0-1.348-.174,2.533,2.533,0,0,0-2.023,2.534V203.5a2.746,2.746,0,0,0-1.185-.087,2.533,2.533,0,0,0-2.023,2.534v5.48a6.846,6.846,0,0,0,3.034,5.741c.033.011.054.033.087.043v10.667a.8.8,0,0,0,.848.848h10.037a.848.848,0,0,0,.848-.848V216.662a10.72,10.72,0,0,1,.935-1.87,9.186,9.186,0,0,0,1.685-5.48v-8.177A2.514,2.514,0,0,0,349.93,198.6Zm-2.284,28.424H339.3v-9.449h8.351v9.449Zm2.784-17.8a7.221,7.221,0,0,1-1.348,4.469,12.544,12.544,0,0,0-1.1,2.2h-9.276a2.5,2.5,0,0,1-.359-.228,5.138,5.138,0,0,1-2.262-4.328v-5.48a.994.994,0,0,1,.924-.848.782.782,0,0,1,.848.761h0v5.056a.848.848,0,1,0,1.7,0V199.764a.842.842,0,0,1,.587-.848.777.777,0,0,1,.848.761v6.992a.8.8,0,0,0,.848.848.848.848,0,0,0,.848-.848v-8.253a.759.759,0,0,1,.924-.761.842.842,0,0,1,.587.848v8.188a.8.8,0,0,0,.848.848.912.912,0,0,0,.848-.848v-7a.7.7,0,0,1,.848-.761.842.842,0,0,1,.587.848v1.185h0v5.73a.8.8,0,0,0,.848.848.912.912,0,0,0,.848-.848v-5.73h0a.7.7,0,0,1,.848-.761.842.842,0,0,1,.587.848v8.177Z" transform="translate(-298.127 -174.733)"/><path class="a" d="M76.5,47.138H62.4c-.183,0-.3-.337-.3-.848V39.548c0-.511.121-.848.3-.848H76.5c.183,0,.3.337.3.848V46.3C76.8,46.8,76.648,47.138,76.5,47.138ZM62.7,45.453H76.2V40.4H62.7Z" transform="translate(-55.347 -34.492)"/></svg>