<svg xmlns="http://www.w3.org/2000/svg" width="67.043" height="78" viewBox="0 0 67.043 78"><defs><style>.a{opacity:0.25;}</style></defs><path class="a" d="M18.857,39.143H48.571v7.429H18.857V39.143m7.429,29.714H11.429V9.429h26V28H56V39.514l7.429-7.429v-7.8L41.143,2H11.429A7.429,7.429,0,0,0,4,9.429V68.857a7.429,7.429,0,0,0,7.429,7.429H26.286V68.857m-7.429-7.429H34.086l3.343-3.343V54H18.857v7.429M64.171,42.857a2.816,2.816,0,0,1,1.486.743l4.829,4.829a2.26,2.26,0,0,1,0,2.971l-3.714,3.714-7.8-7.8L62.686,43.6a1.93,1.93,0,0,1,1.486-.743m0,14.486L41.514,80h-7.8V72.2L56.371,49.543Z" transform="translate(-4 -2)"/></svg>