<svg xmlns="http://www.w3.org/2000/svg" width="62.4" height="78" viewBox="0 0 62.4 78"><defs><style>.a{opacity:0.25;}</style></defs><path class="a" d="M50.8,13.7V9.8A7.8,7.8,0,0,0,43,2H27.4a7.8,7.8,0,0,0-7.8,7.8v3.9A15.6,15.6,0,0,0,4,29.3V72.2A7.8,7.8,0,0,0,11.8,80H58.6a7.8,7.8,0,0,0,7.8-7.8V29.3A15.6,15.6,0,0,0,50.8,13.7M27.4,9.8H43v3.9H27.4V9.8m7.8,19.5L43,37.1l-7.8,7.8-7.8-7.8,7.8-7.8M58.6,72.2H11.8V56.6h7.8v7.8h3.9V56.6H58.6V72.2m0-19.5H11.8V29.3a7.8,7.8,0,0,1,7.8-7.8H50.8a7.8,7.8,0,0,1,7.8,7.8Z" transform="translate(-4 -2)"/></svg>