<svg xmlns="http://www.w3.org/2000/svg" width="62.468" height="63" viewBox="0 0 62.468 63"><defs><style>.a{fill:#fce8cb;}.b{fill:#3a312a;}.c{fill:#87796f;}.d{fill:#d7e057;}.e{fill:#8ac6dd;}.f{fill:#f16c7a;}.g{fill:#6b5b51;}.h{fill:#b9bc39;}.i{fill:#ccae8b;}</style></defs><g transform="translate(-0.053)"><path class="a" d="M41.975,6.962H5.47a5,5,0,0,0-5,5V57.584a5,5,0,0,0,5,5h36.5a5,5,0,0,0,5-5V11.96a5,5,0,0,0-5-5Zm0,0"/><path class="b" d="M41.975,6.544H5.47A5.422,5.422,0,0,0,.053,11.96V35.292a.418.418,0,0,0,.837,0V11.96a4.585,4.585,0,0,1,4.58-4.58h36.5a4.585,4.585,0,0,1,4.58,4.58V57.584a4.585,4.585,0,0,1-4.58,4.58H5.47a4.585,4.585,0,0,1-4.58-4.58V39.562a.418.418,0,0,0-.837,0V57.584A5.422,5.422,0,0,0,5.47,63h36.5a5.423,5.423,0,0,0,5.417-5.416V11.96a5.423,5.423,0,0,0-5.417-5.416Zm0,0"/><path class="c" d="M41.975,6.962H5.47a5,5,0,0,0-5,5v2.8h46.5V11.96a5,5,0,0,0-5-5Zm0,0"/><path class="b" d="M41.975,6.544H5.47A5.422,5.422,0,0,0,.053,11.96v2.805a.418.418,0,0,0,.418.418h46.5a.418.418,0,0,0,.418-.418V11.96a5.423,5.423,0,0,0-5.417-5.416Zm4.58,7.8H.89V11.96a4.585,4.585,0,0,1,4.58-4.58h36.5a4.585,4.585,0,0,1,4.58,4.58Zm0,0"/><path class="d" d="M41.452,20.049H20.614a1.3,1.3,0,0,0-1.3,1.3v3.69a1.3,1.3,0,0,0,1.3,1.3H41.452a1.3,1.3,0,0,0,1.3-1.3V21.35A1.3,1.3,0,0,0,41.452,20.049Zm0,0"/><path class="b" d="M41.452,19.631H20.614a1.72,1.72,0,0,0-1.719,1.719v3.69a1.721,1.721,0,0,0,1.719,1.719H41.452a1.72,1.72,0,0,0,1.719-1.719V21.35A1.72,1.72,0,0,0,41.452,19.631Zm.882,5.408a.883.883,0,0,1-.882.882H20.614a.883.883,0,0,1-.882-.882V21.35a.883.883,0,0,1,.882-.882H41.452a.883.883,0,0,1,.882.882Zm0,0"/><path class="b" d="M14.738,22.715H4.971a.418.418,0,1,0,0,.837h9.767a.418.418,0,1,0,0-.837Zm0,0"/><path class="b" d="M14.738,29.095H4.971a.418.418,0,1,0,0,.837h9.767a.418.418,0,1,0,0-.837Zm0,0"/><path class="b" d="M14.738,35.475H4.971a.418.418,0,1,0,0,.837h9.767a.418.418,0,1,0,0-.837Zm0,0"/><path class="d" d="M41.452,31.134H20.614a1.3,1.3,0,0,0-1.3,1.3v3.69a1.3,1.3,0,0,0,1.3,1.3H41.452a1.3,1.3,0,0,0,1.3-1.3v-3.69A1.3,1.3,0,0,0,41.452,31.134Zm0,0"/><path class="b" d="M41.452,30.716H20.614a1.72,1.72,0,0,0-1.719,1.719v3.69a1.72,1.72,0,0,0,1.719,1.719H41.452a1.72,1.72,0,0,0,1.719-1.719v-3.69a1.721,1.721,0,0,0-1.719-1.719Zm.882,5.408a.883.883,0,0,1-.882.882H20.614a.883.883,0,0,1-.882-.882v-3.69a.883.883,0,0,1,.882-.882H41.452a.883.883,0,0,1,.882.882Zm0,0"/><path class="d" d="M41.452,41.614H20.614a1.3,1.3,0,0,0-1.3,1.3V54.539a1.3,1.3,0,0,0,1.3,1.3H41.452a1.3,1.3,0,0,0,1.3-1.3V42.914A1.3,1.3,0,0,0,41.452,41.614Zm0,0"/><path class="b" d="M41.452,41.2H20.614a1.72,1.72,0,0,0-1.719,1.719V54.539a1.72,1.72,0,0,0,1.719,1.718H41.452a1.72,1.72,0,0,0,1.719-1.718V42.914A1.72,1.72,0,0,0,41.452,41.2Zm.882,13.343a.883.883,0,0,1-.882.881H20.614a.883.883,0,0,1-.882-.881V42.914a.883.883,0,0,1,.882-.882H41.452a.883.883,0,0,1,.882.882Zm0,0"/><path class="d" d="M13.294,41.614H6.414a1.443,1.443,0,0,0-1.443,1.443V54.4a1.443,1.443,0,0,0,1.443,1.442h6.881A1.443,1.443,0,0,0,14.737,54.4V43.057A1.443,1.443,0,0,0,13.294,41.614Zm0,0"/><path class="b" d="M13.294,41.2H6.413a1.863,1.863,0,0,0-1.861,1.861V54.4a1.863,1.863,0,0,0,1.861,1.861h6.881A1.863,1.863,0,0,0,15.155,54.4V43.057A1.862,1.862,0,0,0,13.294,41.2Zm1.025,13.2a1.025,1.025,0,0,1-1.025,1.024H6.413A1.025,1.025,0,0,1,5.389,54.4V43.056a1.025,1.025,0,0,1,1.024-1.025h6.881a1.025,1.025,0,0,1,1.024,1.025V54.4Zm0,0"/><path class="e" d="M30.683,3.929a3.529,3.529,0,0,0-1.762.47,5.309,5.309,0,0,0-10.28,0,3.552,3.552,0,1,0-1.762,6.635h13.8a3.553,3.553,0,0,0,0-7.105Zm0,0"/><path class="b" d="M30.683,3.51a3.963,3.963,0,0,0-1.505.3,5.728,5.728,0,0,0-10.794,0,3.97,3.97,0,1,0-1.505,7.644h6.168a.418.418,0,1,0,0-.837H16.879a3.134,3.134,0,1,1,1.554-5.854.418.418,0,0,0,.613-.258,4.891,4.891,0,0,1,9.47,0,.418.418,0,0,0,.613.258,3.133,3.133,0,1,1,1.554,5.854H27.161a.418.418,0,1,0,0,.837h3.522a3.971,3.971,0,0,0,0-7.942Zm0,0"/><path class="d" d="M57.473,3.118C57.2,6.342,53.84,6.852,53.84,6.852c2.886.136,3.605,3.922,3.605,3.922.062-2.7,3.715-3.961,3.715-3.961-2.737-.163-3.687-3.694-3.687-3.694Zm0,0"/><path class="b" d="M61.186,6.394c-2.4-.143-3.3-3.353-3.309-3.386a.418.418,0,0,0-.82.074,3.87,3.87,0,0,1-3.278,3.356.419.419,0,0,0,.043.832c2.518.119,3.207,3.547,3.213,3.582a.419.419,0,0,0,.411.339h.035a.418.418,0,0,0,.383-.407c.054-2.373,3.4-3.564,3.435-3.575a.419.419,0,0,0-.113-.813ZM57.4,9.28A4.871,4.871,0,0,0,55.286,6.8,4.489,4.489,0,0,0,57.574,4.5,5.105,5.105,0,0,0,59.9,6.93,5.946,5.946,0,0,0,57.4,9.28Zm0,0"/><path class="d" d="M51.421,7.854A3.056,3.056,0,0,1,48.852,10.5c2.041.1,2.549,2.773,2.549,2.773.044-1.909,2.628-2.8,2.628-2.8-1.936-.116-2.608-2.613-2.608-2.613Zm0,0"/><path class="b" d="M54.054,10.049c-1.608-.1-2.224-2.282-2.23-2.3a.418.418,0,0,0-.82.074,2.621,2.621,0,0,1-2.215,2.263.419.419,0,0,0,.044.832c1.683.079,2.154,2.41,2.158,2.433a.419.419,0,0,0,.411.34l.035,0a.418.418,0,0,0,.383-.407c.036-1.592,2.324-2.408,2.346-2.416a.419.419,0,0,0-.112-.813Zm-2.673,1.9a3.577,3.577,0,0,0-1.24-1.472A3.339,3.339,0,0,0,51.5,9.1a3.731,3.731,0,0,0,1.378,1.457,4.376,4.376,0,0,0-1.5,1.387Zm0,0"/><path class="d" d="M51.421.419A3.056,3.056,0,0,1,48.852,3.06c2.041.1,2.549,2.773,2.549,2.773.044-1.909,2.628-2.8,2.628-2.8C52.093,2.916,51.421.419,51.421.419Zm0,0"/><path class="b" d="M54.054,2.614c-1.608-.1-2.224-2.283-2.23-2.305A.418.418,0,0,0,51,.383a2.621,2.621,0,0,1-2.215,2.263.419.419,0,0,0,.044.832c1.683.079,2.154,2.41,2.158,2.433a.419.419,0,0,0,.411.34l.035,0a.418.418,0,0,0,.383-.407c.036-1.592,2.324-2.408,2.346-2.416a.418.418,0,0,0-.112-.813Zm-2.673,1.9a3.573,3.573,0,0,0-1.24-1.472A3.339,3.339,0,0,0,51.5,1.666a3.735,3.735,0,0,0,1.378,1.457,4.371,4.371,0,0,0-1.5,1.387Zm0,0"/><path class="e" d="M36.327,56.049l19.626-34.98,4.625,2.595L40.952,58.644Zm0,0"/><path class="b" d="M60.982,23.551a.416.416,0,0,0-.2-.252l-4.625-2.595a.418.418,0,0,0-.569.16L35.963,55.845a.418.418,0,0,0,.16.57l4.625,2.595a.417.417,0,0,0,.57-.16L60.944,23.87a.416.416,0,0,0,.038-.318ZM40.793,58.076,36.9,55.89,56.115,21.639l3.9,2.186Zm0,0"/><path class="d" d="M41.3,47.181l9.675-17.243L55.6,32.532,45.927,49.776Zm0,0"/><path class="b" d="M56.006,32.42a.413.413,0,0,0-.2-.251l-4.625-2.6a.418.418,0,0,0-.569.16L40.938,46.977a.418.418,0,0,0,.16.57l4.625,2.595a.412.412,0,0,0,.2.054.419.419,0,0,0,.366-.214l9.675-17.243A.416.416,0,0,0,56.006,32.42ZM45.768,49.207l-3.9-2.186,9.266-16.514,3.9,2.186Zm0,0"/><path class="f" d="M60.5,18.389a2.652,2.652,0,0,0-3.61,1.015l-.934,1.666,4.625,2.595L61.513,22a2.651,2.651,0,0,0-1.015-3.61Zm0,0"/><path class="b" d="M62.157,19.871a3.07,3.07,0,0,0-5.633-.671l-.934,1.665a.418.418,0,0,0,.16.569l4.625,2.6a.419.419,0,0,0,.57-.161l.934-1.665a3.048,3.048,0,0,0,.278-2.333Zm-1.008,1.923-.73,1.3L56.524,20.91l.729-1.3a2.233,2.233,0,0,1,3.9,2.186Zm0,0"/><path class="c" d="M36.328,56.05l-.216,4.525a.7.7,0,0,0,1.092.612l3.749-2.542Zm0,0"/><path class="b" d="M41.158,58.28l-4.625-2.595a.418.418,0,0,0-.623.345l-.216,4.525a1.117,1.117,0,0,0,1.744.979l3.749-2.542a.419.419,0,0,0-.03-.712Zm-4.189,2.561a.282.282,0,0,1-.439-.246l.184-3.849,3.444,1.933Zm0,0"/><path class="b" d="M60.784,23.3a.419.419,0,0,0-.41.73,2.569,2.569,0,0,1,.983,3.494L53.129,42.187a.418.418,0,0,0,.73.409l8.227-14.663a3.407,3.407,0,0,0-1.3-4.633Zm0,0"/><path class="g" d="M41.974,7.38H38.209a4.584,4.584,0,0,1,4.58,4.58v2.388h3.765V11.96A4.584,4.584,0,0,0,41.974,7.38Zm0,0"/><path class="h" d="M41.451,42.032H39.929L32.418,55.419H36.2l4.736-8.442,1.4-2.488V42.913a.884.884,0,0,0-.884-.881Zm0,0"/><path class="i" d="M32.116,56.256l-.2,4.3a1.115,1.115,0,0,0,1.743.979l2.058-1.395.184-3.882Zm0,0"/><path class="i" d="M42.773,15.184v5.068a1.7,1.7,0,0,1,.4,1.1v3.69a1.711,1.711,0,0,1-.4,1.1v5.2a1.7,1.7,0,0,1,.4,1.1v3.69a1.712,1.712,0,0,1-.7,1.383L42,38.356,40.4,41.2h1.049a1.723,1.723,0,0,1,1.721,1.718V43l2.6-4.644.778-1.389V15.184Zm0,0"/><path class="i" d="M46.293,49.981l-3.52,6.275v1.328a4.586,4.586,0,0,1-4.58,4.58h3.782a4.586,4.586,0,0,0,4.58-4.58V49.515Zm0,0"/></g></svg>