<svg xmlns="http://www.w3.org/2000/svg" xmlns:xlink="http://www.w3.org/1999/xlink" width="36" height="36" viewBox="0 0 36 36"><defs><style>.a{fill:url(#a);}.b{fill:url(#b);}.c{fill:url(#c);}</style><linearGradient id="a" x1="0.5" y1="0.008" x2="0.5" y2="0.998" gradientUnits="objectBoundingBox"><stop offset="0" stop-color="#e09b3d"/><stop offset="0.3" stop-color="#c74c4d"/><stop offset="0.6" stop-color="#c21975"/><stop offset="1" stop-color="#7024c4"/></linearGradient><linearGradient id="b" y1="-0.451" y2="1.462" xlink:href="#a"/><linearGradient id="c" y1="-1.396" y2="6.586" xlink:href="#a"/></defs><path class="a" d="M25.275,0H10.725A10.737,10.737,0,0,0,0,10.725V25.275A10.737,10.737,0,0,0,10.725,36H25.275A10.737,10.737,0,0,0,36,25.275V10.725A10.737,10.737,0,0,0,25.275,0Zm7.1,25.275a7.1,7.1,0,0,1-7.1,7.1H10.725a7.1,7.1,0,0,1-7.1-7.1V10.725a7.1,7.1,0,0,1,7.1-7.1H25.275a7.1,7.1,0,0,1,7.1,7.1V25.275Z"/><path class="b" d="M142.082,133a9.082,9.082,0,1,0,9.082,9.082A9.093,9.093,0,0,0,142.082,133Zm0,14.632a5.55,5.55,0,1,1,5.55-5.55A5.55,5.55,0,0,1,142.082,147.632Z" transform="translate(-124.082 -124.082)"/><circle class="c" cx="2.29" cy="2.29" r="2.29" transform="translate(25.004 6.504)"/></svg>