<svg xmlns="http://www.w3.org/2000/svg" width="36" height="36" viewBox="0 0 36 36"><defs><style>.a{fill:#007bb5;}.b{fill:#fff;}</style></defs><path class="a" d="M36,33.75A2.251,2.251,0,0,1,33.75,36H2.25A2.251,2.251,0,0,1,0,33.75V2.25A2.251,2.251,0,0,1,2.25,0h31.5A2.251,2.251,0,0,1,36,2.25Z"/><g transform="translate(7.875 6.75)"><rect class="b" width="4.5" height="15.75" transform="translate(0 5.625)"/><path class="b" d="M21.436,11c-3.14,0-3.68,1.145-3.936,2.25V11H13V26.75h4.5v-9a2.022,2.022,0,0,1,2.25-2.25A2.03,2.03,0,0,1,22,17.75v9h4.5V18.875C26.5,14.375,25.914,11,21.436,11Z" transform="translate(-6.25 -5.375)"/><circle class="b" cx="2.25" cy="2.25" r="2.25"/></g></svg>