<svg xmlns="http://www.w3.org/2000/svg" xmlns:xlink="http://www.w3.org/1999/xlink" width="36" height="36" viewBox="0 0 36 36"><defs><style>.a{fill:url(#a);}.b{fill:#fff;fill-rule:evenodd;}</style><linearGradient id="a" x1="0.5" x2="0.5" y2="0.993" gradientUnits="objectBoundingBox"><stop offset="0" stop-color="#2aabee"/><stop offset="1" stop-color="#229ed9"/></linearGradient></defs><circle class="a" cx="18" cy="18" r="18"/><path class="b" d="M190.332,307.912q7.8-3.4,10.4-4.481c4.954-2.061,5.984-2.419,6.655-2.43a1.173,1.173,0,0,1,.691.207.751.751,0,0,1,.254.483,3.146,3.146,0,0,1,.03.7c-.268,2.821-1.43,9.666-2.021,12.826-.25,1.337-.742,1.785-1.219,1.829-1.036.1-1.823-.685-2.826-1.342-1.57-1.029-2.457-1.67-3.981-2.674-1.761-1.161-.62-1.8.384-2.841.263-.273,4.827-4.425,4.915-4.8a.364.364,0,0,0-.083-.315.411.411,0,0,0-.369-.036q-.236.054-7.525,4.974a3.387,3.387,0,0,1-1.935.715,12.733,12.733,0,0,1-2.773-.656c-1.117-.363-2.005-.555-1.928-1.172Q189.065,308.416,190.332,307.912Z" transform="translate(-182.257 -290.261)"/></svg>