<?xml version="1.0" encoding="utf-8"?>
<!-- Generator: Adobe Illustrator 23.0.1, SVG Export Plug-In . SVG Version: 6.00 Build 0)  -->
<svg version="1.1" id="Layer_1" xmlns="http://www.w3.org/2000/svg" xmlns:xlink="http://www.w3.org/1999/xlink" x="0px" y="0px"
	 viewBox="0 0 473.9 473.9" style="enable-background:new 0 0 473.9 473.9;" xml:space="preserve">
<style type="text/css">
	.st0{fill:#344E5D;}
	.st1{fill:#2A4049;}
	.st2{fill:#FFFFFF;}
</style>
<path class="st0" d="M144.4,93.8c-8.8,0-16,7.2-16,16v255.8c0,8.8,7.2,16,16,16h183.8c8.8,0,16-7.2,16-16V167.8l-77-74
	C267.2,93.8,144.4,93.8,144.4,93.8z"/>
<g>
	<path class="st1" d="M344.2,167.8h-61.1c-8.8,0-16-7.2-16-16v-58L344.2,167.8z"/>
	<path class="st1" d="M264,271.8c0,10.2-8.3,18.4-18.4,18.4H110.9c-10.2,0-18.4-8.3-18.4-18.4v-56.4c0-10.2,8.3-18.4,18.4-18.4
		h134.6c10.2,0,18.4,8.3,18.4,18.4V271.8z"/>
</g>
<g>
	<path class="st2" d="M110.7,226.8h9.9c2.6,0,4.8,0.2,6.6,0.7c1.8,0.5,3.5,1.4,5,2.7c3.9,3.3,5.9,8.4,5.9,15.2
		c0,2.3-0.2,4.3-0.6,6.2c-0.4,1.9-1,3.5-1.8,5c-0.8,1.5-1.9,2.8-3.1,4c-1,0.9-2.1,1.6-3.3,2.2c-1.2,0.5-2.5,0.9-3.8,1.2
		c-1.4,0.2-2.9,0.3-4.6,0.3h-9.9c-1.4,0-2.4-0.2-3.1-0.6c-0.7-0.4-1.2-1-1.4-1.8c-0.2-0.8-0.3-1.7-0.3-3v-27.5
		c0-1.6,0.4-2.8,1.1-3.6S109.1,226.8,110.7,226.8z M113.7,232.8v25.5h5.8c1.3,0,2.3,0,3-0.1c0.7-0.1,1.5-0.2,2.2-0.5
		c0.8-0.3,1.4-0.7,2-1.2c2.5-2.1,3.8-5.8,3.8-11.1c0-3.7-0.6-6.5-1.7-8.3c-1.1-1.8-2.5-3-4.1-3.5c-1.6-0.5-3.6-0.8-5.9-0.8
		L113.7,232.8L113.7,232.8L113.7,232.8z"/>
	<path class="st2" d="M161.3,226.1c3.9,0,7.2,0.8,10,2.4c2.8,1.6,4.9,3.8,6.3,6.7s2.1,6.3,2.1,10.2c0,2.9-0.4,5.5-1.2,7.9
		s-2,4.4-3.5,6.2c-1.6,1.7-3.5,3.1-5.8,4c-2.3,0.9-4.9,1.4-7.9,1.4c-2.9,0-5.6-0.5-7.9-1.4s-4.3-2.3-5.8-4c-1.6-1.7-2.7-3.8-3.5-6.2
		c-0.8-2.4-1.2-5-1.2-7.9c0-2.9,0.4-5.5,1.2-7.9c0.8-2.4,2-4.4,3.6-6.1s3.5-3,5.7-3.9C155.9,226.6,158.4,226.1,161.3,226.1z
		 M172.1,245.4c0-2.7-0.4-5.1-1.3-7.1s-2.2-3.5-3.8-4.6c-1.6-1-3.5-1.5-5.7-1.5c-1.5,0-2.9,0.3-4.2,0.9c-1.3,0.6-2.4,1.4-3.3,2.5
		c-0.9,1.1-1.7,2.5-2.2,4.2c-0.5,1.7-0.8,3.6-0.8,5.7c0,2.1,0.3,4.1,0.8,5.8c0.5,1.7,1.3,3.2,2.3,4.3c1,1.1,2.1,2,3.4,2.5
		c1.3,0.6,2.7,0.8,4.2,0.8c1.9,0,3.7-0.5,5.4-1.5c1.6-1,2.9-2.5,3.9-4.5C171.6,250.9,172.1,248.4,172.1,245.4z"/>
	<path class="st2" d="M218.2,252.4c0,1.2-0.3,2.5-0.9,3.9c-0.6,1.4-1.5,2.8-2.8,4.1s-2.9,2.4-4.8,3.3c-2,0.8-4.2,1.3-6.9,1.3
		c-2,0-3.8-0.2-5.4-0.6c-1.6-0.4-3.1-1-4.4-1.8c-1.3-0.8-2.5-1.8-3.6-3.1c-1-1.2-1.8-2.5-2.5-4c-0.7-1.5-1.2-3-1.6-4.7
		c-0.4-1.7-0.5-3.4-0.5-5.3c0-3,0.4-5.7,1.3-8.1c0.9-2.4,2.1-4.4,3.8-6.1c1.6-1.7,3.6-3,5.8-3.9s4.5-1.3,7-1.3c3,0,5.7,0.6,8.1,1.8
		s4.2,2.7,5.4,4.5s1.9,3.5,1.9,5.1c0,0.9-0.3,1.6-0.9,2.3c-0.6,0.7-1.4,1-2.2,1c-1,0-1.7-0.2-2.2-0.7c-0.5-0.5-1-1.3-1.6-2.4
		c-1-1.9-2.2-3.2-3.5-4.2c-1.3-0.9-3-1.4-4.9-1.4c-3.1,0-5.6,1.2-7.5,3.6c-1.8,2.4-2.8,5.7-2.8,10.1c0,2.9,0.4,5.3,1.2,7.3
		s2,3.4,3.5,4.3s3.3,1.4,5.3,1.4c2.2,0,4-0.5,5.5-1.6c1.5-1.1,2.6-2.7,3.4-4.8c0.3-1,0.7-1.8,1.2-2.4s1.2-0.9,2.3-0.9
		c0.9,0,1.7,0.3,2.3,0.9C217.9,250.7,218.2,251.5,218.2,252.4z"/>
	<path class="st2" d="M223.7,257l8.4-12.3l-7.1-10.9c-0.7-1.1-1.2-2-1.5-2.7c-0.3-0.8-0.5-1.5-0.5-2.2c0-0.7,0.3-1.4,1-1.9
		c0.6-0.6,1.4-0.9,2.3-0.9c1.1,0,1.9,0.3,2.5,0.9c0.6,0.6,1.4,1.8,2.4,3.5l5.6,9.1l6-9.1c0.5-0.8,0.9-1.4,1.3-2c0.4-0.5,0.7-1,1-1.4
		c0.3-0.4,0.7-0.6,1.1-0.8c0.4-0.2,0.9-0.3,1.4-0.3c1,0,1.7,0.3,2.3,0.9c0.6,0.6,0.9,1.3,0.9,2c0,1.1-0.7,2.7-2,4.7l-7.4,11l8,12.3
		c0.7,1.1,1.2,2,1.6,2.7c0.3,0.7,0.5,1.4,0.5,2c0,0.6-0.1,1.1-0.4,1.6c-0.3,0.5-0.7,0.9-1.2,1.2c-0.5,0.3-1.1,0.4-1.8,0.4
		c-0.7,0-1.3-0.1-1.8-0.4s-0.9-0.7-1.2-1.1c-0.3-0.4-0.9-1.3-1.7-2.6l-6.6-10.4l-7,10.7c-0.5,0.9-0.9,1.4-1.2,1.8
		c-0.2,0.3-0.5,0.7-0.8,1c-0.3,0.3-0.7,0.6-1.2,0.8c-0.4,0.2-1,0.3-1.6,0.3c-0.9,0-1.7-0.3-2.3-0.8c-0.6-0.6-0.9-1.4-0.9-2.5
		C221.8,260.3,222.4,258.8,223.7,257z"/>
</g>
</svg>
