<?xml version="1.0" standalone="no"?>
<!DOCTYPE svg PUBLIC "-//W3C//DTD SVG 20010904//EN"
 "http://www.w3.org/TR/2001/REC-SVG-20010904/DTD/svg10.dtd">
<svg version="1.0" xmlns="http://www.w3.org/2000/svg"
 width="1600.000000pt" height="1600.000000pt" viewBox="0 0 1600.000000 1600.000000"
 preserveAspectRatio="xMidYMid meet">

<g transform="translate(0.000000,1600.000000) scale(0.100000,-0.100000)"
fill="#000000" stroke="none">
<path d="M7200 15994 c-323 -24 -503 -73 -578 -158 -45 -51 -58 -103 -43 -169
16 -72 84 -188 178 -306 44 -54 536 -556 1137 -1159 l1060 -1062 -1715 -1718
c-944 -944 -1738 -1746 -1766 -1782 -176 -227 -294 -480 -355 -760 -19 -92
-22 -134 -23 -335 0 -250 8 -317 64 -505 74 -249 195 -468 366 -663 102 -116
1625 -1615 1710 -1682 354 -283 837 -424 1280 -375 351 39 701 188 955 405 30
26 822 810 1759 1741 l1705 1694 1045 -1043 c575 -574 1089 -1078 1141 -1122
339 -281 502 -272 581 32 56 218 53 10 56 3823 4 3542 0 4031 -32 4302 -63
533 -224 720 -687 797 -272 46 -176 45 -4078 46 -2043 1 -3735 0 -3760 -1z"/>
<path d="M2755 12963 c-323 -26 -611 -92 -885 -200 -249 -98 -552 -273 -760
-439 -109 -87 -377 -355 -464 -464 -158 -198 -320 -473 -421 -714 -87 -209
-151 -440 -198 -716 l-21 -125 -3 -3595 c-3 -2603 -1 -3635 7 -3740 56 -725
372 -1395 894 -1898 505 -486 1139 -768 1846 -822 182 -14 7032 -14 7220 0
583 43 1109 237 1563 576 702 525 1125 1301 1187 2174 12 169 14 4050 2 4050
-4 0 -413 -406 -910 -903 l-902 -902 0 -1050 c0 -704 -4 -1080 -11 -1140 -46
-373 -284 -708 -627 -879 -84 -43 -223 -85 -329 -101 -148 -22 -7008 -22
-7156 0 -450 68 -811 392 -935 842 l-27 98 0 3590 0 3590 27 97 c58 210 153
376 302 524 148 149 314 244 524 302 l97 27 1130 3 1131 3 909 909 910 910
-2030 -2 c-1117 -1 -2048 -3 -2070 -5z"/>
</g>
</svg>
