<svg xmlns="http://www.w3.org/2000/svg" width="85.53" height="67" viewBox="0 0 85.53 67"><defs><style>.a{fill:#0083ca;}.b{fill:#00a8de;}.c{fill:#fde92b;}.d{fill:#777;}</style></defs><g transform="translate(-3.41 -25.6)"><path class="a" d="M88.94,38.066v48.3a5.987,5.987,0,0,1-5.7,6.235H9.115a5.99,5.99,0,0,1-5.7-6.235V29.927A4.157,4.157,0,0,1,7.369,25.6H33.345l2.138,6.231H83.239A5.987,5.987,0,0,1,88.94,38.066Z" transform="translate(0 0)"/><path class="b" d="M88.94,80.21v37.958a5.987,5.987,0,0,1-5.7,6.235H9.115a5.99,5.99,0,0,1-5.7-6.235V80.21Z" transform="translate(0 -31.803)"/><rect class="c" width="62.722" height="8.553" transform="translate(14.815 39.855)"/><path class="d" d="M62.905,158.158H45.8a1.425,1.425,0,0,1,0-2.851H62.905a1.425,1.425,0,1,1,0,2.851Z" transform="translate(-23.856 -75.538)"/><path class="d" d="M70.032,144.5H45.8a1.425,1.425,0,1,1,0-2.851H70.033a1.425,1.425,0,1,1,0,2.851Z" transform="translate(-23.856 -67.587)"/></g></svg>