<?xml version="1.0" encoding="utf-8"?>
<!-- Generator: Adobe Illustrator 23.0.1, SVG Export Plug-In . SVG Version: 6.00 Build 0)  -->
<svg version="1.1" id="Layer_1" xmlns="http://www.w3.org/2000/svg" xmlns:xlink="http://www.w3.org/1999/xlink" x="0px" y="0px"
	 viewBox="0 0 473.9 473.9" style="enable-background:new 0 0 473.9 473.9;" xml:space="preserve">
<style type="text/css">
	.st0{fill:#DA1F26;}
	.st1{fill:#CA2027;}
	.st2{fill:#BF2026;}
	.st3{fill:#FFFFFF;}
</style>
<path class="st0" d="M144.4,93.8c-8.8,0-16,7.2-16,16v255.8c0,8.8,7.2,16,16,16h183.8c8.8,0,16-7.2,16-16V167.8l-77-74
	C267.2,93.8,144.4,93.8,144.4,93.8z"/>
<path class="st1" d="M344.2,167.8h-61.1c-8.8,0-16-7.2-16-16v-58L344.2,167.8z"/>
<path class="st2" d="M264,271.8c0,10.2-8.3,18.4-18.4,18.4H110.9c-10.2,0-18.4-8.3-18.4-18.4v-56.4c0-10.2,8.3-18.4,18.4-18.4h134.6
	c10.2,0,18.4,8.3,18.4,18.4V271.8z"/>
<g>
	<path class="st3" d="M143.2,249.7h-7v10.6c0,1.5-0.4,2.7-1.1,3.5c-0.7,0.8-1.6,1.2-2.7,1.2c-1.1,0-2.1-0.4-2.8-1.2s-1-1.9-1-3.4
		v-28.9c0-1.7,0.4-2.9,1.2-3.6s2-1.1,3.7-1.1h9.7c2.9,0,5.1,0.2,6.6,0.7c1.5,0.4,2.9,1.1,4,2.1c1.1,1,2,2.2,2.5,3.6s0.9,3,0.9,4.8
		c0,3.8-1.2,6.7-3.5,8.7S147.9,249.7,143.2,249.7z M141.4,232.5h-5.1v11.5h5.1c1.8,0,3.3-0.2,4.5-0.6c1.2-0.4,2.1-1,2.7-1.8
		s0.9-2,0.9-3.4c0-1.7-0.5-3-1.5-4C147,233,144.8,232.5,141.4,232.5z"/>
	<path class="st3" d="M168.3,226.8h9.9c2.6,0,4.8,0.2,6.6,0.7c1.8,0.5,3.5,1.4,5,2.7c3.9,3.3,5.9,8.4,5.9,15.2
		c0,2.3-0.2,4.3-0.6,6.2c-0.4,1.9-1,3.5-1.8,5c-0.8,1.5-1.9,2.8-3.1,4c-1,0.9-2.1,1.6-3.3,2.2c-1.2,0.5-2.5,0.9-3.8,1.2
		c-1.4,0.2-2.9,0.3-4.6,0.3h-9.9c-1.4,0-2.4-0.2-3.1-0.6s-1.2-1-1.4-1.8c-0.2-0.8-0.3-1.7-0.3-3v-27.5c0-1.6,0.4-2.8,1.1-3.6
		S166.7,226.8,168.3,226.8z M171.3,232.8v25.5h5.8c1.3,0,2.3,0,3-0.1c0.7-0.1,1.5-0.2,2.2-0.5c0.8-0.3,1.4-0.7,2-1.2
		c2.5-2.1,3.8-5.8,3.8-11.1c0-3.7-0.6-6.5-1.7-8.3c-1.1-1.8-2.5-3-4.1-3.5c-1.6-0.5-3.6-0.8-5.9-0.8L171.3,232.8L171.3,232.8
		L171.3,232.8z"/>
	<path class="st3" d="M224.8,232.6h-15v9.6h12.5c1.2,0,2,0.3,2.6,0.8c0.6,0.5,0.9,1.2,0.9,2.1s-0.3,1.6-0.9,2.1s-1.4,0.8-2.6,0.8
		h-12.5v12.4c0,1.6-0.4,2.7-1.1,3.5c-0.7,0.8-1.6,1.1-2.7,1.1c-1.1,0-2-0.4-2.8-1.2c-0.7-0.8-1.1-1.9-1.1-3.5v-28.8
		c0-1.1,0.2-2,0.5-2.7c0.3-0.7,0.8-1.2,1.5-1.5c0.7-0.3,1.6-0.5,2.6-0.5h17.9c1.2,0,2.1,0.3,2.7,0.8c0.6,0.5,0.9,1.2,0.9,2.1
		c0,0.9-0.3,1.6-0.9,2.1C226.9,232.4,226,232.6,224.8,232.6z"/>
</g>
</svg>
