<?xml version="1.0" encoding="utf-8"?>
<!-- Generator: Adobe Illustrator 23.0.1, SVG Export Plug-In . SVG Version: 6.00 Build 0)  -->
<svg version="1.1" id="Layer_1" xmlns="http://www.w3.org/2000/svg" xmlns:xlink="http://www.w3.org/1999/xlink" x="0px" y="0px"
	 viewBox="0 0 473.9 473.9" style="enable-background:new 0 0 473.9 473.9;" xml:space="preserve">
<style type="text/css">
	.st0{fill:#E23A37;}
	.st1{fill:#C93332;}
	.st2{fill:#FFFFFF;}
</style>
<path class="st0" d="M144.4,93.8c-8.8,0-16,7.2-16,16v255.8c0,8.8,7.2,16,16,16h183.8c8.8,0,16-7.2,16-16V167.8l-77-74
	C267.2,93.8,144.4,93.8,144.4,93.8z"/>
<g>
	<path class="st1" d="M344.2,167.8h-61.1c-8.8,0-16-7.2-16-16v-58L344.2,167.8z"/>
	<path class="st1" d="M264,271.8c0,10.2-8.3,18.4-18.4,18.4H110.9c-10.2,0-18.4-8.3-18.4-18.4v-56.4c0-10.2,8.3-18.4,18.4-18.4
		h134.6c10.2,0,18.4,8.3,18.4,18.4V271.8z"/>
</g>
<g>
	<path class="st2" d="M144.6,249.7h-7v10.6c0,1.5-0.4,2.7-1.1,3.5c-0.7,0.8-1.6,1.2-2.7,1.2c-1.1,0-2.1-0.4-2.8-1.2s-1-1.9-1-3.4
		v-28.9c0-1.7,0.4-2.9,1.2-3.6s2-1.1,3.7-1.1h9.7c2.9,0,5.1,0.2,6.6,0.7c1.5,0.4,2.9,1.1,4,2.1s2,2.2,2.5,3.6s0.9,3,0.9,4.8
		c0,3.8-1.2,6.7-3.5,8.7S149.3,249.7,144.6,249.7z M142.8,232.5h-5.1v11.5h5.1c1.8,0,3.3-0.2,4.5-0.6c1.2-0.4,2.1-1,2.7-1.8
		s0.9-2,0.9-3.4c0-1.7-0.5-3-1.5-4C148.4,233,146.1,232.5,142.8,232.5z"/>
	<path class="st2" d="M179.5,249.7h-7v10.6c0,1.5-0.4,2.7-1.1,3.5c-0.7,0.8-1.6,1.2-2.7,1.2c-1.1,0-2.1-0.4-2.8-1.2s-1-1.9-1-3.4
		v-28.9c0-1.7,0.4-2.9,1.2-3.6s2-1.1,3.7-1.1h9.7c2.9,0,5.1,0.2,6.6,0.7c1.5,0.4,2.9,1.1,4,2.1c1.1,1,2,2.2,2.5,3.6
		c0.6,1.4,0.9,3,0.9,4.8c0,3.8-1.2,6.7-3.5,8.7C187.7,248.7,184.2,249.7,179.5,249.7z M177.7,232.5h-5.1v11.5h5.1
		c1.8,0,3.3-0.2,4.5-0.6c1.2-0.4,2.1-1,2.7-1.8s0.9-2,0.9-3.4c0-1.7-0.5-3-1.5-4C183.3,233,181.1,232.5,177.7,232.5z"/>
	<path class="st2" d="M224.3,233H216v27.2c0,1.6-0.4,2.7-1,3.5s-1.6,1.1-2.7,1.1c-1.1,0-2-0.4-2.8-1.2c-0.7-0.8-1.1-1.9-1.1-3.5V233
		h-8.3c-1.3,0-2.3-0.3-2.9-0.9c-0.6-0.6-0.9-1.3-0.9-2.3c0-1,0.3-1.7,1-2.3c0.7-0.6,1.6-0.8,2.9-0.8h24.1c1.3,0,2.3,0.3,2.9,0.9
		c0.6,0.6,1,1.3,1,2.3s-0.3,1.7-1,2.3C226.5,232.7,225.6,233,224.3,233z"/>
</g>
</svg>
