<?xml version="1.0" encoding="utf-8"?>
<!-- Generator: Adobe Illustrator 23.0.1, SVG Export Plug-In . SVG Version: 6.00 Build 0)  -->
<svg version="1.1" id="Layer_1" xmlns="http://www.w3.org/2000/svg" xmlns:xlink="http://www.w3.org/1999/xlink" x="0px" y="0px"
	 viewBox="0 0 473.9 473.9" style="enable-background:new 0 0 473.9 473.9;" xml:space="preserve">
<style type="text/css">
	.st0{fill:#8F8376;}
	.st1{fill:#7A6F64;}
	.st2{fill:#FFFFFF;}
</style>
<path class="st0" d="M144.4,95.4c-8.8,0-16,7.2-16,16v255.8c0,8.8,7.2,16,16,16h183.8c8.8,0,16-7.2,16-16V169.4l-77-74L144.4,95.4
	L144.4,95.4z"/>
<g>
	<path class="st1" d="M344.2,169.4h-61.1c-8.8,0-16-7.2-16-16v-58L344.2,169.4z"/>
	<path class="st1" d="M264,273.3c0,10.2-8.3,18.4-18.4,18.4H110.9c-10.2,0-18.4-8.3-18.4-18.4V217c0-10.2,8.3-18.4,18.4-18.4h134.6
		c10.2,0,18.4,8.3,18.4,18.4V273.3z"/>
</g>
<g>
	<path class="st2" d="M157.1,234.6h-8.3v27.2c0,1.6-0.4,2.7-1,3.5s-1.6,1.1-2.7,1.1c-1.1,0-2-0.4-2.8-1.2c-0.7-0.8-1.1-1.9-1.1-3.5
		v-27.2H133c-1.3,0-2.3-0.3-2.9-0.9c-0.6-0.6-0.9-1.3-0.9-2.3c0-1,0.3-1.7,1-2.3c0.7-0.6,1.6-0.8,2.9-0.8h24.1
		c1.3,0,2.3,0.3,2.9,0.9c0.6,0.6,1,1.3,1,2.3s-0.3,1.7-1,2.3C159.4,234.3,158.4,234.6,157.1,234.6z"/>
	<path class="st2" d="M164.1,258.5l8.4-12.3l-7.1-10.9c-0.7-1.1-1.2-2-1.5-2.7c-0.3-0.8-0.5-1.5-0.5-2.2c0-0.7,0.3-1.4,1-1.9
		c0.6-0.6,1.4-0.9,2.3-0.9c1.1,0,1.9,0.3,2.5,0.9c0.6,0.6,1.4,1.8,2.4,3.5l5.6,9.1l6-9.1c0.5-0.8,0.9-1.4,1.3-2c0.4-0.5,0.7-1,1-1.4
		c0.3-0.4,0.7-0.6,1.1-0.8c0.4-0.2,0.9-0.3,1.4-0.3c1,0,1.7,0.3,2.3,0.9c0.6,0.6,0.9,1.3,0.9,2c0,1.1-0.7,2.7-2,4.7l-7.4,11l8,12.3
		c0.7,1.1,1.2,2,1.6,2.7c0.3,0.7,0.5,1.4,0.5,2c0,0.6-0.1,1.1-0.4,1.6c-0.3,0.5-0.7,0.9-1.2,1.2c-0.5,0.3-1.1,0.4-1.8,0.4
		c-0.7,0-1.3-0.1-1.8-0.4s-0.9-0.7-1.2-1.1c-0.3-0.4-0.9-1.3-1.7-2.6l-6.6-10.4l-7,10.7c-0.5,0.9-0.9,1.4-1.2,1.8
		c-0.2,0.3-0.5,0.7-0.8,1c-0.3,0.3-0.7,0.6-1.2,0.8s-1,0.3-1.6,0.3c-0.9,0-1.7-0.3-2.3-0.8c-0.6-0.6-0.9-1.4-0.9-2.5
		C162.3,261.9,162.9,260.4,164.1,258.5z"/>
	<path class="st2" d="M221.5,234.6h-8.3v27.2c0,1.6-0.4,2.7-1,3.5s-1.6,1.1-2.7,1.1c-1.1,0-2-0.4-2.7-1.2c-0.7-0.8-1.1-1.9-1.1-3.5
		v-27.2h-8.3c-1.3,0-2.3-0.3-2.9-0.9c-0.6-0.6-0.9-1.3-0.9-2.3c0-1,0.3-1.7,1-2.3c0.7-0.6,1.6-0.8,2.9-0.8h24.1
		c1.3,0,2.3,0.3,2.9,0.9c0.6,0.6,1,1.3,1,2.3s-0.3,1.7-1,2.3C223.8,234.3,222.8,234.6,221.5,234.6z"/>
</g>
</svg>
