<?xml version="1.0" encoding="utf-8"?>
<!-- Generator: Adobe Illustrator 23.0.1, SVG Export Plug-In . SVG Version: 6.00 Build 0)  -->
<svg version="1.1" id="Layer_1" xmlns="http://www.w3.org/2000/svg" xmlns:xlink="http://www.w3.org/1999/xlink" x="0px" y="0px"
	 viewBox="0 0 473.9 473.9" style="enable-background:new 0 0 473.9 473.9;" xml:space="preserve">
<style type="text/css">
	.st0{fill:#7D9D3E;}
	.st1{fill:#718839;}
	.st2{fill:#FFFFFF;}
</style>
<path class="st0" d="M144.4,93.8c-8.8,0-16,7.2-16,16v255.8c0,8.8,7.2,16,16,16h183.8c8.8,0,16-7.2,16-16V167.8l-77-74
	C267.2,93.8,144.4,93.8,144.4,93.8z"/>
<g>
	<path class="st1" d="M344.2,167.8h-61.1c-8.8,0-16-7.2-16-16v-58L344.2,167.8z"/>
	<path class="st1" d="M264,271.8c0,10.2-8.3,18.4-18.4,18.4H110.9c-10.2,0-18.4-8.3-18.4-18.4v-56.4c0-10.2,8.3-18.4,18.4-18.4
		h134.7c10.2,0,18.4,8.3,18.4,18.4V271.8z"/>
</g>
<g>
	<path class="st2" d="M131.9,257l8.4-12.3l-7.1-10.9c-0.7-1.1-1.2-2-1.5-2.7c-0.3-0.8-0.5-1.5-0.5-2.2c0-0.7,0.3-1.4,1-1.9
		c0.6-0.6,1.4-0.9,2.3-0.9c1.1,0,1.9,0.3,2.5,0.9c0.6,0.6,1.4,1.8,2.4,3.5l5.6,9.1l6-9.1c0.5-0.8,0.9-1.4,1.3-2c0.3-0.5,0.7-1,1-1.4
		c0.3-0.4,0.7-0.6,1.1-0.8c0.4-0.2,0.9-0.3,1.4-0.3c1,0,1.7,0.3,2.3,0.9c0.6,0.6,0.9,1.3,0.9,2c0,1.1-0.7,2.7-2,4.7l-7.4,11l8,12.3
		c0.7,1.1,1.2,2,1.6,2.7c0.3,0.7,0.5,1.4,0.5,2c0,0.6-0.1,1.1-0.4,1.6c-0.3,0.5-0.7,0.9-1.2,1.2c-0.5,0.3-1.1,0.4-1.8,0.4
		c-0.7,0-1.3-0.1-1.8-0.4s-0.9-0.7-1.2-1.1c-0.3-0.4-0.9-1.3-1.7-2.6l-6.6-10.4l-7,10.7c-0.5,0.9-0.9,1.4-1.2,1.8
		c-0.2,0.3-0.5,0.7-0.8,1c-0.3,0.3-0.7,0.6-1.2,0.8c-0.4,0.2-1,0.3-1.6,0.3c-0.9,0-1.7-0.3-2.3-0.8c-0.6-0.6-0.9-1.4-0.9-2.5
		C130,260.3,130.6,258.8,131.9,257z"/>
	<path class="st2" d="M172.3,230.7V258h15.4c1.2,0,2.2,0.3,2.8,0.9c0.7,0.6,1,1.3,1,2.3c0,0.9-0.3,1.7-1,2.2
		c-0.6,0.6-1.6,0.9-2.8,0.9h-18.3c-1.7,0-2.8-0.4-3.6-1.1c-0.7-0.7-1.1-1.9-1.1-3.6v-28.9c0-1.5,0.3-2.7,1-3.5
		c0.7-0.8,1.6-1.2,2.7-1.2c1.1,0,2.1,0.4,2.8,1.1C172,228,172.3,229.2,172.3,230.7z"/>
	<path class="st2" d="M223,253c0,2.3-0.6,4.3-1.8,6.1c-1.2,1.8-2.9,3.2-5.1,4.2c-2.2,1-4.9,1.5-8,1.5c-3.7,0-6.8-0.7-9.2-2.1
		c-1.7-1-3.1-2.4-4.2-4c-1.1-1.7-1.6-3.3-1.6-4.9c0-0.9,0.3-1.7,1-2.4c0.6-0.7,1.5-1,2.4-1c0.8,0,1.5,0.3,2,0.8
		c0.6,0.5,1,1.3,1.4,2.3c0.5,1.2,1,2.2,1.5,3c0.6,0.8,1.3,1.5,2.3,2s2.3,0.8,4,0.8c2.3,0,4.1-0.5,5.5-1.6c1.4-1,2.1-2.4,2.1-3.9
		c0-1.2-0.4-2.3-1.1-3c-0.8-0.8-1.7-1.4-2.9-1.8c-1.2-0.4-2.8-0.8-4.8-1.3c-2.7-0.6-4.9-1.4-6.8-2.2c-1.8-0.8-3.3-2-4.3-3.5
		c-1.1-1.5-1.6-3.3-1.6-5.4c0-2.1,0.6-3.9,1.7-5.5c1.1-1.6,2.8-2.8,4.9-3.7c2.1-0.9,4.6-1.3,7.5-1.3c2.3,0,4.3,0.3,6,0.9
		c1.7,0.6,3.1,1.3,4.2,2.3c1.1,0.9,1.9,1.9,2.4,3c0.5,1,0.8,2.1,0.8,3c0,0.9-0.3,1.7-1,2.4c-0.6,0.7-1.4,1.1-2.4,1.1
		c-0.9,0-1.5-0.2-2-0.7c-0.5-0.4-0.9-1.1-1.5-2.1c-0.7-1.4-1.5-2.5-2.5-3.3c-1-0.8-2.5-1.2-4.6-1.2c-2,0-3.5,0.4-4.7,1.3
		c-1.2,0.9-1.8,1.9-1.8,3.1c0,0.8,0.2,1.4,0.6,1.9c0.4,0.5,1,1,1.7,1.4c0.7,0.4,1.4,0.7,2.2,0.9c0.7,0.2,1.9,0.5,3.6,1
		c2.1,0.5,4,1,5.7,1.6c1.7,0.6,3.2,1.3,4.4,2.2c1.2,0.9,2.1,1.9,2.8,3.2C222.7,249.5,223,251.1,223,253z"/>
</g>
</svg>
