<svg xmlns="http://www.w3.org/2000/svg" xmlns:xlink="http://www.w3.org/1999/xlink" width="288.25" height="216.152" viewBox="0 0 288.25 216.152"><defs><style>.a,.aa,.c,.i,.k,.n,.v,.y{fill:none;}.b{fill:#ebe2cc;}.c,.k{stroke:#131834;}.aa,.c,.i,.k,.n,.v,.y{stroke-miterlimit:10;}.d{fill:#6ba7b3;}.e{fill:#131834;}.f{fill:#e84b4b;}.g{fill:#d98c73;}.h{fill:#8d8794;}.i{stroke:#fff;}.aa,.i,.k,.y{stroke-width:0.5px;}.j{clip-path:url(#a);}.l{fill:#fff;}.m{fill:#e3ae3d;}.n{stroke:#141740;stroke-width:3px;}.o{fill:#943030;}.p{clip-path:url(#b);}.q{fill:#bd6f55;}.r{clip-path:url(#c);}.s{fill:#aca0b0;opacity:0.65;}.t{clip-path:url(#d);}.u{fill:#e1b100;}.v{stroke:#181d3d;stroke-width:0.25px;}.w{fill:#181d3d;}.x{clip-path:url(#e);}.y{stroke:#120b3b;}.z{clip-path:url(#f);}.aa{stroke:#000;stroke-linecap:round;}.ab{fill:#42ff6a;}</style><clipPath id="a"><path class="a" d="M235.559,29.015a1.572,1.572,0,0,1-.092.208c-.533.992-1.842,1.2-2.967,1.267a4.742,4.742,0,0,1-2.217-.225,3.333,3.333,0,0,1-1.717-2.25c-.467-1.792,0-3.767-.067-5.6s-.4-4.342,2-5.092a3.633,3.633,0,0,1,2.1.167,3.933,3.933,0,0,1,1.883,1.067,6.875,6.875,0,0,1,1.475,4.167,30.743,30.743,0,0,1-.192,5.325,4.049,4.049,0,0,1-.208.967Z" transform="translate(-228.358 -17.24)"/></clipPath><clipPath id="b"><path class="a" d="M265.36,137.072v-.208c.45-1.617,2.758-1.583,4.058-2.267a2.733,2.733,0,0,0,.675-.5l.075-.075a3.091,3.091,0,0,0,.758-1.667c.392-2.6-.95-4.942-2.1-7.225a1.22,1.22,0,0,1,.133-.175,1.667,1.667,0,0,1,1.15-.275,7.217,7.217,0,0,0,4.167-1.367,12.448,12.448,0,0,0,1.617-1.425c.283-.292.833-1.308,1.25-1.35a.417.417,0,0,1,.108,0c.517,2.075.558,4.008,1.8,5.833a6.782,6.782,0,0,0,1.667,1.783,2.5,2.5,0,0,0,1.35.675,4.1,4.1,0,0,0,.45,0,1.216,1.216,0,0,0,.183,0,.317.317,0,0,0,.183,0c.942,0,1.908-.267,2.625.283a2.441,2.441,0,0,1,.717,1.05c1.217,2.9.358,6.666-1.183,9.291a9.9,9.9,0,0,1-5.483,4.458,10.567,10.567,0,0,1-6.4-.642c-.892-.325-1.742-.65-2.55-1.025-2.45-1.125-4.567-2.375-5.208-5.15C265.385,137.164,265.368,137.114,265.36,137.072Z" transform="translate(-265.36 -120.536)"/></clipPath><clipPath id="c"><path class="a" d="M269.88,207.2a78.54,78.54,0,0,0,11.083-2.983c8.408-2.933,15.183-11.766,17.858-20a64.321,64.321,0,0,0,2.342-28.616c-.958-5.775-4.267-11.666-9.816-13.525-3.992-1.35-8.383-.392-12.366,1-5.358,1.875-8.4,4.5-10.741,9.608-2.5,5.466-4.35,11.258-7.5,16.424a38.657,38.657,0,0,1-19.274,15.958c-5.225,1.958-15.441,3.333-13.416,11.066,2.208,8.391,11.058,11.275,18.841,12.075A79.1,79.1,0,0,0,269.88,207.2Z" transform="translate(-227.786 -141.43)"/></clipPath><clipPath id="d"><path class="a" d="M98.73,173.263h24.183l3.058-14.833H101.788Z" transform="translate(-98.73 -158.43)"/></clipPath><clipPath id="e"><rect class="a" width="99.872" height="60.265" transform="translate(0 0)"/></clipPath><clipPath id="f"><path class="a" d="M90.322,78.619C85,81.8,77.114,79.752,72.347,76.544c-1.85-1.25-1.8-4.058-.658-5.75.258-.375.567-.7.833-1.058,1.142-1.55,1.317-3.642,1.558-5.483a31.124,31.124,0,0,0,0-6.591c-.333-4.3-.883-8.566-1.508-12.833A29.474,29.474,0,0,1,72.956,32.8c.892-3.333,1.867-4.608,5.441-5.9,3.192-1.158,6.666-2.275,10-2.117,2.417.117,5,.692,6.4,2.65a8.681,8.681,0,0,1,1.167,4.708c.208,3.792.333,7.608.375,11.425.05,4.325-.458,7.5-3.108,11.091a12.758,12.758,0,0,0-2.175,8.1,35.932,35.932,0,0,0,.317,5.092c.292,1.667,1.217,3,1.667,4.608C93.83,75.036,92.488,77.319,90.322,78.619Z" transform="translate(-70.885 -24.772)"/></clipPath></defs><g transform="translate(0 -4.34)"><g transform="translate(0.25 4.34)"><circle class="b" cx="52.565" cy="52.565" r="52.565" transform="translate(138.121)"/><path class="c" d="M240.967,141.944,232.359,97.62H221.385L209.11,141.944" transform="translate(-35.065 -19.889)"/><path class="d" d="M251.68,73.748a29.808,29.808,0,0,1-5.533,10.208,24.965,24.965,0,0,1-9.933,6.391,50.249,50.249,0,0,1-27.133,2.642,19.1,19.1,0,0,1-7.183-2.5c-4.167-2.775-5.208-6.6-.542-9.166a59.406,59.406,0,0,1,12.35-4.792c4.017-1.075,7.175-2.792,9.666-6.266s3.883-7.891,4.917-12.166q1.342-5.592,2.158-11.283c.583-4.108,2.067-7.891,6.1-9.608A10.658,10.658,0,0,1,248.1,39.291c3.158,2.892,4.608,7.2,5.35,11.425A50.232,50.232,0,0,1,251.68,73.748Z" transform="translate(-33.261 -9.675)"/><path class="e" d="M229.03,7.779c.408,0,.833.058,1.167.075a11.908,11.908,0,0,1,2.767.442A6.983,6.983,0,0,1,235.238,9.3a3.567,3.567,0,0,1,1.425,1.992,1.75,1.75,0,0,1,1.533-.625,3.55,3.55,0,0,1,1.608.583,2.658,2.658,0,0,1,1.175,1.267,3.213,3.213,0,0,1-.7,2.625,2.575,2.575,0,0,1,2.5,4.275,2.192,2.192,0,0,1,1.733,1.467A2.325,2.325,0,0,1,244.088,23a3.383,3.383,0,0,1-2.017.942,29,29,0,0,1-9.091.667,7.5,7.5,0,0,1-4.025-1.233,4.167,4.167,0,0,1-5.367.708c-2.725-1.908-1.775-5.433.575-7.066a6.416,6.416,0,0,1-.358-3.75,2.541,2.541,0,0,1,.833-1.458c.092-.075,1.25-.667,1.267-.483A3.492,3.492,0,0,1,228.1,7.862a3.108,3.108,0,0,1,.933-.083Z" transform="translate(-37.202 -4.912)"/><path class="f" d="M221.486,55.817c.175-4.117,1.192-8.225,1.375-12.366.133-2.825-.125-5.708.592-8.45a15.191,15.191,0,0,0,.692-2.825c.058-.758-.267-1.767.425-2.342a1.958,1.958,0,0,1,.833-.317,39.665,39.665,0,0,1,5.15-.833,14.182,14.182,0,0,1,5.375,1.017c1.75.542,3.458,1.092,4.092,2.808s.442,4.017.392,5.833c-.142,5.758-.3,11.566-1.567,17.191-.617,2.692-1.475,5.325-2.342,7.95a9.534,9.534,0,0,1-1.167,2.625,8.124,8.124,0,0,1-1.617,1.592,9.716,9.716,0,0,1-2.767,1.667A4.783,4.783,0,0,1,227.061,69c-1.442-.833-2.908-1.025-3.8-2.583a11.175,11.175,0,0,1-1.067-3.442c-.25-1.333-.508-2.658-.625-4.008a23.661,23.661,0,0,1-.083-3.15Z" transform="translate(-37.125 -8.394)"/><path class="e" d="M244.508,44.151a27.674,27.674,0,0,1,.908,6.916,70.154,70.154,0,0,1-.625,7.7l-5.542.275,2.692,8.333c3.808-.5,8.066-1.258,10.258-4.408a12.1,12.1,0,0,0,1.742-5.908,44.95,44.95,0,0,0-2.108-18.808c-1.567-4.25-6.258-7.366-10.683-8.333a.833.833,0,0,0-.9,1.133,43.835,43.835,0,0,1,2.708,7.5C243.492,40.451,244.042,42.293,244.508,44.151Z" transform="translate(-40.089 -8.602)"/><path class="e" d="M210.027,45.968c.592-1.75,1.25-3.483,1.775-5.175,1.083-3.483,2.367-7.241,5.417-9.25a12.8,12.8,0,0,1,5.925-1.833c.542,2.117,1.025,4.25,1.467,6.391a25.59,25.59,0,0,1,.658,5.092c0,3.067-1.008,6.033-1.708,9.016A53.79,53.79,0,0,0,222.3,66.526c0,.467.075.933.108,1.4a138.773,138.773,0,0,0-12.983-5.475c-.367-.483-.75-.242-1.117-.733-.592-.758.05-4.333.092-5.333a47.109,47.109,0,0,1,.358-5.6,31.341,31.341,0,0,1,1.267-4.817Z" transform="translate(-34.89 -8.569)"/><path class="e" d="M233.893,66.6c.517-3.575.158-7.191.175-10.833,0-3.983.042-7.966.042-11.958a10.538,10.538,0,0,1,.142-1.983,10.733,10.733,0,0,1,1.025-2.5,51.553,51.553,0,0,0,2.192-4.908c.375-.967.833-3.992,1.667-4.583,1.667-1.258,5.833,2.908,6.625,4.167a16.55,16.55,0,0,1,2.058,6.666c1.667,11.258.717,22.5-.333,33.8a8.26,8.26,0,0,1-1.225,4.3c-1.817,2.392-4.167,1.733-5.75-.133a42.882,42.882,0,0,0-7.55-6.816C233.293,70.04,233.635,68.315,233.893,66.6Z" transform="translate(-39.041 -8.55)"/><path class="g" d="M190.7,114.774a4.766,4.766,0,0,1-1,1.183,1.95,1.95,0,0,1-1.367.492,2.933,2.933,0,0,1-2.083-1.25c-.833-1.325-.692-2.275-.567-3.75.108-1.3.233-2.592.4-3.883A58.336,58.336,0,0,1,187.464,100a3.075,3.075,0,0,1,2.092-2.3,3.767,3.767,0,0,1,5.316,3.975,65,65,0,0,1-2.142,7.35C192.156,110.716,191.764,113.1,190.7,114.774Z" transform="translate(-31.144 -19.843)"/><path class="e" d="M173.34,125.6a6.9,6.9,0,0,1,1.917-4.433,23.008,23.008,0,0,1,3.925-2.225,15.616,15.616,0,0,0,3.442-2.708,1.433,1.433,0,0,1,.467-.342,1.4,1.4,0,0,1,.492-.058h3.25a9.567,9.567,0,0,1,2.667.25c-.1.975-.242,1.942-.433,2.9a4.894,4.894,0,0,1-.642,2.175,8.084,8.084,0,0,1-2.4,1.05c-.833.333-1.667.65-2.5.942q-2.5.833-5.167,1.5C177.907,124.754,173.34,125.554,173.34,125.6Z" transform="translate(-29.103 -22.924)"/><path class="h" d="M194.418,102.871c-1.475-.442-3-.692-4.483-1.125A32.5,32.5,0,0,1,185.16,99.7c0-1.775,2.25-14.833,2.883-19.591.517-3.917.592-8.6,3.333-11.766,2.358-2.758,5.725-1.942,8.85-1.767a67.1,67.1,0,0,1,11.666,1.967,100.964,100.964,0,0,1,13.433,3.95,22.575,22.575,0,0,1,6.966,3.908,10.25,10.25,0,0,1,3.65,6.916,6.725,6.725,0,0,1-3.575,6.466c-3.958,1.942-13.575,2.15-17.733.675s-2.975-4.533-6.6-7.05c-1.917-1.333-4.933-4.367-7.5-2.758-1.667,1.05-2.108,3.667-2.417,5.392-.708,3.933-1.85,7.5-2.283,11.425a34.362,34.362,0,0,1-1.417,5.4Z" transform="translate(-31.073 -14.674)"/><path class="i" d="M217.185,40.2c2.333,2.5.883,8.083.625,11.116q-.542,6.45-1.4,12.85" transform="translate(-36.282 -10.318)"/><path class="g" d="M232.592,29.028a12.016,12.016,0,0,0,4.25-1.208c-1.108-1.425-.967-3.333-1.058-5.067a6.875,6.875,0,0,0-1.475-4.167,3.933,3.933,0,0,0-1.883-1.067,3.633,3.633,0,0,0-2.1-.167c-2.4.75-2.075,3.167-2,5.092.05,1.092-.1,2.183-.133,3.275a2.317,2.317,0,0,1-1.092,1.908C228.492,29.011,230.683,29.22,232.592,29.028Z" transform="translate(-38.064 -6.495)"/><g class="j" transform="translate(190.085 10.749)"><path class="e" d="M227.27,26.557a10.125,10.125,0,0,0,5-1.75,10.275,10.275,0,0,1-4.875-.467h.075" transform="translate(-228.177 -18.423)"/></g><path class="g" d="M226.4,18.058c.342,1.908.525,3.65,2.442,4.675a6.491,6.491,0,0,0,2.917.65,6.275,6.275,0,0,0,1.892-.2,5.475,5.475,0,0,0,3.467-3.5,9.875,9.875,0,0,0,.217-5.05,8.95,8.95,0,0,0-1.567-3.925,4.717,4.717,0,0,0-3.617-1.958c-1.875,0-4.408,1.2-5.208,3a2.608,2.608,0,0,0-.167.567,14.507,14.507,0,0,0-.375,5.742Z" transform="translate(-37.926 -5.075)"/><path class="e" d="M239.012,12.771a1.668,1.668,0,0,0-.175-.475,1.608,1.608,0,0,0-1.283-.833,3.2,3.2,0,0,0-.583-3.4c-1.225-1.342-3.075-1.117-4.683-.775a5.208,5.208,0,0,0-1.6-.567,4.816,4.816,0,0,0-3.158.442,4,4,0,0,0-2.117,3.942A3.758,3.758,0,0,0,223,14.029a3.725,3.725,0,0,0,2.083,3.75,3.117,3.117,0,0,1,1.25-2.1,4.716,4.716,0,0,0,1.608-1.8,8.108,8.108,0,0,0,.725-2.775c0,.283,2.092,1.575,2.392,1.733a2.95,2.95,0,0,0,2.817.192,3.125,3.125,0,0,0,.775,1.917,2.067,2.067,0,0,0,2.575.6,3.125,3.125,0,0,0,1.558-1.308,2.192,2.192,0,0,0,.233-1.467Z" transform="translate(-37.376 -4.721)"/><path class="g" d="M200.382,137.444a5.409,5.409,0,0,1-1.125,1.317,2.192,2.192,0,0,1-1.533.533,3.275,3.275,0,0,1-2.308-1.408c-.942-1.483-.75-2.55-.6-4.167.133-1.442.292-2.883.483-4.325a65.6,65.6,0,0,1,1.608-8.425,3.328,3.328,0,0,1,2.358-2.5,4.167,4.167,0,0,1,5.892,4.475,72.137,72.137,0,0,1-2.458,8.183C202.048,132.944,201.548,135.594,200.382,137.444Z" transform="translate(-32.661 -23.297)"/><path class="h" d="M192.6,97.664q-2.733,11.666-5.491,23.291l15.6.25c1.142,0,3.608-11.958,3.875-13.333A65.83,65.83,0,0,0,207.851,94a5.284,5.284,0,0,1,.117-.65,17.294,17.294,0,0,1,2.275-.15l8.866-.192-6.125-7.375a31.666,31.666,0,0,0-5-5.15c-2.5-1.883-10.275-4.567-11.433.35Q194.585,89.247,192.6,97.664Zm15.216-3.333v2.008a11.058,11.058,0,0,1,.033-1.983Z" transform="translate(-31.398 -16.624)"/><path class="e" d="M184.595,148.8a1.942,1.942,0,0,1-2.075-2.775,4.925,4.925,0,0,1,1.217-1.583,25.166,25.166,0,0,1,4.4-2.45A17.566,17.566,0,0,0,192,139.008a1.5,1.5,0,0,1,.525-.383,4.951,4.951,0,0,1,.925-.075h1.575c1.5.15,3.133-.075,4.633.367a32.208,32.208,0,0,1-.508,3.233,6.158,6.158,0,0,1-.642,2.317.833.833,0,0,1-.308.217c-1.733.767-3.5,1.458-5.292,2.058s-3.825,1.183-5.775,1.625C186.919,148.4,185.786,148.6,184.595,148.8Z" transform="translate(-30.599 -26.711)"/><path class="i" d="M241.57,48.55l.25,10.833a1.4,1.4,0,0,1-.067.533,1.25,1.25,0,0,1-.442.467q-1.808,1.308-3.742,2.433" transform="translate(-39.809 -11.709)"/><path class="g" d="M240,72.126a5,5,0,0,0,.183-.833,5.925,5.925,0,0,0-.558-2.85c-.717-1.717-1.842-3.233-2.6-4.933a4.642,4.642,0,0,0-1.267.6,32.56,32.56,0,0,1-9.4,4.375c-2.325.542-4.95.642-7.025,1.958s-3.333,5.625.292,5.683a5.35,5.35,0,0,0,1.858-.433L226,74.026l.642-.217a3.333,3.333,0,0,1,.633-.142,5.725,5.725,0,0,1,1.308,0c3.908.242,7.5.683,11.1-1.317Z" transform="translate(-36.436 -14.203)"/><path class="i" d="M250.208,72.86,246,74.01" transform="translate(-41.214 -15.762)"/><path class="k" d="M219.554,92.816c-6.533-2.175-12.358-7.133-18.066-10.141a3.98,3.98,0,0,0-3.208-.625,3.467,3.467,0,0,0-1.667,1.917,24.217,24.217,0,0,0-1.55,5.683q-1.367,7.291-2.733,14.575" transform="translate(-32.268 -17.268)"/><path class="l" d="M229.88,21.377a2.208,2.208,0,0,0,4.042-.167h-.442" transform="translate(-38.527 -7.152)"/><path class="l" d="M232.78,77.93H196.889a.55.55,0,0,0-.533.7h0a.558.558,0,0,0,.533.4H232.78a.558.558,0,0,0,.55-.55h0A.558.558,0,0,0,232.78,77.93Z" transform="translate(-32.936 -16.607)"/><path class="m" d="M226.311,75.925H195.195L190.32,59.2h31.116Z" transform="translate(-31.933 -13.485)"/><path class="e" d="M212.107,69.01a1.1,1.1,0,1,1-.325-.781,1.108,1.108,0,0,1,.325.781Z" transform="translate(-35.195 -14.937)"/><rect class="e" width="1.075" height="65.173" transform="translate(137.913 62.948)"/><rect class="e" width="0.942" height="65.173" transform="translate(237.943 62.948)"/><rect class="e" width="115.155" height="0.975" transform="translate(131.063 62.44)"/><line class="c" x2="21.566" transform="translate(180.436 98.914)"/><line class="c" x2="27.066" transform="translate(176.903 110.288)"/><circle class="b" cx="61.898" cy="61.898" r="61.898" transform="translate(164.204 82.239)"/><path class="c" d="M294.8,225.46c-.475.158-38.791,13.991-38.791,13.991" transform="translate(-42.883 -41.199)"/><line class="c" x2="41.015" y2="16.375" transform="translate(215.669 182.511)"/><path class="c" d="M301.094,242.916,289.969,208.1l-29.574,1.908-5.725,33.382" transform="translate(-42.659 -38.305)"/><path class="n" d="M280.189,165.525c-10.216-2.217-21.733-4.033-30.924.1a19.2,19.2,0,0,0-11.158,13.033c-1.158,5.333.492,10.908,3.942,15.591" transform="translate(-39.837 -30.813)"/><path class="o" d="M269.88,207.2a78.54,78.54,0,0,0,11.083-2.983c8.408-2.933,15.183-11.766,17.858-20a64.321,64.321,0,0,0,2.342-28.616c-.958-5.775-4.267-11.666-9.816-13.525-3.992-1.35-8.383-.392-12.366,1-5.358,1.875-8.4,4.5-10.741,9.608-2.5,5.466-4.35,11.258-7.5,16.424a38.657,38.657,0,0,1-19.274,15.958c-5.225,1.958-15.441,3.333-13.416,11.066,2.208,8.391,11.058,11.275,18.841,12.075A79.1,79.1,0,0,0,269.88,207.2Z" transform="translate(-38.178 -27.192)"/><path class="e" d="M235.374,202.846c-3.05.7-6.175,1.025-9.266,1.483-1.667.233-4.958,1.167-6.5,0-1.942-1.442,1.242-2.283,2.683-3.083,2.5-1.383,5-2.708,7.5-4.058,2.308-1.242,5.275-3.9,7.625-1.333,1.517,1.667,1.667,4.292,1.867,6.408a20.658,20.658,0,0,0-3.908.583Z" transform="translate(-36.713 -36.084)"/><path class="e" d="M229.9,259.694a2.5,2.5,0,0,1-1.158,1.367,2.658,2.658,0,0,1-.958.158c-4.25.15-7.366-.042-12.683-.042a22.591,22.591,0,0,1-5.7-.833,2.65,2.65,0,0,1,1.667-1.467,58.955,58.955,0,0,1,11.583-3.758c1.742-.375,1.458-1.667,2.683-2.5a5.608,5.608,0,0,1,3.258-.558c.567,0,1.2,3.058,1.275,3.517a11.667,11.667,0,0,1,.225,3.567,2.719,2.719,0,0,1-.192.55Z" transform="translate(-35.113 -45.625)"/><path class="d" d="M285.738,190.228c-1.408-4.45-7.791-5.475-11.733-5.158-8.191.658-16.416.833-24.566,1.525-6.666.55-13.866,1.983-18.433,7.275-4.008,4.65-4.933,11.141-5.508,17.249-.675,7.275.483,28.916.542,32.382a47.284,47.284,0,0,0,6.25.258c2.092-3.25,3.05-8.608,4.233-12.166.7-2.083,7.316-25.266,7.116-25.291a86.388,86.388,0,0,0,20.374.783c4.808-.383,9.691-1.217,13.875-3.592C281.938,201.194,287.363,195.377,285.738,190.228Z" transform="translate(-37.762 -34.457)"/><path class="m" d="M293.54,179.315a10.485,10.485,0,0,1-.683,1.783h-3.708a43.642,43.642,0,0,1-9.666-.567,65.948,65.948,0,0,1-8.175-2.358c-4.117-1.45-7.975-2.5-7.667-7.5.425-7.125,1.233-14.016-.875-21.024-1.308-4.342-3.95-10.616-1.092-14.9,2.692-4.025,10.725-4.267,14.95-4.642a13.525,13.525,0,0,1,3.433,0,11.341,11.341,0,0,1,3.875,1.667c9.466,5.675,14.691,14.441,14.5,25.591C298.3,164.915,295.982,172.215,293.54,179.315Z" transform="translate(-43.614 -25.286)"/><path class="d" d="M237.744,174.5c-1.667-3.592-3.517-7.133-4.933-10.833-1.175-3.1-3.408-7.141-3.292-10.475a.933.933,0,0,1,.125-.5.833.833,0,0,1,.525-.283,16.924,16.924,0,0,1,5.35-.292c11.808.758,18.4,13.566,23.983,22.333.833,1.325,5.75,7.683,7.041,7.583-4.517.358-7.991,2.642-12.166,3.908-2.558.767-5.375,3.058-7.775,3.383a82.231,82.231,0,0,1-8.858-14.825Z" transform="translate(-38.466 -28.958)"/><path class="d" d="M223.3,157.295a15,15,0,0,1,3.592-6.858c1.625-1.867,3.967-3.492,6.4-3.042a6.3,6.3,0,0,1,3.992,3.058,15.966,15.966,0,0,1,1.958,8.558c0,2.433-.908,4.575-.992,7.025q-.15,4.8-.1,9.6c.042,4.042-.225,8.5.525,12.5-.65.117-8.058,1.05-8.066,1.017a112.955,112.955,0,0,1-7.433-28.666A10.358,10.358,0,0,1,223.3,157.295Z" transform="translate(-37.398 -28.173)"/><path class="g" d="M277.217,120.469c.05.608-1.217,1.983-1.6,2.417a5.642,5.642,0,0,1-2.192,1.567c-2.242.883-4.592.967-6.35-.883a10.2,10.2,0,0,1-1.883-3.092c-.725-1.667-1.733-6.383-1.275-8.166.417-1.625,2.158-.208,3.742-.758a7.3,7.3,0,0,1,3.908-.642,5.483,5.483,0,0,1,3.392,1.942c.225.292.425.583.608.833a19.518,19.518,0,0,1,1.133,2.85,18.048,18.048,0,0,1,.45,2.5C277.158,119.527,277.183,120,277.217,120.469Z" transform="translate(-44.182 -22.097)"/><path class="g" d="M279.08,132.889a12.208,12.208,0,0,1-7.283,1.85,12.7,12.7,0,0,1-1.667-.167,4.108,4.108,0,0,0,1.425-4.108,10.567,10.567,0,0,0-.833-2.783,13.794,13.794,0,0,1-1.233-2.5,1.214,1.214,0,0,1,.133-.175,1.667,1.667,0,0,1,1.15-.275,7.216,7.216,0,0,0,4.167-1.367,12.451,12.451,0,0,0,1.617-1.425c.283-.292.833-1.308,1.25-1.35a.417.417,0,0,1,.108,0c.517,2.075.558,4.008,1.8,5.833a6.782,6.782,0,0,0,1.667,1.783,2.541,2.541,0,0,0,1.317.667,12.309,12.309,0,0,1-3.617,4.017Z" transform="translate(-45.128 -23.717)"/><path class="e" d="M262.43,111.343a9.808,9.808,0,0,1,12.15-4.475,6.825,6.825,0,0,1,2.692,1.667,11.475,11.475,0,0,1,2.075,4.05l-1.5.258a.591.591,0,0,0-.25.083c-.192.133-.142.425-.083.65a8.125,8.125,0,0,1-.767,5.833c-.133.242-1.158-1.467-1.183-1.508-.425-.833-.75-1.733-1.2-2.567a13.6,13.6,0,0,0-1.667-2.317,8.374,8.374,0,0,0,0,1.583l-1.667.217a8.658,8.658,0,0,0-.95-3.167,20.685,20.685,0,0,0-.658,3.408,20.733,20.733,0,0,1-4.558.833,19.306,19.306,0,0,0-3.933.575c.317-1.083.467-2.225.833-3.333a8.828,8.828,0,0,1,.667-1.792Z" transform="translate(-43.703 -21.321)"/><path class="g" d="M275.938,116.742a1.908,1.908,0,0,1,.425-1.05,1.667,1.667,0,0,1,1.492-.683,2.008,2.008,0,0,1,1.717,1.383,1.883,1.883,0,0,1-2.608,2.35A2.108,2.108,0,0,1,275.938,116.742Z" transform="translate(-46.203 -22.786)"/><path class="m" d="M233.8,144.044c.642-4.458,4.642-4.775,8.583-6.158,5.25-1.842,10.508-3.658,15.833-5.267a17.825,17.825,0,0,1,6.458-1.1,1.667,1.667,0,0,1,.292.05c-.042.467-.067.942-.067,1.408-1.792,2.825-3.05,6.466-4.342,9.483-1.55,3.617,2.858,3.683-.583,5.408a123.566,123.566,0,0,1-13.708,4.667c-3.383.625-10.833,1.942-13.591-.683-1.567-1.508.983-4.5,1.025-6.666a9.606,9.606,0,0,1,.1-1.142Z" transform="translate(-38.909 -25.539)"/><path class="e" d="M278.545,118.145a.941.941,0,0,0-.875-1.667" transform="translate(-46.493 -23.014)"/><g class="p" transform="translate(220.919 96.827)"><path class="e" d="M274.223,126.882l-.2.083a7.733,7.733,0,0,1-4.017.65c-.333.142-.225.417-.058.917.242.692.45,1.4.642,2.108l3.717-3.8Z" transform="translate(-266.098 -121.587)"/></g><path class="q" d="M258.349,135.3a1.267,1.267,0,0,0,.208-.442.667.667,0,0,0-.267-.758c-1.075-.6-2.392,1.575-3.058,2.1a6.666,6.666,0,0,0-1.45,1.275c-.775,1.083.167,2.875,1.092,1.442a4.425,4.425,0,0,1,1.275-1.542,10.241,10.241,0,0,0,1.967-1.783C258.2,135.5,258.274,135.4,258.349,135.3Z" transform="translate(-42.464 -25.952)"/><path class="e" d="M257.444,140.638l5.917,1.175a.833.833,0,0,0,.942-.833l-1.25-14.5a.775.775,0,0,0-.633-.708L256.5,124.6a.783.783,0,0,0-.933.833l1.242,14.5A.833.833,0,0,0,257.444,140.638Z" transform="translate(-42.809 -24.383)"/><path class="g" d="M230.037,144.663a6.533,6.533,0,0,0-.908,2.933,6.108,6.108,0,0,0,4.95,6.266c4.008.55,7.5-3.242,10.541-5.325,1.767-1.217,3.242-2.992,5.275-3.775.975-.375,1.667-.075,1.492-1.275-.125-.833-.142-3.517-1.025-3.95-1.2-.592-3.333.633-4.525.883a38.724,38.724,0,0,1-7.366.408,16.043,16.043,0,0,0-4.092.442A7.55,7.55,0,0,0,230.037,144.663Z" transform="translate(-38.401 -26.85)"/><path class="g" d="M264.712,138.234c-2.083-.992-2.758-1.467-5.35-1.425-1.608,0-1.225,1.492-.208,1.558a11.083,11.083,0,0,1,4.958,1.317C265.054,140.118,265.654,138.634,264.712,138.234Z" transform="translate(-43.26 -26.421)"/><path class="g" d="M264.044,140.2c-2.433-1.067-2.783-.75-5.375-1.308-.992-.217-1.192,1.342-.208,1.558,2.5.533,2.667.192,5,1.208a.833.833,0,0,0,.583-1.458Z" transform="translate(-43.184 -26.766)"/><path class="g" d="M263.207,143.109a1.217,1.217,0,0,0-.425-.692,4.733,4.733,0,0,0-2.183-.833,20,20,0,0,0-2.342-.425c-1-.108-1.217,1.458-.208,1.567a15.3,15.3,0,0,1,1.95.3,14.874,14.874,0,0,1,1.517.35c.358.133.7.3,1.058.408S263.282,143.576,263.207,143.109Z" transform="translate(-43.113 -27.146)"/><path class="g" d="M261.4,144.273c-1.325-.267-2.617-.675-3.967-.833a.983.983,0,0,0-.792,1.55,1.425,1.425,0,0,0,1.15.383c.417,0,.833-.125,1.242-.125.95,0,2.217.833,3.108.225a.633.633,0,0,0,.233-.758c-.133-.267-.458-.342-.75-.4Z" transform="translate(-42.959 -27.527)"/><path class="g" d="M257.651,143.153a1.258,1.258,0,0,1-.55.925,4.409,4.409,0,0,1-1.342.458,10.83,10.83,0,0,1-1.342.325,3.425,3.425,0,0,1-2.592-.733,4.167,4.167,0,0,1-1.233-2.283c-.25-.833-.625-1.358.042-2.092a12.717,12.717,0,0,1,1.992-1.358c1.058-.625,4.292-2.142,5.633-1.45.792.4.083,2.267-.058,2.85-.175.75-.367,1.508-.467,2.275C257.685,142.428,257.7,142.794,257.651,143.153Z" transform="translate(-41.924 -26.414)"/><path class="l" d="M259.26,128.776a.708.708,0,0,0,.592.733.567.567,0,0,0,.642-.558.717.717,0,0,0-.583-.742.575.575,0,0,0-.65.567Z" transform="translate(-43.424 -24.987)"/><path class="m" d="M296.143,136.313c6.233,7.125,10.133,35.549,6.158,35.957-3.217.333-10-1.158-12.325-3.933a9.491,9.491,0,0,1-1.667-4.467c-.408-2.167-.833-4.333-1.217-6.508-1.667-8.866-3.333-18.008-1.442-26.833a16.858,16.858,0,0,1,10.491,5.783Z" transform="translate(-47.684 -25.375)"/><path class="k" d="M285.74,148a4.367,4.367,0,0,1,2.792,2.808,12.849,12.849,0,0,1,.592,4.067q.217,5.833.433,11.666c.092,2.5.3,5.283,2.117,7.008" transform="translate(-47.839 -28.287)"/><path class="k" d="M238.73,160.49a85.931,85.931,0,0,1,2.217,18.566" transform="translate(-40.002 -30.369)"/><path class="l" d="M269.81,122.91a1.667,1.667,0,0,1-1.242,1.067,1.483,1.483,0,0,1-1.408-.692" transform="translate(-44.741 -24.105)"/><path class="n" d="M306.257,184.5c-10.216-2.317-21.733-4.217-30.924.108a19.791,19.791,0,0,0-11.158,13.641c-1.133,5.583,0,10.466,3.458,15.366" transform="translate(-44.173 -33.958)"/><g class="r" transform="translate(189.608 114.238)"><path class="f" d="M245.56,211.055c1.6-.4,3.192-.833,4.783-1.258a60.983,60.983,0,0,0,10.083-3.8,82.4,82.4,0,0,0,17.558-10.991,65.973,65.973,0,0,0,12.808-14.358,71.39,71.39,0,0,0,4.408-8.216c1.267-2.658,2.55-5.308,3.7-8.016,2.025-4.75,4.042-10.091,3.842-15.366l.05-.158c3.608,10.966,4.633,22.958,1.667,34.107s-10.283,21.324-20.508,26.666c-7.158,3.742-15.341,5-23.391,5.517-4.017.258-14.375,1.475-16.25-3.483.275-.125.558-.267.833-.417Z" transform="translate(-230.54 -142.673)"/></g><path class="g" d="M293.469,176.262a3.333,3.333,0,0,0,.5,2.742,47.952,47.952,0,0,0,5.9,8.825c1.825,2.175,4.575,4.258,5.591,6.991.433,1.158-.575,3.808-1.083,5.2a4.85,4.85,0,0,0-.258,1.092,7.352,7.352,0,0,1-.117,1.133c-.175.683-.833,1-.575,1.783a.7.7,0,0,0,.733.4c1.792-.4,1.275-2.55,1.958-3.75a4.116,4.116,0,0,1,.608,2.067,23.874,23.874,0,0,1,0,5.4,1.925,1.925,0,0,0,.042.925.717.717,0,0,0,.775.467.833.833,0,0,0,.542-.758c.392-1.925-.133-4.025.725-5.791.45.258.4.617.408,1.05a24.639,24.639,0,0,1-.333,4.7c-.075.4-.725,3.208.667,2.5a1.225,1.225,0,0,0,.517-.7,13.733,13.733,0,0,0,.608-5.05c0-.608-.225-1.542.225-2.033a3.917,3.917,0,0,1,.075,1.867c-.05.833-.067,1.667-.083,2.55v.267c-.1.642-.558,1.908.533,1.992.708.05,1.358-1.375.883-1.5a.558.558,0,0,0,.508-.117c1.3-1.042,1.383-2.6,1.242-4.1v-.933a40.755,40.755,0,0,0-2.267-11.558c-1.083-3.025-2.65-5.75-3.708-8.8-.617-1.775-1.15-3.567-1.792-5.325-.433-1.208-1.033-4.008-2.383-4.442a3.951,3.951,0,0,0-1.367-.117c-2.8.067-6.666.042-8.566,2.4A2.592,2.592,0,0,0,293.469,176.262Z" transform="translate(-49.11 -32.491)"/><path class="k" d="M246.77,210.26q.425-3.175.833-6.35" transform="translate(-41.343 -37.606)"/><path class="k" d="M231.48,194.95a12.191,12.191,0,0,1,8.333-5.25" transform="translate(-38.794 -35.238)"/><path class="k" d="M244.2,188.734c6.575-1,10.833-.125,19.266-.125" transform="translate(-40.914 -34.997)"/><path class="k" d="M262,151.92a5.375,5.375,0,0,0,2.308-2.35" transform="translate(-43.881 -28.548)"/><circle class="b" cx="58.824" cy="58.824" r="58.824" transform="matrix(0.16, -0.987, 0.987, 0.16, 11.075, 194.596)"/><line class="c" x1="0.533" y1="61.182" transform="translate(40.166 150.646)"/><line class="c" x1="0.542" y1="62.707" transform="translate(121.58 149.121)"/><rect class="e" width="100.105" height="1.05" transform="translate(31.324 148.787)"/><path class="e" d="M95.18,176.776H131.6l4.383-21.316H99.563Z" transform="translate(-16.074 -29.53)"/><path class="h" d="M95.76,177.086h35.291l4.25-20.366H100.01Z" transform="translate(-16.171 -29.74)"/><path class="e" d="M129.23,182.667H85.723a.833.833,0,0,1-.833-.833h0a.833.833,0,0,1,.833-.833H129.23a.833.833,0,0,1,.833.833h0A.833.833,0,0,1,129.23,182.667Z" transform="translate(-14.359 -33.788)"/><rect class="s" width="7.5" height="0.85" transform="translate(89.214 147.171)"/><path class="l" d="M98.73,173.263h24.183l3.058-14.833H101.788Z" transform="translate(-16.666 -30.025)"/><g class="t" transform="translate(82.064 128.405)"><path class="e" d="M109.863,166.2c.05.333.117.667.167.992l.4,2.908a3.725,3.725,0,0,0,.358,1.317,2.667,2.667,0,0,0,.992.933,5.058,5.058,0,0,0,4.542.333.558.558,0,0,0,.292-.2.583.583,0,0,0,.075-.358,11.291,11.291,0,0,0-.483-2.15c-.475-1.908-.283-3.892-.558-5.833a2.075,2.075,0,0,0-1.125-1.908,2.725,2.725,0,0,0-2.108-.133,4.167,4.167,0,0,0-2.5,2.5,3,3,0,0,0-.05,1.6Z" transform="translate(-100.572 -159.016)"/><path class="u" d="M110.418,164.677a1.458,1.458,0,1,1-1.45-1.617,1.533,1.533,0,0,1,1.45,1.617Z" transform="translate(-100.194 -159.202)"/><path class="g" d="M113.133,161.016a5.916,5.916,0,0,0-2.358-.517,2.15,2.15,0,0,0-1.667.65,2.408,2.408,0,0,0-.4,1.158c-.15.933-.283,1.875-.392,2.817a3.15,3.15,0,0,0,.208,2.258,3.333,3.333,0,0,1,.633.917,1.667,1.667,0,0,1,0,.608,26.724,26.724,0,0,1-.583,3.142,16.532,16.532,0,0,0,1.825.117,11.042,11.042,0,0,0,2.033-.175c.242-.058.783-.108.95-.308s0-.675,0-.967a11.382,11.382,0,0,1,0-2.608c.142-.908.433-1.783.658-2.675a7.425,7.425,0,0,0,.217-2.967,1.5,1.5,0,0,0-1.125-1.45Z" transform="translate(-100.308 -158.774)"/><path class="d" d="M95.647,181.553l-.233.092c-.358-.442-.117-1.067.167-1.558a15.774,15.774,0,0,1,4.283-4.891,12.175,12.175,0,0,1,6.383-2.367c3.55-.333,7.566,0,9.925,2.45,2.025,2.075,2.275,5.083,2.425,7.85" transform="translate(-98.147 -160.812)"/><path class="l" d="M108.9,166.47a1.667,1.667,0,0,0,2.892.075C110.825,166.537,109.867,166.512,108.9,166.47Z" transform="translate(-100.425 -159.77)"/><path class="e" d="M108.959,162.935a4.708,4.708,0,0,0,1.975.308,2.991,2.991,0,0,0,2.192-1.125l.217.083a2.05,2.05,0,0,0,.458,2.058,2.724,2.724,0,0,1,.542.575c.133.25.075.517.158.783a.267.267,0,0,0,.117.167c.158.083.317-.108.383-.267a5.075,5.075,0,0,0,.367-3.333,2.925,2.925,0,0,0-2.458-1.925,8.516,8.516,0,0,0-2.15-.25,2.892,2.892,0,0,0-2.725,1.733.75.75,0,0,0-.05.533.833.833,0,0,0,.483.417Z" transform="translate(-100.268 -158.693)"/><path class="v" d="M115.63,166.43a5.592,5.592,0,0,1-4.05,1.508" transform="translate(-100.872 -159.764)"/><path class="e" d="M111.864,168.177a.34.34,0,1,1-.367-.367A.367.367,0,0,1,111.864,168.177Z" transform="translate(-100.806 -159.994)"/><path class="u" d="M117.652,165.358a1.45,1.45,0,1,1-1.442-1.608,1.533,1.533,0,0,1,1.442,1.608Z" transform="translate(-101.402 -159.317)"/><path class="u" d="M115.558,160.667h0a4.55,4.55,0,0,0-2.575-.767c-.325,0-.708,0-.833.275.492.083.992.058,1.475.158a4.942,4.942,0,0,1,1.375.5c1.192.65,1.133,2.183.833,3.283-.092.325.467.467.558.142C116.633,163.033,116.642,161.542,115.558,160.667Z" transform="translate(-100.967 -158.675)"/><path class="e" d="M117.08,165.4a.6.6,0,0,1-.567.633.633.633,0,1,1,0-1.267.6.6,0,0,1,.567.633Z" transform="translate(-101.589 -159.487)"/><path class="g" d="M116.233,167.969a4.167,4.167,0,0,0-.833-1.15c0-.158.292-.108.4,0s.233.283.4.258a.416.416,0,0,0,.175-.108,2.5,2.5,0,0,0,.642-1.017c.075-.25,0-.775.175-.942.317-.308.833-.067,1.033.167a3.492,3.492,0,0,1,.7,2.142,7.431,7.431,0,0,0,1.667,3.625,18.558,18.558,0,0,1,2.733,6.133,4.491,4.491,0,0,1,0,2.325,2.333,2.333,0,0,1-1.717,1.608,3.225,3.225,0,0,1-3.517-2.5,31.365,31.365,0,0,1-1.133-6.433,20.718,20.718,0,0,0-.275-2.783,6.067,6.067,0,0,0-.45-1.325Z" transform="translate(-101.509 -159.503)"/></g><path class="g" d="M82.735,170.551a17.075,17.075,0,0,1-4.108-1.083c-2.967-1.233-5.575-3.725-6.166-6.875-.542-2.85-.133-6.666,3.333-7.416,2.658-.592,5.167,1.2,7.666,2.275,2.717,1.175,5.933,1.283,8.816,1.825s7.6,1.175,8.725,4.433a3.375,3.375,0,0,1,.158,1.258,5.567,5.567,0,0,1-1.842,3.9c-2.642,2.342-7.916,1.892-11.2,1.942a34.713,34.713,0,0,1-5.383-.258Z" transform="translate(-12.254 -29.464)"/><path class="g" d="M62.963,136.783a18.469,18.469,0,0,1-.275-6.616c.833-3.783,5.975-6.85,9.458-4.125,1.667,1.3,2.358,3.442,2.942,5.467a10.908,10.908,0,0,1,.508,5.417c-.425,1.867-1.525,1.342-2.6,2.625a2.133,2.133,0,0,0-.3,1.608c.292,3.333,2.317,11.308-3.1,11.358-3.85,0-6.383-1.908-6.175-5.775a51.048,51.048,0,0,0-.433-9.766Z" transform="translate(-10.622 -24.453)"/><path class="g" d="M107.087,210.422a5.617,5.617,0,0,0-1.758-2.6c-1.358-1.075-2.5-.783-3.867.1a9.375,9.375,0,0,0-2.942,3.108,16.174,16.174,0,0,0-1.975,6.391,82.055,82.055,0,0,0-.208,14.166c.258,5,.942,9.908,1.667,14.841a8.141,8.141,0,0,0,.708,2.7,2.767,2.767,0,0,0,2.167,1.575,1.517,1.517,0,0,0,.967-.258c.833-.617.833-1.958.908-2.858.158-1.292.308-2.575.458-3.867.308-2.583.608-5.167.967-7.741.967-6.958,2.975-13.783,3.333-20.833a14.708,14.708,0,0,0-.2-3.967C107.246,210.938,107.171,210.68,107.087,210.422Z" transform="translate(-16.232 -38.143)"/><path class="e" d="M89.882,200.81c.05,5.267-.442,10.091-.692,14.933l1.483.425c.775.208,1.558.408,2.358.567a19.893,19.893,0,0,0,2.5.308c1.867.133,3.742.117,5.608.067l3.25-.092a101.315,101.315,0,0,0,1.15-18.591,5.916,5.916,0,0,0-2-4.508,6.483,6.483,0,0,0-2.425-1.033c-6.608-1.708-13.541-1.542-20.366-1.367-5.833.15-12-.208-17.791.533a6.667,6.667,0,0,0,2.267,5.425,8.041,8.041,0,0,0,4.283,1.183C74.949,199.06,84.457,200.985,89.882,200.81Z" transform="translate(-10.701 -35.524)"/><path class="d" d="M72.852,156.518a14,14,0,0,0-2.017-5.375,5.075,5.075,0,0,0-2.433-1.975c-6.441-2.133-10.066,7.35-11.666,11.666a39.165,39.165,0,0,0-2.125,19.849c.833,4.958,3.333,13.691,7.933,16.6,1.9,1.208,4.042.208,6.033,0s3.333.108,4.667-1.708c2.667-3.575,2.008-10.233,1.783-14.441a8.958,8.958,0,0,1,.117-2.833c.35-1.325,1.325-2.417,1.708-3.742a6.891,6.891,0,0,0,.058-3.142c-.683-3.883-2.5-7.608-3.333-11.483C73.285,158.843,73.094,157.668,72.852,156.518Z" transform="translate(-9.237 -28.43)"/><path class="g" d="M126.378,243.161c.2.208.392.417.6.625.992,1.017,2.5,1.992,3.742,1.3a2.408,2.408,0,0,0,1.1-2.167,7.083,7.083,0,0,0-.625-2.5c-2.092-5.417-4.108-10.833-6.116-16.308q-1.575-4.275-3.158-8.55-.762-2.075-1.533-4.167c-.417-1.142-1.533-2.958-1.533-4.167a16.749,16.749,0,0,0-2.867-5.533,5.723,5.723,0,0,0-5.592-2.008c-4.167,1.2-4.167,5.933-3.017,9.241,3.333,9.491,8.558,18.149,13.783,26.724a47.639,47.639,0,0,0,5.217,7.508Z" transform="translate(-17.998 -36.876)"/><path class="m" d="M95.909,213.153a7.108,7.108,0,0,1,2.167,2.025l3.567,5.1a113.172,113.172,0,0,1,11.3-12.591.827.827,0,0,0,.233-1.242c-2.692-4.925-4.642-9.425-10.308-11.383a29.617,29.617,0,0,0-7.358-1.225l-19-1.533c-4.825-.392-11.933-.833-15.075,3.717-2.875,4.167-.892,12.6,2.75,16.008,3.825,3.592,9.491,1.858,14.091,1.508C83.426,213.145,91.168,210.345,95.909,213.153Z" transform="translate(-10.22 -35.633)"/><path class="c" d="M52.1,255.6,66.616,216.07,82.2,255.6" transform="translate(-8.893 -39.633)"/><path class="f" d="M44.285,193.915a34.524,34.524,0,0,0,1.667,6.666c3.083,8.333,10.316,13.4,19.033,14.475,7.458.925,21.333.383,24.316-7.991a5.516,5.516,0,0,0-.725-5.417,7.858,7.858,0,0,0-2.883-1.833c-5-2.175-10.241-3.908-14.475-7.283-5-4-8.108-10-9.65-16.216-.7-2.808-1.108-5.708-2.225-8.383s-3.092-5.167-5.833-6.042c-9.575-3.058-9.766,12.425-9.833,17.858a86.347,86.347,0,0,0,.608,14.166Z" transform="translate(-7.478 -30.536)"/><path class="e" d="M59.761,128.155c2.558-3.767,7.683-6.825,12.108-5.342,2.283.767.833,3.842-.325,5-2.567,2.658-2.325,6.325-3.133,9.65a12.493,12.493,0,0,0-.775,3.8c.15,2.075,1.208,3.958.833,6.1-.417,2.5-2.658,4.442-5.108,5.183a17.862,17.862,0,0,1-7.608.167,11.067,11.067,0,0,1-4.042-1.117,4.166,4.166,0,0,1-2.242-3.333c0-2.583,2.867-4.008,4.642-5.883,3.133-3.333,2.817-8.6,4.792-12.733a10.952,10.952,0,0,1,.858-1.492Z" transform="translate(-8.455 -24.025)"/><circle class="m" cx="4.117" cy="4.117" r="4.117" transform="translate(55.765 105.539)"/><path class="m" d="M71.063,132.78a18.666,18.666,0,0,0-2.333-6.4c-.908-1.458-2.725-2.917-4.325-1.425a4.667,4.667,0,0,0-1.025,1.733,1.783,1.783,0,0,1,.833-.508c1.792-.442,2.442,1.808,3.033,3.008a16.007,16.007,0,0,1,1.367,4.275C68.9,135.071,71.4,134.388,71.063,132.78Z" transform="translate(-10.773 -24.341)"/><circle class="e" cx="2.108" cy="2.108" r="2.108" transform="translate(57.773 107.547)"/><path class="g" d="M80.718,141.062c-.208-.175-.425-.342-.65-.517-1.592-1.267-4.167-2.15-5.142-4.033s-2.942-.833-3.333,1.117c-.692,3.333,3.008,4.908,4.942,6.716a43.445,43.445,0,0,1,6.225,8.166,66.663,66.663,0,0,0,6.816,8.7,27.242,27.242,0,0,0,4.95,4.392c1.058.692,1.667,1.142,2.883.708a7.441,7.441,0,0,0,3.092-2.825c1.933-3.5-1.875-7.108-4.042-9.641a46.5,46.5,0,0,0-11.208-9.591,45.488,45.488,0,0,1-4.533-3.192Z" transform="translate(-12.128 -26.207)"/><path class="d" d="M72.313,151.12a6.925,6.925,0,0,1,.608,2.317,10.508,10.508,0,0,1-.733,4.375,6.575,6.575,0,0,1-2.017,2.983,10.616,10.616,0,0,1-2.642,1.458c1.75,2.5,3.567,4.942,5.15,7.541a9.866,9.866,0,0,0,.967.833.442.442,0,0,1,.092.575,26.248,26.248,0,0,0,6.45.417l.075-.358c.233-1.183.467-2.367.625-3.558a33.328,33.328,0,0,0,.25-3.867,78.483,78.483,0,0,1,.225-8.166C78.288,154.445,75.571,151.987,72.313,151.12Z" transform="translate(-11.465 -28.807)"/><path class="w" d="M76.287,174.088a9.433,9.433,0,0,0,2.733,2.5,12.942,12.942,0,0,0,1.5.708c.142-.7.267-1.4.383-2.108a14.816,14.816,0,0,1-5.833-3.058A18.613,18.613,0,0,0,76.287,174.088Z" transform="translate(-12.722 -32.309)"/><path class="k" d="M72.1,141a6.166,6.166,0,0,0,2.225,2.5" transform="translate(-12.227 -27.12)"/><path class="e" d="M107.014,257.255a22.445,22.445,0,0,1-2.5-.317,2.6,2.6,0,0,1-1.433-.658,9.908,9.908,0,0,1-4.558,0c-.075.708-.133,1.367-.217,1.925a1.808,1.808,0,0,0,.233,1.492,1.667,1.667,0,0,0,.95.417c1.558.3,3.15.175,4.717.375,1.333.167,3.333.217,4.492-.525C111,258.5,108.381,257.355,107.014,257.255Z" transform="translate(-16.584 -46.336)"/><path class="e" d="M143.53,249.583a.9.9,0,0,0-.558-.067c-1.817.183-4.95,1.3-6.666.908a1.517,1.517,0,0,1-.625-.308,12.075,12.075,0,0,1-2.875,1.908c-.417.208-.833.4-1.275.583a6.841,6.841,0,0,0,.9,2.017c1.25,1.733,3.733.283,5.292-.175,2.308-.7,4.867-1.6,5.908-3.775C143.8,250.316,143.88,249.791,143.53,249.583Z" transform="translate(-22.133 -45.206)"/><path class="w" d="M91.745,159.177a18.338,18.338,0,0,0-6.825-3.467,17.691,17.691,0,0,1,.642,1.667c.05.167.092.225.133.342l.333.183a50.455,50.455,0,0,1,9.166,4.1A27.925,27.925,0,0,0,91.745,159.177Z" transform="translate(-14.364 -29.572)"/><rect class="l" width="99.872" height="60.265" transform="translate(17.033 10.016)"/><g class="x" transform="translate(17.033 10.016)"><rect class="b" width="132.38" height="91.197" transform="translate(-15.983 -13.633)"/><path class="e" d="M88.683,47.957c-.358,1.358-.792,2.708-1.125,4.042L84.641,63.8a16.058,16.058,0,0,1-2.05,5.367,13.058,13.058,0,0,1-4.5,3.792c-5.95,3.3-13.216,3.833-18.941,1.333a2.225,2.225,0,0,1-1.108-.833A2.325,2.325,0,0,1,57.917,72c.433-2.992,1.867-5.833,2.917-8.733,2.792-7.733,2.867-15.783,4.842-23.624.917-3.658,1.8-5.983,5.492-7.758a11.666,11.666,0,0,1,8.758-.525A14.91,14.91,0,0,1,89.033,41.49,12.1,12.1,0,0,1,88.683,47.957Z" transform="translate(-26.885 -18.758)"/><path class="m" d="M90.912,41.89c-.383,3.617,1.975,6.541,5.275,6.541s6.291-2.925,6.666-6.541-1.967-6.55-5.275-6.55S91.3,38.273,90.912,41.89Z" transform="translate(-32.389 -19.524)"/><path class="g" d="M90.322,78.619C85,81.8,77.114,79.752,72.347,76.544c-1.85-1.25-1.8-4.058-.658-5.75.258-.375.567-.7.833-1.058,1.142-1.55,1.317-3.642,1.558-5.483a31.124,31.124,0,0,0,0-6.591c-.333-4.3-.883-8.566-1.508-12.833A29.474,29.474,0,0,1,72.956,32.8c.892-3.333,1.867-4.608,5.441-5.9,3.192-1.158,6.666-2.275,10-2.117,5.242.258,7.908,3.483,8.45,8.566a48.6,48.6,0,0,1-1.342,17.441C94.922,53,93.472,54,92.438,55.853a13.65,13.65,0,0,0-1.4,6.916,41.28,41.28,0,0,0,.167,5.466c.292,1.667,1.367,2.625,1.85,4.233C93.83,75.036,92.488,77.319,90.322,78.619Z" transform="translate(-29.057 -17.762)"/><path class="d" d="M41.059,94.225c-3.517,4.683-8.333,13.141-6.891,19.166,1.258,5.225,6.55,5.683,11.108,5.575l44.24-1.075c6.016-.142,12.033-.325,18.033-.792,5.283-.4,7.7-3.658,8.708-8.908a33.041,33.041,0,0,0-.083-10.525c-.617-4.767-1.942-10.091-6.125-12.5a16.891,16.891,0,0,0-4.775-1.558c-6.433-1.417-12.866-3.025-19.333-4.242-.442,2.5-.633,4.85-3,6.45a10.908,10.908,0,0,1-10.166.958,11.225,11.225,0,0,1-6.491-7.925C57.45,81.367,46.676,86.766,41.059,94.225Z" transform="translate(-22.893 -26.777)"/><path class="l" d="M96.788,53.1a7.875,7.875,0,0,1-6.408,3.65,6.116,6.116,0,0,1-5.55-3.333Q90.8,53.358,96.788,53.1Z" transform="translate(-31.382 -22.484)"/><path class="e" d="M93.893,34.716a20.749,20.749,0,0,1-8.333,1.267,11.078,11.078,0,0,1-8.575-4.567l-.892.333A8.758,8.758,0,0,1,73.3,40.082a13.175,13.175,0,0,0-2.5,2.342c-.658,1.025-.525,2.092-1.017,3.175a1.25,1.25,0,0,1-.55.675c-.683.342-1.258-.425-1.45-1.058-1.242-4.108-1.942-9.05-.075-13.408,2.008-4.7,6.25-6.9,10.991-7.841A37.64,37.64,0,0,1,87.71,23c4.808.233,9.283,2.433,10.5,7.041a3.1,3.1,0,0,1,0,2.175,3.983,3.983,0,0,1-2.192,1.667C95.31,34.191,94.6,34.466,93.893,34.716Z" transform="translate(-28.337 -17.466)"/><path class="y" d="M68,48.88A21.149,21.149,0,0,0,84.058,55" transform="translate(-28.576 -21.781)"/><path class="e" d="M85.639,55.967a1.308,1.308,0,0,0,1.342,1.442,1.667,1.667,0,0,0,1.667-1.475A1.325,1.325,0,0,0,87.3,54.45,1.667,1.667,0,0,0,85.639,55.967Z" transform="translate(-31.515 -22.709)"/><ellipse class="m" cx="6.725" cy="5.816" rx="6.725" ry="5.816" transform="matrix(0.455, -0.89, 0.89, 0.455, 31.265, 27.924)"/><path class="m" d="M70.281,25.443l.183-.125c3.125-2.208,7.166-2.942,10.983-3.1,1.342-.05,2.917.075,3.483,1.1-2.05.35-4.108.258-6.141.65a22.791,22.791,0,0,0-5.9,2.025c-5.217,2.642-5.633,8.875-4.867,13.333.233,1.333-2.15,1.908-2.375.567C64.814,35.059,65.423,29.01,70.281,25.443Z" transform="translate(-28.132 -17.335)"/><path class="e" d="M64.752,44.713A2.175,2.175,0,0,0,66.827,47.3a2.825,2.825,0,0,0,2.642-2.583,2.192,2.192,0,0,0-2.083-2.583A2.825,2.825,0,0,0,64.752,44.713Z" transform="translate(-28.028 -20.656)"/><path class="g" d="M63.946,54.707v-.158a9.458,9.458,0,0,0-.1-2.608c-.292-2.142-.492-10.716-2.683-11.55-1.342-.508-2.5,1.05-3.033,2.392a24.95,24.95,0,0,0-1.667,8.966,17.917,17.917,0,0,1-.167,3.783,13.333,13.333,0,0,1-1.517,3.492c-3.6,6.508-7.35,12.883-10.241,19.724A157.061,157.061,0,0,0,37.38,99.58a12.991,12.991,0,0,0-.642,4.533c.458,5.058,5,4.258,8.333,2.442A17.166,17.166,0,0,0,52.663,97.9c4.55-11.525,6.908-23.166,8.875-35.332a20.707,20.707,0,0,1,1-4.275A20.241,20.241,0,0,0,63.946,54.707Z" transform="translate(-23.364 -20.349)"/><g class="z" transform="translate(41.828 7.01)"><path class="e" d="M98.285,59.07a9.075,9.075,0,0,1-5.092,2.55,27.45,27.45,0,0,1-5.833.2c3.625,2.117,8.033,2.192,12.2,2.192" transform="translate(-73.631 -30.489)"/></g></g><path class="d" d="M22.23,6.38H118.81a1.667,1.667,0,0,1,1.667,1.667v6.616h-100V8.08a1.667,1.667,0,0,1,1.75-1.7Z" transform="translate(-3.622 -4.68)"/><line class="aa" x2="4.083" y2="4.083" transform="translate(20.558 3.917)"/><line class="aa" y1="4.083" x2="4.083" transform="translate(20.558 3.917)"/><path class="ab" d="M135.7,11.038a2.458,2.458,0,1,1-.735-1.753,2.458,2.458,0,0,1,.735,1.753Z" transform="translate(-22.008 -5.047)"/><path class="c" d="M100.66,119.08A18.024,18.024,0,0,1,118.684,137.1" transform="translate(-16.987 -23.466)"/><path class="c" d="M100.66,125.85a12.383,12.383,0,0,1,12.383,12.383" transform="translate(-16.987 -24.595)"/><path class="c" d="M100.16,132.22a7.258,7.258,0,0,1,7.258,7.258" transform="translate(-16.904 -25.656)"/><path class="k" d="M231.2,113a61.99,61.99,0,0,1,33.649-10" transform="translate(-38.747 -20.786)"/><path class="aa" d="M139,103.813S134.228,109,128.336,109s-10.666-5.192-10.666-5.192,4.775-5.183,10.666-5.183S139,103.813,139,103.813Z" transform="translate(-19.823 -20.057)"/><path d="M133.93,103.813c0,2.867-1.942,5.192-4.325,5.192s-4.325-2.325-4.325-5.192,1.933-5.183,4.325-5.183S133.93,100.947,133.93,103.813Z" transform="translate(-21.091 -20.057)"/><path class="aa" d="M170.494,18.963s-4.8,5.158-10.633,5.158-10.691-5.158-10.691-5.158,4.775-5.183,10.658-5.183S170.494,18.963,170.494,18.963Z" transform="translate(-25.074 -5.914)"/><path d="M165.421,18.963c0,2.867-1.933,5.192-4.325,5.192s-4.317-2.325-4.317-5.192,1.933-5.183,4.317-5.183S165.421,16.063,165.421,18.963Z" transform="translate(-26.342 -5.914)"/><path class="aa" d="M203.341,174.962s-4.775,5.191-10.666,5.191S182,174.962,182,174.962s4.775-5.192,10.666-5.192S203.341,174.962,203.341,174.962Z" transform="translate(-30.546 -31.916)"/><path d="M198.27,174.962c0,2.867-1.933,5.191-4.325,5.191s-4.325-2.325-4.325-5.191,1.942-5.192,4.325-5.192S198.27,172.087,198.27,174.962Z" transform="translate(-31.816 -31.916)"/><line class="aa" x1="24.541" y2="18.299" transform="translate(8.841 91.247)"/><line class="aa" x1="15.8" y2="11.783" transform="translate(5.1 104.005)"/><line class="aa" x1="15.808" y2="11.791" transform="translate(246.785 68.223)"/><path class="aa" d="M162.62,239.719l.408-7.483,7.491,2.908,1.25-9.15,7.483,3.325.833-9.15" transform="translate(-27.316 -40.317)"/><path class="aa" d="M135.66,62.923l.417-7.491,7.483,2.908,1.25-9.15,7.491,3.333" transform="translate(-22.822 -11.816)"/><circle cx="1.875" cy="1.875" r="1.875" transform="translate(14.45 117.863)"/><path d="M314.5,98.8a2.183,2.183,0,1,1-2.183-2.183A2.183,2.183,0,0,1,314.5,98.8Z" transform="translate(-51.904 -19.722)"/><circle cx="2.5" cy="2.5" r="2.5" transform="translate(159.004 191.078)"/><circle class="aa" cx="2.183" cy="2.183" r="2.183" transform="translate(0 82.823)"/><circle class="aa" cx="2.5" cy="2.5" r="2.5" transform="translate(156.512 18.233)"/><path class="aa" d="M30.93,40.68a1.3,1.3,0,1,1-1.3-1.3A1.3,1.3,0,0,1,30.93,40.68Z" transform="translate(-4.931 -10.181)"/><path d="M31.323,33.842A2.442,2.442,0,1,1,28.89,31.4a2.442,2.442,0,0,1,2.433,2.442Z" transform="translate(-4.616 -8.851)"/></g></g></svg>