<svg xmlns="http://www.w3.org/2000/svg" xmlns:xlink="http://www.w3.org/1999/xlink" width="288" height="248.246" viewBox="0 0 288 248.246"><defs><style>.a{fill:#f0f0ff;}.b{fill:#fff;}.c{fill:url(#a);}.d{fill:url(#b);}.e{fill:url(#c);}.f{fill:url(#d);}.g{fill:url(#g);}.h{fill:url(#h);}.i{fill:url(#i);}.j{fill:url(#j);}.k{fill:url(#k);}.l{fill:#cecef2;}.m{fill:#dfdff2;}.n{fill:url(#l);}.o{fill:url(#m);}.p{fill:url(#n);}.q{fill:url(#o);}.r{fill:url(#p);}.s{fill:url(#q);}.t{fill:url(#r);}.u{fill:url(#s);}.v{fill:url(#t);}.w{fill:url(#u);}.x{fill:url(#v);}.y{fill:url(#w);}.z{fill:url(#x);}.aa{fill:url(#y);}.ab{fill:url(#z);}.ac{fill:url(#aa);}.ad{fill:url(#ab);}.ae{fill:url(#ac);}.af{fill:url(#ad);}.ag{fill:url(#ae);}.ah{fill:#ffb496;}.ai{fill:#fc8456;}.aj{fill:url(#af);}.ak{fill:url(#ag);}.al{fill:#ccd2e0;}.am{fill:url(#ah);}.an{fill:url(#ai);}.ao{fill:#cedeff;}.ap{fill:url(#aj);}.aq{opacity:0.21;}.ar{fill:#f0f0f2;}.as{fill:#421919;}.at{fill:url(#ak);}.au{fill:url(#al);}.av{fill:url(#am);}.aw{fill:url(#an);}.ax{fill:#ff907f;}.ay{fill:url(#ao);}.az{fill:url(#ap);}.ba{fill:url(#aq);}.bb{fill:url(#ar);}.bc{fill:url(#as);}.bd{fill:url(#at);}.be{fill:url(#au);}</style><linearGradient id="a" y1="0.5" x2="1" y2="0.5" gradientUnits="objectBoundingBox"><stop offset="0.08" stop-color="#f7dba7"/><stop offset="0.79" stop-color="#ffc145"/></linearGradient><linearGradient id="b" y1="0.5" x2="1" y2="0.5" gradientUnits="objectBoundingBox"><stop offset="0.14" stop-color="#f5f5f5"/><stop offset="0.69" stop-color="#ebebeb"/></linearGradient><linearGradient id="c" x1="0" y1="0.5" x2="1" y2="0.5" xlink:href="#b"/><linearGradient id="d" x1="0.444" y1="0.904" x2="0.585" y2="-0.115" gradientUnits="objectBoundingBox"><stop offset="0.08" stop-color="#ff6b6c"/><stop offset="0.77" stop-color="#ffa1a1"/></linearGradient><linearGradient id="g" x1="0" y1="0.5" x2="1" y2="0.5" xlink:href="#d"/><linearGradient id="h" x1="0" y1="0.5" x2="1" y2="0.5" xlink:href="#d"/><linearGradient id="i" x1="0" y1="0.5" x2="1" y2="0.5" xlink:href="#d"/><linearGradient id="j" y1="0.5" x2="0.999" y2="0.5" xlink:href="#a"/><linearGradient id="k" y1="0.5" x2="1" y2="0.5" gradientUnits="objectBoundingBox"><stop offset="0.02" stop-color="#5b5f97"/><stop offset="0.91" stop-color="#26294f"/></linearGradient><linearGradient id="l" x1="0.604" y1="0.614" x2="0.256" y2="0.716" xlink:href="#k"/><linearGradient id="m" x1="0" y1="0.5" x2="1" y2="0.5" xlink:href="#k"/><linearGradient id="n" x1="0" y1="0.5" x2="1" y2="0.5" xlink:href="#k"/><linearGradient id="o" x1="1.108" y1="1.024" x2="0.03" y2="0.096" xlink:href="#a"/><linearGradient id="p" x1="-0.047" y1="0.5" x2="1.047" y2="0.5" xlink:href="#k"/><linearGradient id="q" x1="0" y1="0.5" x2="1" y2="0.5" xlink:href="#b"/><linearGradient id="r" x1="0" y1="0.5" x2="1" y2="0.5" xlink:href="#k"/><linearGradient id="s" x1="0" y1="0.498" x2="1" y2="0.498" xlink:href="#k"/><linearGradient id="t" x1="0" y1="0.502" x2="1" y2="0.502" xlink:href="#k"/><linearGradient id="u" x1="0" y1="0.502" x2="1" y2="0.502" xlink:href="#k"/><linearGradient id="v" x1="0.593" y1="0.173" x2="0.236" y2="1.423" gradientUnits="objectBoundingBox"><stop offset="0.02" stop-color="#25b1d1"/><stop offset="0.89" stop-color="#25e5d1"/></linearGradient><linearGradient id="w" x1="0.584" y1="0.173" x2="0.262" y2="1.423" xlink:href="#v"/><linearGradient id="x" x1="0.575" y1="0.172" x2="0.287" y2="1.425" xlink:href="#v"/><linearGradient id="y" x1="0.566" y1="0.172" x2="0.313" y2="1.426" xlink:href="#v"/><linearGradient id="z" x1="0.55" y1="0.17" x2="0.36" y2="1.43" xlink:href="#v"/><linearGradient id="aa" x1="0.539" y1="0.169" x2="0.393" y2="1.436" xlink:href="#v"/><linearGradient id="ab" x1="0.525" y1="0.164" x2="0.428" y2="1.448" xlink:href="#v"/><linearGradient id="ac" x1="0" y1="0.5" x2="1" y2="0.5" xlink:href="#k"/><linearGradient id="ad" x1="0.481" y1="0.75" x2="0.423" y2="0" xlink:href="#k"/><linearGradient id="ae" x1="0" y1="0.5" x2="1.001" y2="0.5" xlink:href="#k"/><linearGradient id="af" x1="0" y1="0.5" x2="1.001" y2="0.5" xlink:href="#k"/><linearGradient id="ag" x1="0" y1="0.501" x2="1" y2="0.501" xlink:href="#b"/><linearGradient id="ah" x1="0.001" y1="0.5" x2="1.001" y2="0.5" xlink:href="#b"/><linearGradient id="ai" x1="0.497" y1="0.169" x2="0.503" y2="0.879" xlink:href="#v"/><linearGradient id="aj" x1="0.394" y1="1.256" x2="0.76" y2="-0.068" xlink:href="#b"/><linearGradient id="ak" x1="0" y1="0.499" x2="1.001" y2="0.499" xlink:href="#b"/><linearGradient id="al" x1="0" y1="0.5" x2="1" y2="0.5" xlink:href="#b"/><linearGradient id="am" x1="0" y1="0.5" x2="1" y2="0.5" xlink:href="#b"/><linearGradient id="an" x1="0" y1="0.5" x2="1" y2="0.5" xlink:href="#d"/><linearGradient id="ao" x1="0" y1="0.5" x2="1" y2="0.5" xlink:href="#d"/><linearGradient id="ap" x1="0" y1="0.51" x2="0.999" y2="0.51" xlink:href="#v"/><linearGradient id="aq" x1="0" y1="0.5" x2="1" y2="0.5" xlink:href="#v"/><linearGradient id="ar" x1="0.003" y1="0.501" x2="1" y2="0.501" xlink:href="#v"/><linearGradient id="as" x1="0" y1="0.51" x2="1" y2="0.51" xlink:href="#v"/><linearGradient id="at" x1="0" y1="0.5" x2="1" y2="0.5" xlink:href="#b"/><linearGradient id="au" x1="0" y1="0.5" x2="1" y2="0.5" xlink:href="#k"/></defs><g transform="translate(-0.002)"><g transform="translate(0.002)"><path class="a" d="M273.106,202.242a59.484,59.484,0,0,0,3.156-9.675c.784-3.375,1.286-6.93.431-10.286-2.571-10.35-15.911-14.5-20.051-24.332-4.5-10.607,3.484-21.979,6-33.21a18.893,18.893,0,0,0,.4-7.322,17.541,17.541,0,0,0-5-9C243.631,93.6,215.57,97.54,203.922,80.459c-5.4-7.92-5.561-18.341-9.951-26.865a30.349,30.349,0,0,0-27.688-16.071c-13.41.6-24.551,9.926-35.242,18.039s-23.818,15.8-36.81,12.478c-8.1-2.1-14.471-8.113-21.021-13.314s-14.451-10-22.731-8.852c-5.194.72-9.816,3.716-13.706,7.239a22.986,22.986,0,0,0-5.876,7.5c-1.98,4.455-1.646,9.546-1.286,14.406l2.179,28.7c.726,9.559,1.054,20.346-5.49,27.36-4.281,4.59-10.684,6.538-15.654,10.376-9.906,7.669-12.613,22.114-9.3,34.207,2.764,10.093,9,18.8,16.071,26.589Z" transform="translate(-0.002 -13.396)"/><path class="a" d="M197.974,47.921c1.929-4.32,5.959-9.771,13.828-10.4a2.571,2.571,0,0,1,2.327,3.986c-1.832,2.777-5.5,6.6-12.767,9.816a2.571,2.571,0,0,1-3.388-3.407Z" transform="translate(-70.624 -13.4)"/><path class="a" d="M381.126,125.054a2.1,2.1,0,0,0,.109,3.857c2.777,1.119,6.48,2.79,8.286,4.346C392.28,135.622,389.355,121.068,381.126,125.054Z" transform="translate(-135.683 -44.413)"/><path class="a" d="M135.054,45.437h0a22.932,22.932,0,0,1-5.851-.759l.161-.643a22.282,22.282,0,0,0,5.689.739Zm5.876-.771-.167-.643a21.922,21.922,0,0,0,5.323-2.211l.321.559A22.68,22.68,0,0,1,140.929,44.666Zm-17.254-2.237a22.847,22.847,0,0,1-4.706-3.6l.456-.456a22.371,22.371,0,0,0,4.571,3.5ZM151.08,38.8l-.45-.456a22.372,22.372,0,0,0,3.5-4.571l.559.321a22.686,22.686,0,0,1-3.594,4.686Zm-35.73-4.667a22.5,22.5,0,0,1-2.276-5.471l.643-.167a21.626,21.626,0,0,0,2.244,5.3Zm41.612-5.516-.643-.167a22.114,22.114,0,0,0,.784-5.728v-.09h.643v.09a22.809,22.809,0,0,1-.765,5.876ZM112.483,22.77h-.193a22.77,22.77,0,0,1,.759-5.844l.643.161a22.1,22.1,0,0,0-.733,5.67Zm43.837-5.831a21.889,21.889,0,0,0-2.231-5.31l.559-.328a22.314,22.314,0,0,1,2.289,5.471Zm-40.455-5.194-.559-.321a22.893,22.893,0,0,1,3.6-4.712l.456.456a22.2,22.2,0,0,0-3.478,4.558Zm34.714-4.667A22.153,22.153,0,0,0,146,3.581l.321-.559a23.034,23.034,0,0,1,4.712,3.594Zm-26.64-3.452-.321-.553A22.564,22.564,0,0,1,129.088.784l.167.643a22.006,22.006,0,0,0-5.316,2.2Zm16.714-2.25a21.947,21.947,0,0,0-5.625-.733h-.064V0h.064a22.6,22.6,0,0,1,5.791.753Z" transform="translate(-40.104)"/><path class="a" d="M372.53,90.923H372.5a35.852,35.852,0,0,1-9.244-1.2l.264-.984a34.94,34.94,0,0,0,8.961,1.164Zm9.257-1.215-.264-.984a34.483,34.483,0,0,0,8.357-3.478l.508.881a35.621,35.621,0,0,1-8.6,3.581Zm-27.148-3.549a36.084,36.084,0,0,1-7.412-5.676l.72-.72a34.83,34.83,0,0,0,7.2,5.516Zm43.168-5.728-.714-.714a35.087,35.087,0,0,0,5.522-7.2l.881.508A35.928,35.928,0,0,1,397.807,80.432ZM341.531,73.09a35.407,35.407,0,0,1-3.594-8.621l.984-.264a34.568,34.568,0,0,0,3.484,8.357ZM407.1,64.4l-1.016-.27a34.914,34.914,0,0,0,1.176-9V55h.99v.129a35.832,35.832,0,0,1-1.183,9.27Zm-69.377-9.186H336.71v-.084a36.151,36.151,0,0,1,1.189-9.186l.984.264a34.96,34.96,0,0,0-1.157,8.923Zm68.323-9.2a34.619,34.619,0,0,0-3.5-8.357l.874-.508a35.356,35.356,0,0,1,3.613,8.6Zm-63.707-8.184-.881-.508a35.917,35.917,0,0,1,5.67-7.419l.694.714a34.877,34.877,0,0,0-5.484,7.213Zm54.643-7.361a34.9,34.9,0,0,0-7.213-5.5l.508-.874a36.07,36.07,0,0,1,7.425,5.657Zm-41.959-5.394-.514-.881a35.744,35.744,0,0,1,8.614-3.6l.264.984a34.451,34.451,0,0,0-8.357,3.5Zm26.357-3.555a34.985,34.985,0,0,0-8.891-1.144h-.109V19.36h.1a35.865,35.865,0,0,1,9.154,1.183Z" transform="translate(-120.254 -6.914)"/><path class="b" d="M140.381,113.609h0a9.867,9.867,0,0,1-2.494-.321l.071-.264a9.565,9.565,0,0,0,2.424.315Zm2.507-.328-.071-.264a9.47,9.47,0,0,0,2.269-.945l.135.238a9.643,9.643,0,0,1-2.334.971Zm-7.354-.958a9.746,9.746,0,0,1-2.006-1.543l.193-.193a9.766,9.766,0,0,0,1.929,1.5Zm11.694-1.53-.193-.193a9.5,9.5,0,0,0,1.491-1.929l.238.135a9.5,9.5,0,0,1-1.536,1.986Zm-15.249-1.986a9.643,9.643,0,0,1-.971-2.334l.27-.071a9.071,9.071,0,0,0,.945,2.263Zm17.756-2.353-.264-.071a9.418,9.418,0,0,0,.315-2.436v-.039h.276a9.7,9.7,0,0,1-.328,2.52Zm-19.054-2.488h0a9.5,9.5,0,0,1,.321-2.488l.264.071a9.514,9.514,0,0,0-.315,2.417Zm18.778-2.494a9.232,9.232,0,0,0-.951-2.269l.238-.135a9.4,9.4,0,0,1,.977,2.334ZM132.2,99.221l-.244-.135a9.934,9.934,0,0,1,1.536-2.012l.2.193a9.155,9.155,0,0,0-1.491,1.954Zm14.786-1.993a9.554,9.554,0,0,0-1.929-1.491l.135-.238a9.932,9.932,0,0,1,2.012,1.536Zm-11.366-1.459-.135-.238a9.4,9.4,0,0,1,2.334-.977l.071.264a9.488,9.488,0,0,0-2.256.958Zm7.142-.964a9.5,9.5,0,0,0-2.411-.309V94.22a9.734,9.734,0,0,1,2.482.322Z" transform="translate(-46.672 -33.65)"/><rect class="a" width="42.834" height="3.298" transform="translate(218.629 52.759)"/><rect class="a" width="18.906" height="3.298" transform="translate(218.629 58.918)"/><rect class="a" width="42.834" height="3.298" transform="translate(11.14 25.496)"/><rect class="a" width="18.906" height="3.298" transform="translate(11.14 31.654)"/><rect class="c" width="31.802" height="133.22" rx="0.89" transform="translate(18.803 58.732)"/><rect class="d" width="28.363" height="72.161" rx="0.62" transform="translate(20.519 65.932)"/><rect class="e" width="28.363" height="35.788" rx="0.44" transform="translate(20.519 152.435)"/><rect class="f" width="31.802" height="133.22" rx="0.89" transform="translate(50.65 58.732)"/><rect class="d" width="28.363" height="72.161" rx="0.62" transform="translate(52.366 65.932)"/><rect class="e" width="28.363" height="35.788" rx="0.44" transform="translate(52.366 152.435)"/><path class="g" d="M346.809,185.064v.077c0,.026-1.607-15.776-7.348-17.139,0,0-2.668-.289-3.716,4.166,0,0-4.172-9.643-8.814-10.472a2.893,2.893,0,0,0-2.944,1.524c-2.012,4.262,3.484,13.243,3.484,13.243-4.243-1.716-5.541.643-5.541.643-2.2,5.471,9.771,15.879,9.771,15.879a1.427,1.427,0,0,0-1.337-.154c-2.668.81-3.349,3.343-1.517,5.439,4.159,4.757,13.738,8.955,13.738,8.955l4.365-2.269.874-.45,4.359-2.263s2.481-12.169.1-17.929A2.861,2.861,0,0,0,346.809,185.064Z" transform="translate(-114.879 -57.739)"/><path class="h" d="M382.991,185.064v.077c0,.026,1.614-15.776,7.354-17.139,0,0,2.668-.289,3.709,4.166,0,0,4.179-9.643,8.82-10.472a2.886,2.886,0,0,1,2.938,1.524c2.019,4.262-3.484,13.243-3.484,13.243,4.249-1.716,5.548.643,5.548.643,2.192,5.471-9.778,15.879-9.778,15.879a1.44,1.44,0,0,1,1.344-.154c2.668.81,3.349,3.343,1.517,5.439-4.159,4.757-13.744,8.955-13.744,8.955l-4.352-2.269-.874-.45-4.365-2.263s-2.475-12.169-.1-17.929a2.854,2.854,0,0,1,5.464.752Z" transform="translate(-134.462 -57.739)"/><path class="i" d="M373.533,179.357l-.045.077s6.731-17.023,1.575-21.459c0,0-2.571-1.723-6.017,2.289,0,0,.861-12.118-3.465-15.429a3.336,3.336,0,0,0-3.825,0c-4.333,3.291-3.465,15.429-3.465,15.429-3.439-4.011-6.017-2.289-6.017-2.289-5.143,4.436,1.575,21.459,1.575,21.459a1.671,1.671,0,0,0-1.286-.874c-3.163-.585-5.207,1.646-4.442,4.764,1.729,7.071,9.315,16.476,9.315,16.476h12.471s9-11.147,9.643-18.315A3.308,3.308,0,0,0,373.533,179.357Z" transform="translate(-124.272 -51.511)"/><path class="j" d="M376.036,271.057H347a.894.894,0,0,1-.894-.8l-4.4-41.754a.9.9,0,0,1,.894-.99h37.864a.887.887,0,0,1,.887.99l-4.423,41.754a.906.906,0,0,1-.894.8Z" transform="translate(-122.037 -81.253)"/><path class="k" d="M294.249,331.414H134.987a1.543,1.543,0,0,1-1.2-.566l-15.737-19.106a1.549,1.549,0,0,1,1.2-2.533H278.518a1.543,1.543,0,0,1,1.2.566l15.731,19.106a1.549,1.549,0,0,1-1.2,2.533Z" transform="translate(-42.037 -110.432)"/><path class="l" d="M271.42,336.241h-57l-1.5-4.931h57Z" transform="translate(-76.043 -118.324)"/><path class="l" d="M320.666,336.241h-15l-1.5-4.931h15Z" transform="translate(-108.633 -118.324)"/><path class="l" d="M202.666,336.241h-15l-1.5-4.931h15Z" transform="translate(-66.49 -118.324)"/><path class="l" d="M175.542,336.241h-15l-1.5-4.931h15Z" transform="translate(-56.801 -118.324)"/><path class="l" d="M162.811,327.074H150.918l-1.5-4.924h11.893Z" transform="translate(-53.365 -115.053)"/><path class="l" d="M184.477,327.074H172.584l-1.5-4.924h11.893Z" transform="translate(-61.101 -115.053)"/><path class="l" d="M206.141,327.074H194.248l-1.5-4.924h11.893Z" transform="translate(-68.84 -115.053)"/><path class="l" d="M227.811,327.074H215.918l-1.5-4.924h11.893Z" transform="translate(-76.579 -115.053)"/><path class="l" d="M249.477,327.074H237.584l-1.5-4.924h11.893Z" transform="translate(-84.315 -115.053)"/><path class="l" d="M271.141,327.074H259.248l-1.5-4.924h11.893Z" transform="translate(-92.054 -115.053)"/><path class="l" d="M292.811,327.074H280.918l-1.5-4.924h11.893Z" transform="translate(-99.793 -115.053)"/><path class="l" d="M314.477,327.074H302.584l-1.5-4.924h11.893Z" transform="translate(-107.529 -115.053)"/><path class="l" d="M336.141,327.074H324.248l-1.5-4.924h11.893Z" transform="translate(-115.268 -115.053)"/><path class="l" d="M357.811,327.074H345.918l-1.5-4.924h11.893Z" transform="translate(-123.008 -115.053)"/><path class="l" d="M150.521,317.911H138.628l-1.5-4.931h11.893Z" transform="translate(-48.976 -111.778)"/><path class="l" d="M172.187,317.911H160.294l-1.5-4.931h11.893Z" transform="translate(-56.711 -111.778)"/><path class="l" d="M193.851,317.911H181.958l-1.5-4.931h11.893Z" transform="translate(-64.451 -111.778)"/><path class="l" d="M215.521,317.911H203.628l-1.5-4.931h11.893Z" transform="translate(-72.19 -111.778)"/><path class="l" d="M237.187,317.911H225.294l-1.5-4.931h11.893Z" transform="translate(-79.926 -111.778)"/><path class="l" d="M258.851,317.911H246.958l-1.5-4.931h11.893Z" transform="translate(-87.665 -111.778)"/><path class="l" d="M280.521,317.911H268.628l-1.5-4.931h11.893Z" transform="translate(-95.404 -111.778)"/><path class="l" d="M302.187,317.911H290.294l-1.5-4.931h11.893Z" transform="translate(-103.14 -111.778)"/><path class="l" d="M323.851,317.911H311.958l-1.5-4.931h11.893Z" transform="translate(-110.879 -111.778)"/><path class="l" d="M345.521,317.911H333.628l-1.5-4.931h11.893Z" transform="translate(-118.618 -111.778)"/><path class="l" d="M346,336.241H331l-1.5-4.931h15Z" transform="translate(-117.679 -118.324)"/><path class="l" d="M371,336.241H356l-1.5-4.931h15Z" transform="translate(-126.608 -118.324)"/><path class="l" d="M260.229,99.962a39.324,39.324,0,0,1-1.1,9.276c-.039.174-.084.347-.129.521a39.214,39.214,0,0,1-9.8,17.531l-.5.514a39.388,39.388,0,0,1-55.736,0l-.5-.514a39.215,39.215,0,0,1-9.8-17.531c-.045-.174-.09-.347-.129-.521a39.322,39.322,0,0,1-1.1-9.276,38.857,38.857,0,0,1,.889-8.267c.031-.167.063-.341.1-.508a39.272,39.272,0,0,1,9.1-17.537c.154-.174.309-.347.469-.514a39.375,39.375,0,0,1,57.69,0c.161.167.315.341.469.514a39.215,39.215,0,0,1,9.1,17.537c.045.167.077.341.109.514A38.84,38.84,0,0,1,260.229,99.962Z" transform="translate(-64.801 -21.629)"/><path class="m" d="M224.658,139.473c-17.949,0-32.548-17.788-32.548-39.652s14.6-39.652,32.548-39.652,32.548,17.788,32.548,39.652S242.607,139.473,224.658,139.473Zm0-78.789c-17.659,0-32.027,17.556-32.027,39.137S207,138.959,224.658,138.959s32.027-17.556,32.027-39.137S242.317,60.7,224.658,60.7Z" transform="translate(-68.611 -21.489)"/><path class="m" d="M232.461,139.473c-10.2,0-18.5-17.788-18.5-39.652s8.3-39.652,18.5-39.652,18.5,17.788,18.5,39.652S242.664,139.473,232.461,139.473Zm0-78.789c-9.913,0-18,17.556-18,39.137s8.068,39.137,18,39.137,18-17.556,18-39.137-8.087-39.118-18-39.118Z" transform="translate(-76.415 -21.489)"/><path class="m" d="M239.047,139.473c-4.159,0-6.647-20.16-6.647-39.652s2.488-39.652,6.647-39.652,6.647,20.16,6.647,39.652S243.206,139.473,239.047,139.473Zm0-78.789c-2.964,0-6.133,15.731-6.133,39.137s3.169,39.137,6.133,39.137,6.126-15.731,6.126-39.137S242,60.7,239.047,60.7Z" transform="translate(-83.001 -21.489)"/><path class="m" d="M255.769,80.644H197.14c.154-.174.309-.347.469-.514H255.3C255.46,80.3,255.614,80.471,255.769,80.644Z" transform="translate(-70.408 -28.618)"/><path class="m" d="M259.86,108.714H182.82c.032-.174.064-.347.1-.514h76.828C259.8,108.374,259.828,108.547,259.86,108.714Z" transform="translate(-65.294 -38.643)"/><path class="m" d="M259.76,136.28c-.039.174-.084.347-.129.521H183.3c-.045-.174-.09-.347-.129-.521Z" transform="translate(-65.419 -48.671)"/><path class="m" d="M255.349,164.36l-.5.514H199.111l-.5-.514Z" transform="translate(-70.933 -58.7)"/><path class="n" d="M63.677,252.365,102.66,179.6l.836,76.757H66.081a2.726,2.726,0,0,1-2.4-3.992Z" transform="translate(-22.631 -64.143)"/><path class="o" d="M103.49,256.343H66.075a2.726,2.726,0,0,1-2.4-4.011l38.983-72.772.244,22.3L77.852,248.629a2.726,2.726,0,0,0,2.4,4.011h23.194Z" transform="translate(-22.625 -64.128)"/><path class="p" d="M263.934,243.3H105.791a4.873,4.873,0,0,1-4.641-4.011L86.743,147.061A3.349,3.349,0,0,1,90.1,143.05H248.242a4.86,4.86,0,0,1,4.635,4.011l14.445,92.257a3.349,3.349,0,0,1-3.388,3.986Z" transform="translate(-30.957 -51.089)"/><path class="q" d="M261.588,241.669H109.063L94.56,148.84H247.085Z" transform="translate(-33.772 -53.157)"/><ellipse class="r" cx="2.385" cy="2.79" rx="2.385" ry="2.79" transform="translate(221.198 141.962) rotate(-47.23)"/><rect class="s" width="48.214" height="14.085" transform="translate(140.605 100.62)"/><rect class="t" width="11.006" height="11.012" transform="translate(142.649 101.932)"/><rect class="u" width="29.906" height="1.691" transform="translate(155.912 103.32)"/><rect class="v" width="29.906" height="1.691" transform="translate(155.912 105.969)"/><rect class="w" width="6.641" height="1.691" transform="translate(155.912 108.624)"/><rect class="x" width="8.402" height="45.052" transform="translate(197.768 117.984)"/><rect class="y" width="8.402" height="40.487" transform="translate(184.892 122.555)"/><rect class="z" width="8.402" height="36.341" transform="translate(172.015 126.701)"/><rect class="aa" width="8.402" height="31.783" transform="translate(159.139 131.259)"/><rect class="ab" width="8.402" height="23.779" transform="translate(146.262 139.263)"/><rect class="ac" width="8.402" height="18.167" transform="translate(133.386 144.868)"/><rect class="ad" width="8.402" height="11.886" transform="translate(120.516 151.149)"/><path class="ae" d="M278.22,231.562H181.99V177.62h.643v53.3H278.22Z" transform="translate(-64.997 -63.435)"/><path class="af" d="M163.01,276.326h-7.052l-3.06-19.7h-.624l-2.07,19.7H142.13l.437-30.446h16.509Z" transform="translate(-50.761 -87.814)"/><path class="ag" d="M157.91,258.261s2.128-4.815,1.864-7.791c0,0,.456,5.638-1.241,7.791Z" transform="translate(-56.397 -89.453)"/><rect class="ah" width="6.229" height="9.54" transform="matrix(0.988, 0.155, -0.155, 0.988, 98.585, 117.276)"/><path class="ah" d="M162.172,169.234c-.836-.643-7.547-2.031-8.666.039a16.678,16.678,0,0,0-.964,5.034c-.463-.54-1.241-1.228-1.8-.643-.816.874-.3,3.857,1.588,3.9v.81a4.352,4.352,0,0,0,1.344,3.362,8.267,8.267,0,0,0,5.259,1.98,3.137,3.137,0,0,0,3.111-2.211C163.567,176.524,162.9,169.781,162.172,169.234Z" transform="translate(-53.703 -60.064)"/><path class="ai" d="M159.359,190.393s-3.291-.36-4.1-3.163a5.374,5.374,0,0,0,3.761,5.355Z" transform="translate(-55.448 -66.867)"/><path class="aj" d="M162.084,162.908c-1.53-.681-2.449.971-7.033.688-3.909-.244-4.558,3.735-4.558,3.735a1.826,1.826,0,0,0-1.723.366,4.674,4.674,0,0,0-1.53,3.452c0,2.031,1.344,3.793,1.929,5.734a11.3,11.3,0,0,1,.4,2.025,4.5,4.5,0,0,0,.8,1.485l.746-4.783a2.518,2.518,0,0,1-1.8-2.964c.206-2.147,2.089-.276,2.089-.276a4.781,4.781,0,0,0,3.915-3.954,4.1,4.1,0,0,1,2.571.559,4.887,4.887,0,0,0,3.619.681,5.181,5.181,0,0,1,.309,1.659,11.652,11.652,0,0,0,1.041-1.041h0C165.086,168.2,163.607,163.589,162.084,162.908Z" transform="translate(-52.586 -58.122)"/><path class="ah" d="M196,212.072s-13.539,2.263-17.2,1.53c0,0-17.814-3.9-21.857-8.4s-2.571-8.544,2.2-8.145,19.806,9,19.806,9l17.248,2.031s2.758-1.98,4.114-1.826.585,1.479.212,2.051l3.889,1.08a1.543,1.543,0,0,1,1.144,1.241c.045.283,0,.54-.3.643C203.286,211.847,198.073,212.606,196,212.072Z" transform="translate(-55.211 -70.367)"/><path class="ak" d="M178.144,205.564l16.181,1.832-.109,4.854-13.082,1.832a12.388,12.388,0,0,1-4.931-.315c-5.04-1.369-16.316-4.629-19.729-7.213a8.711,8.711,0,0,1-2.938-3.767,4.577,4.577,0,0,1,4.056-6.287,10.182,10.182,0,0,1,3.76.72C167.215,199.425,178.144,205.564,178.144,205.564Z" transform="translate(-54.716 -70.178)"/><path class="al" d="M168.29,202.69a38.476,38.476,0,0,1,.392,9.3l1.787.643S170.032,204.516,168.29,202.69Z" transform="translate(-60.104 -72.389)"/><path class="am" d="M159.026,200.578a6.9,6.9,0,0,0-3.819-6.345l-.276-.122c-.1-.54.643-1.067.148-1.53s-7.515-2.951-7.631-1.446a9.482,9.482,0,0,1-.791,2.9h0a3.42,3.42,0,0,0-1.736,1.369c-4.391,6.795-3.645,22.5-2.835,30.407a.437.437,0,0,0,.444.4l16.3-.058a.45.45,0,0,0,.45-.463Z" transform="translate(-50.526 -68.091)"/><rect class="an" width="12.426" height="15.39" rx="0.92" transform="translate(103.056 139.263)"/><path class="ao" d="M169.583,214.438a1.877,1.877,0,0,0-3.748,0H163.63v1.408h8.158v-1.408Z" transform="translate(-58.44 -75.953)"/><path class="ah" d="M157.313,220.839c-.874-1.344-4.217-1.871-4.217-1.871.392-.553,1.209-1.858-.141-2.057s-4.179,1.684-4.179,1.684l-13.063-2c2.874-4.455,8.023-12.78,8.563-16.142.752-4.7-3.169-6.5-7.965-2.809-3.131,2.4-6.429,10.678-8.357,16.136-1.022,2.912-1.659,5.021-1.659,5.021h0a3.279,3.279,0,0,0,2.308,3.954c1.594.456,2.61.714,2.61.714a9.3,9.3,0,0,0,1.774.2c5.034.238,15.467-1.131,15.467-1.131,2.25.643,6.429.1,8.119-.174a.951.951,0,0,0,.81-.932A1.588,1.588,0,0,0,157.313,220.839Z" transform="translate(-45.071 -69.882)"/><path class="ap" d="M142.929,195.732a3.17,3.17,0,0,0-1.241-.45,6.564,6.564,0,0,0-6.216,2.141c-2.224,2.694-6.2,11.417-8.28,16.772a15.126,15.126,0,0,0-1.022,5.471h0a4.5,4.5,0,0,0,4.7,4.5c5.625-.27,14.561-.771,16.856-1.337v-5.021l-11.25-1.768s6.872-11.976,7.676-13.982C144.89,200.2,144.98,197.05,142.929,195.732Z" transform="translate(-45.062 -69.7)"/><path class="al" d="M146.494,215.8l-4.294,7.6,9.508,1.491-7.991-2.308Z" transform="translate(-50.786 -77.071)"/><g class="aq" transform="translate(90.674 95.69)"><path class="b" d="M156.524,241.672H141.05l4.224-92.822h15.467Z" transform="translate(-141.05 -148.85)"/><path class="b" d="M253.931,241.672H229.29l4.224-92.822h24.641Z" transform="translate(-172.564 -148.85)"/><path class="b" d="M311.614,241.672H296.14l4.224-92.822h15.467Z" transform="translate(-196.439 -148.85)"/></g><ellipse class="ar" cx="40.931" cy="1.189" rx="40.931" ry="1.189" transform="translate(178.945 245.868)"/><rect class="ah" width="4.847" height="7.419" transform="matrix(-0.997, -0.081, 0.081, -0.997, 225.22, 174.001)"/><path class="ah" d="M340.807,246.726c.746-.321,6.075-.161,6.544,1.614a12.689,12.689,0,0,1-.193,3.979c.45-.321,1.164-.7,1.479-.148.463.81-.482,2.989-1.929,2.655-.039.225-.084.431-.122.643a3.381,3.381,0,0,1-1.633,2.3,6.429,6.429,0,0,1-4.333.534,2.443,2.443,0,0,1-1.929-2.244C338.4,252,340.164,247,340.807,246.726Z" transform="translate(-120.951 -88.068)"/><path class="ai" d="M343.175,264.089s2.571.334,3.684-1.639a4.179,4.179,0,0,1-3.819,3.362Z" transform="translate(-122.515 -93.732)"/><path class="as" d="M346.127,256.946l.309-3.754a1.974,1.974,0,0,0,1.929-1.929c.231-1.659-1.536-.591-1.536-.591a3.723,3.723,0,0,1-2.237-3.7,3.214,3.214,0,0,0-2.025-.045,3.782,3.782,0,0,1-2.861-.148,4.236,4.236,0,0,0-.54,1.2c-.469-1.022-1.337-1.929-1.44-3.034a.688.688,0,0,1,.058-.411.534.534,0,0,1,.405-.257,1.615,1.615,0,0,1,.495,0,1.594,1.594,0,0,1,.643-1.774,2.481,2.481,0,0,1,1.742-.469,2.07,2.07,0,0,1,1.5.958,2.173,2.173,0,0,1,2.411-.167,1.35,1.35,0,0,1,.842,1.086,4.107,4.107,0,0,1,1.4.09,1.884,1.884,0,0,1,1.286.868,1.209,1.209,0,0,1-.122,1.221,2.308,2.308,0,0,1,.894.643,5.42,5.42,0,0,1,.919,1.074,2.077,2.077,0,0,1,.334,1.344,1.286,1.286,0,0,1-.816,1.067,3.561,3.561,0,0,1,.958,1.813,3.5,3.5,0,0,1-.99,2.571,4.5,4.5,0,0,1-1.768,1.414,1.048,1.048,0,0,1-.6,1.061C346.93,257.28,346.564,256.946,346.127,256.946Z" transform="translate(-120.613 -86.434)"/><path class="ah" d="M313.05,298.541s2.07-10.479,3.606-12.941c0,0,7.714-11.9,12.118-13.609s6.917.495,5.329,3.857-12,11.944-12,11.944l-6.21,12s.681,2.571.2,3.5-1.241,0-1.556-.4l-1.851,2.533a1.221,1.221,0,0,1-1.221.5c-.219-.051-.386-.161-.373-.392C311.205,303.928,312.086,299.916,313.05,298.541Z" transform="translate(-111.104 -96.927)"/><path class="at" d="M340.719,274.676a7.894,7.894,0,0,1-1.562,2.572c-1.209,1.376-3.021,3.124-4.809,4.77-1.864-1.434-3.639-3.028-5.451-4.5l-.8-.643a32.347,32.347,0,0,1,5.606-5.786,6.75,6.75,0,0,1,3.549-1.1,3.561,3.561,0,0,1,3.465,4.686Z" transform="translate(-117.179 -96.424)"/><path class="au" d="M347.229,270h-7.251a3.394,3.394,0,0,1-1.2.283,5.483,5.483,0,0,0-2.006,4.314l-.206,19.549a.36.36,0,0,0,.354.36l12.677.045a.347.347,0,0,0,.347-.309c.643-6.152,1.209-18.373-2.2-23.664a2.572,2.572,0,0,0-.514-.579Z" transform="translate(-120.204 -96.428)"/><path class="ah" d="M335.992,291.238c.553-1.119,3.092-1.826,3.092-1.826-.354-.392-1.106-1.324-.077-1.6s3.381.926,3.381.926l9.9-2.726c-2.623-3.182-7.348-9.154-8.068-11.7-1.009-3.568,1.858-5.31,5.9-2.893,2.636,1.575,5.94,7.676,7.92,11.719,1.054,2.154,1.736,3.729,1.736,3.729h0a2.571,2.571,0,0,1-1.427,3.266c-1.189.5-1.929.791-1.929.791a7.48,7.48,0,0,1-1.356.315,96.136,96.136,0,0,1-12.054.521c-1.678.707-4.937.643-6.294.6a.739.739,0,0,1-.707-.643,1.2,1.2,0,0,1-.019-.476Z" transform="translate(-119.992 -96.535)"/><path class="av" d="M354.3,283.54c2.109-1.556,4.243-3.073,6.384-4.577-2-3.369-4.281-6.834-5.657-8.151a5.278,5.278,0,0,0-5.175-1.131,2.533,2.533,0,0,0-.958.476c-1.511,1.247-1.144,3.761-.386,5.143C349.07,276.359,352.272,280.782,354.3,283.54Z" transform="translate(-124.231 -96.223)"/><path class="aw" d="M290.264,313.984l-8.357,3.105-.456-.469,3.388-8.254,49.654-48,5.426,5.619Z" transform="translate(-100.518 -92.989)"/><rect class="ax" width="7.631" height="1.125" transform="translate(234.864 166.666) rotate(45.97)"/><path class="ay" d="M370.749,263.115l-5.529-5.721,2.134-2.064a3.979,3.979,0,0,1,5.625.1h0a3.979,3.979,0,0,1-.1,5.625Z" transform="translate(-130.436 -90.79)"/><rect class="ax" width="7.811" height="0.752" transform="translate(187.607 212.215) rotate(45.97)"/><path class="ah" d="M354.319,379.646H350.86l.752-2.436h3.452Z" transform="translate(-125.307 -134.717)"/><path class="az" d="M348.447,380s2.636,1.08,3.375.251a1.659,1.659,0,0,1,.643,1.871c-.309,1.086-7.033.463-8.634.328a.3.3,0,0,1-.251-.392,2.141,2.141,0,0,1,1.363-1.093A25.488,25.488,0,0,1,348.447,380Z" transform="translate(-122.702 -135.714)"/><path class="ah" d="M331.839,379.646H328.38l.752-2.436h3.459Z" transform="translate(-117.279 -134.717)"/><path class="ba" d="M333.9,308.11,328.11,352.9h4.937l5.664-36.437h.482L342.87,352.9h4.423l-.546-44.788Z" transform="translate(-117.183 -110.039)"/><path class="bb" d="M344.519,317.732s-1.652-3.748-1.453-6.062c0,0-.354,4.391.971,6.062Z" transform="translate(-122.509 -111.31)"/><path class="bc" d="M325.967,380s2.636,1.08,3.375.251a1.659,1.659,0,0,1,.643,1.871c-.309,1.086-7.033.463-8.627.328a.3.3,0,0,1-.257-.392,2.141,2.141,0,0,1,1.363-1.093,25.756,25.756,0,0,1,3.5-.964Z" transform="translate(-114.673 -135.714)"/><path class="bd" d="M303.182,219.33c6.872,0,12.446,4.963,12.446,11.083a10.286,10.286,0,0,1-2.681,6.872,17.209,17.209,0,0,0,4.77,6.429,13.982,13.982,0,0,1-7.888-3.921,13.584,13.584,0,0,1-6.647,1.71c-6.879,0-12.452-4.963-12.452-11.083S296.3,219.33,303.182,219.33Z" transform="translate(-103.833 -78.332)"/><rect class="be" width="13.301" height="1.53" transform="translate(205.707 150.397) rotate(180)"/><rect class="be" width="13.301" height="1.53" transform="translate(205.707 152.885) rotate(180)"/><rect class="k" width="3.825" height="1.53" transform="translate(205.707 155.366) rotate(180)"/></g></g></svg>