<svg xmlns="http://www.w3.org/2000/svg" width="288" height="260.268" viewBox="0 0 288 260.268"><defs><style>.a{fill:#ba9066;}.b{fill:#fff;}.c{fill:#ffa66b;}.d{fill:#ffe7b8;}.e{fill:#d5f0fd;}.f{fill:#afd1df;}.g{fill:#99bb4e;}.h{fill:#ff8f46;}</style></defs><g transform="translate(-0.012 -0.006)"><g transform="translate(0.012 0.006)"><path class="a" d="M19.84,296.76c.45,10.351,1.124,59.841,1.349,61.639s10.12.449,10.12.449l-1.573-51.512Z" transform="translate(-7.461 -111.491)"/><path class="b" d="M45.862,168.636c-16.557,6-36.666,15.3-41.392,19.354s-5.4,19.117-1.124,26.771,32.845,45.663,39.145,53.311,17.768,23.618,20.247,26.3,14.622,11.7,35.992,0,170.957-84.121,183.781-94.016c6.749-5.85,8.322-11.924-2.023-24.973s-42.516-55.564-50.164-62.307-16.195-8.116-30.592-1.8S76.91,157.392,45.862,168.636Z" transform="translate(-0.195 -40.28)"/><path d="M78.475,300.361h0c-10.395,0-15.608-5.344-16.151-5.95-1.18-1.286-4.37-5.531-8.047-10.439-4.164-5.563-8.89-11.862-12.212-15.9-6.056-7.354-34.862-45.65-39.176-53.36s-3.665-22.987,1.2-27.158c4.62-3.964,24.4-13.211,41.486-19.4,34.019-12.324,139.76-51.194,153.851-57.35,6.287-2.753,11.575-4.1,16.164-4.1,5.475,0,10.164,1.873,14.759,5.944,5.831,5.151,26.165,31.4,39.625,48.772,4.339,5.619,8.116,10.451,10.576,13.579,10.613,13.385,8.628,19.641,1.985,25.4-8.3,6.412-72.633,38.4-124.327,64.1-27.857,13.854-51.918,25.816-59.51,29.967C91.554,298.382,84.749,300.361,78.475,300.361ZM215.588,107.334c-4.5,0-9.7,1.324-15.914,4.039-14.1,6.168-119.869,45.045-153.888,57.369-17.031,6.2-36.716,15.371-41.292,19.31S-.7,207.025,3.438,214.43c4.3,7.692,33.089,45.925,39.107,53.273,3.334,4.008,8.06,10.326,12.23,15.87,3.677,4.895,6.868,9.128,8,10.389.543.587,5.569,5.75,15.7,5.75,6.168,0,12.873-1.954,19.922-5.812,7.6-4.164,31.665-16.126,59.529-29.967,51.669-25.691,115.973-57.662,124.239-64.024,6.512-5.619,8.266-11.475-2.079-24.529-2.5-3.122-6.243-7.973-10.613-13.585-13.435-17.35-33.751-43.571-39.538-48.7C225.458,109.176,220.9,107.334,215.588,107.334Z" transform="translate(-0.012 -40.093)"/><path class="c" d="M85.4,277.087c-5.968-2.166-9.365-4.17-11.032-2.641s-11.962,14.091-15.708,19.285-5.619,8.041-3.79,9.9,18.936,10.944,25.9,14.659a140.089,140.089,0,0,0,20.272,8.491c2.572.668,3.253,1.411,6.786-5.769s7.348-16.457,7.348-16.457Z" transform="translate(-20.356 -102.906)"/><path class="d" d="M99.166,276.669c-4.882,1.392-15.352,4.995-16.17,5.294s-4.37,6.349-4.152,7.823,6.143,30.2,6.917,32.433a5.287,5.287,0,0,0,6.974,3.2c3.652-1.23,34.456-9.671,36.754-10.713s.225-8.31-1.742-14.584S107.588,275.726,99.166,276.669Z" transform="translate(-29.624 -103.93)"/><path d="M78.753,293.094c1.336-.243,7.136-.493,7.111-2.747s-2.329-3.477-2.741-5.482c-.081-.393-.687-.225-.624.169.3,1.417,1.654,2.7,2.329,3.964a2.354,2.354,0,0,1,.368,1.436c-.106.624-1.542.993-1.992,1.136a40.314,40.314,0,0,1-4.639.905c-.393.069-.225.674.169.624Z" transform="translate(-29.439 -106.938)"/><path d="M93.483,299.1a20.608,20.608,0,0,0,2.966-.918c1.192-.406,2.441-.674,3.64-1.068a63.245,63.245,0,0,1,7.492-2.316c.393-.075.225-.681-.169-.624-2.4.474-4.657,1.436-7,2.135a67.583,67.583,0,0,1-7.117,2.166c-.393.069-.225.674.169.624Z" transform="translate(-34.973 -110.519)"/><path d="M89.521,304.942c1.417-1.011,3.09-.755,4.707-1.049a34.431,34.431,0,0,0,5.869-2c1.91-.724,3.9-1.448,5.906-2.017s4-.73,5.993-1.161c.393-.087.225-.687-.162-.624-2,.431-4.021.624-6,1.167a65.73,65.73,0,0,0-6.43,2.216c-1.935.73-4.071,1.836-6.181,1.873a7.076,7.076,0,0,0-4.014,1.011c-.325.231,0,.774.312.537Z" transform="translate(-33.471 -111.988)"/><path d="M95.728,318.951c2-1.3,4.433-1.436,6.68-2.048,1.2-.331,2.354-.787,3.534-1.2a14.074,14.074,0,0,0,2.335-.687c.35-.194.037-.73-.318-.537a20.534,20.534,0,0,1-3.19.986,29.53,29.53,0,0,1-3.409,1.068c-2.048.493-4.145.712-5.944,1.873-.337.219,0,.755.312.537Z" transform="translate(-35.801 -118.131)"/><path d="M95.551,322.416c4.264-.237,8.291-1.873,12.349-3.059,2.3-.68,4.6-1.355,6.868-2.11a34.464,34.464,0,0,0,5.469-1.873c.356-.187.037-.724-.318-.537a34.151,34.151,0,0,1-5.319,1.792c-2.079.712-4.2,1.324-6.3,1.942-4.183,1.249-8.372,2.966-12.761,3.209a.312.312,0,0,0,0,.624Z" transform="translate(-35.786 -118.267)"/><path d="M98.985,333.438c1.8-.418,3.577-.88,5.344-1.43a9.8,9.8,0,0,0,3.122-1.2c.318-.237,0-.78-.312-.537a11.045,11.045,0,0,1-3.359,1.249c-1.642.512-3.3.93-4.995,1.324-.393.087-.225.693.162.624Z" transform="translate(-37.035 -124.058)"/><path class="e" d="M41.714,83.519c-3.484,1.249-8.772,4.726-7.76,10.969s10.289,42.348,14.509,55.677,4.046,14.984,10.12,22.1,20.921,30.2,28.007,35.586,7.28,5.75,17.893,2.2,55.333-26.146,64.111-30.2,15.689-7.255,13.154-12.824-6.911-10.289-14.359-17.88-21.932-21.6-23.1-23.1c-1.349-10.3-5.737-27.838-6.749-34.587s-4.046-21.932-5.226-26.49-3.883-7.423-13.666-4.558S51.666,79.979,41.714,83.519Z" transform="translate(-12.716 -22.271)"/><path d="M42.916,99.061c-2.978,2.61-2.191,6.343-1.567,9.883.905,5.069,2.191,10.07,3.477,15.052,2.953,11.425,6.075,22.806,9.2,34.188,1.018,3.746,2.054,7.492,3.028,11.238a25.373,25.373,0,0,0,3.977,8.922C67.1,186.5,73.189,194.657,79.4,202.692A121.971,121.971,0,0,0,92.256,217.17a16.844,16.844,0,0,0,3.671,3.084,6.912,6.912,0,0,0,4.545.125c5.076-1.118,9.927-3.7,14.64-5.862,5.269-2.416,10.52-4.882,15.764-7.354q14.359-6.78,28.656-13.7c4.37-2.116,8.74-4.264,13.111-6.381a38.99,38.99,0,0,0,8.472-4.913c1.249-1.055,2.141-2.5,1.3-4.089-.187-.356-.724-.037-.537.318,1.548,2.916-4.327,5.482-6.175,6.455-3.677,1.942-7.492,3.634-11.194,5.482-4.133,2.054-8.291,4.052-12.449,6.05q-16.882,8.122-33.925,16.07c-4.726,2.191-9.452,4.476-14.359,6.243-2.079.762-4.664,1.767-6.917,1.249-1.48-.356-2.647-1.792-3.715-2.778-9.134-8.484-16.345-18.817-23.8-28.719q-3.9-5.2-7.785-10.4a25.26,25.26,0,0,1-3.983-9.034c-2.5-9.633-5.219-19.2-7.823-28.806-2-7.423-4.021-14.84-5.85-22.307a102.773,102.773,0,0,1-2.372-11.974c-.306-2.566-.162-4.657,1.873-6.418.306-.268-.137-.705-.443-.443Z" transform="translate(-15.322 -37.189)"/><path d="M131.89,295.221v4.751a.312.312,0,0,0,.624,0v-4.72a.312.312,0,1,0-.624,0Z" transform="translate(-49.556 -110.807)"/><path d="M68.99,205.853a18.551,18.551,0,0,1,1.567-2.372c.624-.855,1.13-.768,2.1-1.03a54.279,54.279,0,0,0,5.912-2.553c4.214-1.729,8.572-3.028,12.767-4.832,9.3-4.014,18.474-8.322,27.857-12.155,10.176-4.158,20.322-8.3,30.317-12.892,1.754-.805,3.509-1.617,5.232-2.5.624-.318,1.792-.705,2.2-1.349.212-.337-.325-.624-.543-.312-.425.674-2.179,1.249-2.891,1.58-2.085,1.024-4.2,1.992-6.318,2.947q-7.735,3.515-15.558,6.83c-5.619,2.41-11.413,4.545-17.075,6.949C105.275,188.1,96.2,192.6,86.814,196.289c-3.559,1.4-7.261,2.385-10.72,4.033-.887.425-1.767.843-2.678,1.2a23.815,23.815,0,0,1-2.753.624c-.331.094-.493.724-.624.98-.5.818-1.136,1.5-1.561,2.372-.181.356.362.674.537.312Z" transform="translate(-25.72 -62.264)"/><path class="f" d="M90.214,207.9c6.025-3.015,61.408-25.478,67.145-27.838s7.76-3.378,11.306.169,16.7,17.375,19.067,20.247,8.435,6.075.162,11.3-54.659,25.984-60.559,28.681-10.12,6.412-15.183.843S94.26,217.683,90.72,213.468,88.192,208.911,90.214,207.9Z" transform="translate(-33.209 -66.845)"/><path d="M147.859,252.891a2.878,2.878,0,0,1-2.06-.749l-.893-.843c-1.692-1.58-2.8-2.628-2.672-3.534a1.161,1.161,0,0,1,.718-.855c2.366-1.18,7.9-3.64,13.267-6.012,4.913-2.179,9.558-4.233,11.587-5.238,7.4-3.64,10.058-4.9,11.556-3.914l.062.037c2.422,1.592,3.89,2.553,3.852,3.658,0,.624-.537,1.249-1.679,1.873-2.5,1.455-12.043,5.85-18.342,8.74l-2.5,1.149c-1.536.712-3.072,1.536-4.557,2.329C153.009,251.28,149.994,252.891,147.859,252.891Zm30.329-20.833c-1.561,0-4.539,1.423-10.108,4.164-2.042,1.005-6.693,3.065-11.612,5.244-5.35,2.372-10.888,4.826-13.242,6.006-.343.175-.368.331-.375.387-.087.581,1.161,1.748,2.5,2.984.287.268.624.549.9.843a2.241,2.241,0,0,0,1.629.581c1.979,0,4.926-1.58,8.054-3.24,1.492-.8,3.04-1.623,4.589-2.347l2.5-1.149c6.287-2.9,15.789-7.292,18.286-8.74.912-.524,1.361-.974,1.367-1.373,0-.762-1.48-1.748-3.571-3.122l-.056-.037A1.486,1.486,0,0,0,178.188,232.058Z" transform="translate(-53.438 -86.945)"/><path d="M131.345,267.1c-1.436,0-2.179-.961-2.959-1.973a3.954,3.954,0,0,1-1.105-2.953,1.7,1.7,0,0,1,.961-1.142,34.1,34.1,0,0,1,4.689-1.96,2.435,2.435,0,0,1,.674-.106c1,0,1.6.724,2.354,1.636l.5.587.05.056c.624.749,1.33,1.523,1.136,2.435s-1.074,1.592-2.809,2.385A8.891,8.891,0,0,1,131.345,267.1Zm2.26-7.492a1.622,1.622,0,0,0-.493.081,33.312,33.312,0,0,0-4.589,1.917,1.08,1.08,0,0,0-.624.724,3.33,3.33,0,0,0,.986,2.435c.78,1.011,1.386,1.729,2.466,1.729a8.547,8.547,0,0,0,3.234-.98c1.5-.68,2.322-1.336,2.454-1.948s-.418-1.249-1-1.873l-.044-.056-.512-.624C134.8,260.237,134.311,259.613,133.605,259.613Z" transform="translate(-47.812 -97.294)"/><path d="M123.235,256.5c-1.436,0-2.173-.961-2.959-1.973a3.946,3.946,0,0,1-1.105-2.953,1.7,1.7,0,0,1,.961-1.142,33.087,33.087,0,0,1,4.689-1.96,2.5,2.5,0,0,1,.674-.106c1,0,1.6.724,2.354,1.636.162.187.325.387.506.593l.044.05c.656.749,1.336,1.523,1.136,2.435s-1.068,1.6-2.8,2.385A8.915,8.915,0,0,1,123.235,256.5Zm2.26-7.492a1.873,1.873,0,0,0-.493.081,32.871,32.871,0,0,0-4.589,1.917,1.08,1.08,0,0,0-.624.724,3.34,3.34,0,0,0,.986,2.435c.855,1.105,1.392,1.729,2.5,1.729a8.522,8.522,0,0,0,3.234-.98c1.5-.681,2.329-1.336,2.46-1.948s-.418-1.249-1-1.873l-.044-.056a6.779,6.779,0,0,1-.512-.624c-.718-.83-1.211-1.423-1.917-1.423Z" transform="translate(-44.766 -93.312)"/><path d="M115.121,245.875c-1.436,0-2.173-.955-2.953-1.973-.911-1.174-1.286-2.173-1.105-2.953a1.723,1.723,0,0,1,.955-1.143,32.842,32.842,0,0,1,4.695-1.96,2.4,2.4,0,0,1,.674-.106c.993,0,1.592.724,2.354,1.636.156.187.318.387.5.593l.05.05c.624.749,1.33,1.523,1.136,2.435s-1.074,1.6-2.809,2.391A8.959,8.959,0,0,1,115.121,245.875Zm2.266-7.492a1.873,1.873,0,0,0-.5.081,32.6,32.6,0,0,0-4.589,1.923,1.093,1.093,0,0,0-.624.718,3.361,3.361,0,0,0,.993,2.435c.849,1.105,1.386,1.729,2.46,1.729a8.6,8.6,0,0,0,3.234-.974c1.5-.687,2.329-1.342,2.46-1.954s-.418-1.249-1-1.873l-.075-.069a7.734,7.734,0,0,1-.512-.624c-.656-.818-1.149-1.411-1.848-1.411Z" transform="translate(-41.715 -89.318)"/><path d="M107.011,235.249c-1.43,0-2.173-.955-2.953-1.967-.912-1.18-1.286-2.179-1.105-2.959a1.717,1.717,0,0,1,.961-1.142,35.775,35.775,0,0,1,4.689-1.96,2.416,2.416,0,0,1,.674-.1c1,0,1.6.718,2.354,1.629l.5.624.05.05c.624.749,1.33,1.523,1.136,2.435s-1.074,1.6-2.809,2.391a8.959,8.959,0,0,1-3.5,1Zm2.266-7.492a1.873,1.873,0,0,0-.5.075,33.676,33.676,0,0,0-4.589,1.923,1.086,1.086,0,0,0-.624.724,3.349,3.349,0,0,0,.993,2.429c.855,1.105,1.386,1.729,2.46,1.729a8.621,8.621,0,0,0,3.24-.974c1.5-.687,2.322-1.342,2.454-1.954s-.418-1.249-.993-1.873l-.05-.056-.512-.624c-.7-.824-1.174-1.411-1.879-1.411Z" transform="translate(-38.668 -85.328)"/><path d="M139.261,249.389c-1.436,0-2.173-.955-2.953-1.967-.912-1.18-1.286-2.173-1.105-2.959a1.7,1.7,0,0,1,.955-1.136,32.72,32.72,0,0,1,4.695-1.96,2.2,2.2,0,0,1,.674-.106c.993,0,1.592.718,2.354,1.629.156.187.318.387.5.593l.044.05c.662.749,1.336,1.523,1.142,2.435s-1.074,1.6-2.809,2.391A8.959,8.959,0,0,1,139.261,249.389Zm2.266-7.492a1.667,1.667,0,0,0-.5.081,33.188,33.188,0,0,0-4.589,1.917,1.086,1.086,0,0,0-.624.724,3.369,3.369,0,0,0,.993,2.435c.78,1.011,1.386,1.723,2.46,1.723a8.6,8.6,0,0,0,3.234-.974c1.5-.687,2.329-1.342,2.46-1.954s-.418-1.249-1-1.873l-.044-.05-.512-.624c-.687-.83-1.174-1.417-1.879-1.417Z" transform="translate(-50.784 -90.641)"/><path d="M131.158,238.759c-1.436,0-2.179-.955-2.959-1.967-.912-1.18-1.286-2.173-1.105-2.953a1.692,1.692,0,0,1,.961-1.143,32.358,32.358,0,0,1,4.689-1.96,2.223,2.223,0,0,1,.674-.106c1,0,1.6.718,2.354,1.629l.5.593.05.05c.624.749,1.33,1.523,1.136,2.435s-1.074,1.6-2.809,2.391a8.965,8.965,0,0,1-3.49,1.03Zm2.26-7.492a1.667,1.667,0,0,0-.5.081,33.5,33.5,0,0,0-4.589,1.917,1.061,1.061,0,0,0-.624.724,3.33,3.33,0,0,0,.986,2.435c.78,1.011,1.386,1.723,2.466,1.723a8.509,8.509,0,0,0,3.234-.974c1.5-.687,2.322-1.342,2.454-1.954s-.418-1.249-.993-1.873l-.05-.05-.512-.624c-.68-.83-1.167-1.417-1.873-1.417Z" transform="translate(-47.737 -86.647)"/><path d="M123.055,228.109c-1.436,0-2.173-.955-2.959-1.967a3.954,3.954,0,0,1-1.105-2.953,1.692,1.692,0,0,1,.961-1.142,32.954,32.954,0,0,1,4.689-1.96,2.5,2.5,0,0,1,.674-.106c1,0,1.6.718,2.36,1.629.156.194.318.387.5.593l.044.056c.656.749,1.336,1.523,1.136,2.429s-1.068,1.6-2.8,2.391A8.99,8.99,0,0,1,123.055,228.109Zm2.26-7.492a1.654,1.654,0,0,0-.493.081,33.187,33.187,0,0,0-4.589,1.917,1.067,1.067,0,0,0-.624.724,3.357,3.357,0,0,0,.986,2.435c.855,1.105,1.386,1.723,2.5,1.723a8.479,8.479,0,0,0,3.234-.974c1.5-.68,2.329-1.342,2.46-1.954s-.418-1.249-1-1.873l-.05-.056c-.181-.206-.35-.412-.506-.624C126.514,221.241,126.021,220.617,125.315,220.617Z" transform="translate(-44.698 -82.646)"/><path d="M155.3,242.269c-1.436,0-2.179-.955-2.959-1.967-.912-1.18-1.28-2.173-1.105-2.953a1.692,1.692,0,0,1,.961-1.142,33.713,33.713,0,0,1,4.689-1.96,2.435,2.435,0,0,1,.674-.106c1,0,1.6.724,2.354,1.636l.5.587.05.056c.656.749,1.33,1.523,1.136,2.435s-1.074,1.592-2.809,2.385A8.859,8.859,0,0,1,155.3,242.269Zm2.26-7.492a1.667,1.667,0,0,0-.5.081,33.09,33.09,0,0,0-4.582,1.917,1.08,1.08,0,0,0-.624.724,3.33,3.33,0,0,0,.986,2.435c.78,1.011,1.386,1.723,2.5,1.723a8.509,8.509,0,0,0,3.228-.986c1.5-.681,2.322-1.342,2.454-1.948s-.412-1.249-.993-1.873l-.05-.056c-.181-.206-.35-.412-.506-.624-.712-.812-1.2-1.4-1.91-1.4Z" transform="translate(-56.808 -87.966)"/><path d="M147.2,231.645c-1.436,0-2.173-.955-2.959-1.973a3.954,3.954,0,0,1-1.105-2.953,1.7,1.7,0,0,1,.961-1.142,33.445,33.445,0,0,1,4.695-1.96,2.4,2.4,0,0,1,.668-.106c1,0,1.6.724,2.354,1.636.162.187.325.387.506.587l.044.056c.624.749,1.336,1.523,1.136,2.435s-1.068,1.6-2.8,2.391a8.99,8.99,0,0,1-3.5,1.03Zm2.26-7.492a1.873,1.873,0,0,0-.493.081,31.889,31.889,0,0,0-4.589,1.923,1.061,1.061,0,0,0-.624.718,3.357,3.357,0,0,0,.986,2.435c.78,1.011,1.386,1.729,2.466,1.729a8.6,8.6,0,0,0,3.234-.974c1.5-.687,2.329-1.342,2.46-1.954s-.418-1.249-1-1.873l-.05-.056c-.181-.206-.35-.412-.506-.624-.687-.83-1.18-1.423-1.885-1.423Z" transform="translate(-53.767 -83.972)"/><path d="M139.081,221.019c-1.436,0-2.173-.955-2.953-1.973-.912-1.18-1.286-2.173-1.105-2.953a1.723,1.723,0,0,1,.955-1.143,32.841,32.841,0,0,1,4.695-1.96,2.385,2.385,0,0,1,.674-.1c.993,0,1.592.718,2.354,1.629.156.187.318.387.5.593l.044.05c.656.749,1.336,1.523,1.143,2.435s-1.074,1.6-2.809,2.391A8.959,8.959,0,0,1,139.081,221.019Zm2.266-7.492a1.873,1.873,0,0,0-.5.075,32.9,32.9,0,0,0-4.589,1.923,1.093,1.093,0,0,0-.624.718,3.352,3.352,0,0,0,.993,2.435c.849,1.105,1.386,1.729,2.46,1.729a8.6,8.6,0,0,0,3.234-.974c1.5-.687,2.329-1.342,2.46-1.954s-.418-1.249-1-1.873l-.044-.056-.512-.624c-.687-.824-1.174-1.411-1.879-1.411Z" transform="translate(-50.717 -79.982)"/><path d="M171.329,235.159c-1.436,0-2.173-.955-2.953-1.967-.911-1.18-1.286-2.179-1.111-2.959a1.729,1.729,0,0,1,.961-1.143,32.8,32.8,0,0,1,4.695-1.954,2.2,2.2,0,0,1,.674-.106c.993,0,1.592.718,2.354,1.629.156.187.318.387.5.624l.044.05c.656.749,1.336,1.523,1.136,2.435s-1.068,1.6-2.8,2.391a8.959,8.959,0,0,1-3.5,1Zm2.266-7.492a1.874,1.874,0,0,0-.5.075,33.678,33.678,0,0,0-4.589,1.923,1.055,1.055,0,0,0-.624.724,3.349,3.349,0,0,0,.993,2.429c.849,1.105,1.386,1.729,2.46,1.729a8.6,8.6,0,0,0,3.234-.974c1.5-.687,2.329-1.342,2.46-1.954s-.418-1.249-1-1.873l-.05-.05c-.181-.212-.35-.412-.506-.624-.687-.812-1.18-1.436-1.879-1.436Z" transform="translate(-62.83 -85.295)"/><path d="M163.221,224.529c-1.436,0-2.173-.955-2.953-1.967-.912-1.18-1.286-2.173-1.105-2.959a1.723,1.723,0,0,1,.955-1.143,32.971,32.971,0,0,1,4.695-1.954,2.2,2.2,0,0,1,.674-.106c.993,0,1.592.718,2.354,1.629.156.194.318.387.5.624l.044.05c.624.749,1.336,1.523,1.143,2.435s-1.074,1.6-2.809,2.391a8.959,8.959,0,0,1-3.5,1Zm2.266-7.492a1.873,1.873,0,0,0-.5.075,32.184,32.184,0,0,0-4.589,1.923,1.086,1.086,0,0,0-.624.724,3.369,3.369,0,0,0,.993,2.435c.78,1.011,1.386,1.723,2.46,1.723a8.565,8.565,0,0,0,3.234-.974c1.5-.687,2.329-1.342,2.46-1.954s-.418-1.249-1-1.873l-.044-.05-.512-.624c-.687-.83-1.174-1.417-1.879-1.417Z" transform="translate(-59.785 -81.301)"/><path d="M155.118,213.9c-1.436,0-2.179-.955-2.959-1.967-.912-1.18-1.286-2.173-1.105-2.953a1.692,1.692,0,0,1,.961-1.143,33.09,33.09,0,0,1,4.689-1.96,2.222,2.222,0,0,1,.674-.106c1,0,1.6.718,2.354,1.636l.5.587.05.05c.624.749,1.33,1.523,1.136,2.435s-1.074,1.6-2.809,2.391A8.965,8.965,0,0,1,155.118,213.9Zm2.26-7.492a1.667,1.667,0,0,0-.5.081A32.8,32.8,0,0,0,152.3,208.4a1.055,1.055,0,0,0-.624.724,3.33,3.33,0,0,0,.986,2.435c.78,1.011,1.386,1.723,2.5,1.723a8.478,8.478,0,0,0,3.234-.974c1.5-.687,2.322-1.342,2.454-1.954s-.418-1.249-.993-1.873l-.106-.075c-.181-.206-.35-.412-.506-.624-.662-.8-1.155-1.392-1.86-1.392Z" transform="translate(-56.739 -77.308)"/><path d="M187.361,228.039c-1.436,0-2.173-.955-2.953-1.967-.912-1.18-1.286-2.173-1.105-2.953a1.7,1.7,0,0,1,.955-1.142,33.443,33.443,0,0,1,4.695-1.96,2.4,2.4,0,0,1,.674-.106c.993,0,1.592.718,2.354,1.629.156.187.318.387.5.593l.044.05c.656.749,1.336,1.523,1.143,2.435s-1.074,1.6-2.809,2.391a8.959,8.959,0,0,1-3.5,1.03Zm2.266-7.492a1.667,1.667,0,0,0-.5.081,33.186,33.186,0,0,0-4.589,1.917,1.1,1.1,0,0,0-.624.724,3.369,3.369,0,0,0,.993,2.435c.78,1.011,1.386,1.723,2.46,1.723a8.478,8.478,0,0,0,3.234-.974c1.5-.68,2.329-1.342,2.46-1.954s-.418-1.249-1-1.873l-.044-.05c-.181-.206-.35-.412-.512-.624-.687-.824-1.174-1.417-1.879-1.417Z" transform="translate(-68.854 -82.62)"/><path d="M179.259,217.409c-1.436,0-2.179-.955-2.959-1.967-.912-1.18-1.28-2.173-1.105-2.953a1.692,1.692,0,0,1,.961-1.143,33.092,33.092,0,0,1,4.689-1.96,2.435,2.435,0,0,1,.674-.106c1,0,1.6.724,2.354,1.629.156.194.325.387.5.624l.05.056c.656.749,1.336,1.523,1.136,2.435s-1.074,1.592-2.809,2.385A8.965,8.965,0,0,1,179.259,217.409Zm2.26-7.492a1.7,1.7,0,0,0-.5.081,32.794,32.794,0,0,0-4.582,1.917,1.068,1.068,0,0,0-.624.724,3.33,3.33,0,0,0,.986,2.435c.855,1.105,1.386,1.723,2.466,1.723a8.51,8.51,0,0,0,3.234-.974c1.5-.681,2.322-1.342,2.454-1.948s-.418-1.249-.993-1.873l-.05-.056c-.181-.206-.35-.412-.512-.624-.68-.824-1.174-1.417-1.879-1.417Z" transform="translate(-65.809 -78.626)"/><path d="M171.155,206.785c-1.436,0-2.173-.961-2.959-1.973a3.954,3.954,0,0,1-1.105-2.953,1.7,1.7,0,0,1,.961-1.143,33.713,33.713,0,0,1,4.689-1.96,2.5,2.5,0,0,1,.68-.106c.993,0,1.592.718,2.347,1.629.156.194.325.387.506.624l.044.056c.656.749,1.336,1.523,1.136,2.435s-1.068,1.592-2.8,2.385a8.915,8.915,0,0,1-3.5,1.005Zm2.266-7.492a1.667,1.667,0,0,0-.5.081,33.188,33.188,0,0,0-4.589,1.917,1.08,1.08,0,0,0-.624.724,3.361,3.361,0,0,0,.993,2.435c.849,1.105,1.386,1.729,2.46,1.729a8.522,8.522,0,0,0,3.234-.98c1.5-.68,2.329-1.336,2.46-1.948s-.418-1.249-1-1.873l-.044-.056c-.187-.206-.356-.412-.518-.624-.68-.83-1.174-1.423-1.873-1.423Z" transform="translate(-62.768 -74.633)"/><path d="M203.405,220.925c-1.436,0-2.173-.955-2.959-1.967A3.966,3.966,0,0,1,199.341,216a1.717,1.717,0,0,1,.961-1.142,33.09,33.09,0,0,1,4.689-1.96,2.5,2.5,0,0,1,.674-.106c1,0,1.6.724,2.354,1.636.162.187.325.387.506.624l.044.05c.656.749,1.336,1.523,1.136,2.435s-1.074,1.6-2.8,2.385a8.94,8.94,0,0,1-3.5,1.005Zm2.26-7.492a1.873,1.873,0,0,0-.5.081,32.4,32.4,0,0,0-4.583,1.923,1.055,1.055,0,0,0-.624.724,3.31,3.31,0,0,0,.986,2.429c.855,1.105,1.386,1.729,2.5,1.729a8.522,8.522,0,0,0,3.234-.98c1.5-.68,2.322-1.336,2.454-1.948s-.412-1.249-.993-1.873l-.05-.056a7.724,7.724,0,0,1-.506-.624c-.718-.83-1.211-1.423-1.917-1.423Z" transform="translate(-74.884 -79.945)"/><path d="M210.241,231.735c-1.436,0-2.173-.955-2.953-1.973-.911-1.18-1.286-2.173-1.105-2.953a1.711,1.711,0,0,1,.955-1.143,33.759,33.759,0,0,1,4.695-1.96,2.4,2.4,0,0,1,.674-.106c.993,0,1.592.724,2.354,1.636.156.187.318.387.5.593l.044.05c.656.749,1.336,1.523,1.142,2.435s-1.074,1.6-2.809,2.391A8.959,8.959,0,0,1,210.241,231.735Zm2.266-7.492a1.873,1.873,0,0,0-.5.081,32.18,32.18,0,0,0-4.589,1.923,1.093,1.093,0,0,0-.624.718,3.361,3.361,0,0,0,.993,2.435c.78,1.011,1.386,1.729,2.46,1.729a8.6,8.6,0,0,0,3.234-.974c1.5-.687,2.329-1.342,2.46-1.954s-.418-1.249-1-1.873l-.044-.056a7.988,7.988,0,0,1-.512-.624c-.687-.83-1.174-1.423-1.879-1.423Z" transform="translate(-77.45 -84.006)"/><path d="M227.359,224.709c-1.436,0-2.173-.955-2.959-1.967a3.842,3.842,0,0,1-1.105-2.959,1.717,1.717,0,0,1,.961-1.143,33.715,33.715,0,0,1,4.689-1.96,2.46,2.46,0,0,1,.68-.1c.993,0,1.592.718,2.354,1.629.156.187.318.387.5.593l.044.05c.656.749,1.336,1.523,1.136,2.435s-1.068,1.6-2.8,2.391A8.99,8.99,0,0,1,227.359,224.709Zm2.266-7.492a1.875,1.875,0,0,0-.5.075,32.183,32.183,0,0,0-4.589,1.923,1.055,1.055,0,0,0-.624.724,3.343,3.343,0,0,0,.993,2.435c.787,1.011,1.386,1.723,2.46,1.723a8.6,8.6,0,0,0,3.221-1.011c1.5-.687,2.329-1.342,2.46-1.954s-.418-1.249-1-1.873l-.05-.05c-.181-.212-.35-.412-.506-.624-.674-.793-1.167-1.38-1.867-1.38Z" transform="translate(-83.879 -81.369)"/><path d="M195.291,210.3c-1.436,0-2.173-.955-2.953-1.967-.918-1.18-1.286-2.179-1.105-2.959a1.7,1.7,0,0,1,.955-1.142,33.447,33.447,0,0,1,4.695-1.96,2.385,2.385,0,0,1,.674-.1c.993,0,1.592.718,2.354,1.629.156.187.318.387.5.593l.044.05c.656.749,1.336,1.523,1.143,2.435s-1.074,1.6-2.809,2.391a8.959,8.959,0,0,1-3.5,1.03Zm2.266-7.492a1.872,1.872,0,0,0-.5.075,32.182,32.182,0,0,0-4.589,1.923,1.055,1.055,0,0,0-.624.724,3.369,3.369,0,0,0,.993,2.435c.78,1.011,1.386,1.723,2.46,1.723a8.6,8.6,0,0,0,3.234-.974c1.5-.687,2.329-1.342,2.46-1.954s-.418-1.249-1-1.873l-.044-.056a6.782,6.782,0,0,1-.512-.624c-.687-.824-1.18-1.411-1.879-1.411Z" transform="translate(-71.833 -75.955)"/><path d="M187.181,199.669c-1.43,0-2.173-.955-2.953-1.967-.912-1.18-1.286-2.179-1.105-2.959a1.717,1.717,0,0,1,.961-1.143,33.09,33.09,0,0,1,4.689-1.96,2.385,2.385,0,0,1,.674-.1c.993,0,1.592.718,2.354,1.629.156.187.318.387.5.593l.05.05c.624.749,1.33,1.523,1.136,2.435s-1.074,1.6-2.809,2.391A8.959,8.959,0,0,1,187.181,199.669Zm2.266-7.492a1.873,1.873,0,0,0-.5.075,32.919,32.919,0,0,0-4.589,1.923,1.086,1.086,0,0,0-.624.724,3.369,3.369,0,0,0,.993,2.435c.78,1.011,1.386,1.723,2.46,1.723a8.6,8.6,0,0,0,3.234-.974c1.5-.687,2.329-1.342,2.46-1.954s-.418-1.249-1-1.873l-.044-.05-.512-.624c-.687-.83-1.18-1.417-1.879-1.417Z" transform="translate(-68.787 -71.962)"/><path d="M219.431,213.809c-1.436,0-2.173-.955-2.953-1.967-.912-1.18-1.286-2.173-1.105-2.953a1.68,1.68,0,0,1,.955-1.142,32.717,32.717,0,0,1,4.695-1.96,2.2,2.2,0,0,1,.674-.106c.993,0,1.592.718,2.354,1.629.156.194.318.387.5.624l.044.056c.656.749,1.336,1.517,1.143,2.429s-1.074,1.6-2.809,2.391a8.958,8.958,0,0,1-3.5,1Zm2.266-7.492a1.667,1.667,0,0,0-.5.081,33.192,33.192,0,0,0-4.589,1.917,1.055,1.055,0,0,0-.624.724,3.37,3.37,0,0,0,.993,2.435c.78,1.011,1.386,1.723,2.46,1.723a8.6,8.6,0,0,0,3.234-.974c1.5-.687,2.329-1.342,2.46-1.954s-.418-1.249-1-1.873l-.044-.056a7.737,7.737,0,0,1-.512-.624c-.687-.818-1.18-1.411-1.879-1.411Z" transform="translate(-80.903 -77.274)"/><path d="M211.321,203.179c-1.436,0-2.173-.955-2.953-1.967-.912-1.18-1.286-2.173-1.105-2.953a1.7,1.7,0,0,1,.955-1.143,32.6,32.6,0,0,1,4.695-1.96,2.2,2.2,0,0,1,.674-.106c1,0,1.6.718,2.354,1.636l.5.587.05.056c.656.749,1.33,1.523,1.136,2.429s-1.074,1.6-2.809,2.391A8.959,8.959,0,0,1,211.321,203.179Zm2.266-7.492a1.667,1.667,0,0,0-.5.081,32.132,32.132,0,0,0-4.589,1.917,1.086,1.086,0,0,0-.624.724,3.369,3.369,0,0,0,.993,2.435c.78,1.011,1.386,1.723,2.46,1.723a8.478,8.478,0,0,0,3.234-.974c1.5-.687,2.329-1.342,2.46-1.954s-.418-1.249-1-1.873l-.044-.056-.512-.624c-.687-.818-1.174-1.411-1.879-1.411Z" transform="translate(-77.856 -73.28)"/><path d="M203.225,192.549c-1.436,0-2.179-.955-2.959-1.967a3.954,3.954,0,0,1-1.105-2.953,1.692,1.692,0,0,1,.961-1.143,33.087,33.087,0,0,1,4.689-1.96,2.434,2.434,0,0,1,.674-.106c1,0,1.6.724,2.354,1.636.162.187.325.387.506.587l.044.056c.624.749,1.336,1.523,1.136,2.429s-1.074,1.6-2.809,2.391A8.94,8.94,0,0,1,203.225,192.549Zm2.26-7.492a1.667,1.667,0,0,0-.5.081,32.8,32.8,0,0,0-4.582,1.917,1.068,1.068,0,0,0-.624.724,3.33,3.33,0,0,0,.986,2.435c.78,1.011,1.386,1.723,2.466,1.723a8.51,8.51,0,0,0,3.234-.974c1.5-.681,2.322-1.342,2.454-1.954s-.412-1.249-.993-1.873l-.05-.056c-.181-.206-.35-.412-.506-.624-.687-.818-1.18-1.411-1.885-1.411Z" transform="translate(-74.816 -69.287)"/><path class="f" d="M58.349,90.855c-3.627,1.4-7.873,3.034-7.086,7.2,1.055,5.55,5.176,21.258,7.536,31.047s6.075,22.382,6.868,25.416,1.249,6.637,5.513,4.838,62.869-26.883,67.913-29.468,6.63-2.928,5.619-6.974-6.749-36.9-8.435-44.882-2.585-10.12-9.446-8.116S65.66,88.046,58.349,90.855Z" transform="translate(-19.23 -26.005)"/><path class="b" d="M123.82,139.315c-.862.506-4.57,2.223-9.365,4.37l-2.06.924c-2.616,1.174-5.475,2.429-8.322,3.677-4.489,1.96-8.978,3.9-12.555,5.4-2.916,1.217-5.232,2.148-6.468,2.578-5.844,2.023-7.866.337-9.558-5.176S66.383,119.6,65.253,115.1s1.249-6.05,6.075-7.873c4.164-1.58,29.243-9.446,37.122-12.037s7.873,1.011,8.884,4.37c.106.35.275.924.481,1.679,1.311,4.72,4.433,16.463,6.53,24.211.15.543.293,1.061.425,1.561.069.262.137.512.206.755l.037.144c.125.437.231.843.331,1.249.325,1.143.581,2.066.762,2.7C127.535,136.955,126.524,137.735,123.82,139.315Z" transform="translate(-24.417 -35.432)"/><path class="d" d="M140.314,166.834l-2.06.924c-.986-1.873-3.165-7.748-4.145-10.126-.081-.206-.156-.4-.219-.543l1.767-1.249.493,1.192C137.149,159.43,139.372,164.793,140.314,166.834Z" transform="translate(-50.307 -58.55)"/><path class="b" d="M144.946,132.049c-1.8,1.53-22.863,9.165-23.193,8.116s-2.866-20.84-3.29-23.961-.337-3.459,2.11-4.3,12.349-4.995,17.212-6.362" transform="translate(-44.438 -39.653)"/><path d="M121.886,140.352a1.016,1.016,0,0,1-.268,0,.437.437,0,0,1-.318-.287c-.25-.812-1.548-10.663-2.747-19.835-.256-1.954-.456-3.477-.549-4.177-.437-3.2-.325-3.746,2.316-4.632.762-.262,2.26-.849,4.152-1.592,4.108-1.611,9.739-3.821,13.073-4.776a.324.324,0,0,1,.175.624c-3.309.949-8.921,3.122-13.017,4.757-1.873.743-3.4,1.33-4.177,1.6-2.248.774-2.322.924-1.873,3.964.094.7.293,2.223.549,4.177.837,6.4,2.372,18.105,2.7,19.622,1.873.187,20.89-6.574,22.713-8.116a.312.312,0,1,1,.406.474C143.325,133.509,124.9,140.352,121.886,140.352Z" transform="translate(-44.266 -39.465)"/><path d="M118.068,175.08c-4.489,1.96-8.978,3.9-12.555,5.4-1.167-3-3.034-9.009-3.2-11.762,4.046-2.947,10.345-3.178,10.345-3.178S116.944,171.121,118.068,175.08Z" transform="translate(-38.443 -62.194)"/><path class="c" d="M88.483,170.555c-.337,1.942-2.934,4.576-1.686,6.075s3.122-.674,3.459-2.7c-.169,3.627,1.942,1.517,1.018-2.616A2.316,2.316,0,0,0,88.483,170.555Z" transform="translate(-32.489 -64.007)"/><path class="c" d="M123.34,132.888c.169-2.535.93-3.964,1.942-3.715s-.256,1.6-.256,1.6c2.029-1.011,3.746-2.11,4.052-.762s-2.528,3.378-3.29,3.883S123.34,132.888,123.34,132.888Z" transform="translate(-46.344 -48.521)"/><path class="g" d="M86.9,157.956c-.106.562,4.108,1.011,4.951,1.18s1.742-6.942,1.91-8.041c.624,5.232,1.155,7.648,1.748,7.648s12.536-4.27,12.486-5.2-3.378-7.423-3.378-7.423c3.459,1.349,7.767.587,8.272-9.7-1.692-1.1-3.378-1.6-3.627-1.436s-.93,6.331-2.616,6.412-5.569-3.122-9.87-1.686S87.916,144.514,86.9,157.956Z" transform="translate(-32.653 -50.701)"/><path class="c" d="M95.7,136.656c-.337-1.436-.337-2.784-1.011-2.866a5.581,5.581,0,0,1-4.7-5.275c-.418-4.37,5.8-6.537,7.317-4.514s2.7,5.488,1.18,7.929c-1.18,1.523-.25,2.11,0,3.546S96.125,137.586,95.7,136.656Z" transform="translate(-33.807 -46.302)"/><path class="d" d="M134,117.317c1.011,1.249,2.1,1.873,2.1,2.7.087,1.873-5.819,8.94,2.366,11.132,6.243,1.673,7.255-3.964,7.086-7.167s-6.5-4.3-6.162-4.895c.506-3.122.674-3.54.087-3.54S134.262,116.643,134,117.317Z" transform="translate(-50.349 -43.414)"/><path class="h" d="M131.45,140.243c2.447-1.436,8.179-7.76,9.446-8.522s2.872,5.313-.755,8.435S132.124,142.178,131.45,140.243Z" transform="translate(-49.391 -49.464)"/><path class="d" d="M152.515,91.7c1.517-.506,9.365-3.122,9.989-3.315s.843,1.8,1.011,3.122.112,1.461-1.523,2.023-7.136,2.366-7.985,2.535-1.011-.337-1.249-1.292S151.954,91.978,152.515,91.7Z" transform="translate(-57.214 -33.202)"/><path class="e" d="M179.767,86.819c.4-2.273-4.22-3.434-4.895,0S179.205,90.022,179.767,86.819Z" transform="translate(-65.68 -31.808)"/><path d="M157.072,104.754a7.492,7.492,0,0,0,3.346-.843c1.548-.693,3.072-1.417,4.639-2.073a48.011,48.011,0,0,1,4.813-1.873,23.3,23.3,0,0,0,4.483-1.486c.356-.194.037-.73-.318-.543a19.872,19.872,0,0,1-4.327,1.43,29.586,29.586,0,0,0-3.815,1.448c-1.349.574-2.728,1.08-4.052,1.7-1.548.724-3,1.661-4.77,1.617a.312.312,0,0,0,0,.624Z" transform="translate(-58.899 -36.782)"/><path d="M159.669,112.568c3.234-1.461,6.674-2.36,9.989-3.683.368-.15.206-.749-.169-.624-3.334,1.336-6.824,2.26-10.108,3.746-.368.169-.05.705.312.543Z" transform="translate(-59.823 -40.668)"/><path d="M178.906,107.264a34.014,34.014,0,0,0,4.639-1.349c.375-.144.212-.743-.162-.624a35.2,35.2,0,0,1-4.639,1.349C178.351,106.727,178.513,107.326,178.906,107.264Z" transform="translate(-67.073 -39.554)"/><path d="M161.558,120.052c1.6-1.043,3.6-1.1,5.313-1.873.368-.162.05-.7-.312-.537-1.729.762-3.708.812-5.313,1.873-.337.219,0,.762.312.543Z" transform="translate(-60.532 -44.188)"/><path d="M163.893,125.3a40.718,40.718,0,0,0,7.592-2.429c2.735-1.043,5.569-1.754,8.353-2.635.381-.119.219-.724-.162-.624-2.616.824-5.282,1.48-7.848,2.447a44.491,44.491,0,0,1-8.116,2.61c-.4.069-.231.674.162.624Z" transform="translate(-61.425 -44.936)"/><path d="M164.514,132.025c1.592-.706,3.29-1.049,4.926-1.629,1.761-.624,3.415-1.486,5.207-2.048a.323.323,0,0,0-.162-.624c-1.792.568-3.471,1.355-5.213,2.054s-3.427.961-5.069,1.692c-.368.162-.05.7.312.537Z" transform="translate(-61.633 -47.983)"/><path d="M166.873,139.084c1.086-.905,2.635-1.018,3.939-1.442,1.448-.462,2.872-1.018,4.277-1.6.368-.15.206-.755-.169-.624a47.615,47.615,0,0,1-5.188,1.873,8.062,8.062,0,0,0-3.3,1.317c-.312.262.131.7.437.443Z" transform="translate(-62.494 -50.871)"/><path d="M167.9,142.622a14.183,14.183,0,0,1,4.008-1.473c1.38-.406,2.784-.955,4.17-1.455a38.2,38.2,0,0,0,7.492-3.4c.343-.212.031-.749-.312-.537-2.635,1.636-5.525,2.535-8.366,3.746-2.36.993-5.176,1.18-7.323,2.6-.337.225,0,.762.312.537Z" transform="translate(-62.906 -50.988)"/><path d="M169.246,153.58c2.728-1.4,5.694-2.26,8.441-3.627.356-.181.044-.718-.318-.543-2.747,1.374-5.706,2.229-8.435,3.627-.362.187-.044.724.312.543Z" transform="translate(-63.413 -56.121)"/><path d="M195.091,267.078a1.53,1.53,0,0,1-.843-.219c-.674-.412-.855-1.355-.918-2.635l.624-.031c.044.936.156,1.873.624,2.135s1.161.125,2.31-.381A57.509,57.509,0,0,0,203.7,262.6c1.249-.849,1.767-1.423,1.555-3.746l.624-.056c.231,2.535-.35,3.353-1.823,4.37a55.717,55.717,0,0,1-6.9,3.4A5.307,5.307,0,0,1,195.091,267.078Z" transform="translate(-72.638 -97.23)"/><path d="M97.422,122.75c-.081-2.023-5.082-1.786-8.01,1.7a2.366,2.366,0,0,0-.293,2.341,2.017,2.017,0,0,0-.624,1.355c-.144,2.235,1.423,5.294,4.008,4.451a4.939,4.939,0,0,0-.624-1.392c-2.029.4-2.029-2.6-.362-1.6,1.024.225-.724-2.5.624-3.708C94.3,123.842,97.51,124.773,97.422,122.75Z" transform="translate(-33.25 -45.638)"/><path class="d" d="M221.562,145.561c-1.18,3.471-.936,9.053,5.082,11.619s25.972,1.842,30.81-2.441c3.777-3.34,2.529-8.609.231-12.855C253.79,134.686,225.283,134.829,221.562,145.561Z" transform="translate(-83.033 -51.443)"/><path class="b" d="M275.316,271.34c2.379-2.866,9.14-12.424,3.5-22.856-6.524-1.349-9.989-4.72-11.132-5.057s-4.857,3.234-9.989,4.046c-16.42,2.591-17.8,10.426-17.849,10.457-3.914-1.617-9.746-1.729-18.817,3.49-14.9,8.578-17.512,10.351-19.291,11.812.256.4.712,1.08,1.311,1.942-.9.624-2.091.88-1.985,1.43s11.1,18.105,14.628,21.445A21.534,21.534,0,0,0,217.267,300c2.36,2.5,25.416-5.619,33.626-9.452s26.658-12.823,25.647-15.745C276.178,273.743,275.747,272.539,275.316,271.34Z" transform="translate(-75.542 -91.446)"/><path d="M218.938,300.571h0a2.9,2.9,0,0,1-2.091-.556,21.788,21.788,0,0,1-1.592-1.985c-3.559-3.34-14.559-20.952-14.684-21.564s.481-.874,1.111-1.186c.237-.112.493-.243.743-.393-.524-.749-.911-1.33-1.136-1.692a.312.312,0,0,1,.069-.406c1.773-1.442,4.32-3.228,19.273-11.862,5.207-3,9.864-4.52,13.835-4.52a13.736,13.736,0,0,1,4.945.887c.624-1.873,3.827-8.116,17.993-10.351A21.544,21.544,0,0,0,264.75,244c1.33-.762,2.235-1.249,2.8-1.093a7.367,7.367,0,0,1,1.523.874,26.222,26.222,0,0,0,9.583,4.177.312.312,0,0,1,.212.162c5.656,10.464-1.024,20.128-3.415,23.062.431,1.136.837,2.3,1.186,3.3,1.011,2.928-13.473,10.389-25.809,16.132C243.336,294.147,225.143,300.571,218.938,300.571ZM201.969,273.1c.256.4.624.98,1.149,1.692a.312.312,0,0,1-.075.431,7.489,7.489,0,0,1-1.086.624c-.275.137-.793.393-.774.506.275.718,11.025,17.962,14.534,21.271a21.449,21.449,0,0,0,1.586,1.967c.131.137.512.362,1.636.362,6.018,0,24.348-6.493,31.634-9.877,16.114-7.492,26.115-13.535,25.478-15.364-.362-1.049-.787-2.273-1.249-3.452a.3.3,0,0,1,.05-.312c2.21-2.66,8.978-12.13,3.534-22.376a27.3,27.3,0,0,1-9.658-4.239,7.849,7.849,0,0,0-1.361-.805h-.075a7.473,7.473,0,0,0-2.241,1.049A22.745,22.745,0,0,1,257.5,247.6c-14.7,2.316-17.225,8.878-17.581,10.17a.431.431,0,0,1-.15.237.293.293,0,0,1-.287,0,13.074,13.074,0,0,0-4.995-.961c-3.865,0-8.41,1.492-13.523,4.439C206.632,269.736,203.729,271.671,201.969,273.1Z" transform="translate(-75.352 -91.247)"/><path d="M203.794,294.247c1.573,2.847,3.889,5.338,5.8,7.96,2.385,3.259,4.7,6.58,6.836,9.989.212.337.755,0,.543-.318-2.035-3.259-4.233-6.424-6.493-9.533-2.023-2.778-4.489-5.419-6.15-8.428-.194-.356-.737-.037-.537.312Z" transform="translate(-76.553 -110.364)"/><path d="M262.705,266.681c2.984,2.934,5.719,6.093,8.4,9.3s5.75,6.437,8.054,9.989c.219.337.762,0,.537-.318-2.235-3.446-5.163-6.512-7.785-9.671a129.547,129.547,0,0,0-8.74-9.739c-.287-.287-.73.156-.443.437Z" transform="translate(-98.673 -99.992)"/><path d="M2.6,241.337c-.681,2.541-.069,5.238.693,7.685a51.432,51.432,0,0,0,5.063,10.695c4.632,7.841,10.539,14.984,15.951,22.3,4.62,6.243,9.221,12.486,14.135,18.5,3.471,4.252,7.186,8.322,10.882,12.386,4.314,4.745,8.684,9.446,13.111,14.053,2.722,2.809,5.438,5.862,8.74,7.979,10.707,6.824,24.167-1.174,34.069-5.819q17.887-8.378,35.655-17.019c.362-.175.044-.718-.318-.543Q128.1,317.6,115.611,323.535c-6.093,2.9-12.193,5.781-18.324,8.6-6.387,2.941-13.735,5.887-20.9,4.314-3.977-.874-7.011-3.421-9.839-6.187-4.108-4.027-8.029-8.247-11.943-12.486-4.2-4.57-8.422-9.209-12.53-13.941-4.3-4.945-8.272-10.164-12.205-15.408-5.881-7.829-11.906-15.608-17.481-23.649a73.757,73.757,0,0,1-7.273-12.686c-1.374-3.153-2.841-7.117-1.91-10.613a.323.323,0,0,0-.624-.169Z" transform="translate(-0.875 -90.568)"/><path d="M382.44,258.679c3.184.037,6.455-1.386,9.365-2.535,4.6-1.835,9.065-4.014,13.473-6.243,7.192-3.677,14.615-7.454,21.227-12.118.331-.231,0-.768-.312-.537-6.424,4.52-13.61,8.179-20.571,11.775-4.37,2.266-8.834,4.433-13.4,6.312-2.991,1.249-6.462,2.784-9.764,2.747a.312.312,0,1,0,0,.624Z" transform="translate(-143.57 -89.111)"/><path class="h" d="M299.669,267.209c-2.7-.231-8.778,1.573-11.587.443s.674-3.371,4.164-3.034,6.524-1.573,2.5-2.585-11.475.112-7.76-3.49a4.259,4.259,0,0,1,4.164-2.5c1.461-4.052,12.143,1.8,16.195,1.461C310.339,262.82,310.339,266.416,299.669,267.209Z" transform="translate(-107.443 -95.656)"/><path class="c" d="M299.268,153.187c-5.107,2.7-9.109,10.12-9.814,14.322s-.443,5.737-1.692,5.831c-1.873.137-3.559-.056-4.008,1.1-.818,2.1,2.6,2.285,2.5,4.888s-2.2,11.918-.3,17.924,5.4,9.015,10.395,9.914,7.411-2,7.91,3.309,1.6,15.72,1.6,15.72l20.328-4.807-3.9-16.857S331.514,149.385,299.268,153.187Z" transform="translate(-106.561 -57.482)"/><path d="M317.62,257.818c.187,3.309.787,6.749.393,10.058-.044.4.581.4.624,0,.393-3.309-.206-6.749-.393-10.058A.312.312,0,0,0,317.62,257.818Z" transform="translate(-119.331 -96.748)"/><path d="M306.93,148.922c1.5,0,5.2,1.143,5.4,3.646-2.2,4.907-1.2,9.015,2.7,11.718s6.212,5.207,1.4,9.515-4.907,9.714.9,13.516,7.211,5.107,4.807,10.114-5.725,9.6-.862,15.439c4.726-3.471,9.365-3.821,13.679-3.421s7.011,0,9.615-5.107,8.116-2.9,12.418-1.6,6.512-.306,8.616-5.313,6.106-4.2,9.009-4.907,3.908-8.31,6.512-9.408c-4.008-3.309-5.981-.574-8.285-3.178s.7-8.116-2.5-11.812-8.116.749-9.3-2.354,5.369-6.393-1.442-14.1-12.018-1.7-16.526-7.492S317.244,137.11,306.93,148.922Z" transform="translate(-115.315 -52.556)"/><path d="M300.856,167.666a4.532,4.532,0,0,1,3.939,3.2.278.278,0,0,0,.537-.144,5.059,5.059,0,0,0-4.476-3.615.281.281,0,0,0,0,.556Z" transform="translate(-112.944 -62.784)"/><path d="M288.236,204.215a4.208,4.208,0,0,0,3.359,1.093,7.371,7.371,0,0,0,3.477-2.116c.275-.231-.125-.624-.393-.393-1.817,1.555-3.821,2.934-6.05,1.024C288.361,203.591,287.968,203.984,288.236,204.215Z" transform="translate(-108.259 -76.165)"/><path d="M300.987,183.842c-.181,1.192-.905,2.066-1.617,1.954s-1.136-1.161-.955-2.347.911-2.066,1.617-1.954S301.174,182.655,300.987,183.842Z" transform="translate(-112.101 -68.184)"/><path d="M256.681,281.991c-.78.443-3.371-.337-6.075-1.579-.031-.05-.081-.1-.131-.169-2-2.3-17.269-17.481-20.222-21.764a.468.468,0,0,1-.037-.081c-1.754-3.234,5.45-6.424,7.236-4.645s16.532,21.04,17.656,22.163a3.428,3.428,0,0,1,.487.668C256.549,278.245,257.355,281.6,256.681,281.991Z" transform="translate(-86.393 -95.142)"/><path class="d" d="M230.216,258.4c-1.754-3.234,5.45-6.424,7.236-4.645C238.638,256.131,232.682,260.989,230.216,258.4Z" transform="translate(-86.393 -95.142)"/><path class="d" d="M269.036,296.037c-.78.443-3.371-.337-6.075-1.58-.031-.05-.081-.1-.131-.169a4.545,4.545,0,0,0,5.119-3.659C268.9,292.291,269.71,295.65,269.036,296.037Z" transform="translate(-98.748 -109.188)"/><path class="c" d="M235.3,291.677c.112-4.37,1.873-12.574,5.812-14.147,1.648,1.679,2.716,2.828,2.716,2.828a2.873,2.873,0,0,0,3.958,3.671c2.248-1.124,3.122-4.052,5.737-4.37s1.461,2.36-.337,5.513-4.27,6.637-7.648,7.423C241.936,293.363,235.737,293.475,235.3,291.677Z" transform="translate(-88.405 -104.267)"/><path class="g" d="M242.059,299.793a64.343,64.343,0,0,0-1.249-15.3c-.674-2.7-5.85-6.075-12.037-.337s-12.711,38.015-6.524,46.562,18.392,8.016,25.816,1.149c10.72-9.92,21.782-20.509,22.794-21.077s-1.811,29.711.1,33.876c14.06,3.708,74.2-5.513,75.324-6.974s2.7-12.93-7.317-36.548c8.89-.805,13.735-6.643,6.6-20.684-5.794-11.375-14.241-17.481-26.952-20.94-17.581-4.782-32.7-.9-47.1,10.576S243.969,296.984,242.059,299.793Z" transform="translate(-82.565 -96.75)"/><path d="M287.936,260.984c1.5-.687,3.221-.362,4.782-.087a12.293,12.293,0,0,1,4.5,1.5c.343.212.624-.331.318-.543a15.031,15.031,0,0,0-5.619-1.723,7.348,7.348,0,0,0-4.308.318c-.368.169-.05.705.312.537Z" transform="translate(-107.996 -97.66)"/><path d="M291.5,257.546a11.063,11.063,0,0,1,5.457.137,19.91,19.91,0,0,1,4.433,1.767.312.312,0,0,0,.312-.537,21.468,21.468,0,0,0-5.126-1.979,10.7,10.7,0,0,0-5.238,0c-.393.075-.225.68.162.624Z" transform="translate(-109.372 -96.407)"/><path d="M238.712,335.546c1.679-3.178,4.564-5.563,6.818-8.328,1.03-1.249,2.017-2.5,3.122-3.708,1.249-1.317,2.666-2.447,3.833-3.84.256-.306-.181-.755-.443-.443-1.167,1.392-2.566,2.547-3.833,3.84s-2.347,2.753-3.484,4.152c-2.185,2.672-4.932,4.932-6.568,8.016-.187.356.356.668.543.312Z" transform="translate(-89.464 -119.891)"/><path d="M398.033,297.646c2.191,3.221,3.459,7.448,4.92,11.075,1.249,3.084,2.866,6.306,3.59,9.571.087.393.687.225.624-.169-.749-3.365-2.429-6.693-3.715-9.877-1.442-3.59-2.678-7.723-4.857-10.919-.225-.331-.762,0-.537.318Z" transform="translate(-149.53 -111.652)"/><path d="M233.131,257.583c.762,1.517,4.22-.424,3.29-1.686S232.2,256.653,233.131,257.583Z" transform="translate(-87.529 -95.988)"/><path d="M271.111,294.52c-.45,1.186-1.5,2.578-2.441,2.753a4.122,4.122,0,0,0,2.56.225C271.648,297.261,271.5,295.912,271.111,294.52Z" transform="translate(-100.942 -110.649)"/><path d="M290.322,290.6c5.207-1.492,9.2,2.029,12.162,5.931,3.253,4.277,4.1,9.477,3.359,14.709-.056.393.543.568.624.169.805-5.619-.162-11.132-3.746-15.658-3.122-3.946-7.211-7.267-12.486-5.756a.323.323,0,0,0,.162.624Z" transform="translate(-108.953 -108.81)"/><path d="M306.05,280.919c.949-2.372,3.221-4.164,4.87-6.056a41.358,41.358,0,0,1,5.663-5.044c.318-.256-.131-.693-.443-.443A48.7,48.7,0,0,0,309.8,275.2c-1.561,1.754-3.459,3.328-4.37,5.55C305.276,281.125,305.882,281.287,306.05,280.919Z" transform="translate(-114.741 -101.175)"/><path d="M300.213,340.151a27.641,27.641,0,0,1,3.3-2.853c1.386-1.1,2.672-2.3,4.039-3.421.306-.256-.137-.7-.443-.443-1.249,1.018-2.454,2.073-3.665,3.122a40.2,40.2,0,0,0-3.671,3.122c-.268.3.169.743.443.443Z" transform="translate(-112.594 -125.24)"/><path d="M311.858,345.672c0,4.089-.044,8.185,0,12.274s.437,8.041.456,12.074a.312.312,0,0,0,.624,0c0-4.033-.368-8.047-.456-12.074s0-8.185,0-12.274a.312.312,0,1,0-.624,0Z" transform="translate(-117.16 -129.749)"/><path d="M239.285,115.616c-2.778-8.915-6.025-17.712-9.146-26.515-2.99-8.41-6.474-16.782-8.74-25.428a7.074,7.074,0,0,1-.169-.787c-.119-.8-1.324-.456-1.2.331a29.635,29.635,0,0,0,1.367,4.726c.868,2.691,1.792,5.357,2.722,8.022,1.423,4.089,2.9,8.154,4.37,12.224,3.234,8.971,6.387,17.987,9.365,27.045l.225.712c.243.768,1.448.437,1.2-.331Z" transform="translate(-82.664 -23.458)"/><path class="g" d="M207.673,42.528c2.135-1.349,5.176-2.135,7.2-1.011s5.962,5.962,4.5,10.913-6.412,3.371-8.441,2.135S204.751,45.007,207.673,42.528Z" transform="translate(-77.647 -15.399)"/><path d="M217.905,30.6a49.825,49.825,0,0,1,5.494-4.189c3.477-2.547,6.98-5.057,10.489-7.567,5.619-4.008,11.238-7.985,16.857-11.993.624-.462,0-1.542-.624-1.074C244.42,9.851,238.7,13.9,233,17.967c-3.484,2.5-6.961,4.995-10.42,7.529a50.471,50.471,0,0,0-5.538,4.227c-.574.562.306,1.442.887.88Z" transform="translate(-81.474 -2.132)"/><path class="f" d="M273.984,31.145c-3.552.431-9.109,1.58-9,7.76s.568,6.524-1.686,7.985-11.019,9.677-9.221,18.224,15.97,12.486,29.131,9.109,16.307-9.109,15.408-14.172-4.726-13.273-9.989-14.984c-4.951-1.573-4.37-1.91-5.063-6.637S280.508,30.39,273.984,31.145Z" transform="translate(-95.368 -11.664)"/><path d="M276.994,8.557c1.561,5.569,4.17,10.863,5.394,16.532.175.787,1.373.456,1.2-.331-1.249-5.669-3.84-10.963-5.4-16.532a.624.624,0,0,0-1.2.331Z" transform="translate(-104.065 -2.942)"/><path d="M208.452,44.637c2.06-.112,3.683,2.685,4.476,4.258.624,1.249,2.273,6.093-.062,6.605-.393.087-.225.687.169.624,2.441-.537,1.5-4.489,1.024-6.062-.674-2.216-2.847-6.181-5.619-6.025a.312.312,0,0,0,0,.624Z" transform="translate(-78.202 -16.546)"/><path d="M223.314,150.941c1.167,7.823,12.024,7.629,18.018,7.354A43.11,43.11,0,0,0,254.486,156c3.009-1.149,4.339-3.927,4.489-6.986a.312.312,0,0,0-.624,0c-.187,3.8-2.191,5.937-5.762,6.924a53.155,53.155,0,0,1-11.806,1.754,32.44,32.44,0,0,1-10.526-.88,11.593,11.593,0,0,1-4.745-2.379,5.8,5.8,0,0,1-1.6-3.659c-.056-.4-.662-.231-.624.162Z" transform="translate(-83.892 -55.874)"/><path class="d" d="M270.408,2.618c.624,3.184,2.248,4.832,4.945,3.6s1.124-3.933-.112-5.394S269.84-.191,270.408,2.618Z" transform="translate(-101.575 -0.006)"/><path d="M271.3,1.673c1.667-.73,4.42,2.541,3.221,4.008-.256.306.181.755.437.443,1.679-2.054-1.629-6.018-3.977-4.995-.368.162-.05.7.318.543Z" transform="translate(-101.749 -0.366)"/><path d="M274.965,36.705c-.562,3.028,3.047,3.677,5.307,3.808,3.122.187,7.56-.431,9.433-3.228.225-.337-.318-.624-.537-.318-1.586,2.366-5.126,2.816-7.748,2.934-1.873.081-6.387-.169-5.856-3.028.075-.393-.531-.562-.624-.169Z" transform="translate(-103.285 -13.709)"/><path d="M271.729,55.53c.075,3.659,4.108,4.52,7,4.67,4.152.219,8.372-.393,10.9-4.058.231-.337-.312-.624-.537-.318-2.129,3.084-5.725,3.883-9.265,3.8-2.722-.069-7.4-.35-7.492-4.1a.312.312,0,0,0-.624,0Z" transform="translate(-102.084 -20.752)"/></g></g></svg>