<svg xmlns="http://www.w3.org/2000/svg" width="137.5" height="133.985" viewBox="0 0 137.5 133.985"><defs><style>.a{fill:#d9eff7;}.b{fill:#263238;}.c{fill:#4741a6;}.d{fill:#407bff;}.e{fill:#b5715a;}.f{fill:#884c3b;}.g{fill:#455a64;}.h{fill:#9bbbfc;}.i{fill:#f9ce69;}.j{opacity:0.3;}.k{fill:#e0e0e0;}.l{fill:#c8c8c8;}.m{fill:#fff;}.n{fill:none;}</style></defs><g transform="translate(-28.015 -31.33)"><g transform="translate(28.015 31.33)"><path class="a" d="M415.457,112.3l-.365.036a8.281,8.281,0,0,0-6.919,5.052,8.117,8.117,0,0,0-.362,1.123,8.691,8.691,0,0,0,2.159,7.918c1.172,1.208,2.739,2.156,3.385,3.708.84,2.02-.184,4.27-1.19,6.2s-2.023,4.18-1.175,6.194a5.384,5.384,0,0,0,2.993,2.691,10.577,10.577,0,0,0,10.268-1.67,16.4,16.4,0,0,0,5.533-9.06,19.639,19.639,0,0,0-1.758-14.71A14.932,14.932,0,0,0,415.457,112.3Z" transform="translate(-292.961 -87.846)"/><path class="a" d="M42.986,128.518l.3.075a7.036,7.036,0,0,1,5.161,5.134,6.836,6.836,0,0,1,.16.991,7.384,7.384,0,0,1-2.833,6.372c-1.139.873-2.576,1.459-3.322,2.679-.963,1.588-.393,3.609.2,5.354s1.166,3.769.193,5.354a4.579,4.579,0,0,1-2.86,1.872,8.974,8.974,0,0,1-8.4-2.718,13.929,13.929,0,0,1-3.482-8.32,16.7,16.7,0,0,1,3.367-12.125A12.678,12.678,0,0,1,42.986,128.518Z" transform="translate(-28.015 -99.07)"/><circle class="a" cx="5.647" cy="5.647" r="5.647" transform="translate(87.589)"/><circle class="a" cx="5.647" cy="5.647" r="5.647" transform="translate(4.915 99.448) rotate(-77.22)"/></g><g transform="translate(44.366 38.53)"><path class="b" d="M356.332,93.759c.027.033-3.736,3.141-8.4,6.946s-8.474,6.846-8.5,6.813,3.733-3.138,8.4-6.946S356.3,93.726,356.332,93.759Z" transform="translate(-261.736 -82.105)"/><path class="b" d="M365.779,243.312c-.015.042-4.883-1.7-10.872-3.893s-10.845-4-10.817-4.041,4.883,1.7,10.872,3.893S365.806,243.273,365.779,243.312Z" transform="translate(-264.989 -180.956)"/><path class="b" d="M82.16,123.159c.021-.039,5.267,2.718,11.711,6.179s11.66,6.284,11.639,6.321-5.264-2.718-11.711-6.182S82.139,123.2,82.16,123.159Z" transform="translate(-82.16 -102.627)"/><path class="b" d="M88.42,254.863c0-.042,4.294-1.7,9.622-3.7s9.664-3.588,9.679-3.548-4.291,1.694-9.622,3.7S88.435,254.9,88.42,254.863Z" transform="translate(-86.529 -189.5)"/><path class="c" d="M197.052,180.458a26.219,26.219,0,1,1,26.216-26.218A26.22,26.22,0,0,1,197.052,180.458Zm0-52.133a25.92,25.92,0,1,0,0-.009Z" transform="translate(-144.052 -106.02)"/><path class="c" d="M214.03,136.872s0-.181-.021-.538c0-.178,0-.4-.021-.661s0-.568-.045-.906-.06-.731-.094-1.157-.112-.888-.175-1.392c-.142-1-.359-2.153-.673-3.431a33.1,33.1,0,0,0-1.359-4.177,31.959,31.959,0,0,0-2.3-4.663,33.543,33.543,0,0,0-8.417-9.4,32.573,32.573,0,0,0-6.321-3.778,32.244,32.244,0,0,0-7.61-2.416,33.63,33.63,0,0,0-12.962.148,35.5,35.5,0,0,0-4.421,1.262,33.159,33.159,0,0,0-15.374,11.53,32.808,32.808,0,0,0-2.7,4.34c-.19.387-.4.761-.574,1.157l-.535,1.181c-.32.806-.649,1.613-.906,2.443a32.126,32.126,0,0,0-1.259,5.143,35.46,35.46,0,0,0-.435,5.321,35.867,35.867,0,0,0,.432,5.324,32.043,32.043,0,0,0,1.259,5.116c.263.833.6,1.64.906,2.446l.535,1.181c.169.4.387.773.577,1.157a32.313,32.313,0,0,0,2.694,4.343,33.171,33.171,0,0,0,15.378,11.533,35.4,35.4,0,0,0,4.436,1.25,33.618,33.618,0,0,0,12.962.148,33.08,33.08,0,0,0,13.916-6.182,33.479,33.479,0,0,0,8.408-9.407,31.961,31.961,0,0,0,2.3-4.663,33.1,33.1,0,0,0,1.359-4.161c.3-1.277.532-2.416.673-3.428.063-.5.133-.966.175-1.392s.063-.812.094-1.16.039-.649.045-.906.015-.483.021-.661a5.193,5.193,0,0,1,.021-.538v1.2a7.574,7.574,0,0,1-.039.906c-.039.335-.054.734-.085,1.16s-.106.891-.166,1.4c-.139,1.006-.353,2.156-.661,3.437a33.092,33.092,0,0,1-1.35,4.174,31.748,31.748,0,0,1-2.3,4.681,33.546,33.546,0,0,1-8.417,9.449,33.118,33.118,0,0,1-22.541,6.7,32.449,32.449,0,0,1-4.451-.619,34.649,34.649,0,0,1-4.448-1.265,33.28,33.28,0,0,1-15.453-11.575,32.917,32.917,0,0,1-2.718-4.361c-.19-.387-.408-.764-.58-1.163s-.356-.791-.538-1.187c-.32-.809-.652-1.619-.906-2.455a32.06,32.06,0,0,1-1.265-5.134,33.087,33.087,0,0,1,0-10.694,32.438,32.438,0,0,1,1.268-5.134c.263-.837.6-1.646.906-2.455.181-.4.359-.791.538-1.187s.387-.773.58-1.163a32.77,32.77,0,0,1,2.718-4.358,33.286,33.286,0,0,1,15.45-11.575,35.164,35.164,0,0,1,4.442-1.28,33.89,33.89,0,0,1,13.013-.139,32.238,32.238,0,0,1,7.634,2.416,32.615,32.615,0,0,1,6.342,3.8,33.56,33.56,0,0,1,8.42,9.449,32.049,32.049,0,0,1,2.3,4.681,33.1,33.1,0,0,1,1.35,4.174c.3,1.28.522,2.434.661,3.44.06.5.124.966.166,1.392s.06.815.085,1.163.036.649.039.906,0,.483,0,.661C214.033,136.691,214.03,136.872,214.03,136.872Z" transform="translate(-127.886 -89.027)"/><path class="c" d="M170.095,160.649v-.3a38.154,38.154,0,1,0-38.163-38.157l-.3,0a38.456,38.456,0,1,1,38.456,38.457Z" transform="translate(-116.69 -75.112)"/><path class="c" d="M257.67,169.151v-1.51a32.386,32.386,0,1,0,0-64.772v-1.51a33.9,33.9,0,1,1,0,67.791Z" transform="translate(-204.667 -87.411)"/><path class="c" d="M207.747,120.8h-1.51a37.549,37.549,0,1,0-75.1,0H129.63a39.058,39.058,0,0,1,78.117,0Z" transform="translate(-115.294 -73.716)"/><path class="c" d="M159.354,156.454a43.517,43.517,0,0,1,0-87.034v1.51a42.007,42.007,0,1,0,42,42.007h1.51A43.554,43.554,0,0,1,159.354,156.454Z" transform="translate(-105.669 -65.117)"/><path class="d" d="M255.908,373.832h-.758v-.3h.755Z" transform="translate(-202.908 -277.387)"/><path class="c" d="M142.393,151.79c-.5-.039-1.018-.088-1.51-.145l.033-.3c.5.054,1.012.1,1.51.142Zm-4.53-.565c-.5-.088-1.012-.184-1.51-.287l.063-.3c.489.1.991.2,1.492.287Zm-4.479-1.006c-.486-.133-.981-.278-1.468-.429l.091-.3c.483.151.972.3,1.459.429Zm-4.364-1.431c-.477-.181-.954-.374-1.425-.571l.118-.278c.465.2.942.387,1.416.568Zm-4.225-1.83c-.456-.226-.906-.462-1.362-.7l.142-.266c.447.239.906.474,1.353.7Zm-4.013-2.238c-.432-.269-.867-.547-1.286-.827l.166-.254c.42.281.852.559,1.28.824ZM117,142.114c-.4-.3-.809-.625-1.208-.948l.193-.233c.39.317.791.634,1.193.939Zm-3.515-2.953c-.377-.347-.749-.7-1.108-1.057l.211-.214c.356.35.728.7,1.1,1.051Zm-3.219-3.286c-.338-.381-.676-.767-1-1.157l.233-.193c.323.387.658.773,1,1.151Zm-2.893-3.557c-.3-.414-.6-.83-.888-1.247l.248-.169c.284.411.58.827.882,1.235Zm-2.543-3.817c-.26-.432-.519-.879-.767-1.323l.275-.151c.245.441.5.882.758,1.314Zm-2.168-4.038c-.22-.459-.435-.927-.637-1.389l.278-.121c.2.459.414.924.631,1.38Zm-1.773-4.228c-.175-.477-.344-.963-.5-1.444l.3-.1c.157.48.323.963.5,1.437Zm-1.365-4.382c-.127-.492-.248-.991-.359-1.486l.3-.066c.109.492.23.988.356,1.477Zm-.924-4.488c-.079-.5-.151-1.009-.217-1.51l.3-.036c.063.5.136,1.009.214,1.51Zm-.516-4.572c-.033-.5-.057-1.021-.072-1.528h.3c0,.5.039,1.015.072,1.51Zm.214-4.566H98c.018-.51.042-1.024.072-1.531l.3.021C98.353,101.209,98.332,101.719,98.3,102.226Zm.356-4.548-.3-.036c.063-.5.136-1.015.214-1.51l.3.048c-.066.492-.139,1-.2,1.5Zm.785-4.491-.3-.066c.112-.5.233-1,.359-1.486l.3.076c-.118.486-.239.984-.347,1.492Zm1.208-4.4-.287-.094c.16-.483.329-.969.5-1.45l.284.1c-.16.477-.329.963-.486,1.441Zm1.631-4.267L102,84.4c.205-.465.42-.933.637-1.4l.275.13c-.208.459-.42.924-.622,1.386Zm2.029-4.092-.263-.145q.371-.67.767-1.329l.257.157c-.248.432-.5.876-.749,1.317Zm2.416-3.875-.251-.172c.3-.417.589-.837.891-1.247l.242.178c-.293.408-.592.824-.876,1.241Zm2.763-3.624-.23-.2c.326-.387.664-.776,1-1.157l.223.2c-.329.371-.664.758-.991,1.145Zm3.1-3.352-.211-.214c.359-.353.734-.71,1.105-1.057l.205.223c-.365.338-.734.692-1.093,1.042Zm3.4-3.041-.19-.236c.393-.32.8-.637,1.208-.945l.184.242c-.4.3-.806.616-1.2.933Zm3.666-2.718-.166-.251c.417-.281.852-.559,1.283-.827l.16.257c-.426.272-.855.55-1.271.827Zm3.911-2.328-.142-.269c.447-.239.906-.474,1.356-.7l.136.272C124.461,61.01,124.008,61.243,123.561,61.494Zm4.11-1.963-.118-.278c.468-.2.945-.39,1.416-.568l.109.281c-.468.169-.942.359-1.407.556Zm4.279-1.561-.091-.287c.486-.151.981-.3,1.468-.432l.082.3c-.486.115-.981.257-1.459.408Zm4.4-1.154-.06-.3c.5-.106,1-.2,1.51-.3l.054.3C137.362,56.616,136.857,56.713,136.353,56.816Zm4.5-.719-.033-.3c.5-.057,1.018-.106,1.51-.145l.024.3c-.48.039-.991.106-1.492.145Z" transform="translate(-93.216 -55.505)"/><path class="d" d="M255.16,55.472v-.3h.758v.3Z" transform="translate(-202.915 -55.17)"/></g><g transform="translate(42.711 65.403)"><path class="b" d="M79.25,401.993s2.026,1.311,2.963,1.265,4.617-4.608,4.617-4.608l-1.918-1.45-4.723.782-.933,3.968" transform="translate(-78.473 -320.783)"/><path class="b" d="M191.842,191.46a9.4,9.4,0,0,1-2.135,8.728c-.969,1.045-2.2,1.9-2.818,3.186-.679,1.425-.459,3.1-.761,4.654s-1.619,3.2-3.129,2.827a14.1,14.1,0,0,0,5.937,4.717,42.1,42.1,0,0,0,7.317,2.3,6.92,6.92,0,0,0,4.2.148c1.712-.686,2.564-2.567,3.249-4.279l5.973-14.921" transform="translate(-150.892 -177.175)"/><path class="e" d="M232.927,155.429a2.235,2.235,0,0,0-2.048-2.223l-10.53-4.832c-3.8-.32-7.6,6.484-7.755,10.295a63.288,63.288,0,0,0,.942,12.469c1.142,6.324,5.409,6.445,5.409,6.445l.362,10.232,13.215-.024Z" transform="translate(-171.525 -147.094)"/><path class="b" d="M221.85,197.5a.815.815,0,0,0,.8.8.779.779,0,0,0,.821-.752.812.812,0,0,0-.8-.8.776.776,0,0,0-.824.752Z" transform="translate(-178.009 -180.864)"/><path class="b" d="M218.376,191.63c.088.076.728-.027,1.582.163s1.444.553,1.546.519c.048-.015-.036-.136-.3-.3a3.962,3.962,0,0,0-1.229-.483,3.51,3.51,0,0,0-1.268-.06C218.434,191.515,218.331,191.606,218.376,191.63Z" transform="translate(-175.577 -177.158)"/><path class="b" d="M249.19,196.1a.815.815,0,0,0,.8.806.779.779,0,0,0,.821-.752.815.815,0,0,0-.8-.806.782.782,0,0,0-.824.752Z" transform="translate(-197.093 -179.888)"/><path class="b" d="M245.163,191.04c.127.03.679-.414,1.592-.679s1.67-.214,1.749-.3c.039-.042-.106-.118-.438-.145a4.074,4.074,0,0,0-1.425.169,3.624,3.624,0,0,0-1.241.6C245.16,190.9,245.1,191.031,245.163,191.04Z" transform="translate(-194.264 -176.091)"/><path class="b" d="M229.818,196.114a5.727,5.727,0,0,0-1.428-.227c-.223-.018-.435-.057-.477-.211a1.15,1.15,0,0,1,.136-.664c.2-.547.408-1.117.625-1.718a28.952,28.952,0,0,0,1.389-4.485,29.136,29.136,0,0,0-1.749,4.364c-.205.6-.4,1.178-.6,1.724a1.289,1.289,0,0,0-.1.882.562.562,0,0,0,.393.335,1.51,1.51,0,0,0,.38.042A5.322,5.322,0,0,0,229.818,196.114Z" transform="translate(-182.006 -175.324)"/><path class="f" d="M233.7,239.706a16.151,16.151,0,0,0,8.456-2.446s-1.863,4.669-8.223,4.21Z" transform="translate(-186.28 -209.144)"/><path class="f" d="M235.347,217.375A2.346,2.346,0,0,1,237,216.225a1,1,0,0,1,1,.528,1.582,1.582,0,0,1-.109,1.459,1.338,1.338,0,0,1-1.311.67,2.241,2.241,0,0,1-1.111-.686.776.776,0,0,1-.23-.3.526.526,0,0,1,.057-.459" transform="translate(-187.338 -194.457)"/><path class="b" d="M237.276,214.84c-.145,0-.127.945-.924,1.637s-1.812.6-1.812.743c0,.06.23.178.658.181a2.367,2.367,0,0,0,1.51-.565,2.072,2.072,0,0,0,.713-1.371C237.451,215.066,237.339,214.834,237.276,214.84Z" transform="translate(-186.867 -193.494)"/><path class="b" d="M242.981,177.831c.115.227.969,0,2,0s1.894.175,2.005-.054c.045-.109-.124-.3-.483-.5a3.476,3.476,0,0,0-3.053.036C243.1,177.514,242.933,177.722,242.981,177.831Z" transform="translate(-192.753 -167.04)"/><path class="b" d="M215.7,186.331c.2.2.942-.03,1.842-.063s1.667.094,1.839-.121c.072-.1-.051-.3-.39-.477a3.02,3.02,0,0,0-1.51-.3,2.978,2.978,0,0,0-1.459.438C215.718,186.029,215.619,186.237,215.7,186.331Z" transform="translate(-173.699 -172.919)"/><path class="b" d="M253.788,168.164c-.547-2.815-2.256-11.832-4.775-16.534s-5.4-6.559-8.193-7.248a6.4,6.4,0,0,0-6.088,1.54c-1.229,1.154-1.582,4.433-1.582,4.433s6.744,1.332,9.09,5.1a32.512,32.512,0,0,1,3.379,6.526l.906,2.383s.713,11.6.477,13.892l10.129,3.657C254.957,177.444,254.338,170.988,253.788,168.164Z" transform="translate(-185.897 -144.158)"/><path class="b" d="M217.768,151.827a5.834,5.834,0,0,0-5.762,4.134c-.6,1.975-.664,7.716-.664,7.716a36.827,36.827,0,0,1-.806-7.121,12.457,12.457,0,0,1,3.274-7.683c1.869-1.791,3.464-2.648,6.885-2.522,0,0-.489.972-1.332,2.289A5.307,5.307,0,0,0,217.768,151.827Z" transform="translate(-170.101 -145.681)"/><path class="e" d="M274.087,199.855a1.925,1.925,0,0,1,2.778-1.7,2.635,2.635,0,0,1,1.181,2.627c-.069,3.977-4.05,3.086-4.056,2.972C273.993,203.69,274.044,201.5,274.087,199.855Z" transform="translate(-214.403 -181.692)"/><path class="f" d="M278.093,205.071c.018,0,.069.051.187.106a.7.7,0,0,0,.516.021,1.714,1.714,0,0,0,.821-1.51,2.3,2.3,0,0,0-.178-1,.791.791,0,0,0-.51-.541.35.35,0,0,0-.414.181c-.054.112-.03.19-.051.2s-.085-.066-.048-.23a.423.423,0,0,1,.16-.248.525.525,0,0,1,.384-.094.972.972,0,0,1,.716.628,2.377,2.377,0,0,1,.22,1.114,1.8,1.8,0,0,1-1.042,1.7.743.743,0,0,1-.631-.118C278.1,205.167,278.081,205.077,278.093,205.071Z" transform="translate(-217.265 -184.498)"/><path class="g" d="M237.762,144.49c0,.03-.453.127-1.142.432a5.412,5.412,0,0,0-2.235,1.836,10.057,10.057,0,0,0-1.286,2.63c-.242.716-.362,1.172-.39,1.163a1.444,1.444,0,0,1,.054-.326c.042-.208.124-.5.23-.87a9.083,9.083,0,0,1,1.265-2.691,5.435,5.435,0,0,1,1.148-1.184,5.335,5.335,0,0,1,1.169-.661,4.164,4.164,0,0,1,.486-.172,2.78,2.78,0,0,1,.374-.1A1.251,1.251,0,0,1,237.762,144.49Z" transform="translate(-185.589 -144.39)"/><path class="g" d="M253.713,186.193a.362.362,0,0,1-.036-.085c-.024-.063-.051-.148-.091-.251a6.661,6.661,0,0,1-.26-1,13.412,13.412,0,0,1,0-3.769c.082-.794.2-1.661.272-2.591a12.592,12.592,0,0,0-.057-2.966,8.921,8.921,0,0,0-1.117-3.059,12.683,12.683,0,0,0-2.189-2.748A25.247,25.247,0,0,0,244.6,165.9c-1.842-1-3.545-1.866-4.892-2.718A35.1,35.1,0,0,1,236.626,161c-.35-.278-.6-.5-.791-.652l-.2-.175c-.042-.042-.066-.063-.063-.066l.076.054c.054.042.124.094.208.163l.812.628c.707.538,1.749,1.3,3.1,2.132s3.038,1.7,4.9,2.691a24.352,24.352,0,0,1,5.671,3.844,12.916,12.916,0,0,1,2.217,2.781,9.078,9.078,0,0,1,1.126,3.117,12.683,12.683,0,0,1,.042,3c-.082.936-.2,1.812-.3,2.588a14,14,0,0,0-.045,3.751,8.2,8.2,0,0,0,.23,1c.033.106.057.187.075.254a.546.546,0,0,1,.027.085Z" transform="translate(-187.585 -155.293)"/><path class="b" d="M84.11,394.773a.852.852,0,0,1,.236-.151,4.228,4.228,0,0,1,.71-.3,4.974,4.974,0,0,1,2.522-.136,5.052,5.052,0,0,1,2.262,1.12,4.228,4.228,0,0,1,.532.553c.115.145.166.229.157.236a8.377,8.377,0,0,0-.761-.7,5.188,5.188,0,0,0-4.678-.966C84.472,394.6,84.122,394.8,84.11,394.773Z" transform="translate(-81.866 -318.607)"/><path class="b" d="M98.56,388.92a2.1,2.1,0,0,1,.553.408,5.638,5.638,0,0,1,1.667,2.815,2.156,2.156,0,0,1,.094.679,7.671,7.671,0,0,0-2.313-3.9Z" transform="translate(-91.952 -315.004)"/><path class="c" d="M174.92,429.807s3.207-15.616,10.005-18.636l26.953-.791s8.906,5.964,10.331,19.515Z" transform="translate(-145.252 -329.983)"/><path class="h" d="M215.477,254.45a5.328,5.328,0,0,0,6.127,4.394c5.333-.6,7.42-3.585,7.42-3.585l7.411,2.377,1.166,14.336a63.31,63.31,0,0,0-6.946,26.53c-.06,1.549-.115,3.249-1.148,4.406a5.6,5.6,0,0,1-2.458,1.41,22.453,22.453,0,0,1-17.636-1.453s-2.265-24.528-1.987-25.222,3.986-21.33,3.986-21.33Z" transform="translate(-167.924 -221.143)"/><path class="i" d="M116.352,258.2s-4.711.332-5.973.963S92.6,280.514,91.957,280.831c-.525.263-10.355,9.4-14.411,18.24-.8,1.742-1.419,4.228-.1,5.877,0,0,4.735-5.946,7.58-3.337l12.72-12.892,13.288-7.749Z" transform="translate(-76.678 -223.76)"/><g class="j" transform="translate(44.49 34.117)"><path d="M224,297.947c5.593-10.8,5.593-26.449,2.926-40.817l-2.392,20.418Z" transform="translate(-224 -257.13)"/></g><path class="i" d="M177.254,254.951l.42,17.516s1.676,19.406,2,19.406,1.262,6.837,0,9.887-5.363,7.154-5.363,7.154l5.155,5.575s4.832-7.68,6.312-12.623,5.575-12.409,6.206-26.3.371-27.445.371-27.445l-4.053,2.935-3.9.082Z" transform="translate(-144.826 -216.724)"/><path class="b" d="M201.71,307.794a.519.519,0,0,1,.042-.166c.042-.109.076-.275.136-.483l.51-1.863c.429-1.622,1.036-3.974,1.6-6.919.281-1.471.55-3.092.734-4.832.088-.876.154-1.785.175-2.718a16.96,16.96,0,0,0-.157-2.878,8.8,8.8,0,0,0-.347-1.45,15.068,15.068,0,0,0-.516-1.447l-.3-.725-.326-.719c-.211-.483-.453-.96-.692-1.444-.966-1.924-2.1-3.853-3.322-5.786-1.057-1.67-2.141-3.28-3.24-4.8l-.042-.06.057-.045,7.885-6.472.051.121-6.946.8-.139.015.088-.109c1.984-2.416,3.594-4.4,4.708-5.765l1.283-1.561.338-.4c.079-.091.121-.133.121-.133l-.109.145-.323.414-1.265,1.549-4.666,5.8-.051-.091,6.946-.824.233-.027-.181.148-7.876,6.493.015-.106c1.1,1.525,2.186,3.135,3.246,4.808,1.208,1.936,2.356,3.869,3.322,5.8.242.483.483.96.695,1.45l.326.722.3.728c.205.48.356.972.519,1.456a9.149,9.149,0,0,1,.347,1.474,16.948,16.948,0,0,1,.151,2.9c-.021.942-.091,1.854-.181,2.733-.19,1.758-.465,3.379-.752,4.853-.58,2.947-1.208,5.3-1.649,6.916-.227.806-.411,1.431-.541,1.854-.066.205-.115.365-.151.48S201.71,307.794,201.71,307.794Z" transform="translate(-159.938 -223.586)"/><path class="i" d="M267.955,242.89s2.609,4.023,2.881,4.3c0,0,11.023,3.12,11.675,4.433,2.682,5.418.516,7.366,0,14.813-.643,9.256-3.742,22.139-3.742,22.139s4.361,16.806,4.832,17.733-14.843,6.559-16.468,4.439-2.9-9.422-2.9-9.422-1.51-14.837-.927-20.747,3.322-11.986,4.288-19.125C268.584,253.91,267.955,242.89,267.955,242.89Z" transform="translate(-206.856 -213.074)"/><path class="b" d="M265.45,338.762a1.041,1.041,0,0,1,.033-.217c.033-.154.076-.359.127-.6s.133-.6.214-.969.251-.791.4-1.253a29.842,29.842,0,0,1,3.419-6.774,43.485,43.485,0,0,1,4.79-5.9c.68-.7,1.253-1.238,1.661-1.6.2-.181.368-.3.48-.4a1.014,1.014,0,0,1,.181-.121s-.906.791-2.241,2.2a47.012,47.012,0,0,0-4.738,5.91,31.58,31.58,0,0,0-3.449,6.71c-.151.459-.3.873-.417,1.241s-.172.692-.239.96-.118.453-.157.6a1.536,1.536,0,0,1-.063.214Z" transform="translate(-208.442 -267.539)"/><path class="b" d="M288.5,257.75a1.052,1.052,0,0,1,.112.205c.072.151.169.353.3.6.251.544.6,1.3,1.042,2.238l.713,1.546.4.861c.133.3.284.6.4.924.483,1.293,1.015,2.718,1.573,4.195l1.25,3.358.03.082-.085.018-2.944.637.042-.091,1.48,3.249c.166.381.3.686.4.906l.1.242a.281.281,0,0,1,.027.085.348.348,0,0,1-.045-.076l-.118-.233-.432-.891-1.528-3.228-.036-.072.082-.018,2.938-.655-.051.1-1.268-3.34c-.553-1.489-1.078-2.905-1.558-4.195-.112-.329-.26-.628-.393-.927l-.387-.864-.682-1.564c-.414-.939-.755-1.706-1-2.253l-.263-.6A1.511,1.511,0,0,1,288.5,257.75Z" transform="translate(-224.531 -223.446)"/><path class="i" d="M312.53,329.845s5.638,5.638,8.537,5.315,6.686-6.6,6.686-8.779-2.718-16.193-2.718-16.193l1.126-5.276-10.57-.2-2.114,16.25Z" transform="translate(-241.304 -256.224)"/><path class="b" d="M265.2,263.22a.523.523,0,0,1-.036.118l-.127.335-.211.544c-.094.211-.2.456-.317.728-.245.547-.565,1.208-.966,1.957a26.92,26.92,0,0,1-1.51,2.461,29.155,29.155,0,0,1-5,5.593,25.017,25.017,0,0,1-3.594,2.609,14.58,14.58,0,0,1-4.421,1.773,10.087,10.087,0,0,1-4.753-.115,8.3,8.3,0,0,1-2.093-.906,7.55,7.55,0,0,1-1.67-1.407,17.447,17.447,0,0,1-2.22-3.352c-.6-1.1-1.154-2.138-1.613-3.1a23.191,23.191,0,0,1-1.09-2.676,15,15,0,0,1-.532-2.114,9.382,9.382,0,0,1-.145-1.851.8.8,0,0,1,0,.124,2.408,2.408,0,0,0,.021.356,13.215,13.215,0,0,0,.172,1.362,15.309,15.309,0,0,0,.556,2.1,24.094,24.094,0,0,0,1.105,2.655c.465.96,1.021,1.99,1.628,3.089a17.334,17.334,0,0,0,2.211,3.322,7.484,7.484,0,0,0,1.643,1.374,8.178,8.178,0,0,0,2.057.882,9.966,9.966,0,0,0,4.678.109,14.557,14.557,0,0,0,4.376-1.752,25.255,25.255,0,0,0,3.579-2.585,29.429,29.429,0,0,0,5-5.548c.6-.876,1.105-1.706,1.528-2.44s.734-1.4.988-1.939c.124-.272.233-.513.329-.722l.223-.538.142-.329A.563.563,0,0,1,265.2,263.22Z" transform="translate(-187.113 -227.264)"/><path class="b" d="M293.745,259.349a1.441,1.441,0,0,1-.178.2l-.525.538-1.969,1.954-2.908,2.9a11.971,11.971,0,0,1-1.909,1.51,5.629,5.629,0,0,1-2.464.879,4.325,4.325,0,0,1-2.564-.492,3.1,3.1,0,0,1-1.471-1.918,8.455,8.455,0,0,1-.248-2.2c0-.689.024-1.329.036-1.915a10.489,10.489,0,0,0-.193-2.742,4.052,4.052,0,0,0-.257-.7,2.388,2.388,0,0,1-.106-.242,1.368,1.368,0,0,1,.133.226,3.427,3.427,0,0,1,.287.7,10,10,0,0,1,.248,2.76c0,.586-.027,1.226-.018,1.912a8.458,8.458,0,0,0,.257,2.153A2.96,2.96,0,0,0,281.3,266.7a4.2,4.2,0,0,0,2.473.468,5.52,5.52,0,0,0,2.4-.852,11.936,11.936,0,0,0,1.89-1.492c.562-.525,1.063-1.066,1.561-1.537s.954-.924,1.374-1.332l2-1.921.547-.516A2.153,2.153,0,0,1,293.745,259.349Z" transform="translate(-217.893 -223.006)"/><path class="b" d="M188.5,325.366a.3.3,0,0,1-.018-.082l-.036-.245c-.027-.227-.066-.544-.118-.942-.1-.833-.248-2.014-.426-3.47-.356-2.929-.861-6.979-1.335-11.458-.239-2.241-.438-4.376-.6-6.324s-.272-3.7-.335-5.176c-.042-.737-.063-1.4-.082-1.99s-.033-1.09-.033-1.51v-1.2a.437.437,0,0,1,0-.085.284.284,0,0,1,0,.082,1.558,1.558,0,0,0,.015.248q0,.344.036.951c0,.411.03.906.06,1.51s.057,1.253.1,1.987c.079,1.474.214,3.225.371,5.17s.371,4.08.6,6.321c.477,4.476.963,8.525,1.29,11.458.157,1.459.3,2.645.378,3.476.039.4.069.719.091.948a1.333,1.333,0,0,0,.018.245A.254.254,0,0,1,188.5,325.366Z" transform="translate(-152.646 -247.974)"/><path class="b" d="M327.807,304.731h-.773l-2.168-.021-7.64-.115.072-.057c-.429,2.268-.776,4.853-1.045,7.586-.477,5.016-.676,9.576-.921,12.871-.118,1.649-.229,2.981-.3,3.9-.045.453-.085.806-.109,1.06-.015.112-.024.2-.033.275a.463.463,0,0,1-.015.091.359.359,0,0,1,0-.094,1.949,1.949,0,0,1,.015-.275c.021-.254.048-.6.082-1.06.069-.906.163-2.256.266-3.9.217-3.295.4-7.852.879-12.88.266-2.739.619-5.327,1.06-7.6v-.06h.06l7.637.172,2.171.06.574.021h.148C327.792,304.725,327.807,304.728,327.807,304.731Z" transform="translate(-242.938 -256.043)"/><circle class="k" cx="0.827" cy="0.827" r="0.827" transform="translate(81.46 50.862)"/><path class="b" d="M347.912,313.249a1.815,1.815,0,0,1-.054-.2.84.84,0,0,0-.3-.42.776.776,0,0,0-.725-.094.758.758,0,0,0,0,1.419.776.776,0,0,0,.725-.1.828.828,0,0,0,.3-.42,1.618,1.618,0,0,1,.054-.193.414.414,0,0,1,0,.208.855.855,0,0,1-.3.5.879.879,0,0,1-.843.142.906.906,0,0,1,0-1.691.879.879,0,0,1,.843.142.839.839,0,0,1,.3.492C347.943,313.173,347.921,313.249,347.912,313.249Z" transform="translate(-264.797 -261.559)"/><circle class="k" cx="0.827" cy="0.827" r="0.827" transform="translate(57.941 76.332)"/><path class="b" d="M270.01,397.592s-.018-.072-.057-.193a.84.84,0,0,0-.3-.42.761.761,0,1,0,0,1.229.84.84,0,0,0,.3-.42c.039-.121.042-.2.057-.2a.4.4,0,0,1,0,.211.825.825,0,0,1-.3.492.876.876,0,0,1-.84.145.906.906,0,0,1,0-1.694.876.876,0,0,1,.84.145.825.825,0,0,1,.3.492.381.381,0,0,1,0,.208Z" transform="translate(-210.42 -320.432)"/><path class="k" d="M275.851,439.49a.83.83,0,1,1-.83-.83A.83.83,0,0,1,275.851,439.49Z" transform="translate(-214.543 -349.723)"/><path class="b" d="M275.693,439.335c-.015,0-.018-.076-.057-.2a.822.822,0,0,0-.3-.42.764.764,0,1,0-.725,1.326.776.776,0,0,0,.725-.1.809.809,0,0,0,.3-.42c.039-.121.042-.2.057-.193a.381.381,0,0,1,0,.208.815.815,0,0,1-.3.492.882.882,0,0,1-.843.145.906.906,0,0,1,0-1.694.882.882,0,0,1,.843.145.816.816,0,0,1,.3.492A.4.4,0,0,1,275.693,439.335Z" transform="translate(-214.385 -349.567)"/><path class="b" d="M331.664,321.791c0,.045-2.168-.021-4.832-.142s-4.832-.257-4.832-.3,2.168.021,4.832.145S331.664,321.749,331.664,321.791Z" transform="translate(-247.914 -267.827)"/><path class="l" d="M130.333,320.972l-3.117,1.244-6.78-16.966a7.8,7.8,0,1,0-14.5,5.789l6.78,16.966-3.117,1.247-6.783-16.966a11.157,11.157,0,0,1,20.72-8.281Z" transform="translate(-94.368 -250.834)"/><path class="b" d="M130.29,320.826l-.139-.338-.4-.994-1.51-3.769c-.658-1.637-1.465-3.624-2.4-5.955q-.7-1.74-1.492-3.715a24.617,24.617,0,0,0-1.857-4.068,10.872,10.872,0,0,0-3.488-3.409c-.184-.112-.365-.227-.553-.332l-.586-.287a10.869,10.869,0,0,0-1.208-.492c-.208-.079-.429-.121-.643-.184a4.416,4.416,0,0,0-.655-.16,10.66,10.66,0,0,0-1.359-.181,11.475,11.475,0,0,0-2.8.133l-.7.163-.35.082-.344.115-.689.239c-.227.088-.444.2-.667.3a11.059,11.059,0,0,0-5.922,13.14c.332,1.051.785,2.087,1.208,3.141l5.209,13.034.713,1.779-.1-.042,3.117-1.247-.042.1c-1.35-3.373-2.667-6.677-3.95-9.884l-1.89-4.741-.924-2.31a8.538,8.538,0,0,1-.553-2.4,7.918,7.918,0,0,1,1.108-4.59,5.306,5.306,0,0,1,.3-.5l.347-.465a8.627,8.627,0,0,1,1.7-1.537c.157-.109.323-.2.486-.3l.242-.142.257-.118a7.894,7.894,0,0,1,2.114-.67,8.315,8.315,0,0,1,2.153-.057,7.924,7.924,0,0,1,3.808,1.51,7.55,7.55,0,0,1,2.437,2.978c.063.142.13.284.193.423s.115.287.169.429l.338.843q.329.84.652,1.64l2.343,5.886c1.407,3.551,2.51,6.342,3.243,8.178l-.03-.015,2.356-.927.577-.223.193-.072-.181.079c-.127.051-.3.127-.568.233l-2.359.954h-.021v-.021c-.743-1.842-1.857-4.614-3.283-8.154-.713-1.773-1.51-3.739-2.362-5.88l-.655-1.637c-.112-.278-.226-.559-.338-.843l-.172-.429c-.063-.139-.127-.278-.193-.417a7.885,7.885,0,0,0-.991-1.6,8.121,8.121,0,0,0-1.413-1.332,7.852,7.852,0,0,0-3.751-1.471,8.281,8.281,0,0,0-2.114.06,7.832,7.832,0,0,0-2.069.661l-.251.115-.239.142c-.157.1-.323.184-.477.287a8.4,8.4,0,0,0-.879.7,8.03,8.03,0,0,0-.785.815l-.341.459a4.286,4.286,0,0,0-.3.483,7.8,7.8,0,0,0-1.084,4.509,8.51,8.51,0,0,0,.544,2.353c.3.764.6,1.537.927,2.313l1.893,4.738,3.953,9.884.03.072-.072.03c-1.015.4-2.057.821-3.117,1.244l-.076.03-.027-.072-.713-1.782c-1.785-4.463-3.524-8.824-5.206-13.034-.414-1.057-.864-2.081-1.208-3.156a11.941,11.941,0,0,1-.453-3.283,12.125,12.125,0,0,1,.51-3.207,11.905,11.905,0,0,1,1.362-2.866,11.135,11.135,0,0,1,4.575-3.953c.23-.1.45-.211.679-.3l.695-.239c.118-.036.233-.082.347-.115l.356-.082.707-.163a11.475,11.475,0,0,1,2.833-.133A10.4,10.4,0,0,1,115.4,297a6.258,6.258,0,0,1,.664.16c.217.066.441.109.649.187a12.059,12.059,0,0,1,1.238.5l.6.3c.187.106.371.226.556.335a11,11,0,0,1,3.518,3.455,24.724,24.724,0,0,1,1.857,4.1l1.486,3.733c.924,2.328,1.718,4.334,2.371,5.973l1.489,3.769.387.978A2.8,2.8,0,0,0,130.29,320.826Z" transform="translate(-94.325 -250.687)"/><rect class="h" width="31.552" height="25.715" rx="10.01" transform="translate(7.792 69.096) rotate(-21.79)"/><rect class="a" width="29.272" height="25.715" rx="9.98" transform="translate(6.458 69.629) rotate(-21.79)"/><g transform="translate(20.819 70.251)"><path class="h" d="M152.549,379.055a3.591,3.591,0,1,0-2.969,4.889l1.628,4.077a.981.981,0,0,0,1.274.544h0a.978.978,0,0,0,.547-1.271l-1.631-4.077A3.582,3.582,0,0,0,152.549,379.055Z" transform="translate(-145.618 -376.782)"/></g><path class="b" d="M199.763,367.376c-.042.015-1.718-4.137-3.745-9.274s-3.642-9.316-3.6-9.332,1.715,4.137,3.745,9.274S199.8,367.361,199.763,367.376Z" transform="translate(-157.465 -286.979)"/><path class="b" d="M162.293,382.262a5.855,5.855,0,0,0,.852-1.132,4.376,4.376,0,0,0,.483-1.447,3.926,3.926,0,0,0-1.1-3.428,4.352,4.352,0,0,0-1.232-.906,6.089,6.089,0,0,0-1.353-.426,1.622,1.622,0,0,1,.387.024,3.7,3.7,0,0,1,1.012.3,4.316,4.316,0,0,1,1.29.906,4,4,0,0,1,1.142,3.554,4.228,4.228,0,0,1-.528,1.477,3.657,3.657,0,0,1-.649.834A1.511,1.511,0,0,1,162.293,382.262Z" transform="translate(-134.795 -305.232)"/><path class="m" d="M130.64,349.468c.015.039-3.609,1.582-8.1,3.446s-8.154,3.343-8.154,3.3,3.609-1.582,8.1-3.449S130.622,349.429,130.64,349.468Z" transform="translate(-103.001 -287.465)"/><path class="m" d="M144.8,385.312a.905.905,0,0,1-.223-.154,3.475,3.475,0,0,1-.507-.529,4.013,4.013,0,0,1-.3-4.569,3.511,3.511,0,0,1,.438-.589.812.812,0,0,1,.2-.181c.024.021-.251.3-.541.824a4.134,4.134,0,0,0,.287,4.448C144.511,385.055,144.816,385.288,144.8,385.312Z" transform="translate(-123.105 -308.282)"/><path class="m" d="M152.7,402.26c0,.045-.236.042-.51,0s-.5-.118-.486-.163.236-.039.51,0S152.7,402.217,152.7,402.26Z" transform="translate(-129.043 -324.179)"/><path class="m" d="M109.652,303a5.736,5.736,0,0,1-.528.3,10.286,10.286,0,0,0-1.362.936,9.836,9.836,0,0,0-2.851,11.34c.148.362.242.559.23.565a.685.685,0,0,1-.082-.136c-.048-.091-.127-.223-.205-.4a8.89,8.89,0,0,1-.55-1.576,9.513,9.513,0,0,1,3.4-9.881,8.9,8.9,0,0,1,1.4-.906c.175-.094.317-.151.411-.193A.764.764,0,0,1,109.652,303Z" transform="translate(-95.754 -255.031)"/><path class="m" d="M109.246,352.489a2.929,2.929,0,0,1-.411-.843,2.863,2.863,0,0,1-.266-.906,2.758,2.758,0,0,1,.411.843A2.884,2.884,0,0,1,109.246,352.489Z" transform="translate(-98.939 -288.354)"/><g class="j" transform="translate(32.17 46.29)"><path d="M183.935,297.44c-1.356,3.881-.686,8.244.824,12.08C184.76,309.508,183.972,301.5,183.935,297.44Z" transform="translate(-183.202 -297.44)"/></g><g class="j" transform="translate(56.627 48.389)"><path d="M264.208,330.621a83.846,83.846,0,0,1,4.919-9.914,29.508,29.508,0,0,1,7.172-8.356c.8-.6,2.286-1.727,2.286-1.727s-.4-.755-.791-1.38c-.453-.725-1.208-1.981-1.607-2.6l1.767.353s-1.208-2.784-1.175-2.6a23.483,23.483,0,0,1-2.395.492c.619,1.48,1.277,2.818,1.9,4.3a39.218,39.218,0,0,0-8.317,9.483,21.269,21.269,0,0,0-3.772,11.778" transform="translate(-264.19 -304.39)"/></g><path class="k" d="M280.054,214.644c.039-.033.133,0,.239.118a.978.978,0,0,1,.205.64,1.18,1.18,0,0,1-.1.483,1.235,1.235,0,0,1-.371.468,1.344,1.344,0,0,1-2.156-.818,1.208,1.208,0,0,1,.275-1.027.987.987,0,0,1,.577-.341c.16-.021.248.018.26.069.024.109-.236.248-.377.586a.74.74,0,0,0-.03.547.692.692,0,0,0,1.036.39.731.731,0,0,0,.341-.426C280.063,214.985,279.96,214.716,280.054,214.644Z" transform="translate(-217.094 -193.02)"/><path class="e" d="M104.57,429.48a23.857,23.857,0,0,0,1.561,3.989c.532.667,4.086,1.027,4.086,1.027Z" transform="translate(-96.147 -343.315)"/><path class="e" d="M109.945,411.993l1.972,1.582,5.853,4.512s-.036,1.087-1.353.84a18.431,18.431,0,0,1-3.44-1.51s2.784,2.615,2.881,3.838v.223a1.036,1.036,0,0,1-.3.722h0l-3.252-2.171s.7,1.226,1.383,2.5a1.561,1.561,0,0,1-.223,1.552h0L106.215,418l-.045-4.53,3.76-1.48" transform="translate(-97.264 -331.107)"/><path class="f" d="M116.12,421.4a.907.907,0,0,1,.272.06c.085.03.184.076.3.127s.239.127.377.205c.55.326,1.247.855,2.02,1.434a17.84,17.84,0,0,0,2.038,1.371c.553.3.927.417.906.444a.906.906,0,0,1-.269-.06,2.553,2.553,0,0,1-.3-.109,3.788,3.788,0,0,1-.393-.175,13.8,13.8,0,0,1-2.087-1.344c-.773-.583-1.456-1.123-1.984-1.468l-.359-.22-.284-.148a1.076,1.076,0,0,1-.239-.118Z" transform="translate(-104.209 -337.675)"/><path class="f" d="M113.92,428.71a3.368,3.368,0,0,1,.628.39c.371.257.873.631,1.407,1.066s1,.849,1.332,1.16a3.133,3.133,0,0,1,.5.529,3.491,3.491,0,0,1-.58-.444l-1.356-1.123-1.374-1.1A3.654,3.654,0,0,1,113.92,428.71Z" transform="translate(-102.673 -342.777)"/><path class="e" d="M81.51,402.881c-.051.057.024.166.072.269.788,1.646,7.55,6.321,7.55,6.321l3.687-6.284s2.679,1.3,3.778,1c.906-.248,2.609-.432,1.812-2.02a37.957,37.957,0,0,1-5.061-1.247c-1.283-.553-2.087-.84-2.087-.84a17.939,17.939,0,0,1-4.361-.432S84.642,399.326,81.51,402.881Z" transform="translate(-80.039 -322.483)"/><path class="f" d="M116.62,440.55a7.962,7.962,0,0,1-.855-.664c-.556-.45-1.256-1.021-2.035-1.649s-1.51-1.241-2.005-1.688c-.251-.22-.45-.4-.586-.535a1.123,1.123,0,0,1-.2-.214,7.782,7.782,0,0,1,.858.664l2.032,1.649c.794.646,1.51,1.241,2.005,1.688.251.22.453.4.586.535A1.126,1.126,0,0,1,116.62,440.55Z" transform="translate(-100.593 -347.726)"/><path class="l" d="M327.8,218.718l2.328.365.281-1.779-.906-.142.127-.809-.84-.133.112-.71.969.151.1-.6-1.552-.245.036-.233-.036.233h0l.036-.233a.559.559,0,0,0-.5-.6.571.571,0,0,0-.6.5q-.676,4.318-1.356,8.628l-.362,2.3a3.02,3.02,0,1,0,1.09.172q.525-3.322,1.048-6.644h0Zm.13,10.053a2.244,2.244,0,1,1-1.869-2.567h0a2.247,2.247,0,0,1,1.869,2.576Z" transform="translate(-248.397 -192.891)"/><path class="n" d="M327.8,218.718l2.328.365.281-1.779-.906-.142.127-.809-.84-.133.112-.71.969.151.1-.6-1.552-.245.036-.233-.036.233h0l.036-.233a.559.559,0,0,0-.5-.6.571.571,0,0,0-.6.5q-.676,4.318-1.356,8.628l-.362,2.3a3.02,3.02,0,1,0,1.09.172q.525-3.322,1.048-6.644h0Zm.13,10.053a2.244,2.244,0,1,1-1.869-2.567h0a2.247,2.247,0,0,1,1.869,2.576Z" transform="translate(-248.397 -192.891)"/><path class="b" d="M329.595,256.7a2.978,2.978,0,0,0-.1-.948,2.156,2.156,0,0,0-.553-.924,2.18,2.18,0,0,0-1.226-.625l.039-.13h0l.468.205-.507-.076a2.171,2.171,0,0,0-2.259,3.144,2.114,2.114,0,0,0,.876.906,2.183,2.183,0,0,0,2.084.027,2.262,2.262,0,0,0,1-1.057,5.148,5.148,0,0,0,.181-.519.5.5,0,0,1,0,.142,1.939,1.939,0,0,1-.112.4,2.247,2.247,0,0,1-1,1.129,2.308,2.308,0,1,1-.737-4.306l-.039.13h0l-.489-.223.528.094a2.289,2.289,0,0,1,1.286.683,2.237,2.237,0,0,1,.55.981,2.288,2.288,0,0,1,.066.719A1.124,1.124,0,0,1,329.595,256.7Z" transform="translate(-250.058 -220.815)"/><path class="b" d="M327.693,218.54a1.493,1.493,0,0,1-.024.217h0c-.085.655-.45,3.068-1,6.644l-.033-.06a3.035,3.035,0,1,1-1.447-.169c.112-.018.223-.021.332-.03l-.076.066c.387-2.44.758-4.793,1.105-7,.175-1.1.344-2.168.507-3.189.039-.257.082-.507.121-.758a.637.637,0,0,1,.559-.541.622.622,0,0,1,.643.4.655.655,0,0,1,0,.387v.112h0l-.13-.018v-.06l.03-.175.127.021-.036.233-.054-.072,1.552.248h.06v.06c-.036.217-.066.417-.1.6v.057h-.057l-.969-.157.063-.045c-.042.257-.079.486-.115.71l-.045-.06.843.136h.048v.051c-.048.3-.091.556-.133.806l-.039-.054.906.148h.042v.042q-.169,1.015-.3,1.779v.033h-.033l-1.718-.3-.45-.079-.154-.03h.145l.444.063,1.746.254-.039.027c.079-.51.166-1.1.269-1.779l.036.048-.906-.136h-.045v-.045l.124-.809.042.057-.84-.13h-.054V216c.033-.227.069-.456.109-.713v-.054h.054l.972.148-.069.048c.033-.2.063-.4.1-.6l.051.069-1.555-.242h-.063v-.063l.036-.236.127.021-.027.175v.06c-.26-.042-.069,0-.13-.024h0v-.109a.547.547,0,0,0,0-.32.486.486,0,0,0-.5-.317.5.5,0,0,0-.438.429l-.118.755-.5,3.192c-.344,2.2-.716,4.557-1.1,7v.06h-.066a1.264,1.264,0,0,0-.317.027,2.891,2.891,0,1,0,1.386.118l-.042-.015v-.045c.574-3.576.969-5.986,1.087-6.644h0A1.607,1.607,0,0,0,327.693,218.54Z" transform="translate(-248.286 -192.713)"/><path class="e" d="M322.389,256.391l3.733-.981,1.939.248a1.054,1.054,0,0,1,.818.6L330.135,259s1.812,1.51,1.6,2.416-1.89,9.036-1.89,9.036l-5-.151a6.9,6.9,0,0,1-1.51-3.8c-.054-1.142.381-1.839.272-2.443a6.305,6.305,0,0,1,.3-1.718l.151-.55-.332.16a1.012,1.012,0,0,1-1.444-.758.856.856,0,0,1,0-.088h0a2.271,2.271,0,0,1,.679-1.739l1.887-1.854S322.763,258.7,322.389,256.391Z" transform="translate(-248.11 -221.813)"/><path class="f" d="M332.034,271.894a1.345,1.345,0,0,1-.347-.039l-.927-.166-1.374-.266c-.257-.048-.528-.118-.8-.142a.861.861,0,0,0-.746.239,1.706,1.706,0,0,0-.3.773c-.06.281-.118.55-.172.809a8.773,8.773,0,0,0-.245,1.359.939.939,0,0,0,.359.788.985.985,0,0,0,.3.13.163.163,0,0,1-.091,0,.553.553,0,0,1-.251-.085.976.976,0,0,1-.438-.83,7.623,7.623,0,0,1,.211-1.392c.051-.26.106-.531.163-.809a1.812,1.812,0,0,1,.35-.849,1.006,1.006,0,0,1,.876-.284,7.4,7.4,0,0,1,.821.151l1.365.3.906.214A1.483,1.483,0,0,1,332.034,271.894Z" transform="translate(-251.404 -232.776)"/><path class="f" d="M331.289,279.613a.424.424,0,0,1-.19.3.68.68,0,0,1-.414.118,2,2,0,0,1-.547-.106,2.114,2.114,0,0,1-1.193-.809,1.888,1.888,0,0,1-.024-1.749,3.343,3.343,0,0,1,.465-.8.906.906,0,0,1,.377-.269.961.961,0,0,1,.441-.03,6.729,6.729,0,0,1,1.371.438,7.142,7.142,0,0,1,.861.435,1.208,1.208,0,0,1,.3.2c0,.024-.441-.242-1.193-.535a7.484,7.484,0,0,0-1.347-.4.825.825,0,0,0-.374.03.755.755,0,0,0-.3.23,3.246,3.246,0,0,0-.435.758,1.764,1.764,0,0,0,0,1.61,2.045,2.045,0,0,0,1.1.782,2.112,2.112,0,0,0,.516.124.649.649,0,0,0,.377-.082A.6.6,0,0,0,331.289,279.613Z" transform="translate(-252.604 -236.364)"/><path class="f" d="M333.724,283.853c0,.018-.088.069-.257.088a1.142,1.142,0,0,1-1.108-.574c-.082-.145-.094-.251-.076-.257a1.849,1.849,0,0,0,.619.568A2.416,2.416,0,0,0,333.724,283.853Z" transform="translate(-255.087 -241.147)"/><path class="f" d="M336.893,286.735c-.024.033-.26-.106-.429-.387s-.19-.556-.148-.559.127.223.281.477S336.924,286.7,336.893,286.735Z" transform="translate(-257.895 -243.018)"/><path class="f" d="M337.257,291.808a2.905,2.905,0,0,1,.088-2.718,5.229,5.229,0,0,0-.088,2.718Z" transform="translate(-258.358 -245.322)"/><path class="f" d="M333.092,289.9a3.542,3.542,0,0,0-1.963,1.918.863.863,0,0,1,.1-.417,2.609,2.609,0,0,1,.58-.855,2.569,2.569,0,0,1,.867-.559A.833.833,0,0,1,333.092,289.9Z" transform="translate(-254.287 -245.884)"/><path class="f" d="M332.115,269.31c.045,0,.069.154.018.329s-.151.3-.19.272,0-.157.039-.3S332.072,269.307,332.115,269.31Z" transform="translate(-254.843 -231.515)"/><path class="f" d="M335.4,264.338a4.564,4.564,0,0,1-.746-.4c-.453-.26-1.069-.631-1.742-1.051a5.872,5.872,0,0,0-.978-.51,2.22,2.22,0,0,0-.87-.151,2.063,2.063,0,0,0-.788.217.583.583,0,0,1,.178-.145,1.455,1.455,0,0,1,.6-.184,2.219,2.219,0,0,1,.924.127,5.237,5.237,0,0,1,1.012.513c.676.417,1.283.8,1.718,1.09A4.784,4.784,0,0,1,335.4,264.338Z" transform="translate(-253.694 -226.489)"/><path class="b" d="M339.61,220.619a13.592,13.592,0,0,1,.223-2.041,12.875,12.875,0,0,1,.381-2.017,13.644,13.644,0,0,1-.223,2.041,13.4,13.4,0,0,1-.381,2.017Z" transform="translate(-260.206 -194.695)"/><g class="j" transform="translate(79.425 21.968)"><path d="M340.263,216.9a4.883,4.883,0,0,1-.583,3.757c.217-1.1.435-2.594.583-3.757" transform="translate(-339.68 -216.9)"/></g></g><g transform="translate(121.655 118.206)"><path class="d" d="M430.332,391.453a5.81,5.81,0,0,0-9.522,2.286l.689,2.664a3.272,3.272,0,0,1,1.691-2.159,4.043,4.043,0,0,1,2.872.169,10.318,10.318,0,0,0,2.812.843,2.286,2.286,0,0,0,2.38-1.341A2.566,2.566,0,0,0,430.332,391.453Z" transform="translate(-395.829 -368.439)"/><g class="j" transform="translate(24.981 21.388)"><path d="M430.332,391.453a5.81,5.81,0,0,0-9.522,2.286l.689,2.664a3.272,3.272,0,0,1,1.691-2.159,4.043,4.043,0,0,1,2.872.169,10.318,10.318,0,0,0,2.812.843,2.286,2.286,0,0,0,2.38-1.341A2.566,2.566,0,0,0,430.332,391.453Z" transform="translate(-420.81 -389.828)"/></g><path class="c" d="M394.709,398.6c-1.437-1.365-1.365-3.745-.649-5.6a8.472,8.472,0,0,1,4.035-4.207,12.777,12.777,0,0,1,11.134-.362,5.288,5.288,0,0,0-4.273,2.51c-.788,1.311-.963,2.9-1.616,4.282a6.734,6.734,0,0,1-8.631,3.373" transform="translate(-376.81 -366.694)"/><path class="c" d="M390.022,342.694c-1.591-1.881-1.812-4.9-1.57-7.354s.8-4.919.417-7.354c-.23-1.444-.788-2.821-.975-4.267a4.431,4.431,0,0,1,1.208-4.02,3.874,3.874,0,0,1,4.66.187,8.811,8.811,0,0,1,2.688,4.174,17.769,17.769,0,0,1,.679,10.857c-1.027,3.542-3.428,6.707-6.946,7.776" transform="translate(-372.815 -319.004)"/><path class="b" d="M392.526,408.726a1.723,1.723,0,0,1,0-.217v-.622c.021-.538.072-1.32.193-2.277a30.079,30.079,0,0,1,.6-3.322,15.344,15.344,0,0,1,1.51-3.862,16.18,16.18,0,0,1,2.485-3.322,15.9,15.9,0,0,1,2.609-2.168c.4-.275.782-.483,1.114-.676s.634-.323.879-.441l.574-.242a.972.972,0,0,1,.2-.076,1.705,1.705,0,0,1-.193.1l-.562.263c-.239.124-.532.278-.867.459a10.925,10.925,0,0,0-1.1.692,16.323,16.323,0,0,0-5.031,5.481,19.933,19.933,0,0,0-2.156,7.142c-.133.954-.2,1.73-.236,2.268-.015.26-.027.468-.036.619a1.135,1.135,0,0,1,.006.2Z" transform="translate(-376.082 -369.607)"/><path class="d" d="M340.781,372.89c-2.947,1.779-2.935,3.4-2.446,4.922a3.088,3.088,0,0,0,3.8,2.017,4.608,4.608,0,0,0,1.987-1.812,8.165,8.165,0,0,1,1.752-2.066,2.6,2.6,0,0,1,1.758-.5Z" transform="translate(-338.09 -356.617)"/><g class="j" transform="translate(0 16.273)"><path d="M340.781,372.89c-2.947,1.779-2.935,3.4-2.446,4.922a3.088,3.088,0,0,0,3.8,2.017,4.608,4.608,0,0,0,1.987-1.812,8.165,8.165,0,0,1,1.752-2.066,2.6,2.6,0,0,1,1.758-.5Z" transform="translate(-338.09 -372.89)"/></g><path class="c" d="M339.58,370.361a3.49,3.49,0,0,1,3.878-.843,7.754,7.754,0,0,1,2.872,2.639,11.7,11.7,0,0,0,2.645,2.893,3.415,3.415,0,0,0,3.705.26,3.18,3.18,0,0,0,1.259-2.18,7.247,7.247,0,0,0-.175-2.57,5.586,5.586,0,0,0-1.673-3.322,6.144,6.144,0,0,0-4.038-.87,15.2,15.2,0,0,0-4.768.734,6.612,6.612,0,0,0-3.705,3.249" transform="translate(-339.13 -352.059)"/><path class="b" d="M366.854,389.4v-.254c0-.178-.015-.423-.024-.731-.018-.646-.045-1.564-.079-2.691s-.082-2.488-.163-3.986-.2-3.15-.423-4.865a15.42,15.42,0,0,0-.489-2.47,13.126,13.126,0,0,0-2.06-3.944,11.842,11.842,0,0,0-1.244-1.365,9.118,9.118,0,0,0-2.208-1.51c-.142-.066-.269-.13-.38-.175l-.3-.112-.175-.072c-.039-.018-.06-.027-.057-.03l.06.018.181.057.3.1c.115.042.242.1.39.166a8.944,8.944,0,0,1,2.247,1.48,11.722,11.722,0,0,1,1.265,1.368,12.151,12.151,0,0,1,1.163,1.812,12.951,12.951,0,0,1,.906,2.18,15.186,15.186,0,0,1,.5,2.488c.23,1.724.335,3.373.414,4.874s.112,2.857.136,3.992.033,2.057.036,2.691v.924A.255.255,0,0,1,366.854,389.4Z" transform="translate(-352.859 -352.638)"/><path class="b" d="M386.743,369.983a8.791,8.791,0,0,1-.323-1.265,13.321,13.321,0,0,1-.133-3.554A23.494,23.494,0,0,1,387.41,360c.6-1.9,1.425-3.926,2.114-6.1a28.016,28.016,0,0,0,.846-3.228,29.27,29.27,0,0,0,.432-3.074,45.422,45.422,0,0,0,.094-5.267c-.051-1.51-.13-2.718-.181-3.554-.024-.414-.042-.737-.057-.966v-.338a.3.3,0,0,1,.015.085,1.031,1.031,0,0,0,.024.251c.018.229.045.553.082.966.066.837.16,2.051.223,3.551a43.279,43.279,0,0,1-.066,5.285,28.839,28.839,0,0,1-.414,3.1,28.092,28.092,0,0,1-.846,3.243c-.7,2.186-1.528,4.213-2.138,6.1a24.184,24.184,0,0,0-1.148,5.134,13.783,13.783,0,0,0,.094,3.539c.072.414.139.734.2.945.027.1.045.184.06.245A.38.38,0,0,1,386.743,369.983Z" transform="translate(-371.688 -331.893)"/><path class="l" d="M376.861,434.845H359.282l-.4-3.385h17.981Z" transform="translate(-352.601 -397.499)"/><path class="l" d="M366.46,441.39l2.2,10.15h9.552l2.057-10.15Z" transform="translate(-357.892 -404.43)"/><path class="g" d="M378.512,442.41c0,.045-3.862.072-8.628.057s-8.634-.06-8.634-.106,3.866-.076,8.634-.06S378.515,442.361,378.512,442.41Z" transform="translate(-354.256 -405.063)"/><path class="m" d="M381.218,453.446a8.3,8.3,0,0,0-1.588-.939,5.9,5.9,0,0,0-1.93-.462,6.233,6.233,0,0,0-2.389.42,21.134,21.134,0,0,1-2.359.77,5.942,5.942,0,0,1-2.032,0,4.605,4.605,0,0,1-1.308-.411,2.663,2.663,0,0,1-.317-.2c-.066-.051-.1-.079-.1-.085s.154.091.444.223a5.084,5.084,0,0,0,1.308.38,6.148,6.148,0,0,0,1.984-.039,24.507,24.507,0,0,0,2.334-.776,6.188,6.188,0,0,1,2.452-.417,5.943,5.943,0,0,1,3.141,1.208,3.217,3.217,0,0,1,.281.245Z" transform="translate(-359.803 -411.772)"/><path class="b" d="M378.111,442.522c0,.048-3.953.085-8.83.085s-8.83-.036-8.83-.085,3.953-.082,8.83-.082S378.111,442.476,378.111,442.522Z" transform="translate(-353.697 -405.163)"/></g></g></svg>