<svg xmlns="http://www.w3.org/2000/svg" width="104.152" height="122.499" viewBox="0 0 104.152 122.499"><defs><style>.a{fill:#fcdc73;}.b{fill:#4faec0;}.c{fill:#263238;}.d{fill:#19394b;}.e{fill:#fff;}.f{fill:#e86267;}.g{fill:#e8e8e3;font-size:1px;font-family:Montserrat-Regular, Montserrat;}.h{fill:#e0e0e0;}.i{fill:#ffbe9d;}.j{fill:#eb996e;}.k{fill:#ff725e;}.l{fill:#455a64;}.m,.n{opacity:0.2;}</style></defs><g transform="translate(-86.21 -82.93)"><g transform="translate(86.21 94.833)"><path class="a" d="M176.628,123.024c-12.121-10.592-28.53,0-44.471,22.29s-23.521,12.909-37.073,22.734S77.908,218.116,125.653,214.2,208.315,150.676,176.628,123.024Z" transform="translate(-86.21 -118.89)"/></g><g transform="translate(162.86 129.682)"><path class="b" d="M323.867,259.438c-5.114-3.572-6.273-10.2-6.071-16.163a6.46,6.46,0,0,1,.4-2.916,2.033,2.033,0,0,1,2.469-1.053c.738.348,1.059,1.208,1.473,1.92a5.813,5.813,0,0,0,2.334,2.228,2.211,2.211,0,0,0,2.042.185c.861-.473.96-1.655.953-2.648q0-2.771-.033-5.534a9.212,9.212,0,0,1,.3-2.939,3.08,3.08,0,0,1,1.93-2.075,1.884,1.884,0,0,1,2.317,1.248,9.52,9.52,0,0,1,.03,1.231,1.07,1.07,0,0,0,.606.993c.387.126.791-.162,1.089-.453a13.078,13.078,0,0,0,2.36-3.565,18.2,18.2,0,0,1,2.2-3.681,5.364,5.364,0,0,1,3.641-2.036,3.189,3.189,0,0,1,3.284,2.188c.357,1.39-.454,2.81-1.324,3.939a22.134,22.134,0,0,1-4.6,4.386,1.8,1.8,0,0,0-.771.824c-.215.662.41,1.324,1.063,1.533a11.663,11.663,0,0,0,2.317.262,2.226,2.226,0,0,1,1.9,1.158c.4,1.013-.444,2.072-1.274,2.767a18.994,18.994,0,0,1-5.6,3.234,6.4,6.4,0,0,0-2.082,1.01,1.829,1.829,0,0,0-.586,2.1,1.863,1.863,0,0,0,2.029.778,13.2,13.2,0,0,0,2.171-.827c1.36-.513,3.115-.42,3.972.755a3.131,3.131,0,0,1,.331,2.771,7.226,7.226,0,0,1-1.5,2.446,19.075,19.075,0,0,1-8.163,5.7,13.058,13.058,0,0,1-9.212.242" transform="translate(-317.775 -224.174)"/><path class="c" d="M355.58,226.66s-.03.033-.1.093l-.295.262c-.258.232-.639.569-1.119,1.016a36.944,36.944,0,0,0-3.78,4.081c-.738.917-1.5,1.956-2.317,3.085s-1.655,2.347-2.489,3.641a44.9,44.9,0,0,0-2.44,4.23c-.384.758-.722,1.549-1.069,2.357l-1.026,2.466a90.991,90.991,0,0,0-3.529,9.523,44.356,44.356,0,0,0-1.655,8.12,32.286,32.286,0,0,0-.093,5.591c.053.662.1,1.168.149,1.513.02.165.033.3.046.394v.136a.69.69,0,0,1-.03-.132c-.017-.1-.036-.225-.063-.391-.06-.331-.123-.854-.182-1.516a30.758,30.758,0,0,1,.033-5.607,43.627,43.627,0,0,1,1.619-8.156,88.846,88.846,0,0,1,3.519-9.546l1.053-2.456c.348-.8.688-1.6,1.076-2.363a44.316,44.316,0,0,1,2.459-4.24c.847-1.324,1.7-2.522,2.506-3.641s1.582-2.165,2.317-3.078a35.192,35.192,0,0,1,3.83-4.052c.49-.44.88-.771,1.145-.993l.308-.248A.722.722,0,0,1,355.58,226.66Z" transform="translate(-329.621 -225.837)"/><path class="c" d="M355.083,254a2.051,2.051,0,0,1-.1-.42c-.053-.275-.113-.662-.182-1.165-.142-.993-.288-2.353-.444-3.86s-.331-2.87-.477-3.853c-.076-.49-.142-.884-.189-1.159a1.787,1.787,0,0,1-.056-.43,1.835,1.835,0,0,1,.123.414c.073.271.156.662.248,1.155.189.993.374,2.344.53,3.853s.288,2.833.391,3.863c.05.463.093.857.126,1.172A1.837,1.837,0,0,1,355.083,254Z" transform="translate(-341.768 -236.842)"/><path class="c" d="M370.831,268.775a2.646,2.646,0,0,1-.49.06c-.331.03-.8.07-1.384.136-1.165.126-2.767.358-4.525.689s-3.337.7-4.472.993c-.566.146-1.023.278-1.324.367a2.413,2.413,0,0,1-.5.119,2.885,2.885,0,0,1,.477-.189c.311-.109.761-.262,1.324-.424,1.129-.331,2.708-.725,4.472-1.063a45.085,45.085,0,0,1,4.518-.629c.586-.05,1.059-.069,1.39-.076A2.539,2.539,0,0,1,370.831,268.775Z" transform="translate(-344.779 -253.996)"/><path class="c" d="M328.355,285.872a.688.688,0,0,1-.086-.156l-.218-.46c-.189-.4-.444-.993-.748-1.718-.616-1.456-1.4-3.5-2.234-5.76s-1.6-4.3-2.185-5.776c-.285-.715-.52-1.3-.7-1.738l-.185-.473a.639.639,0,0,1-.053-.172.688.688,0,0,1,.086.156l.218.46c.185.4.444.993.748,1.718.616,1.456,1.4,3.5,2.234,5.759s1.6,4.3,2.185,5.776c.285.715.52,1.3.692,1.738.076.189.139.331.189.473A.639.639,0,0,1,328.355,285.872Z" transform="translate(-320.568 -254.577)"/><path class="c" d="M358.2,302.25a.7.7,0,0,1-.169.069l-.49.166-1.811.586c-1.529.5-3.641,1.2-5.958,1.986s-4.439,1.476-5.978,1.94c-.768.235-1.394.414-1.827.533l-.5.129a.855.855,0,0,1-.179.036.7.7,0,0,1,.169-.07l.49-.165,1.811-.586c1.529-.5,3.641-1.2,5.958-1.986s4.435-1.476,5.975-1.94c.771-.235,1.394-.414,1.83-.533l.5-.129A.861.861,0,0,1,358.2,302.25Z" transform="translate(-333.506 -276.406)"/></g><g transform="translate(122.998 82.93)"><path class="d" d="M237.581,180.375l-33.064-.152a7.206,7.206,0,0,1-7.166-7.236L197.7,90.1a7.2,7.2,0,0,1,7.236-7.17L238,83.082a7.206,7.206,0,0,1,7.17,7.233l-.351,82.884A7.206,7.206,0,0,1,237.581,180.375Z" transform="translate(-197.35 -82.93)"/><path class="e" d="M242.4,91.772h-6.408a1.592,1.592,0,0,0-1.562,1.622v1.162a1.589,1.589,0,0,1-1.562,1.619l-12.492-.056a1.6,1.6,0,0,1-1.552-1.635V93.321a1.6,1.6,0,0,0-1.549-1.635h-2.254l-5.611-.026a5.045,5.045,0,0,0-5.074,4.995l-.331,80.9a5.041,5.041,0,0,0,5.018,5.064l32.995.152a5.045,5.045,0,0,0,5.068-5.021l.331-80.9a5.048,5.048,0,0,0-5.015-5.078Z" transform="translate(-201.799 -88.77)"/><path class="f" d="M256.081,318.646l-24.534-.106c-.255,0-.46-.278-.457-.616l.026-6.418c0-.331.209-.616.463-.616l24.534.113a.556.556,0,0,1,.457.619l-.023,6.412C256.548,318.374,256.336,318.649,256.081,318.646Z" transform="translate(-219.922 -235.434)"/><text class="g" transform="translate(19.823 78.462)"><tspan x="0" y="0">ENTER</tspan></text><rect class="f" width="8.514" height="1.562" transform="translate(8.005 26.747) rotate(0.26)"/><path class="h" d="M254.771,181.042a.762.762,0,0,0,.2-.046.523.523,0,0,0,.331-.447v-4.4a.642.642,0,0,0-.093-.434.5.5,0,0,0-.394-.2h-5.3l-27.685-.1a.44.44,0,0,0-.364.182.632.632,0,0,0-.086.434V180a2.612,2.612,0,0,0,0,.463.447.447,0,0,0,.258.3.516.516,0,0,0,.205.036h1.685l7.352.04,12.446.076,8.391.066,2.281.026H243.322l-12.446-.04-7.352-.03h-1.685a.662.662,0,0,1-.271-.046.622.622,0,0,1-.357-.414.937.937,0,0,1-.02-.265V176a1.857,1.857,0,0,1,0-.265.563.563,0,0,1,.109-.268.609.609,0,0,1,.5-.255l27.685.152,4.783.033h.516a.566.566,0,0,1,.463.242.7.7,0,0,1,.106.487v2.115c0,.993-.023,1.754-.03,2.284a.536.536,0,0,1-.348.46A.4.4,0,0,1,254.771,181.042Z" transform="translate(-213.296 -144.664)"/><rect class="f" width="15.571" height="1.46" transform="translate(10.562 32.412)"/><rect class="f" width="8.514" height="1.562" transform="translate(7.947 41) rotate(0.26)"/><path class="h" d="M254.4,224.176a1.714,1.714,0,0,0,.2-.036.678.678,0,0,0,.417-.377.927.927,0,0,0,.06-.42v-3.949a.712.712,0,0,0-.1-.437.642.642,0,0,0-.361-.281,2.03,2.03,0,0,0-.5-.026h-4.763l-27.589-.1a.612.612,0,0,0-.606.533v3.972a1.9,1.9,0,0,0,.02.463.629.629,0,0,0,.242.331.688.688,0,0,0,.41.106h1.417l7.325.036,12.4.076,8.361.066,2.274.026H242.978l-12.409-.013-7.325-.026H221.8a.831.831,0,0,1-.506-.136.794.794,0,0,1-.311-.434,2.085,2.085,0,0,1-.026-.51q0-.5,0-.993v-2.979a.784.784,0,0,1,.778-.685l27.589.152,4.763.036a2.049,2.049,0,0,1,.53.036.732.732,0,0,1,.407.331.8.8,0,0,1,.106.483v3.965a.924.924,0,0,1-.07.434.7.7,0,0,1-.447.377.623.623,0,0,1-.215-.02Z" transform="translate(-213.141 -173.545)"/><rect class="f" width="8.514" height="1.562" transform="translate(7.883 55.871) rotate(0.26)"/><path class="h" d="M254.261,269a1.588,1.588,0,0,0,.2-.036.682.682,0,0,0,.417-.374.934.934,0,0,0,.06-.42v-3.952a.712.712,0,0,0-.1-.437.662.662,0,0,0-.361-.278,2.024,2.024,0,0,0-.5-.03h-4.763l-27.589-.1a.612.612,0,0,0-.606.533v3.972a1.875,1.875,0,0,0,.02.46.606.606,0,0,0,.242.331.662.662,0,0,0,.41.106h1.44l7.325.04,12.4.076,8.361.066,2.274.026H242.861l-12.4-.036-7.325-.03h-1.44a.811.811,0,0,1-.506-.136.8.8,0,0,1-.311-.434,2.084,2.084,0,0,1-.026-.51v-3.989a.781.781,0,0,1,.775-.685l27.589.152,4.763.036a2.05,2.05,0,0,1,.53.036.732.732,0,0,1,.407.331.8.8,0,0,1,.106.483v3.965a.907.907,0,0,1-.069.434.7.7,0,0,1-.447.377A.523.523,0,0,1,254.261,269Z" transform="translate(-213.067 -203.503)"/><rect class="f" width="15.571" height="1.46" transform="translate(10.23 47.008) rotate(0.26)"/><path class="f" d="M229.757,271.161a.682.682,0,1,1-.662-.732A.7.7,0,0,1,229.757,271.161Z" transform="translate(-218.119 -208.366)"/><path class="f" d="M236.127,271.2a.682.682,0,1,1-.326-.63A.682.682,0,0,1,236.127,271.2Z" transform="translate(-222.38 -208.391)"/><path class="f" d="M242.507,271.221a.682.682,0,1,1-.662-.732A.705.705,0,0,1,242.507,271.221Z" transform="translate(-226.649 -208.406)"/><path class="f" d="M248.877,271.251a.682.682,0,1,1-.662-.732A.705.705,0,0,1,248.877,271.251Z" transform="translate(-230.91 -208.426)"/><path class="f" d="M255.247,271.278a.682.682,0,1,1-.662-.728A.705.705,0,0,1,255.247,271.278Z" transform="translate(-235.171 -208.446)"/><path class="f" d="M261.627,271.308a.682.682,0,1,1-.679-.728A.705.705,0,0,1,261.627,271.308Z" transform="translate(-239.439 -208.466)"/><path class="f" d="M268,271.336a.682.682,0,1,1-.326-.63A.682.682,0,0,1,268,271.336Z" transform="translate(-243.701 -208.484)"/><path class="f" d="M274.367,271.368a.682.682,0,1,1-.679-.728A.705.705,0,0,1,274.367,271.368Z" transform="translate(-247.962 -208.507)"/><path class="f" d="M280.737,271.4a.682.682,0,1,1-.662-.728A.705.705,0,0,1,280.737,271.4Z" transform="translate(-252.224 -208.526)"/><path class="f" d="M269.094,123.545a1.281,1.281,0,0,0,.765-1.188,1.2,1.2,0,1,0-2.406,0,1.284,1.284,0,0,0,.768,1.2,2.193,2.193,0,0,0-1.771,2.291l4.383.02S270.934,123.82,269.094,123.545Z" transform="translate(-243.576 -108.458)"/><rect class="f" width="15.62" height="1.867" transform="translate(17.019 18.638) rotate(0.26)"/></g><g transform="translate(98.209 113.281)"><path class="b" d="M160.807,442.547v-2.83l-5.074-.036-.043,4.28.314.023c1.4.089,7.123.222,8.063-.07C165.114,443.589,160.807,442.547,160.807,442.547Z" transform="translate(-144.691 -351.945)"/><path class="c" d="M164.22,451.5c0,.046-1.9.086-4.24.086s-4.24-.04-4.24-.086,1.9-.086,4.24-.086S164.22,451.45,164.22,451.5Z" transform="translate(-144.724 -359.792)"/><path class="c" d="M171.386,449.016c-.043-.023,0-.172.1-.331s.242-.225.275-.192-.036.159-.136.295S171.43,449.039,171.386,449.016Z" transform="translate(-155.18 -357.835)"/><path class="c" d="M172.354,449.4c-.046,0-.023-.185.076-.361s.232-.281.268-.255-.023.175-.116.331S172.4,449.414,172.354,449.4Z" transform="translate(-155.823 -358.031)"/><path class="c" d="M157.4,449.623c-.02,0-.1-.06-.205-.185a3.276,3.276,0,0,0-.444-.444,1.168,1.168,0,0,0-.549-.242c-.156-.02-.255,0-.265-.02s.086-.089.268-.1a1.023,1.023,0,0,1,.662.225,1.865,1.865,0,0,1,.437.513C157.382,449.513,157.421,449.609,157.4,449.623Z" transform="translate(-144.856 -357.932)"/><path class="c" d="M170.479,448.446c.023.04-.063.139-.209.192s-.275.033-.281,0,.1-.1.222-.149S170.453,448.406,170.479,448.446Z" transform="translate(-154.257 -357.798)"/><path class="c" d="M170,447.482c0,.05-.132.089-.3.093s-.308-.036-.3-.083.139-.089.3-.093S169.992,447.436,170,447.482Z" transform="translate(-153.856 -357.109)"/><path class="b" d="M198.557,442.547v-2.83l-5.074-.036-.043,4.237.314.023c1.4.089,7.127.265,8.063-.026C202.864,443.589,198.557,442.547,198.557,442.547Z" transform="translate(-169.945 -351.945)"/><path class="c" d="M201.977,451.516c0,.046-1.9.086-4.24.086s-4.237-.04-4.237-.086,1.9-.086,4.237-.086S201.977,451.47,201.977,451.516Z" transform="translate(-169.985 -359.805)"/><path class="c" d="M209.139,449.016c-.04-.023,0-.172.1-.331s.242-.225.275-.192-.036.159-.136.295S209.182,449.039,209.139,449.016Z" transform="translate(-180.438 -357.835)"/><path class="c" d="M210.107,449.4c-.043,0-.023-.185.079-.361s.232-.281.268-.255-.026.175-.119.331S210.153,449.414,210.107,449.4Z" transform="translate(-181.081 -358.031)"/><path class="c" d="M195.152,449.623c-.02,0-.093-.06-.205-.185a3.275,3.275,0,0,0-.444-.444,1.168,1.168,0,0,0-.549-.242c-.152-.02-.255,0-.265-.02s.086-.089.268-.1a1.023,1.023,0,0,1,.662.225,1.81,1.81,0,0,1,.437.513C195.132,449.513,195.171,449.609,195.152,449.623Z" transform="translate(-170.111 -357.932)"/><path class="c" d="M208.229,448.446c.023.04-.063.139-.209.192s-.275.033-.281,0,.1-.1.222-.149S208.2,448.406,208.229,448.446Z" transform="translate(-179.511 -357.798)"/><path class="c" d="M207.776,447.482c0,.05-.132.089-.3.093s-.3-.036-.3-.083.136-.089.3-.093S207.776,447.436,207.776,447.482Z" transform="translate(-179.13 -357.109)"/><path class="i" d="M169.768,185.422c-.132-.136-.46-.07-.46-.07a1.694,1.694,0,0,0,0-.576c-.06-.185-.477-.149-.477-.149a1.922,1.922,0,0,1,0-.47.169.169,0,0,0-.1-.169,1.529,1.529,0,0,0-.622-.113c-.255-.182.778-1.629,1.162-2.092s.314-.824-.026-.824a9.7,9.7,0,0,0-1.811,1.857c-.371.467-1.354,1.764-1.387.728a2.64,2.64,0,0,0-.712-1.95c-.261-.132-.54.179-.4.467a3.7,3.7,0,0,1,.232,1.019,2.436,2.436,0,0,1-.036.834,10,10,0,0,1-.447,1.5h-.026s-7.223,6.928-7.746,7.421c-.467.444-9.854-.526-11.737-.725a12.607,12.607,0,0,0-1.933-.132c-.818.036-.963.152-1.778.162a40.258,40.258,0,0,0-6.137.54,5.088,5.088,0,0,0-3.992,3.462c-1.9,5.925-6.193,19.95-6.951,27.828a33.429,33.429,0,0,0-1.549,3.2c-.533,1.45-.4,1.5-.225,1.533.483.089,1.033-2.512,1.238-1.883s-1.043,3.1-.536,3.174c.662.093,1.188-2.648,1.251-2.867s.391-.149.331.056c-.1.291-1.026,3.38-.377,3.479.357.053.4-.6.4-.6s.662-2.956.963-2.9-.02,1.8-.172,2.387.06.877.371.735a9.786,9.786,0,0,0,.857-2.446c.139-.576.487-2.171.953-1.248a2.679,2.679,0,0,0,1.466,1.473.331.331,0,0,0,.162-.593,3.75,3.75,0,0,1-.639-.827,2.439,2.439,0,0,1-.331-.775,8.4,8.4,0,0,1-.232-1.675l-.053-.331c.741-3.671,2.876-14.445,5.958-21.327l1.264,2.6.549,1.926-3.37,8.318,14.372-.189-2.145-8.255,2.605-8.606h0c2.817.063,10.049.169,11.254-.377,1.516-.662,9.358-10.566,9.358-10.566h0a18.1,18.1,0,0,0,1.466-1.271S170.056,185.72,169.768,185.422Z" transform="translate(-122.46 -178.863)"/><path class="b" d="M142.345,230.124c.417-1.423,2.559-8.461,2.559-8.461s1.053,5.736.775,6.428a12.246,12.246,0,0,1-.9,1.708c-2.43,3.7-2.112,5.548-2.112,5.548l14.68-.447a37.825,37.825,0,0,0-1.433-7.587c-.252-.761.586-3.254.586-3.254s1.655-1.685,1.6-2.552a14.033,14.033,0,0,0-.288-2.317l8.937.331-.281-6.057-12.836-1.284c-.447,1.261-4.488.642-4.488.642-4.363.146-4.634.947-6.448,2.357s-4.816,13.512-4.816,13.512Z" transform="translate(-132.769 -199.749)"/><path class="c" d="M167.033,261a3.087,3.087,0,0,1-.771.04c-.48,0-1.139-.033-1.864-.106s-1.38-.175-1.847-.268a3.183,3.183,0,0,1-.751-.192,4.142,4.142,0,0,1,.771.073c.47.06,1.122.142,1.844.215s1.377.122,1.85.156A4.084,4.084,0,0,1,167.033,261Z" transform="translate(-148.778 -232.055)"/><path class="c" d="M169.15,258.29a3.4,3.4,0,0,1-.8.275,14.718,14.718,0,0,1-4.048.48,3.342,3.342,0,0,1-.841-.079,5.647,5.647,0,0,1,.841-.043c.52-.017,1.235-.053,2.022-.146s1.49-.225,1.986-.331A5.484,5.484,0,0,1,169.15,258.29Z" transform="translate(-149.889 -230.596)"/><path class="c" d="M193.095,241.47a3.446,3.446,0,0,1-.1.748c-.086.46-.218,1.089-.387,1.778s-.331,1.324-.477,1.754a3.308,3.308,0,0,1-.258.712,3.369,3.369,0,0,1,.139-.741c.126-.516.268-1.112.427-1.764s.311-1.248.437-1.764A3.159,3.159,0,0,1,193.095,241.47Z" transform="translate(-168.895 -219.344)"/><path class="c" d="M142.809,261.371a15.394,15.394,0,0,1-2.261-.526,15.709,15.709,0,0,1-2.218-.7,15.913,15.913,0,0,1,2.261.526A15.529,15.529,0,0,1,142.809,261.371Z" transform="translate(-133.077 -231.84)"/><path class="c" d="M190.309,219.82a1.113,1.113,0,0,1-.377,0,3.922,3.922,0,0,1-1.01-.242,4.147,4.147,0,0,1-2.4-2.353,4.277,4.277,0,0,1-.295-1.864,2.9,2.9,0,0,1,.454-1.476,1.532,1.532,0,0,1,.837-.619,1.013,1.013,0,0,1,.281-.036h.1a1.073,1.073,0,0,0-.361.089,1.506,1.506,0,0,0-.758.619,3.778,3.778,0,0,0-.1,3.211,4.045,4.045,0,0,0,1.023,1.5,4.347,4.347,0,0,0,1.255.808A6.377,6.377,0,0,0,190.309,219.82Z" transform="translate(-165.116 -200.451)"/><path class="c" d="M221.7,221.67a27.582,27.582,0,0,1-.079-3.052,27.3,27.3,0,0,1,.093-3.049,27.5,27.5,0,0,1,.079,3.049A26.483,26.483,0,0,1,221.7,221.67Z" transform="translate(-188.787 -202.017)"/><path class="i" d="M175.225,189.865c.036-.738.113-1.572.113-1.572a2.211,2.211,0,0,0,1.936-2.089c.109-1.887,0-6.24,0-6.24l-3.31-1.695-3.674,2.89.566,9.434,3.37.215A.973.973,0,0,0,175.225,189.865Z" transform="translate(-154.458 -177.063)"/><path class="j" d="M184.666,195.555a.153.153,0,0,1-.03.079.245.245,0,0,1-.209.093c-.212,0-.417-.245-.49-.53a.864.864,0,0,1,0-.42.364.364,0,0,1,.2-.285.182.182,0,0,1,.139,0,.169.169,0,0,1,.076.076.093.093,0,0,1,0,.089.1.1,0,0,0-.033-.066.119.119,0,0,0-.156-.033.281.281,0,0,0-.136.235.848.848,0,0,0,0,.374c.066.258.245.467.4.487a.229.229,0,0,0,.175-.05C184.646,195.578,184.659,195.551,184.666,195.555Z" transform="translate(-163.571 -187.907)"/><path class="d" d="M160.917,176.507a2.667,2.667,0,0,0-2.019-1.536,6.361,6.361,0,0,0-3.916-.063c-1.251.46-2.754,1.268-2.754,2.648-.738-.06-1.162.586-1.453,1.387a5.2,5.2,0,0,0-.331,1.523h0c-.093,1.807-.6,4.3-1.771,5.627-.662.738-1.579,1.248-1.956,2.168-.331.8-.159,1.744-.467,2.552a8.977,8.977,0,0,1-1.324,1.837,4.925,4.925,0,0,0-.314,4.763,6.031,6.031,0,0,0,3.6,3.111,8.431,8.431,0,0,0,4.75.046,7.944,7.944,0,0,0,3.184-1.579A5.316,5.316,0,0,0,158,195.933a10.938,10.938,0,0,0-.424-4.068c-.88-4.247-.629-4.469.483-8.411.026-.07.04-.142.06-.212s.03-.1.043-.156h0a2.5,2.5,0,0,0,.05-.473.91.91,0,0,1-.957-.205.993.993,0,0,1-.225-.993,1.443,1.443,0,0,1,.854-.8c.367-.152.761-.232,1.122-.4a3.749,3.749,0,0,0,1.655-1.91A2.622,2.622,0,0,0,160.917,176.507Z" transform="translate(-136.966 -174.625)"/><path class="k" d="M185.451,198a1.619,1.619,0,0,1,.172.331c.1.209.232.5.377.844l.026.063h-.07l-.331.03c-.228,0-.42.043-.645.04a.119.119,0,0,1-.086-.076.149.149,0,0,1,0-.093,1.324,1.324,0,0,1,.03-.132l.06-.235a2.239,2.239,0,0,1,.139-.457,2.234,2.234,0,0,1-.07.473l-.046.235c-.017.079-.046.2,0,.192.165,0,.4-.036.619-.05l.331-.03-.043.073c-.142-.331-.261-.642-.331-.857A1.291,1.291,0,0,1,185.451,198Z" transform="translate(-164.224 -190.263)"/><path class="d" d="M150.918,281.267l14.68-.447,6.388,24.938-1.175,28.606h-7.762l.95-28-5.677-17.361.874,46.467-7.845.116-.824-43.676a48.218,48.218,0,0,1-.285-5.157Z" transform="translate(-141.024 -245.669)"/><path class="l" d="M170.946,304.654a2.938,2.938,0,0,1-.718-.043c-.444-.053-1.049-.146-1.715-.278s-1.261-.285-1.691-.407a2.732,2.732,0,0,1-.662-.238c0-.05,1.079.209,2.4.477S170.953,304.6,170.946,304.654Z" transform="translate(-151.695 -260.963)"/><path class="l" d="M196.335,437.666c0,.046-1.758.086-3.926.086s-3.929-.04-3.929-.086,1.758-.086,3.929-.086S196.335,437.616,196.335,437.666Z" transform="translate(-166.627 -350.54)"/><path class="l" d="M161.743,442.106c0,.05-1.708.086-3.813.086s-3.81-.036-3.81-.086,1.708-.086,3.81-.086S161.743,442.06,161.743,442.106Z" transform="translate(-143.64 -353.51)"/><path class="l" d="M172.561,350.255c-.046,0-.252-10.152-.46-22.674s-.331-22.681-.288-22.681.255,10.149.46,22.677S172.61,350.255,172.561,350.255Z" transform="translate(-155.471 -261.778)"/><path class="l" d="M198.363,333.7a.843.843,0,0,1,0-.136v-.4c0-.357.026-.871.046-1.523.046-1.324.113-3.247.2-5.6.179-4.74.43-11.274.705-18.487v-.172c-1.738-6.951-3.31-13.26-4.452-17.825l-1.324-5.4c-.152-.632-.268-1.125-.351-1.47-.04-.162-.066-.288-.089-.384a.573.573,0,0,1-.023-.132.733.733,0,0,1,.04.129c.026.093.06.218.106.377.089.331.218.834.384,1.463.331,1.278.8,3.118,1.38,5.385,1.152,4.561,2.741,10.854,4.5,17.815v.218c-.295,7.213-.563,13.743-.758,18.483-.1,2.36-.189,4.27-.248,5.6-.033.662-.06,1.165-.076,1.523,0,.169-.02.3-.023.4a.632.632,0,0,1-.013.136Z" transform="translate(-169.698 -246.572)"/><path class="l" d="M194.285,356.5a8.873,8.873,0,0,1-1.715.381c-.715.122-1.324.209-1.6.222v-.066c.089.026.136.043.136.056s-.056,0-.149,0h-.2l.2-.06c.258-.076.867-.2,1.582-.331a8.94,8.94,0,0,1,1.744-.2Z" transform="translate(-168.152 -296.298)"/><path class="l" d="M194.765,358.823a8.539,8.539,0,0,1-1.546-.07,8.73,8.73,0,0,1-1.539-.169A9.8,9.8,0,0,1,194.765,358.823Z" transform="translate(-168.768 -297.671)"/><path class="m" d="M152.16,281.793a2.012,2.012,0,0,0,1.45.771,6.532,6.532,0,0,0,1.778-.033A92.357,92.357,0,0,0,166.9,280.82c-4.8.268-9.877.179-14.68.447l-.05.41" transform="translate(-142.329 -245.669)"/><g class="n" transform="translate(14.779 42.894)"><path d="M167.11,304.21l2.708,10.506-.189-10.063Z" transform="translate(-167.11 -304.21)"/></g></g></g></svg>