<svg xmlns="http://www.w3.org/2000/svg" width="121.311" height="124.781" viewBox="0 0 121.311 124.781"><defs><style>.a{fill:#f6e8df;}.b{fill:#fff;}.c{fill:#455a64;}.d{fill:#feae96;}.e{fill:#263238;}.f{fill:#3e3b6f;}.g{fill:#e0e0e0;}.h{fill:#fe979c;}.i{fill:#ffbe9d;}.j{fill:#eb996e;}.k{fill:#fafafa;}.l{opacity:0.2;}</style></defs><g transform="translate(-39.94 -36.74)"><g transform="translate(39.94 42.909)"><path class="a" d="M154.594,73.9c8.577,17.067,5.856,38.612-4.85,54.417S121.228,154.374,102.5,158.1c-13.368,2.662-27.75,2.118-39.967-3.93s-21.82-18.215-22.551-31.828c-.278-5.14.813-10.6,4.244-14.438,5.492-6.122,14.832-6.347,23.047-6.092s17.564.059,23.068-6.045c4.232-4.693,4.853-11.5,7.083-17.408a32.723,32.723,0,0,1,23.444-20.111,30.949,30.949,0,0,1,4.436-.591,31.443,31.443,0,0,1,28.584,15.083Z" transform="translate(-39.94 -57.601)"/></g><g transform="translate(122.282 66.471)"><rect class="b" width="24.443" height="16.476" transform="translate(0.091 2.403) rotate(-5.42)"/><path class="c" d="M344.34,153.77s-.015-.106-.038-.3-.053-.5-.092-.869c-.08-.769-.192-1.884-.337-3.3-.281-2.854-.686-6.941-1.183-11.916l.1.08L318.46,139.8c-.024.024.192-.234.1-.121h0v.266l.027.272.053.547c.033.361.068.725.1,1.085q.1,1.082.2,2.147.2,2.135.4,4.194c.257,2.745.506,5.385.742,7.885l-.115-.095,17.517-1.609,5.028-.45,1.34-.115.349-.027h.121l-.109.015-.334.038-1.316.136-4.989.5L320.03,156.18h-.1v-.1c-.24-2.5-.494-5.137-.757-7.882q-.2-2.07-.4-4.194-.1-1.065-.2-2.147c-.033-.361-.068-.722-.1-1.085l-.05-.547-.027-.272v-.266h0c-.092.109.124-.154.106-.127l24.331-2.286h.092v.092c.452,5,.828,9.112,1.088,11.981.124,1.414.222,2.523.3,3.289.033.367.056.651.071.855A.557.557,0,0,1,344.34,153.77Z" transform="translate(-318.363 -137.27)"/><path class="c" d="M343,137.6a1.478,1.478,0,0,1-.189.243l-.571.668-2.147,2.437L332.9,149l-.065.071-.08-.053-.648-.411-9.526-6.11-2.872-1.875-.775-.518a1.479,1.479,0,0,1-.26-.2,1.931,1.931,0,0,1,.3.157l.8.482,2.91,1.813,9.561,6.054.648.414-.145.018,7.252-8,2.2-2.39q.379-.393.591-.639A1.634,1.634,0,0,1,343,137.6Z" transform="translate(-318.579 -137.502)"/></g><g transform="translate(50.977 87.983)"><path class="d" d="M78.26,250.89s2.07-1.428,4.732,3.567a64.665,64.665,0,0,1,3.682,7.885s.7,1.047,1.414.343S89.758,260,91,260.336c1.286.343,1.733,1.774,1.526,3.862s-.491,6.725-.515,7.142.222,1.011.784.609,3.774-4.108,5.442-2.478.13,7.394-.024,8.024-.03.887.272,1.05,1.266-1.2,2.221-2.215,2.245-2.029,3.129-1.005,1.236,5.323-2.733,12.374l-2.07,3.15-3.75-.133c-8.056-.8-11.374-3.549-11.7-4.862s1.236-1.774,2.62-1.982,3.037-.216,3.088-.55-.095-.591-.7-.828-6.211-2.28-6.586-4.581,4.5-2.8,5.152-3.034.3-.778-.047-.994-4.3-2.647-6.146-3.682-2.747-2.218-2.292-3.466,2.608-.858,3.593-1.038.532-1.352.532-1.352A66.7,66.7,0,0,1,78.44,256.8c-2.573-5.042-.136-5.939-.136-5.939" transform="translate(-77.26 -238.666)"/><path class="e" d="M88.71,266.46a.677.677,0,0,1,.056.089l.142.266.541,1.032,1.973,3.8c1.683,3.209,4,7.633,6.557,12.519s4.88,9.319,6.506,12.54c.813,1.609,1.479,2.913,1.931,3.824.222.45.393.8.518,1.044l.13.275a.382.382,0,0,1,.038.095l-.053-.089-.142-.266c-.127-.243-.3-.592-.541-1.032l-1.973-3.8c-1.665-3.209-3.987-7.633-6.56-12.519s-4.877-9.319-6.506-12.54c-.813-1.609-1.479-2.913-1.931-3.824l-.518-1.044-.13-.275C88.722,266.493,88.71,266.46,88.71,266.46Z" transform="translate(-85.324 -249.764)"/><path class="e" d="M115.84,292.81a7.69,7.69,0,0,1-.2.991c-.142.648-.325,1.479-.523,2.366s-.393,1.774-.55,2.366c-.08.3-.148.547-.2.713a1.011,1.011,0,0,1-.1.254,9.064,9.064,0,0,1,.2-.991c.139-.648.313-1.479.506-2.387s.405-1.774.568-2.366c.083-.3.151-.547.2-.713a1.1,1.1,0,0,1,.095-.234Z" transform="translate(-103.325 -268.321)"/><path class="e" d="M94.806,310.848c0,.038-1.739-.393-3.862-.961s-3.845-1.062-3.824-1.1,1.739.393,3.862.949S94.815,310.809,94.806,310.848Z" transform="translate(-84.204 -279.569)"/><path class="e" d="M113.056,343.847a1.1,1.1,0,0,1-.275.041c-.177.021-.435.038-.751.059-.639.035-1.52.065-2.5.044s-1.854-.083-2.49-.145c-.316-.03-.574-.062-.751-.086a.97.97,0,0,1-.272-.056,8.608,8.608,0,0,1,1.032.038c.636.038,1.514.083,2.484.1s1.851,0,2.487,0a7.5,7.5,0,0,1,1.032,0Z" transform="translate(-97.515 -304.163)"/><path class="e" d="M132.754,324.71a6.169,6.169,0,0,1-.414.858c-.275.523-.66,1.239-1.094,2.026s-.834,1.5-1.13,2.005a6.721,6.721,0,0,1-.506.81,5.918,5.918,0,0,1,.414-.861c.272-.523.66-1.239,1.094-2.026s.834-1.494,1.13-2.005A5.849,5.849,0,0,1,132.754,324.71Z" transform="translate(-114.128 -290.787)"/><path class="e" d="M148.391,347.92a1.38,1.38,0,0,1-.139.3q-.169.325-.417.79c-.361.665-.867,1.576-1.431,2.579s-1.085,1.908-1.479,2.558l-.458.769a1.542,1.542,0,0,1-.186.272,1.493,1.493,0,0,1,.136-.3c.115-.213.254-.476.42-.79.358-.662.864-1.576,1.431-2.579s1.085-1.908,1.479-2.558l.461-.766A1.26,1.26,0,0,1,148.391,347.92Z" transform="translate(-124.459 -307.133)"/><path class="e" d="M123.233,370.782a1.823,1.823,0,0,1-.352.033c-.225,0-.553.021-.958.027-.81,0-1.928,0-3.162-.056s-2.348-.154-3.153-.242c-.4-.044-.728-.086-.952-.118a1.561,1.561,0,0,1-.346-.065,1.77,1.77,0,0,1,.352,0l.955.071c.807.062,1.919.142,3.15.2s2.348.083,3.156.1l.958.018a1.415,1.415,0,0,1,.352.035Z" transform="translate(-103.353 -322.93)"/><path class="d" d="M330.5,246.656a13.013,13.013,0,0,1-6.243-1.52l-.033-.024c-4.167-3.806-5.634-10.109-4.238-18.23.035-.207.065-.417.095-.627a5.214,5.214,0,0,1,.787-2.481,2.37,2.37,0,0,1,3.011-.787,3.463,3.463,0,0,1,1.183,1.834c.062.166.124.331.189.491a6.21,6.21,0,0,0,2.141,2.662,2.379,2.379,0,0,0,2.038.482c.92-.346,1.183-1.55,1.319-2.558l.766-5.891a9.9,9.9,0,0,1,.766-3.129,3.41,3.41,0,0,1,2.493-2,2.339,2.339,0,0,1,1.774.515,1.825,1.825,0,0,1,.707,1.289,3.313,3.313,0,0,1-.077.825c-.03.177-.059.343-.071.512a.977.977,0,0,0,.426.988c.278.124.645.021,1.088-.3a13.625,13.625,0,0,0,3.031-3.41l.207-.3a18.081,18.081,0,0,1,2.727-3.318,5.968,5.968,0,0,1,4.315-1.665,3.644,3.644,0,0,1,3.36,2.957c.154,1.3-.52,2.641-2.07,4.117a23.911,23.911,0,0,1-5.619,4.01,1.857,1.857,0,0,0-.887.7.932.932,0,0,0,.083.887,1.875,1.875,0,0,0,.772.7,5.838,5.838,0,0,0,1.559.432c.3.05.591.1.864.177a2.636,2.636,0,0,1,1.987,1.624c.352,1.39-1.183,2.5-1.842,2.916a20.685,20.685,0,0,1-6.554,2.629l-.3.062a5.915,5.915,0,0,0-2.041.683,1.838,1.838,0,0,0-.887,1.973,1.916,1.916,0,0,0,1.925,1.032,6.8,6.8,0,0,0,1.591-.331c.275-.08.559-.163.846-.228,1.511-.337,3.519-.024,4.347,1.479a3.443,3.443,0,0,1-.038,3.132,7.986,7.986,0,0,1-2.008,2.428,20.765,20.765,0,0,1-9.659,4.9A19.739,19.739,0,0,1,330.5,246.656Zm-6.089-1.774c2.9,1.514,5.939,1.848,9.851,1.082a20.486,20.486,0,0,0,9.52-4.835,7.689,7.689,0,0,0,1.937-2.333,3.15,3.15,0,0,0,.047-2.86c-.757-1.357-2.617-1.638-4.025-1.322-.278.062-.556.142-.828.222a7.134,7.134,0,0,1-1.659.343,2.193,2.193,0,0,1-2.221-1.23,2.082,2.082,0,0,1,1-2.319,6.1,6.1,0,0,1,2.141-.725l.3-.062a20.439,20.439,0,0,0,6.462-2.591c.615-.382,2.014-1.393,1.709-2.594-.234-.92-1.319-1.289-1.774-1.408-.272-.071-.562-.124-.84-.174a6.066,6.066,0,0,1-1.638-.455,2.118,2.118,0,0,1-.887-.822,1.2,1.2,0,0,1-.095-1.162,2.1,2.1,0,0,1,1.014-.831,23.707,23.707,0,0,0,5.563-3.96c1.479-1.408,2.118-2.662,1.973-3.868a3.353,3.353,0,0,0-3.088-2.682,5.742,5.742,0,0,0-4.093,1.591,17.992,17.992,0,0,0-2.679,3.253l-.21.3a14.554,14.554,0,0,1-3.1,3.481,1.4,1.4,0,0,1-1.384.337,1.241,1.241,0,0,1-.591-1.278,4.594,4.594,0,0,1,.077-.541,3.16,3.16,0,0,0,.071-.754,1.532,1.532,0,0,0-.591-1.079,2.046,2.046,0,0,0-1.538-.452,3.185,3.185,0,0,0-2.268,1.84,9.906,9.906,0,0,0-.733,3.037l-.769,5.891c-.142,1.091-.441,2.393-1.508,2.8a2.646,2.646,0,0,1-2.313-.518,6.507,6.507,0,0,1-2.242-2.78c-.068-.163-.13-.334-.2-.5a3.209,3.209,0,0,0-1.059-1.689,2.067,2.067,0,0,0-2.614.716,5.065,5.065,0,0,0-.73,2.348c-.03.21-.059.423-.095.633C319.335,232.517,319.258,240.171,324.413,244.882Z" transform="translate(-247.842 -210.007)"/><path class="d" d="M337.22,250.623c.577-2.478.432-3.253,1.822-6.308a94.438,94.438,0,0,1,5.184-9.635l1.479-2.455c.491-.8.979-1.6,1.5-2.366a47.722,47.722,0,0,1,3.268-4.14c1.1-1.269,2.2-2.434,3.23-3.516s2.02-2.07,2.957-2.931a38.015,38.015,0,0,1,4.714-3.744c.591-.4,1.059-.692,1.378-.887l.364-.219.127-.071a1.43,1.43,0,0,1-.118.086l-.358.234c-.313.2-.775.506-1.357.911a40.039,40.039,0,0,0-4.673,3.777c-.929.867-1.9,1.857-2.934,2.94s-2.118,2.254-3.215,3.522a47.788,47.788,0,0,0-3.253,4.14c-.521.748-1,1.541-1.479,2.348l-1.479,2.455a97,97,0,0,0-5.187,9.612c-1.393,3.055-1.254,3.806-1.845,6.276" transform="translate(-260.338 -213.065)"/><path class="d" d="M371.029,238.727a2.366,2.366,0,0,1-.036-.461c-.015-.3-.021-.733-.024-1.266,0-1.071.038-2.546.089-4.173s.071-3.1.041-4.167c0-.535-.027-.967-.041-1.263a2.592,2.592,0,0,1,0-.467,3.131,3.131,0,0,1,.065.461c.035.3.068.73.095,1.263.056,1.068.056,2.546,0,4.176s-.1,3.076-.139,4.17c0,.512-.021.938-.027,1.266A3.233,3.233,0,0,1,371.029,238.727Z" transform="translate(-284.107 -221.925)"/><path class="d" d="M385.23,264.012a.508.508,0,0,1-.145,0l-.411-.021c-.358-.018-.872-.047-1.508-.065-1.275-.041-3.037-.035-4.98.056s-3.7.257-4.966.414c-.636.071-1.145.145-1.5.2l-.408.056a.475.475,0,0,1-.142,0,.573.573,0,0,1,.136-.038l.405-.086c.349-.068.858-.16,1.493-.248,1.263-.183,3.023-.364,4.971-.461a47.158,47.158,0,0,1,4.992,0c.639.03,1.156.077,1.511.115l.408.053A.491.491,0,0,1,385.23,264.012Z" transform="translate(-284.248 -247.854)"/><path class="e" d="M333.19,271.479a.853.853,0,0,1-.068-.18c-.041-.136-.1-.3-.163-.521-.142-.455-.331-1.118-.553-1.94-.447-1.641-.994-3.927-1.564-6.459s-1.1-4.821-1.517-6.468c-.207-.81-.379-1.479-.5-1.952l-.136-.529a.732.732,0,0,1-.035-.189.854.854,0,0,1,.068.18c.041.136.1.311.163.523.142.452.331,1.115.553,1.937.447,1.641.994,3.93,1.564,6.462s1.1,4.818,1.517,6.468c.207.807.379,1.479.5,1.949l.136.529A.942.942,0,0,1,333.19,271.479Z" transform="translate(-254.303 -240.454)"/><path class="d" d="M363.026,303.77a.764.764,0,0,1-.192.047l-.553.1-2.038.352c-1.721.3-4.09.736-6.71,1.23s-5,.917-6.722,1.183c-.864.133-1.562.237-2.047.3l-.559.068a.1.1,0,1,1,0-.03l.553-.1,2.038-.349c1.721-.3,4.093-.739,6.71-1.233s5-.914,6.722-1.183c.864-.136,1.562-.24,2.047-.3l.559-.068A1.2,1.2,0,0,1,363.026,303.77Z" transform="translate(-265.12 -276.04)"/></g><g transform="translate(69.828 39.183)"><path class="f" d="M191.492,167.338l-41.508-.2A9.041,9.041,0,0,1,141,158.063L141.438,54a9.044,9.044,0,0,1,9.07-9l41.508.192a9.044,9.044,0,0,1,9,9.079l-.441,104.064A9.047,9.047,0,0,1,191.492,167.338Z" transform="translate(-141 -45)"/><path class="a" d="M198.478,57.357l-8.047-.035a2,2,0,0,0-1.964,2.032v1.461a2,2,0,0,1-1.961,2.035l-15.689-.074a2,2,0,0,1-1.946-2.052V59.265a2,2,0,0,0-1.946-2.052h-2.83l-7.045-.033a6.335,6.335,0,0,0-6.361,6.308l-.429,101.573a6.332,6.332,0,0,0,6.3,6.359l41.425.192a6.332,6.332,0,0,0,6.361-6.305l.432-101.576a6.335,6.335,0,0,0-6.3-6.373Z" transform="translate(-147.521 -53.578)"/><path class="c" d="M232.311,414.427a.855.855,0,1,1-.852-.887.87.87,0,0,1,.852.887Z" transform="translate(-204.103 -304.546)"/><path class="c" d="M241.261,414.467a.855.855,0,1,1-.852-.887.867.867,0,0,1,.852.887Z" transform="translate(-210.406 -304.574)"/><path class="c" d="M250.221,414.507a.855.855,0,1,1-.852-.887A.87.87,0,0,1,250.221,414.507Z" transform="translate(-216.716 -304.603)"/><path class="g" d="M324.112,224.981a.337.337,0,1,1,.306-.336A.337.337,0,0,1,324.112,224.981Z" transform="translate(-269.743 -171.28)"/><path class="g" d="M323.669,232.589A.334.334,0,1,1,324,232.3.313.313,0,0,1,323.669,232.589Z" transform="translate(-269.462 -176.646)"/><path class="g" d="M322.5,240.08a.34.34,0,1,1,.358-.274A.34.34,0,0,1,322.5,240.08Z" transform="translate(-268.659 -181.919)"/><path class="g" d="M320.663,247.448a.34.34,0,1,1,.38-.24A.34.34,0,0,1,320.663,247.448Z" transform="translate(-267.385 -187.116)"/><path class="g" d="M317.958,254.555a.34.34,0,1,1,.4-.2.316.316,0,0,1-.4.2Z" transform="translate(-265.443 -192.108)"/><path class="g" d="M315.062,261.571a.34.34,0,1,1,.381-.179A.34.34,0,0,1,315.062,261.571Z" transform="translate(-263.499 -197.098)"/><path class="g" d="M311.216,268.143a.322.322,0,0,1-.068-.444.316.316,0,0,1,.426-.127.34.34,0,0,1-.358.571Z" transform="translate(-260.786 -201.721)"/><path class="g" d="M306.862,274.377a.34.34,0,1,1,.443-.088.34.34,0,0,1-.443.088Z" transform="translate(-257.736 -206.128)"/><path class="g" d="M301.973,280.192a.34.34,0,1,1,.445-.05A.34.34,0,0,1,301.973,280.192Z" transform="translate(-254.311 -210.243)"/><path class="g" d="M296.557,285.531a.34.34,0,0,1,.5-.453.339.339,0,0,1-.5.453Z" transform="translate(-250.51 -214.02)"/><path class="g" d="M290.562,290.187a.34.34,0,1,1,.447.03.314.314,0,0,1-.447-.03Z" transform="translate(-246.26 -217.265)"/><path class="g" d="M284.4,294.627a.339.339,0,0,1,.571-.355.34.34,0,0,1-.571.355Z" transform="translate(-241.967 -220.46)"/><path class="g" d="M277.789,298.408a.34.34,0,1,1,.412.085A.34.34,0,0,1,277.789,298.408Z" transform="translate(-237.328 -223.17)"/><path class="g" d="M270.809,301.387a.34.34,0,0,1,.627-.245.34.34,0,0,1-.627.245Z" transform="translate(-232.409 -225.263)"/><path class="g" d="M263.61,303.813a.34.34,0,1,1,.407.191A.34.34,0,0,1,263.61,303.813Z" transform="translate(-227.346 -226.993)"/><path class="g" d="M256.22,305.584a.34.34,0,1,1,.384.218.34.34,0,0,1-.384-.218Z" transform="translate(-222.144 -228.271)"/><path class="g" d="M248.69,306.627a.34.34,0,1,1,.364.262A.34.34,0,0,1,248.69,306.627Z" transform="translate(-216.841 -229.021)"/><path class="g" d="M241.1,307.017a.34.34,0,1,1,.337.3A.34.34,0,0,1,241.1,307.017Z" transform="translate(-211.496 -229.319)"/><path class="g" d="M233.51,306.709a.34.34,0,0,1,.671.053.34.34,0,0,1-.671-.053Z" transform="translate(-206.151 -229.121)"/><path class="g" d="M226,305.721a.319.319,0,0,1,.382-.231.325.325,0,0,1,.3.346.34.34,0,0,1-.665-.115Z" transform="translate(-200.862 -228.446)"/><path class="g" d="M218.593,304.053a.34.34,0,1,1,.247.374A.34.34,0,0,1,218.593,304.053Z" transform="translate(-195.643 -227.293)"/><path class="g" d="M211.369,301.715a.34.34,0,1,1,.214.4A.34.34,0,0,1,211.369,301.715Z" transform="translate(-190.552 -225.664)"/><path class="g" d="M204.388,298.711A.34.34,0,0,1,205,299a.34.34,0,0,1-.609-.3Z" transform="translate(-185.626 -223.565)"/><path class="g" d="M197.69,295a.342.342,0,1,1,.124.467.342.342,0,0,1-.124-.467Z" transform="translate(-180.892 -220.947)"/><path class="g" d="M191.426,290.9a.34.34,0,1,1,.1.434A.34.34,0,0,1,191.426,290.9Z" transform="translate(-176.485 -218.101)"/><path class="g" d="M185.5,286.114a.34.34,0,0,1,.509.444.313.313,0,0,1-.447,0A.319.319,0,0,1,185.5,286.114Z" transform="translate(-172.295 -214.745)"/><path class="g" d="M180.075,280.849a.34.34,0,1,1,.02.446A.34.34,0,0,1,180.075,280.849Z" transform="translate(-168.467 -211.053)"/><path class="g" d="M175.123,275.079a.34.34,0,1,1-.022.447A.34.34,0,0,1,175.123,275.079Z" transform="translate(-164.964 -207.001)"/><path class="g" d="M170.731,268.925a.34.34,0,1,1-.057.44.34.34,0,0,1,.057-.44Z" transform="translate(-161.859 -202.679)"/><path class="g" d="M166.91,262.352a.34.34,0,1,1-.09.427A.34.34,0,0,1,166.91,262.352Z" transform="translate(-159.156 -198.06)"/><path class="g" d="M163.665,255.464a.34.34,0,1,1-.139.423A.34.34,0,0,1,163.665,255.464Z" transform="translate(-156.845 -193.212)"/><path class="g" d="M161.082,248.319a.34.34,0,1,1-.176.409.34.34,0,0,1,.176-.409Z" transform="translate(-155.007 -188.185)"/><path class="g" d="M159.184,241a.34.34,0,1,1-.209.389A.34.34,0,0,1,159.184,241Z" transform="translate(-153.653 -183.033)"/><path class="g" d="M157.931,233.453a.338.338,0,0,1,.083.665.34.34,0,0,1-.083-.668Z" transform="translate(-152.747 -177.717)"/><path class="g" d="M157.368,225.88a.34.34,0,1,1-.286.346A.34.34,0,0,1,157.368,225.88Z" transform="translate(-152.326 -172.386)"/><path class="g" d="M157.485,218.29a.34.34,0,1,1-.321.319A.34.34,0,0,1,157.485,218.29Z" transform="translate(-152.383 -167.04)"/><path class="g" d="M158.317,210.75a.34.34,0,1,1-.338.289.34.34,0,0,1,.338-.289Z" transform="translate(-152.955 -161.73)"/><path class="g" d="M159.779,203.3a.34.34,0,1,1-.377.255A.34.34,0,0,1,159.779,203.3Z" transform="translate(-153.953 -156.483)"/><path class="g" d="M161.974,196.045a.34.34,0,1,1-.387.222A.34.34,0,0,1,161.974,196.045Z" transform="translate(-155.485 -151.369)"/><path class="g" d="M164.77,188.958a.337.337,0,1,1-.415.181.337.337,0,0,1,.415-.181Z" transform="translate(-157.427 -146.37)"/><path class="g" d="M168.214,182.237a.34.34,0,1,1-.438.143.34.34,0,0,1,.438-.143Z" transform="translate(-159.826 -141.628)"/><path class="g" d="M172.305,175.843a.34.34,0,1,1-.432.109A.34.34,0,0,1,172.305,175.843Z" transform="translate(-162.699 -137.121)"/><path class="g" d="M176.909,169.876a.344.344,0,0,1-.441.518.34.34,0,0,1,.432-.518Z" transform="translate(-165.916 -132.908)"/><path class="g" d="M182.073,164.234a.34.34,0,1,1-.444.03.313.313,0,0,1,.444-.03Z" transform="translate(-169.542 -128.916)"/><path class="g" d="M187.718,159.17a.34.34,0,1,1-.447,0,.316.316,0,0,1,.447,0Z" transform="translate(-173.505 -125.34)"/><path class="g" d="M193.758,154.622a.34.34,0,1,1-.445-.053A.34.34,0,0,1,193.758,154.622Z" transform="translate(-177.738 -122.123)"/><path class="g" d="M200.186,150.656a.34.34,0,0,1-.591.328.311.311,0,0,1,.151-.42.316.316,0,0,1,.441.092Z" transform="translate(-182.243 -119.307)"/><path class="g" d="M206.993,147.268a.34.34,0,1,1-.427-.131A.34.34,0,0,1,206.993,147.268Z" transform="translate(-187.033 -116.91)"/><path class="g" d="M214.061,144.543a.341.341,0,0,1-.639.219.34.34,0,0,1,.639-.219Z" transform="translate(-191.998 -114.968)"/><path class="g" d="M221.35,142.5a.34.34,0,1,1-.4-.2A.34.34,0,0,1,221.35,142.5Z" transform="translate(-197.126 -113.513)"/><path class="g" d="M228.8,141.021a.34.34,0,0,1-.668.1.316.316,0,0,1,.3-.337.311.311,0,0,1,.373.24Z" transform="translate(-202.36 -112.449)"/><path class="g" d="M236.395,140.34a.34.34,0,1,1-.352-.275.316.316,0,0,1,.352.275Z" transform="translate(-207.708 -111.948)"/><path class="g" d="M243.944,140.265a.34.34,0,1,1-.327-.309A.34.34,0,0,1,243.944,140.265Z" transform="translate(-213.024 -111.873)"/><path class="g" d="M251.518,140.9a.34.34,0,1,1-.3-.334A.34.34,0,0,1,251.518,140.9Z" transform="translate(-218.362 -112.299)"/><path class="g" d="M259.006,142.2a.34.34,0,1,1-.266-.365A.34.34,0,0,1,259.006,142.2Z" transform="translate(-223.641 -113.193)"/><path class="g" d="M266.339,144.19a.34.34,0,1,1-.231-.391.34.34,0,0,1,.231.391Z" transform="translate(-228.812 -114.569)"/><path class="g" d="M273.495,146.876a.34.34,0,1,1-.2-.4A.34.34,0,0,1,273.495,146.876Z" transform="translate(-233.865 -116.446)"/><path class="g" d="M280.289,150.14a.319.319,0,0,1-.435.1.3.3,0,1,1,.278-.518.314.314,0,0,1,.157.417Z" transform="translate(-238.657 -118.714)"/><path class="g" d="M286.809,154.076a.34.34,0,0,1-.562-.373.34.34,0,0,1,.562.373Z" transform="translate(-243.264 -121.473)"/><path class="g" d="M292.964,158.559a.34.34,0,1,1-.081-.438A.34.34,0,0,1,292.964,158.559Z" transform="translate(-247.618 -124.614)"/><path class="g" d="M298.691,163.576a.34.34,0,1,1-.04-.444.34.34,0,0,1,.04.444Z" transform="translate(-251.668 -128.128)"/><path class="g" d="M303.864,169.069a.337.337,0,1,1,.008-.452.337.337,0,0,1-.008.452Z" transform="translate(-255.324 -131.977)"/><path class="g" d="M308.6,175.048a.34.34,0,1,1,.035-.439A.34.34,0,0,1,308.6,175.048Z" transform="translate(-258.684 -136.178)"/><path class="g" d="M312.627,181.311a.342.342,0,1,1,.124-.467A.342.342,0,0,1,312.627,181.311Z" transform="translate(-261.508 -140.549)"/><path class="g" d="M316.252,188.094a.34.34,0,1,1,.118-.433A.34.34,0,0,1,316.252,188.094Z" transform="translate(-264.106 -145.335)"/><path class="g" d="M319.17,195.095a.34.34,0,0,1-.231-.633.34.34,0,0,1,.231.633Z" transform="translate(-266.184 -150.254)"/><path class="g" d="M321.451,202.336a.34.34,0,1,1,.195-.4A.34.34,0,0,1,321.451,202.336Z" transform="translate(-267.817 -155.345)"/><path class="g" d="M323.018,209.744a.34.34,0,1,1,.237-.384A.34.34,0,0,1,323.018,209.744Z" transform="translate(-268.935 -160.553)"/><path class="g" d="M323.936,217.281a.34.34,0,1,1,.266-.357A.34.34,0,0,1,323.936,217.281Z" transform="translate(-269.61 -165.857)"/><path class="e" d="M321.187,90.371a.382.382,0,1,1-.38-.348A.382.382,0,0,1,321.187,90.371Z" transform="translate(-267.361 -76.708)"/><path class="e" d="M321.183,94.921a.379.379,0,1,1-.111-.271A.382.382,0,0,1,321.183,94.921Z" transform="translate(-267.357 -79.889)"/><path class="e" d="M321.187,99.621a.382.382,0,1,1-.38-.348A.382.382,0,0,1,321.187,99.621Z" transform="translate(-267.361 -83.222)"/><path class="e" d="M165.249,88.91a.69.69,0,0,1,.136.106l.393.337,1.458,1.286h.018v2.342H165.7v-1.42l.077.074h-.967l.077-.074v1.42H163.22V90.64h.021l1.458-1.286.393-.337a.688.688,0,0,1,.136-.106,1.319,1.319,0,0,1-.136.139l-.382.367-1.375,1.3.018-.041c0,.657,0,1.414.015,2.248l-.071-.071h1.52l-.074.074V91.5h1.118V92.92l-.074-.074H167.2l-.071.071c0-.834,0-1.594.015-2.248l.018.041-1.4-1.307-.384-.367A1.454,1.454,0,0,1,165.249,88.91Z" transform="translate(-156.648 -75.924)"/><path class="h" d="M218.21,337.16v4.055h-.94v-1.662h-1.84v1.662h-.94V337.16h.94v1.6h1.84v-1.6Z" transform="translate(-192.756 -250.755)"/><path class="h" d="M232.557,342.046h-2.366a.828.828,0,0,0,.887.627,1.05,1.05,0,0,0,.781-.3l.482.521a1.632,1.632,0,0,1-1.286.506,1.615,1.615,0,0,1-1.774-1.606,1.585,1.585,0,0,1,1.662-1.6,1.541,1.541,0,0,1,1.621,1.615A1.069,1.069,0,0,1,232.557,342.046Zm-2.366-.526h1.535a.778.778,0,0,0-1.535,0Z" transform="translate(-203.171 -252.891)"/><path class="h" d="M242.46,336.34h.887v4.3h-.887Z" transform="translate(-212.454 -250.178)"/><path class="h" d="M248.35,336.34h.9v4.3h-.9Z" transform="translate(-216.602 -250.178)"/><path class="h" d="M253.46,341.783a1.714,1.714,0,1,1,1.715,1.606A1.6,1.6,0,0,1,253.46,341.783Zm2.508,0a.8.8,0,1,0-.793.864.784.784,0,0,0,.793-.864Z" transform="translate(-220.201 -252.882)"/><path class="h" d="M266.62,340.736a.556.556,0,1,1,.556.556.556.556,0,0,1-.556-.556Zm.018-3.576h1.077l-.18,2.647h-.719Z" transform="translate(-229.469 -250.755)"/><path class="e" d="M210.55,371.912c0,.035-9.408.065-21,.065s-21.013-.03-21.013-.065,9.4-.062,21.013-.062S210.55,371.894,210.55,371.912Z" transform="translate(-160.395 -275.186)"/><path class="e" d="M210.55,386.112c0,.035-9.408.062-21,.062s-21.013-.027-21.013-.062,9.4-.062,21.013-.062S210.55,386.077,210.55,386.112Z" transform="translate(-160.395 -285.186)"/><path class="e" d="M226.947,400.3c0,.035-4.084.065-9.124.065s-9.124-.03-9.124-.065,4.084-.062,9.124-.062S226.947,400.27,226.947,400.3Z" transform="translate(-188.678 -295.18)"/></g><g transform="translate(67.04 59.128)"><circle class="b" cx="22.719" cy="22.719" r="22.719" transform="translate(0 33.059) rotate(-45)"/><path class="e" d="M253.769,138.854c-.059-1.674.97-3.389.364-4.948-.452-1.159-1.692-1.857-2.189-3a6.147,6.147,0,0,1,.018-3.549,3.925,3.925,0,0,0-.591-3.416c-.689-.707-1.792-.864-2.517-1.535a3.536,3.536,0,0,1-.958-2.443c-.056-.9.044-1.8-.071-2.688a5.726,5.726,0,0,0-3.067-4.318,4.362,4.362,0,0,0-5.238.825l5.522,21A20.668,20.668,0,0,1,253.769,138.854Z" transform="translate(-207.595 -112.441)"/><path class="e" d="M272.884,145.454a.459.459,0,0,1,.172.089.766.766,0,0,1,.281.476.908.908,0,0,1-.234.831,1.145,1.145,0,0,1-1.118.228,1.479,1.479,0,0,1-.955-1.006,2.73,2.73,0,0,1,.024-1.612c.148-.553.405-1.094.591-1.674a3.673,3.673,0,0,0,.133-1.848,3.845,3.845,0,0,0-2.091-2.795c-.5-.243-1.02-.4-1.479-.627a2.869,2.869,0,0,1-1.621-1.911,2.827,2.827,0,0,1-.095-.869,2.551,2.551,0,0,1,.086-.547.889.889,0,0,1,.062-.189,3.552,3.552,0,0,0-.1.73,2.851,2.851,0,0,0,1.709,2.688c.45.213.964.37,1.479.615a3.936,3.936,0,0,1,2.162,2.875,3.8,3.8,0,0,1-.136,1.908c-.192.591-.45,1.13-.591,1.668a2.662,2.662,0,0,0-.036,1.55,1.4,1.4,0,0,0,.887.955,1.076,1.076,0,0,0,1.044-.2.864.864,0,0,0,.234-.772.769.769,0,0,0-.248-.464C272.946,145.484,272.881,145.463,272.884,145.454Z" transform="translate(-226.589 -127.624)"/><path class="e" d="M202.64,123.53c-.793,2.153-1.147,3.9-1.925,5.619a6.8,6.8,0,0,0-.967,3.008c.038.728.379,1.426.358,2.156-.033,1.286-1.124,2.254-2.094,3.1s-1.981,1.964-1.774,3.232c.086.553.4,1.056.45,1.615a2.784,2.784,0,0,1-.713,1.869,14.352,14.352,0,0,0-1.263,1.612l-.151,1.026,12.126-3.845" transform="translate(-175.932 -120.251)"/><path class="i" d="M301.982,166.819a43.686,43.686,0,0,1-.095-5.143c-.148-1.97-.325-1.964-.553-1.911-.612.136.13,3.469-.447,2.836s-.435-4.173-1.068-4c-.825.219.018,3.7.065,4s-.382.37-.411.1c-.044-.393-.591-4.492-1.414-4.282-.45.115-.148.887-.148.887s.807,3.806.42,3.892-.943-2.135-1.074-2.9-.541-1-.828-.677a12.57,12.57,0,0,0,.3,3.306c.142.748.592,2.8-.452,1.943a3.54,3.54,0,0,0-2.508-1c-.349.13-.278.668.124.778a5.11,5.11,0,0,1,1.183.651,4.733,4.733,0,0,1,.787.754,6.466,6.466,0,0,1,1.455,2.635l4.652-1.884" transform="translate(-245.64 -144.811)"/><path class="j" d="M309.907,182.675c0,.021-.127.05-.3.174a1.251,1.251,0,0,0-.509.7l-.044.166-.086-.148a2.049,2.049,0,0,0-.47-.541,2.348,2.348,0,0,0-1.281-.515c-.361-.033-.591.033-.591,0a1.109,1.109,0,0,1,.591-.112,2.221,2.221,0,0,1,1.369.5,2.044,2.044,0,0,1,.5.591l-.127.018a1.228,1.228,0,0,1,.591-.739A.606.606,0,0,1,309.907,182.675Z" transform="translate(-254.858 -161.707)"/><path class="h" d="M214.126,185.53l-5.152,2.032,1.5,11.534-1.085-1.656-2.038-2.662c-5.462-9.4-12.457-7.917-12.457-7.917l-9.207-.716s-5.829.1-9.189,3.916c-.864.979-5.862,10.975-7.926,15.139a22.7,22.7,0,0,0,5.832,8.506l5.252-10.854.887,3.806a11.534,11.534,0,0,1,.024,6.329l-1.414,4.066a22.746,22.746,0,0,0,21.885-.4l-1.343-3.188a11.7,11.7,0,0,1-.677-6.826l.985-4.918,5.5,5.235a15.484,15.484,0,0,0,1.869,1.774h0a8.429,8.429,0,0,0,4.537,2.07C220.63,210.458,214.126,185.53,214.126,185.53Z" transform="translate(-157.628 -163.914)"/><path class="k" d="M214.85,219.34a.337.337,0,1,1-.1-.241A.34.34,0,0,1,214.85,219.34Z" transform="translate(-189.742 -187.486)"/><path class="k" d="M206.624,231.247a.337.337,0,1,1-.337-.337.337.337,0,0,1,.337.337Z" transform="translate(-183.953 -195.874)"/><path class="k" d="M232.614,219.34a.337.337,0,1,1-.1-.24A.337.337,0,0,1,232.614,219.34Z" transform="translate(-202.257 -187.486)"/><path class="k" d="M206.3,195.49a.337.337,0,1,1-.1-.24A.337.337,0,0,1,206.3,195.49Z" transform="translate(-183.728 -170.689)"/><path class="k" d="M240.834,232.93a.337.337,0,1,1-.1-.24A.337.337,0,0,1,240.834,232.93Z" transform="translate(-208.046 -197.057)"/><path class="k" d="M254.91,228.12a.34.34,0,1,1-.34-.34A.34.34,0,0,1,254.91,228.12Z" transform="translate(-217.955 -193.669)"/><path class="k" d="M277.634,216.737a.337.337,0,1,1-.337-.337A.337.337,0,0,1,277.634,216.737Z" transform="translate(-233.963 -185.655)"/><path class="k" d="M298.694,235.477a.337.337,0,1,1-.337-.337A.337.337,0,0,1,298.694,235.477Z" transform="translate(-248.794 -198.853)"/><path class="k" d="M309.8,241.857a.337.337,0,1,1-.1-.239A.34.34,0,0,1,309.8,241.857Z" transform="translate(-256.611 -203.346)"/><path class="k" d="M312.974,257.967a.337.337,0,1,1-.337-.337A.337.337,0,0,1,312.974,257.967Z" transform="translate(-258.851 -214.691)"/><path class="k" d="M323.814,246.51a.337.337,0,1,1-.1-.24A.337.337,0,0,1,323.814,246.51Z" transform="translate(-266.485 -206.621)"/><path class="k" d="M316.5,231.247a.34.34,0,1,1-.34-.337.34.34,0,0,1,.34.337Z" transform="translate(-261.33 -195.874)"/><path class="k" d="M323.814,218.2a.337.337,0,1,1-.337-.337A.337.337,0,0,1,323.814,218.2Z" transform="translate(-266.485 -186.683)"/><path class="k" d="M314.69,206.787a.34.34,0,1,1-.337-.337A.34.34,0,0,1,314.69,206.787Z" transform="translate(-260.055 -178.647)"/><path class="k" d="M321.114,194.416a.34.34,0,1,1-.339-.308A.34.34,0,0,1,321.114,194.416Z" transform="translate(-264.58 -169.955)"/><path class="k" d="M296.09,252.19a.337.337,0,1,1-.1-.241.34.34,0,0,1,.1.241Z" transform="translate(-246.956 -210.621)"/><path class="k" d="M283.394,234.077a.337.337,0,1,1-.337-.337.337.337,0,0,1,.337.337Z" transform="translate(-238.019 -197.867)"/><path class="k" d="M298.694,222.007a.337.337,0,1,1-.337-.337A.337.337,0,0,1,298.694,222.007Z" transform="translate(-248.794 -189.366)"/><circle class="k" cx="0.337" cy="0.337" r="0.337" transform="translate(26.261 27.128)"/><path class="k" d="M190.264,230.1a.337.337,0,1,1-.1-.24.337.337,0,0,1,.1.24Z" transform="translate(-172.432 -195.064)"/><path class="k" d="M189.11,260.2a.34.34,0,1,1-.337-.337A.34.34,0,0,1,189.11,260.2Z" transform="translate(-171.615 -216.262)"/><circle class="k" cx="0.337" cy="0.337" r="0.337" transform="translate(13.923 45.532)"/><path class="k" d="M217.144,235.477a.337.337,0,1,1-.337-.337A.337.337,0,0,1,217.144,235.477Z" transform="translate(-191.362 -198.853)"/><path class="k" d="M233,243a.34.34,0,1,1-.337-.337A.34.34,0,0,1,233,243Z" transform="translate(-202.525 -204.149)"/><path class="k" d="M261.394,244.137a.337.337,0,1,1-.337-.337A.337.337,0,0,1,261.394,244.137Z" transform="translate(-222.525 -204.951)"/><path class="k" d="M268.784,229.026a.34.34,0,1,1-.339-.308A.34.34,0,0,1,268.784,229.026Z" transform="translate(-227.726 -194.329)"/><path class="k" d="M263.254,282.307a.337.337,0,1,1-.337-.337A.337.337,0,0,1,263.254,282.307Z" transform="translate(-223.835 -231.833)"/><path class="k" d="M263.254,294.2a.337.337,0,1,1-.337-.337A.337.337,0,0,1,263.254,294.2Z" transform="translate(-223.835 -240.206)"/><path class="k" d="M267.644,262.507a.337.337,0,1,1-.337-.337A.337.337,0,0,1,267.644,262.507Z" transform="translate(-226.927 -217.889)"/><path class="k" d="M248.074,253.307a.337.337,0,1,1-.337-.337A.337.337,0,0,1,248.074,253.307Z" transform="translate(-213.145 -211.409)"/><path class="k" d="M252.634,267.877a.337.337,0,1,1-.337-.337A.337.337,0,0,1,252.634,267.877Z" transform="translate(-216.356 -221.67)"/><path class="k" d="M230.724,261.367a.337.337,0,1,1-.337-.337A.337.337,0,0,1,230.724,261.367Z" transform="translate(-200.926 -217.086)"/><path class="k" d="M225.914,288.247a.337.337,0,1,1-.337-.337A.337.337,0,0,1,225.914,288.247Z" transform="translate(-197.538 -236.016)"/><path class="k" d="M236.654,277.5a.337.337,0,1,1-.337-.337A.337.337,0,0,1,236.654,277.5Z" transform="translate(-205.102 -228.445)"/><path class="k" d="M213.874,291.927a.337.337,0,1,1-.337-.337A.337.337,0,0,1,213.874,291.927Z" transform="translate(-189.059 -238.608)"/><circle class="k" cx="0.337" cy="0.337" r="0.337" transform="translate(31.215 54.907)"/><path class="k" d="M249.1,289.387a.337.337,0,1,1-.337-.337.337.337,0,0,1,.337.337Z" transform="translate(-213.87 -236.819)"/><path class="k" d="M215.99,253.307a.34.34,0,1,1-.337-.337.34.34,0,0,1,.337.337Z" transform="translate(-190.545 -211.409)"/><circle class="k" cx="0.337" cy="0.337" r="0.337" transform="translate(24.936 48.046)"/><path class="k" d="M177.26,247.657a.34.34,0,1,1-.337-.337A.34.34,0,0,1,177.26,247.657Z" transform="translate(-163.269 -207.43)"/><path class="k" d="M194.074,246.51a.337.337,0,1,1-.1-.24A.337.337,0,0,1,194.074,246.51Z" transform="translate(-175.115 -206.621)"/><path class="k" d="M199.594,210.925a.34.34,0,1,1-.159-.321.34.34,0,0,1,.159.321Z" transform="translate(-178.999 -181.537)"/><g class="l" transform="translate(22.026 36.961)"><path d="M206.05,239.418s.887-2.029.849-2,.852,7.731.458,9.931A49.381,49.381,0,0,0,206.05,239.418Z" transform="translate(-206.05 -237.419)"/></g><g class="l" transform="translate(34.001 24.097)"><path d="M248.747,197.022l-2.2,2.387a6.738,6.738,0,0,0,1.272,3.641,1.766,1.766,0,0,0,1.183.858,1.973,1.973,0,0,0,.775-.157l5.873-2.029c-.163-.263-.325-.526-.485-.79a3,3,0,0,0,4.421-1.369,5.572,5.572,0,0,1-3.41-5.028l-1.088-.615Z" transform="translate(-246.54 -193.92)"/></g><g class="l" transform="translate(28.093 43.177)"><path d="M238.342,258.452c.059.166-2.576,1.278-5.82,2.662s-5.879,2.484-5.956,2.325,2.452-1.523,5.714-2.9A28.636,28.636,0,0,1,238.342,258.452Z" transform="translate(-226.564 -258.436)"/></g><path class="e" d="M310.753,235.88c-.033,0-.26-1.05-.509-2.366a23.989,23.989,0,0,1-.384-2.384,22.4,22.4,0,0,1,.509,2.366,23.009,23.009,0,0,1,.384,2.384Z" transform="translate(-257.133 -196.029)"/><path class="e" d="M312.3,235.612a2.99,2.99,0,0,1-.4-.55,12.71,12.71,0,0,1-.769-1.44,12.055,12.055,0,0,1-.568-1.532,2.958,2.958,0,0,1-.151-.66,4.385,4.385,0,0,1,.234.633c.139.393.34.929.591,1.505s.529,1.085.73,1.449A4.824,4.824,0,0,1,312.3,235.612Z" transform="translate(-257.527 -196.24)"/><path class="e" d="M201.564,208.048v-.115a2.87,2.87,0,0,1,.015-.328c.018-.3.038-.713.068-1.21a15.334,15.334,0,0,0-.228-3.96,7.181,7.181,0,0,0-1.8-3.478,6.614,6.614,0,0,0-1.3-1,.509.509,0,0,1,.106.044,2.347,2.347,0,0,1,.3.151,4.732,4.732,0,0,1,.967.736,7.045,7.045,0,0,1,1.848,3.516,14.42,14.42,0,0,1,.2,3.993c-.035.512-.077.923-.109,1.207-.015.13-.027.24-.038.328A.4.4,0,0,1,201.564,208.048Z" transform="translate(-178.58 -172.668)"/><path class="e" d="M274.082,218.12a4.181,4.181,0,0,1,.13.754c.056.47.112,1.124.13,1.848a16.626,16.626,0,0,1-.044,1.851,3.729,3.729,0,0,1-.095.76,5.929,5.929,0,0,1,0-.766c.015-.47.024-1.124,0-1.842s-.059-1.372-.095-1.842A5.53,5.53,0,0,1,274.082,218.12Z" transform="translate(-231.934 -186.866)"/><path class="e" d="M230.05,141.316c.186-2.348,2.9-.92,2.594-3.253a98.529,98.529,0,0,1-.76-15.873" transform="translate(-200.926 -119.307)"/><path class="i" d="M230.957,139.974,232,123.93c-2.662-3.673-6.285-4.436-10.676-3.144,0,0-1.863,7.754-1.641,11.46.231,3.886,3.114,4.661,3.114,4.661s-.1,1.307-.243,2.91c-.745.121-1.529.281-2.345.482-.313.08,5.805,8.923,5.805,8.923l7.639-8.281A10.647,10.647,0,0,0,230.957,139.974Z" transform="translate(-193.614 -117.906)"/><path class="e" d="M225.293,141.775a.491.491,0,0,0,.423.541.473.473,0,0,0,.55-.393.491.491,0,0,0-.423-.541.47.47,0,0,0-.55.393Z" transform="translate(-197.573 -132.817)"/><path class="e" d="M223.3,140.254c.053.068.452-.169.982-.115s.887.355.952.3-.021-.148-.177-.3a1.34,1.34,0,0,0-.754-.316,1.281,1.281,0,0,0-.79.172C223.335,140.112,223.27,140.222,223.3,140.254Z" transform="translate(-196.166 -131.72)"/><path class="e" d="M243.534,143.886a.5.5,0,0,0,.426.541.47.47,0,0,0,.55-.393.5.5,0,0,0-.426-.541.473.473,0,0,0-.55.393Z" transform="translate(-210.42 -134.304)"/><path class="e" d="M241.566,142.394c.053.071.452-.169.982-.115s.887.355.952.3-.021-.145-.177-.3a1.384,1.384,0,0,0-.745-.293,1.325,1.325,0,0,0-.79.172C241.6,142.252,241.54,142.361,241.566,142.394Z" transform="translate(-209.032 -133.244)"/><path class="e" d="M230.471,145.266a3.375,3.375,0,0,0-.84-.24c-.136-.027-.26-.068-.272-.163a.68.68,0,0,1,.127-.39l.5-.988a17.147,17.147,0,0,0,1.159-2.6,17.424,17.424,0,0,0-1.366,2.5l-.482.994a.784.784,0,0,0-.121.523.346.346,0,0,0,.2.219.817.817,0,0,0,.225.053A3.466,3.466,0,0,0,230.471,145.266Z" transform="translate(-200.306 -132.475)"/><path class="j" d="M230.147,174.634a9.759,9.759,0,0,0,5.247-.864s-1.5,2.508-5.294,1.774Z" transform="translate(-200.961 -155.632)"/><path class="j" d="M233.754,159.369a.958.958,0,0,1,.887-.269.887.887,0,0,1,.568.382.55.55,0,0,1-.021.633.639.639,0,0,1-.71.106,2,2,0,0,1-.636-.467.609.609,0,0,1-.133-.172.183.183,0,0,1,.018-.2" transform="translate(-203.489 -145.286)"/><path class="e" d="M234.372,157.439c-.086-.015-.145.559-.674.917s-1.136.237-1.147.316c0,.035.124.124.382.157a1.443,1.443,0,0,0,.955-.231,1.245,1.245,0,0,0,.526-.775C234.458,157.587,234.41,157.439,234.372,157.439Z" transform="translate(-202.687 -144.131)"/><path class="e" d="M225.423,137.976c-.033.08-.4,0-.84,0s-.807.065-.837,0,.331-.3.84-.3S225.455,137.9,225.423,137.976Z" transform="translate(-196.485 -130.216)"/><path class="e" d="M243.154,138.2c-.018,0-.018-.041,0-.092v.08a3.549,3.549,0,0,0-.825-.2c-.5-.053-.887.109-.94.033s.062-.127.234-.21a1.411,1.411,0,0,1,.733-.124,1.233,1.233,0,0,1,.867.414l.035.059-.024.018C243.2,138.2,243.169,138.213,243.154,138.2Z" transform="translate(-208.902 -130.213)"/><path class="j" d="M247.628,150.424c-.041,0-.083-.053-.092-.127s.018-.142.059-.148.083.053.092.13S247.672,150.421,247.628,150.424Z" transform="translate(-213.239 -138.997)"/><path class="j" d="M243.629,150.368c-.041,0-.068-.071-.038-.145s.1-.1.13-.071a.112.112,0,0,1,0,.13C243.7,150.329,243.673,150.371,243.629,150.368Z" transform="translate(-210.453 -138.991)"/><path class="j" d="M245.74,152.222a.095.095,0,1,1,.08-.089.083.083,0,0,1-.08.089Z" transform="translate(-211.898 -140.325)"/><path class="j" d="M222.465,149.454c-.041,0-.068-.071-.059-.148s.05-.133.092-.127.068.071.059.145S222.506,149.457,222.465,149.454Z" transform="translate(-195.541 -138.314)"/><path class="j" d="M226.561,149.655c-.041,0-.074-.056-.071-.115s.041-.112.083-.109.074.053.071.115S226.6,149.657,226.561,149.655Z" transform="translate(-198.418 -138.491)"/><path class="j" d="M224.537,150.842c-.041,0-.077-.059-.077-.136s.033-.136.074-.136.077.059.077.136S224.578,150.842,224.537,150.842Z" transform="translate(-196.989 -139.294)"/><path class="e" d="M222,113.753a8.541,8.541,0,0,1-2.171,4.977,8.175,8.175,0,0,1-4.457,2.883c.494-1.564.591-2.821,1-4.14a7.514,7.514,0,0,1,1.979-3.519,4.622,4.622,0,0,1,4.767-.775" transform="translate(-190.587 -112.718)"/><path class="c" d="M216.69,125.772a5.028,5.028,0,0,0,1.156-.145,3.981,3.981,0,0,0,1.127-.559,8.935,8.935,0,0,0,1.183-1.006,13.454,13.454,0,0,0,1.733-2.239l.455-.73a1.6,1.6,0,0,1,.174-.263,1.331,1.331,0,0,1-.133.3c-.095.18-.237.441-.423.754a11.748,11.748,0,0,1-1.718,2.28,8.63,8.63,0,0,1-1.21,1.014,3.845,3.845,0,0,1-1.168.544,3,3,0,0,1-.864.1A1.1,1.1,0,0,1,216.69,125.772Z" transform="translate(-191.517 -118.349)"/><path class="c" d="M210.047,138.19a.888.888,0,0,1-.109.142,4.169,4.169,0,0,0-.3.42,5.09,5.09,0,0,0-.736,1.73,4.876,4.876,0,0,0-.118,1.3,8.723,8.723,0,0,0,.222,1.479,9.067,9.067,0,0,1,.251,1.68,3.815,3.815,0,0,1-.373,1.774,3.9,3.9,0,0,1-1.133,1.4c-.47.355-.985.592-1.384.932a1.644,1.644,0,0,0-.677,1.242,2.594,2.594,0,0,0,.408,1.21,5.934,5.934,0,0,1,.5.97,2.005,2.005,0,0,1,.127.816,1.05,1.05,0,0,1-.157.5.662.662,0,0,1-.115.142,1.452,1.452,0,0,1,.095-.154,1.094,1.094,0,0,0,.13-.488,2.031,2.031,0,0,0-.145-.79,6.468,6.468,0,0,0-.509-.949,2.662,2.662,0,0,1-.435-1.254,1.4,1.4,0,0,1,.192-.728,2.271,2.271,0,0,1,.515-.591c.414-.355.929-.591,1.384-.94a3.768,3.768,0,0,0,1.091-1.363,3.712,3.712,0,0,0,.367-1.706,9.3,9.3,0,0,0-.24-1.638,8.494,8.494,0,0,1-.213-1.505,4.866,4.866,0,0,1,.136-1.316,5.054,5.054,0,0,1,.781-1.742,4.016,4.016,0,0,1,.325-.405A.782.782,0,0,1,210.047,138.19Z" transform="translate(-183.7 -130.575)"/><path class="e" d="M206,135.336a1.189,1.189,0,0,0,.541.568,1.449,1.449,0,0,0,.908.13,1.426,1.426,0,0,0,.967-.695,2.224,2.224,0,0,0,.278-1.443,3.782,3.782,0,0,0-.662-1.582c-.334-.515-.8-.976-1.162-1.556a2.7,2.7,0,0,1-.384-.97,2.4,2.4,0,0,1,.056-1.074,2.62,2.62,0,0,1,1.334-1.591,3.486,3.486,0,0,1,.955-.3c.316-.065.627-.13.923-.213a6.917,6.917,0,0,0,2.771-1.662A8.174,8.174,0,0,0,214,123.329a4.614,4.614,0,0,0,.37-.719,1.806,1.806,0,0,1-.059.2,3.438,3.438,0,0,1-.269.541,7.923,7.923,0,0,1-1.479,1.665,13.165,13.165,0,0,1-1.2.952,5.072,5.072,0,0,1-1.6.751c-.3.089-.612.154-.926.222a3.286,3.286,0,0,0-.926.3,2.517,2.517,0,0,0-1.272,1.517,2.28,2.28,0,0,0-.053,1.017,2.579,2.579,0,0,0,.37.926c.352.562.813,1.032,1.153,1.556a3.859,3.859,0,0,1,.668,1.635,2.331,2.331,0,0,1-.3,1.5,1.479,1.479,0,0,1-1.976.562,1.124,1.124,0,0,1-.438-.417A.665.665,0,0,1,206,135.336Z" transform="translate(-183.989 -119.603)"/><path class="c" d="M268.741,153.267a5.323,5.323,0,0,0,.47-.745,3.769,3.769,0,0,0,.3-.976,3.6,3.6,0,0,0-.018-1.352,3.374,3.374,0,0,0-.686-1.479,8.909,8.909,0,0,0-1.39-1.292,6.364,6.364,0,0,1-1.479-1.529,2.843,2.843,0,0,1-.408-1.059,2.2,2.2,0,0,1,.151-1.159c.3-.736.819-1.316,1.1-1.981a1.831,1.831,0,0,0-.228-1.937,4.9,4.9,0,0,0-1.434-1.213,7.787,7.787,0,0,1-1.319-.979,3.356,3.356,0,0,1-.778-1.142,2.008,2.008,0,0,1-.13-1.032,2.073,2.073,0,0,1,.092-.373c.044-.1.077-.189.112-.254l.089-.148c.021-.033.03-.047.033-.047s0,.021-.021.056l-.077.151c-.033.065-.062.154-.1.254a2.151,2.151,0,0,0-.077.367,1.97,1.97,0,0,0,.145,1,3.276,3.276,0,0,0,.775,1.1,7.492,7.492,0,0,0,1.343.961,4.983,4.983,0,0,1,1.479,1.233,1.949,1.949,0,0,1,.245,2.052c-.3.689-.81,1.272-1.094,1.981a2.118,2.118,0,0,0-.145,1.094,2.793,2.793,0,0,0,.39,1.011,6.357,6.357,0,0,0,1.44,1.505,9.03,9.03,0,0,1,1.4,1.316,3.415,3.415,0,0,1,.692,1.52,3.67,3.67,0,0,1,0,1.381,3.77,3.77,0,0,1-.334.988,3.347,3.347,0,0,1-.358.55l-.112.13Z" transform="translate(-224.037 -128.026)"/><path class="e" d="M247.493,137.474a29.19,29.19,0,0,1-.535-4.25c0-1.621-1.479-3.777-.562-5.681a21.54,21.54,0,0,0-1.284-3.5c-.311-.7-1.44-2.836-1.727-3.549.189-1.316,1.136-1.218.952-2.532a5.625,5.625,0,0,0-2.3-4.013,6.412,6.412,0,0,0-2.836-.858,5.779,5.779,0,0,0-2.07.095,2.694,2.694,0,0,0-1.653,1.183l.349-.331a4.971,4.971,0,0,0,1.162,4.185,7.311,7.311,0,0,0,3.818,2.239,2.939,2.939,0,0,0,.322,1.417l-.036.05.086.047a3.082,3.082,0,0,0,.319.464,2.886,2.886,0,0,0,.559.5,2.153,2.153,0,0,1,0,1.908c-.367.683-1.1,1.183-1.251,1.931-.169.855.482,1.674.467,2.543a2.744,2.744,0,0,1-.432,1.3c-1.579,2.029-1.3,4.117-.408,6.524a4.682,4.682,0,0,1,.591,2.75c-.245.867-1.118,1.437-1.39,2.295-.382,1.183.5,2.384,1.319,3.327a27.958,27.958,0,0,1,5.462-1.8,9.993,9.993,0,0,1-.278-2.407,2.1,2.1,0,0,0,3.922.591A5.616,5.616,0,0,1,247.493,137.474Z" transform="translate(-204.75 -112.865)"/><path class="c" d="M245.631,124.179a.6.6,0,0,1-.086.086,3.05,3.05,0,0,1-.266.225,5.255,5.255,0,0,1-1.109.645,5.7,5.7,0,0,1-4.149.166,5.35,5.35,0,0,1-1.958-1.257A6.019,6.019,0,0,1,236.5,121.3c-.041-.148-.059-.263-.074-.34a.63.63,0,0,1-.018-.121,4.079,4.079,0,0,1,.136.447,6.907,6.907,0,0,0,.485,1.183,6,6,0,0,0,1.112,1.5,5.353,5.353,0,0,0,1.919,1.224,5.655,5.655,0,0,0,2.257.3,5.894,5.894,0,0,0,1.819-.429A7.231,7.231,0,0,0,245.631,124.179Z" transform="translate(-205.405 -118.356)"/><path class="c" d="M251.359,119.621a1.183,1.183,0,0,1-.278.086,4.847,4.847,0,0,1-.781.127,5.755,5.755,0,0,1-4.732-1.825,5.141,5.141,0,0,1-.494-.618,1.183,1.183,0,0,1-.145-.251c.021,0,.24.337.7.807a6.024,6.024,0,0,0,4.661,1.813C250.954,119.71,251.354,119.6,251.359,119.621Z" transform="translate(-211.405 -115.75)"/><path class="c" d="M262.576,128.46a2.431,2.431,0,0,1-2.106,1.065,6.157,6.157,0,0,0,1.136-.373A6.034,6.034,0,0,0,262.576,128.46Z" transform="translate(-222.349 -123.723)"/><path class="c" d="M260.914,160.785s-.024-.1-.077-.275a1.316,1.316,0,0,0-.432-.662c-.136-.112-.3-.213-.47-.358a1.592,1.592,0,0,1-.417-.577,2.8,2.8,0,0,1-.127-.376,1.863,1.863,0,0,1-.068-.417,1.411,1.411,0,0,1,.234-.887,1.951,1.951,0,0,1,.766-.654,1.479,1.479,0,0,0,.722-.722,1.289,1.289,0,0,0,.1-.529,1.665,1.665,0,0,0-.133-.55,7.768,7.768,0,0,0-.591-1.053,4.253,4.253,0,0,1-.627-2.546,4.327,4.327,0,0,1,1.077-2.594,2.069,2.069,0,0,0,.591-1.227,2.174,2.174,0,0,0-.491-1.233c-.263-.367-.591-.689-.819-1.065a2.014,2.014,0,0,1-.4-1.239,2.07,2.07,0,0,1,.538-1.115,3.782,3.782,0,0,0,.63-.943,2.227,2.227,0,0,0-.05-1.958,2.168,2.168,0,0,0-.591-.645c-.225-.172-.452-.313-.657-.461a2.155,2.155,0,0,1-.521-.482,1.975,1.975,0,0,1-.278-.526,1.419,1.419,0,0,1-.068-.81.664.664,0,0,1,.121-.26,1.479,1.479,0,0,0-.095.266,1.39,1.39,0,0,0,.089.79,1.877,1.877,0,0,0,.278.506,2.069,2.069,0,0,0,.515.458c.2.145.432.3.665.458a2.247,2.247,0,0,1,.627.662,2.322,2.322,0,0,1,.071,2.044,3.918,3.918,0,0,1-.642.97,1.979,1.979,0,0,0-.509,1.056,1.907,1.907,0,0,0,.382,1.162c.237.367.55.686.819,1.062a2.277,2.277,0,0,1,.518,1.307,1.478,1.478,0,0,1-.2.707,4.25,4.25,0,0,1-.42.591,4.215,4.215,0,0,0-1.053,2.523,4.161,4.161,0,0,0,.591,2.475,7.742,7.742,0,0,1,.591,1.074,1.68,1.68,0,0,1,.139.591,1.346,1.346,0,0,1-.115.574,1.556,1.556,0,0,1-.772.766,1.872,1.872,0,0,0-.736.615,1.328,1.328,0,0,0-.228.831,2.365,2.365,0,0,0,.18.769,1.478,1.478,0,0,0,.39.556c.157.145.325.248.461.367a1.307,1.307,0,0,1,.429.692,1.566,1.566,0,0,1,.041.207.234.234,0,0,1,.012.086Z" transform="translate(-221.122 -129.469)"/><path class="c" d="M246.852,121.041a.417.417,0,0,1-.071.1,3.247,3.247,0,0,1-.237.269,4.017,4.017,0,0,1-1.062.769,4.3,4.3,0,0,1-1.89.455,5.113,5.113,0,0,1-2.319-.541,3.49,3.49,0,0,1-.988-.754,3.756,3.756,0,0,1-.627-.973c-.3-.671-.482-1.307-.686-1.816a4.777,4.777,0,0,0-.592-1.145c-.183-.245-.313-.358-.3-.367a.464.464,0,0,1,.095.077,2.506,2.506,0,0,1,.245.26,4.374,4.374,0,0,1,.648,1.142c.216.509.405,1.142.71,1.8a3.682,3.682,0,0,0,.609.94,3.478,3.478,0,0,0,.958.728,5.116,5.116,0,0,0,2.259.535,4.3,4.3,0,0,0,2.919-1.145C246.734,121.169,246.84,121.033,246.852,121.041Z" transform="translate(-206.584 -115.68)"/></g><g transform="translate(43.22 36.74)"><path class="c" d="M152.3,308.795a33.842,33.842,0,0,1-4.56,0,33.842,33.842,0,0,1,4.56,0Z" transform="translate(-119.139 -228.276)"/><path class="c" d="M171.135,284.49a47.563,47.563,0,0,1,0,5.406,47.544,47.544,0,0,1,0-5.406Z" transform="translate(-135.554 -211.219)"/><path class="c" d="M180.06,308.2a33.855,33.855,0,0,1,4.56,0,33.842,33.842,0,0,1-4.56,0Z" transform="translate(-141.9 -227.86)"/><path class="c" d="M171.673,320.049a47.606,47.606,0,0,1,0-5.409,47.606,47.606,0,0,1,0,5.409Z" transform="translate(-135.932 -232.453)"/><path class="c" d="M180.445,317a6.137,6.137,0,0,1-.887-1.088,6.262,6.262,0,0,1-.748-1.183,6.541,6.541,0,0,1,.872,1.091A6.379,6.379,0,0,1,180.445,317Z" transform="translate(-141.02 -232.516)"/><path class="c" d="M179.641,294.61a5.59,5.59,0,0,1-.784,1.044,5.447,5.447,0,0,1-.887.94,5.526,5.526,0,0,1,.781-1.041A5.622,5.622,0,0,1,179.641,294.61Z" transform="translate(-140.428 -218.346)"/><path class="c" d="M162.13,297.989a4.274,4.274,0,0,1-.855-.725,4.213,4.213,0,0,1-.745-.834,4.078,4.078,0,0,1,.855.722A3.986,3.986,0,0,1,162.13,297.989Z" transform="translate(-128.146 -219.628)"/><path class="c" d="M161.609,314a5.1,5.1,0,0,1-.7,1.026,4.868,4.868,0,0,1-.825.932,5.352,5.352,0,0,1,.7-1.026A5.106,5.106,0,0,1,161.609,314Z" transform="translate(-127.829 -232.002)"/><path class="c" d="M433.929,175.427a4.788,4.788,0,0,1-1.709,0A4.788,4.788,0,0,1,433.929,175.427Z" transform="translate(-319.485 -134.357)"/><path class="c" d="M440.876,166.43a6.711,6.711,0,0,1,0,2.026,6.466,6.466,0,0,1,0-2.026Z" transform="translate(-325.518 -128.075)"/><path class="c" d="M444.35,175.207a4.789,4.789,0,0,1,1.709,0A4.788,4.788,0,0,1,444.35,175.207Z" transform="translate(-328.028 -134.202)"/><path class="c" d="M441.1,179.756a6.71,6.71,0,0,1,0-2.026A6.465,6.465,0,0,1,441.1,179.756Z" transform="translate(-325.683 -136.033)"/><path class="c" d="M444.54,178.605c-.033.024-.2-.145-.367-.382s-.275-.444-.24-.47.2.148.367.382A1.077,1.077,0,0,1,444.54,178.605Z" transform="translate(-327.73 -136.048)"/><path class="c" d="M444.167,170.212c.033.03-.083.216-.254.423s-.343.349-.376.322.083-.216.257-.423S444.134,170.186,444.167,170.212Z" transform="translate(-327.451 -130.736)"/><path class="c" d="M437.619,171.472c-.03.03-.186-.077-.352-.237s-.278-.316-.248-.349.189.077.355.237S437.649,171.439,437.619,171.472Z" transform="translate(-322.861 -131.209)"/><path class="c" d="M437.422,177.463c.035.027-.068.21-.225.414a1.061,1.061,0,0,1-.346.334c-.038,0,.068-.213.225-.414S437.389,177.436,437.422,177.463Z" transform="translate(-322.741 -135.843)"/><path class="c" d="M56.776,354.068a4.771,4.771,0,0,1-1.706,0,4.286,4.286,0,0,1,1.706,0Z" transform="translate(-53.875 -260.154)"/><path class="c" d="M63.727,345.11a6.71,6.71,0,0,1,0,2.026A6.71,6.71,0,0,1,63.727,345.11Z" transform="translate(-59.918 -253.911)"/><path class="c" d="M67.18,353.866a4.788,4.788,0,0,1,1.709,0,4.79,4.79,0,0,1-1.709,0Z" transform="translate(-62.404 -260.017)"/><path class="c" d="M63.927,358.436a6.71,6.71,0,0,1,0-2.026A6.71,6.71,0,0,1,63.927,358.436Z" transform="translate(-60.059 -261.869)"/><path class="c" d="M67.32,357.285c-.035.024-.2-.148-.367-.382s-.275-.444-.24-.47.2.145.367.381S67.356,357.259,67.32,357.285Z" transform="translate(-62.071 -261.884)"/><path class="c" d="M67,348.892c.033.03-.083.216-.257.423s-.34.349-.373.322.083-.216.257-.423S66.964,348.866,67,348.892Z" transform="translate(-61.827 -256.573)"/><path class="c" d="M60.449,350.154c-.03.03-.189-.077-.355-.237s-.275-.319-.245-.349.189.077.355.237S60.481,350.121,60.449,350.154Z" transform="translate(-57.237 -257.048)"/><path class="c" d="M60.247,356.143c.033.024-.068.21-.225.414s-.313.346-.349.319.068-.213.228-.414S60.215,356.116,60.247,356.143Z" transform="translate(-57.112 -261.679)"/><path class="c" d="M353.594,118.81l.089.216a1.541,1.541,0,0,0,.837.828l.234.095-.225.092a1.547,1.547,0,0,0-.843.846l-.062.157-.095-.2a1.517,1.517,0,0,0-.855-.775l-.2-.074.266-.13a1.523,1.523,0,0,0,.745-.787Z" transform="translate(-263.321 -94.538)"/><path class="c" d="M55.351,213l.086.2a1.437,1.437,0,0,0,.8.79l.225.092-.216.086a1.446,1.446,0,0,0-.8.8l-.062.151-.089-.189a1.479,1.479,0,0,0-.816-.736l-.192-.071.254-.124a1.455,1.455,0,0,0,.71-.751Z" transform="translate(-53.319 -160.872)"/><path class="c" d="M412.909,344.36l.121.3a2.1,2.1,0,0,0,1.145,1.133l.319.13-.3.124a2.106,2.106,0,0,0-1.156,1.168l-.086.216-.13-.269a2.07,2.07,0,0,0-1.168-1.059l-.278-.1.364-.177a2.094,2.094,0,0,0,1.02-1.077Z" transform="translate(-304.809 -253.383)"/><path class="c" d="M353.5,52.167a18.777,18.777,0,0,1-3.4,0,18.777,18.777,0,0,1,3.4,0Z" transform="translate(-261.652 -47.55)"/><path class="c" d="M367.465,36.74a9.521,9.521,0,0,1,.077,1.724,9.5,9.5,0,0,1-.077,1.721,9.832,9.832,0,0,1-.077-1.721,9.854,9.854,0,0,1,.077-1.724Z" transform="translate(-273.821 -36.74)"/><path class="c" d="M374.16,51.817a18.775,18.775,0,0,1,3.4,0,18.777,18.777,0,0,1-3.4,0Z" transform="translate(-278.596 -47.304)"/><path class="c" d="M367.863,59.385a9.5,9.5,0,0,1-.077-1.721,9.518,9.518,0,0,1,.077-1.724,9.854,9.854,0,0,1,.077,1.724A9.835,9.835,0,0,1,367.863,59.385Z" transform="translate(-274.1 -50.262)"/><path class="c" d="M374.467,57.446a2.871,2.871,0,0,1-.662-.671A3.018,3.018,0,0,1,373.26,56a5.682,5.682,0,0,1,1.207,1.446Z" transform="translate(-277.962 -50.304)"/><path class="c" d="M373.824,43.19a5.667,5.667,0,0,1-1.254,1.278,2.626,2.626,0,0,1,.571-.689A2.661,2.661,0,0,1,373.824,43.19Z" transform="translate(-277.476 -41.282)"/><path class="c" d="M360.807,45.332a2.008,2.008,0,0,1-.645-.438c-.328-.272-.574-.521-.547-.553a2.029,2.029,0,0,1,.645.435C360.588,45.048,360.834,45.3,360.807,45.332Z" transform="translate(-268.352 -42.091)"/><path class="c" d="M360.429,55.5a2.44,2.44,0,0,1-.512.677,2.54,2.54,0,0,1-.627.571,4.452,4.452,0,0,1,1.139-1.248Z" transform="translate(-268.124 -49.952)"/><path class="c" d="M54.425,130.265a9.233,9.233,0,0,1-1.7.077,9.233,9.233,0,0,1-1.7-.077,9.555,9.555,0,0,1,1.7-.077A9.555,9.555,0,0,1,54.425,130.265Z" transform="translate(-51.03 -102.545)"/><path class="c" d="M68.4,114.86a19.335,19.335,0,0,1,0,3.445,19.337,19.337,0,0,1,0-3.445Z" transform="translate(-63.199 -91.756)"/><path class="c" d="M75.09,129.893a9.233,9.233,0,0,1,1.7-.077,9.233,9.233,0,0,1,1.7.077,9.555,9.555,0,0,1-1.7.077A9.555,9.555,0,0,1,75.09,129.893Z" transform="translate(-67.974 -102.282)"/><path class="c" d="M68.8,137.505a19.337,19.337,0,0,1,0-3.445,19.335,19.335,0,0,1,0,3.445Z" transform="translate(-63.481 -105.278)"/><path class="c" d="M75.378,135.57a2.81,2.81,0,0,1-.674-.668,2.933,2.933,0,0,1-.544-.772,2.872,2.872,0,0,1,.662.671A3.019,3.019,0,0,1,75.378,135.57Z" transform="translate(-67.319 -105.327)"/><path class="c" d="M74.754,121.31a5.505,5.505,0,0,1-1.254,1.278,2.694,2.694,0,0,1,.574-.686A2.662,2.662,0,0,1,74.754,121.31Z" transform="translate(-66.855 -96.299)"/><path class="c" d="M61.74,123.454a2.005,2.005,0,0,1-.648-.438c-.328-.275-.574-.523-.547-.556a2.008,2.008,0,0,1,.645.438C61.521,123.173,61.767,123.421,61.74,123.454Z" transform="translate(-57.73 -97.109)"/><path class="c" d="M61.359,133.62a2.366,2.366,0,0,1-.512.677,2.484,2.484,0,0,1-.627.571,5.475,5.475,0,0,1,1.139-1.248Z" transform="translate(-57.502 -104.968)"/></g></g></svg>